<svg width="23" height="15" viewBox="0 0 23 15" fill="none" xmlns="http://www.w3.org/2000/svg">
<path d="M0.532168 6.69198C0.503538 6.77859 0.487319 6.86658 0.482788 6.95549C0.486991 5.47161 0.491193 3.98786 0.495396 2.50398C0.499926 2.41507 0.516146 2.32702 0.544775 2.24047C0.957869 0.994231 3.78005 0.279607 8.28561 0.279541C13.0119 0.279541 16.5682 0.87748 18.8543 2.05806C18.9755 2.12064 19.0917 2.18413 19.2024 2.24809C19.4823 2.40969 19.7292 2.5749 19.9467 2.74123C19.9425 4.22511 19.9383 5.70886 19.9341 7.19274C19.7165 7.02648 19.4697 6.8612 19.1898 6.6996C19.0791 6.63564 18.9629 6.57221 18.8417 6.50957C16.5556 5.32899 12.9994 4.73105 8.273 4.73105C3.76745 4.73105 0.945261 5.44568 0.532168 6.69198Z" fill="#E56353"/>
<path d="M11.3552 5.35064C11.3495 5.36719 11.3469 5.38367 11.3469 5.40009L11.3595 0.948578C11.3596 0.932227 11.3622 0.915745 11.3678 0.899132C11.4151 0.761172 11.6669 0.646916 11.9082 0.663463L11.8956 5.11497C11.6543 5.09843 11.4025 5.21268 11.3552 5.35064Z" fill="#D5D6DB"/>
<path d="M5.27703 5.26432C4.6479 5.28251 4.02356 5.36091 3.43823 5.49598C3.44263 4.0121 3.44683 2.52835 3.45104 1.04447C4.03637 0.909468 4.66064 0.831065 5.2897 0.812876C5.63818 0.802829 5.98692 0.833035 6.33337 0.820559C6.54179 0.812613 6.79643 0.805062 6.94825 0.892724C6.98922 0.916363 7.02271 0.946962 7.04569 0.986361C7.06224 1.01512 7.06979 1.04474 7.06973 1.07442L7.05712 5.52593C7.05719 5.49625 7.04963 5.46663 7.03309 5.43787C7.01004 5.39847 6.97662 5.36787 6.93564 5.34423C6.78383 5.25657 6.52918 5.26419 6.32076 5.27207C5.97425 5.28448 5.62557 5.25427 5.27703 5.26432Z" fill="#D5D6DB"/>
<path d="M10.7437 5.22693C10.513 5.09376 10.1678 5.02291 9.84509 5.05647L9.8577 0.604956C10.1804 0.571401 10.5256 0.642187 10.7563 0.77542C10.8674 0.839508 10.9519 0.918109 10.9945 1.00636C11.0184 1.05535 11.0294 1.10519 11.0293 1.15483L11.0167 5.60634C11.0168 5.5567 11.0058 5.50686 10.9819 5.45787C10.9393 5.36955 10.8547 5.29102 10.7437 5.22693Z" fill="#D5D6DB"/>
<path d="M8.96024 5.64734C8.9588 5.66067 8.95801 5.67406 8.95801 5.68746L8.97062 1.23595C8.97068 1.22255 8.9714 1.20922 8.97285 1.19583C9.00397 0.915178 9.38069 0.654688 9.85879 0.60498L9.84618 5.05649C9.36815 5.1062 8.99137 5.36675 8.96024 5.64734Z" fill="#D5D6DB"/>
<path d="M11.719 1.51325L11.7064 5.96476C11.7067 5.87631 11.6315 5.78405 11.551 5.70427C11.4557 5.60932 11.3473 5.50681 11.3475 5.40024L11.3601 0.94873C11.3598 1.0553 11.4683 1.15781 11.5636 1.25276C11.6441 1.33254 11.7193 1.4248 11.719 1.51325Z" fill="#E56353"/>
<path d="M11.7064 5.96469C11.7064 5.98308 11.7031 6.00127 11.6959 6.01913C11.7001 4.53525 11.7043 3.0515 11.7085 1.56762C11.7157 1.54976 11.719 1.53157 11.719 1.51318C11.7153 2.84866 11.7102 4.62928 11.7064 5.96469Z" fill="#D5D6DB"/>
<path d="M11.3919 6.2921C11.3844 6.30708 11.3809 6.32205 11.3809 6.33682L11.3935 1.88531C11.3935 1.87054 11.397 1.85556 11.4045 1.84059C11.45 1.74998 11.6132 1.69672 11.6823 1.61149C11.6939 1.59711 11.7025 1.58247 11.7085 1.56763C11.7043 3.05151 11.7001 4.53526 11.6959 6.01914C11.6899 6.03398 11.6813 6.04869 11.6697 6.063C11.6006 6.14823 11.4374 6.20155 11.3919 6.2921Z" fill="#D5D6DB"/>
<path d="M11.031 1.15479L11.0184 5.6063C11.0171 6.0861 9.96886 6.55239 9.29745 6.1647C9.27289 6.15052 9.24872 6.13516 9.22522 6.11861C9.05324 5.99871 8.95823 5.84308 8.95862 5.68746L8.97123 1.23595C8.97077 1.39157 9.06585 1.54713 9.23782 1.66703C9.26133 1.68358 9.28543 1.69895 9.30999 1.71313C9.98147 2.10088 11.0297 1.63459 11.031 1.15479Z" fill="#E56353"/>
<path d="M10.7584 0.775454C10.8694 0.839542 10.9539 0.918142 10.9966 1.0064C11.2508 1.52902 10.0512 2.14094 9.3104 1.71321C9.28584 1.69902 9.26168 1.68366 9.23823 1.66711C9.05149 1.53683 8.95542 1.36459 8.97394 1.19584C9.00506 0.915187 9.38178 0.654697 9.85988 0.604924C10.1826 0.571435 10.5277 0.642286 10.7584 0.775454Z" fill="#E56353"/>
<path d="M17.7906 6.5266C17.365 6.28089 15.1256 5.33513 11.8969 5.11508L11.9095 0.663574C15.1382 0.883615 17.3776 1.82938 17.8032 2.07509C17.8402 2.09643 17.8635 2.11252 17.8726 2.12237C17.8902 2.14141 17.8984 2.15993 17.8983 2.17792L17.8857 6.62943C17.8858 6.61144 17.8775 6.59292 17.86 6.57388C17.851 6.5641 17.8276 6.54801 17.7906 6.5266Z" fill="#D5D6DB"/>
<path d="M8.60669 6.30179C8.61037 4.99159 8.61411 3.68153 8.61779 2.37126C8.61779 2.37107 8.61779 2.3708 8.61785 2.37061C8.61411 3.68107 8.61037 4.99133 8.60669 6.30179Z" fill="#D5D6DB"/>
<path d="M1.15153 6.69182C1.03117 6.86458 0.969642 7.05311 0.969116 7.24091L0.981724 2.7894C0.982249 2.6016 1.04378 2.41307 1.16414 2.24031C1.51702 1.73115 2.29475 1.35286 3.15206 1.11955C3.25075 1.09283 3.35082 1.06781 3.45201 1.04443C3.44781 2.52831 3.44361 4.01206 3.43921 5.49594C3.33809 5.51926 3.23808 5.54427 3.13945 5.571C2.28214 5.8043 1.50441 6.18266 1.15153 6.69182Z" fill="#D5D6DB"/>
<path d="M7.07044 1.07446L7.05783 5.52597C7.05757 5.62408 6.97378 5.72316 6.85493 5.79493C6.70009 5.88969 6.49088 5.94708 6.28883 6.00276C6.05408 6.0679 5.81835 6.13245 5.58261 6.19693C5.27235 6.28216 4.96209 6.36746 4.65084 6.45328C4.03445 6.62263 3.4088 6.79494 2.90233 7.05956C2.41156 7.31598 2.04042 7.67464 2.03931 8.05694L2.05191 3.60543C2.05303 3.22313 2.42416 2.86447 2.91494 2.60805C3.42141 2.34342 4.04706 2.17112 4.66345 2.00177C4.9747 1.91595 5.28496 1.83065 5.59522 1.74542C5.83096 1.68087 6.06669 1.61632 6.30144 1.55125C6.50349 1.49557 6.71276 1.43818 6.86753 1.34342C6.98639 1.27159 7.07017 1.17257 7.07044 1.07446Z" fill="#E56353"/>
<path d="M5.54422 6.59586C4.90583 6.85281 4.26639 7.10916 3.62695 7.36551C3.63116 5.88163 3.63536 4.39788 3.63956 2.914C4.279 2.65765 4.91844 2.4013 5.55683 2.14435C5.55689 2.14435 5.55689 2.14429 5.55696 2.14429C5.55275 3.62817 5.54855 5.11192 5.54435 6.5958C5.54428 6.5958 5.54422 6.59586 5.54422 6.59586Z" fill="#D5D6DB"/>
<path d="M3.62675 7.36557C3.33501 7.48298 3.01634 7.62186 3.01575 7.84381L3.02835 3.3923C3.02901 3.17035 3.34761 3.03154 3.63943 2.91406C3.63516 4.39801 3.63089 5.88169 3.62675 7.36557Z" fill="#D5D6DB"/>
<path d="M2.04061 8.09388C2.03989 8.08154 2.03949 8.06926 2.03956 8.05698L2.05217 3.60547C2.0521 3.61775 2.05249 3.63003 2.05322 3.64237C2.04908 5.12625 2.04481 6.61 2.04061 8.09388Z" fill="#D5D6DB"/>
<path d="M2.04241 8.12963C2.04248 8.11748 2.04169 8.1054 2.04077 8.09384C2.04497 6.60996 2.04918 5.12621 2.05338 3.64233C2.0543 3.65389 2.05502 3.66597 2.05502 3.67812C2.05128 5.0136 2.04622 6.79415 2.04241 8.12963Z" fill="#D5D6DB"/>
<path d="M2.05468 3.67818L2.04207 8.12969C2.04194 8.17737 2.02947 8.22635 1.96367 8.25137C1.87496 8.28512 1.75617 8.24723 1.67416 8.20698C1.64021 8.19004 1.60764 8.17251 1.57619 8.15439C1.16651 7.91786 0.968135 7.58074 0.96912 7.24106L0.981727 2.78955C0.980742 3.12923 1.17911 3.46635 1.58879 3.70287C1.62025 3.72106 1.65288 3.73853 1.68676 3.75547C1.76878 3.79572 1.88757 3.83361 1.97628 3.79986C2.04207 3.77491 2.05455 3.72586 2.05468 3.67818Z" fill="#E56353"/>
<path d="M7.45401 6.26154C6.67964 6.14374 6.09838 6.37343 5.54358 6.59603C5.54778 5.11215 5.55198 3.6284 5.55619 2.14452C6.11092 1.92192 6.69224 1.69223 7.46662 1.81003C7.46249 3.29358 7.45828 4.77693 7.45408 6.26049C7.45736 5.11051 7.46065 3.96066 7.46386 2.81068C7.46478 2.47711 7.46669 2.1436 7.46669 1.81003C7.77347 1.85691 8.05176 1.94766 8.27002 2.07367H8.27009C8.26851 2.24715 8.2691 2.4207 8.26858 2.59419C8.26497 3.90419 8.26116 5.21406 8.25748 6.52406C8.26169 5.04051 8.26589 3.55716 8.27009 2.07367C8.4158 2.15778 8.53478 2.25766 8.61759 2.37067C8.61759 2.37067 8.61758 2.37067 8.61765 2.37073V2.37113V2.37126C8.6168 2.68152 8.61588 2.99172 8.61502 3.30198C8.6141 3.63615 8.61312 3.97031 8.6122 4.30448C8.60984 5.1436 8.60747 5.98273 8.60511 6.82185C8.60931 5.3381 8.61351 3.85448 8.61772 2.37073C8.72403 2.51546 8.76736 2.66668 8.76697 2.82047L8.75436 7.27198C8.75482 7.11819 8.71142 6.96697 8.60511 6.82218C8.52224 6.70917 8.40326 6.60929 8.25755 6.52518C8.03915 6.3991 7.7608 6.30836 7.45401 6.26154Z" fill="#D5D6DB"/>
<path d="M8.76709 2.82031L8.75448 7.27182C8.75435 7.32061 8.74982 7.36966 8.74148 7.41891C8.72473 7.51938 8.71633 7.62011 8.71606 7.72077L8.72867 3.26926C8.72893 3.1686 8.73734 3.0678 8.75408 2.9674C8.76242 2.91822 8.76695 2.8691 8.76709 2.82031Z" fill="#E56353"/>
<path d="M8.88883 8.53431C8.77451 8.26811 8.71528 7.99462 8.71607 7.7208L8.72868 3.26929C8.72789 3.54311 8.78712 3.8166 8.90144 4.0828V4.08287C8.89731 5.56675 8.89304 7.0505 8.88883 8.53431C8.88883 8.53438 8.88883 8.53438 8.88883 8.53431Z" fill="#D5D6DB"/>
<path d="M8.97403 8.8119C8.95814 8.71781 8.92905 8.62542 8.88965 8.53427C8.89385 7.05039 8.89805 5.56664 8.90226 4.08276C8.94159 4.17391 8.97074 4.2663 8.98663 4.36039C8.99366 4.4038 8.99721 4.44773 8.99708 4.49165L8.98447 8.94317C8.9846 8.89924 8.98105 8.85537 8.97403 8.8119Z" fill="#D5D6DB"/>
<path d="M8.9964 4.49157L8.98379 8.94308C8.98307 9.20364 8.85279 9.46708 8.54772 9.65554C8.03737 9.96994 7.15852 9.99476 6.46662 9.83139C5.83053 9.68148 5.31507 9.40411 4.82593 9.12169C4.78378 9.09739 4.74188 9.07303 4.70006 9.04867C4.2601 8.79468 3.8212 8.5401 3.3823 8.28552C3.26339 8.21684 3.16069 8.13751 3.09476 8.04749C3.03934 7.97237 3.01531 7.90486 3.0155 7.8436L3.02811 3.39209C3.02791 3.45329 3.05195 3.52079 3.10737 3.59591C3.1733 3.68587 3.27593 3.76526 3.39491 3.83394C3.83381 4.08852 4.27271 4.34311 4.71266 4.59709C4.75443 4.62139 4.79638 4.64575 4.83854 4.67011C5.32767 4.95253 5.8432 5.2299 6.47923 5.37981C7.17113 5.54318 8.04998 5.51836 8.56032 5.20396C8.8654 5.01557 8.99561 4.75213 8.9964 4.49157Z" fill="#E56353"/>
<path d="M0.481571 7.00424L0.494179 2.55273C0.492472 3.16124 1.03059 3.80659 1.90491 4.31142C2.41407 4.6054 3.03729 4.85171 3.81101 5.03832L3.7984 9.48983C3.02468 9.30322 2.40146 9.05684 1.8923 8.76293C1.01798 8.2581 0.479864 7.61282 0.481571 7.00424Z" fill="#D5D6DB"/>
<path d="M0.482881 6.95542C0.482027 6.9717 0.481633 6.98799 0.481567 7.00434L0.494175 2.55283C0.494241 2.53648 0.494635 2.52019 0.495488 2.50391C0.491286 3.98785 0.487083 5.47154 0.482881 6.95542Z" fill="#E56353"/>
<path d="M17.8978 2.17803L17.8852 6.62954C17.8845 6.86705 16.4416 7.01099 16.1643 7.0341C15.68 7.07435 15.172 7.05721 14.7297 6.93521C14.4768 6.86593 14.2534 6.76409 14.0066 6.68654C13.5254 6.53499 12.9558 6.47989 12.4164 6.53203C12.1967 6.55278 11.9741 6.59185 11.7553 6.56578C11.6607 6.55423 11.5681 6.52448 11.4987 6.48443C11.4275 6.44332 11.3807 6.39138 11.3809 6.33701L11.3935 1.8855C11.3933 1.93987 11.4402 1.99181 11.5113 2.03291C11.5807 2.07297 11.6733 2.10272 11.7679 2.11427C11.9867 2.14034 12.2093 2.10127 12.429 2.08052C12.9684 2.02845 13.538 2.08348 14.0192 2.23503C14.266 2.31258 14.4894 2.41442 14.7423 2.4837C15.1845 2.60564 15.6926 2.62284 16.1769 2.58259C16.4542 2.55948 17.8971 2.41554 17.8978 2.17803Z" fill="#E56353"/>
<path d="M17.803 2.07523C17.84 2.09657 17.8633 2.11265 17.8724 2.1225C18.1223 2.39304 16.4755 2.55766 16.1772 2.58255C15.693 2.6228 15.1849 2.60566 14.7426 2.48366C14.4897 2.41438 14.2663 2.31254 14.0196 2.23499C13.5383 2.08343 12.9687 2.02834 12.4293 2.08048C12.2097 2.10123 11.9871 2.1403 11.7682 2.11423C11.6737 2.10267 11.5811 2.07293 11.5117 2.03287C11.4212 1.9806 11.3699 1.91074 11.4048 1.84074C11.4503 1.75012 11.6136 1.69687 11.6826 1.61164C11.776 1.49679 11.675 1.36297 11.5641 1.25285C11.4541 1.14332 11.3266 1.02374 11.3689 0.899376C11.4162 0.761416 11.668 0.64716 11.9093 0.663708C15.1379 0.883749 17.3774 1.82951 17.803 2.07523Z" fill="#E56353"/>
<path d="M10.0005 7.71616C9.90619 7.86443 9.8616 8.02018 9.86121 8.17647L9.87381 3.72495C9.87427 3.56874 9.91879 3.41298 10.0131 3.26465C10.0093 4.60013 10.3755 6.43439 10.0005 7.71616Z" fill="#D5D6DB"/>
<path d="M21.0148 8.31809C20.7766 7.95858 20.4317 7.57287 19.934 7.19248C19.9382 5.7086 19.9424 4.22485 19.9466 2.74097C20.4444 3.12136 20.7892 3.50707 21.0274 3.86658C21.0233 5.35046 21.019 6.83421 21.0148 8.31809Z" fill="#E56353"/>
<path d="M13.257 6.8535C12.0106 6.58355 10.4582 6.99501 10.0002 7.71613L10.0129 3.26462C10.4708 2.5435 12.0232 2.13198 13.2696 2.40199C13.9 2.53818 14.4342 2.81942 15.0938 2.89578C16.1023 3.01181 17.1632 2.62223 18.1423 2.80517C18.4229 2.85724 18.6708 2.95363 18.8805 3.07472C19.0334 3.16297 19.166 3.26436 19.276 3.37119C19.4401 3.53017 19.5614 3.70148 19.6659 3.87668C19.6617 5.36056 19.6575 6.84431 19.6533 8.32819C19.5487 8.15299 19.4275 7.98174 19.2634 7.8227C19.1534 7.71587 19.0209 7.61448 18.8679 7.52623C18.6582 7.40514 18.4103 7.30875 18.1297 7.25668C17.1506 7.07374 16.0897 7.46332 15.0812 7.34729C14.4215 7.27086 13.8874 6.98962 13.257 6.8535Z" fill="#D5D6DB"/>
<path d="M6.94962 0.892727C6.99059 0.916366 7.02408 0.946966 7.04706 0.986365C7.11831 1.11008 7.02296 1.24981 6.86813 1.34338C6.71329 1.43813 6.50409 1.49553 6.30204 1.55121C6.06729 1.61635 5.83155 1.6809 5.59582 1.74538C5.28555 1.83061 4.97529 1.91591 4.66404 2.00173C4.04765 2.17108 3.422 2.34338 2.91554 2.60801C2.409 2.87264 2.02986 3.24627 2.05356 3.64235C2.05796 3.69922 2.05941 3.76843 1.97673 3.79982C1.88802 3.83357 1.76923 3.79568 1.68722 3.75543C1.65327 3.73848 1.6207 3.72095 1.58925 3.70283C0.953094 3.33557 0.826428 2.72555 1.1646 2.24035C1.51748 1.73119 2.29521 1.3529 3.15252 1.1196C3.82203 0.93843 4.55327 0.83422 5.29114 0.812879C5.63962 0.802833 5.98836 0.832973 6.33474 0.820562C6.54316 0.812683 6.7978 0.805131 6.94962 0.892727Z" fill="#E56353"/>
<path d="M19.654 8.32815C19.6335 8.25349 19.6545 8.14745 19.6547 8.07003C19.6555 7.7878 19.6563 7.50558 19.6571 7.22335C19.6582 6.85517 19.6592 6.48699 19.6603 6.11881C19.6624 5.37142 19.6646 4.6241 19.6667 3.87671C19.7291 3.98138 19.7856 4.08743 19.8416 4.19301C19.8581 4.22394 19.8747 4.25494 19.891 4.28613C19.8868 5.77001 19.8826 7.25376 19.8784 8.73764C19.8621 8.70651 19.8455 8.67545 19.829 8.64452C19.7729 8.5388 19.7164 8.43276 19.654 8.32815Z" fill="#D5D6DB"/>
<path d="M19.8785 8.7374C19.8721 8.71133 19.8787 8.67482 19.8788 8.64803C19.8794 8.41827 19.8801 8.18851 19.8807 7.95869C19.8815 7.69912 19.8822 7.43955 19.883 7.17997C19.8857 6.21524 19.8884 5.25063 19.8912 4.28589C20.0058 4.50409 20.1115 4.72768 20.1425 4.95212C20.1383 6.436 20.1341 7.91975 20.1299 9.40363C20.0988 9.17919 19.9932 8.9556 19.8785 8.7374Z" fill="#D5D6DB"/>
<path d="M20.1287 9.40384C20.1266 9.37284 20.1289 9.33128 20.129 9.30022C20.1291 9.24473 20.1293 9.18925 20.1294 9.13383C20.1295 9.09929 20.1296 9.05319 20.1297 9.01859C20.1298 9.00112 20.1299 8.97787 20.1299 8.96047C20.1303 8.81279 20.1308 8.66505 20.1312 8.51737C20.1345 7.32898 20.1379 6.14078 20.1413 4.95239C20.1474 4.99632 20.1506 5.04025 20.1505 5.08425L20.1379 9.53576C20.138 9.4917 20.1348 9.44777 20.1287 9.40384Z" fill="#D5D6DB"/>
<path d="M21.4231 9.16955C21.3464 8.91871 21.2203 8.62815 21.0149 8.31821C21.0191 6.83433 21.0233 5.35058 21.0275 3.8667C21.2329 4.17663 21.359 4.4672 21.4357 4.71804C21.4738 4.84273 21.504 4.98555 21.5239 5.14249C21.5197 6.62637 21.5155 8.11012 21.5112 9.594C21.4914 9.43706 21.4612 9.29424 21.4231 9.16955Z" fill="#E56353"/>
<path d="M8.27097 2.07345C8.41667 2.15757 8.53566 2.25744 8.61853 2.37045C8.75859 2.56107 8.78938 2.76299 8.75478 2.96727C8.69253 3.34083 8.74572 3.7186 8.90213 4.08271C8.94146 4.17392 8.97062 4.26624 8.98651 4.3604C9.03523 4.66115 8.91743 4.98382 8.56094 5.20406C8.0506 5.51846 7.17175 5.54328 6.47984 5.37991C5.84375 5.23 5.32829 4.95263 4.83916 4.67021C4.797 4.64591 4.7551 4.62155 4.71328 4.59719C4.27333 4.3432 3.83443 4.08862 3.39553 3.83404C3.27661 3.76535 3.17391 3.68603 3.10798 3.59601C2.8515 3.24845 3.26748 3.06373 3.63973 2.91395C4.27917 2.6576 4.91861 2.40124 5.557 2.1443C6.11179 1.9217 6.69312 1.69194 7.46756 1.80981C7.77435 1.85669 8.05263 1.94744 8.27097 2.07345Z" fill="#E56353"/>
<path d="M21.5106 9.59384C21.508 9.55084 21.5109 9.50789 21.511 9.46488C21.5111 9.422 21.5113 9.37906 21.5114 9.33618C21.5153 7.93819 21.5194 6.54033 21.5233 5.14233C21.5409 5.28174 21.5503 5.43224 21.5499 5.59108L21.5373 10.0426C21.5377 9.88375 21.5282 9.73325 21.5106 9.59384Z" fill="#E56353"/>
<path d="M6.5193 6.68486L6.50669 11.1364C6.04802 10.7091 5.55771 10.3789 5.11631 10.124C4.41502 9.71907 3.83691 9.50442 3.79797 9.48984L3.81058 5.03833C3.84959 5.05291 4.42769 5.26756 5.12892 5.67245C5.57032 5.92736 6.06063 6.25765 6.5193 6.68486Z" fill="#D5D6DB"/>
<path d="M20.151 5.08397L20.1384 9.53548C20.1382 9.60141 20.1305 9.66734 20.1136 9.73313C20.0526 9.97057 19.8373 10.2121 19.4997 10.3548C19.1077 10.5215 18.9261 10.4912 18.6917 10.3559C18.6347 10.323 18.5746 10.2839 18.5076 10.2399C18.453 10.204 18.3965 10.1691 18.3381 10.1354C17.7125 9.77424 16.8707 9.54074 15.988 9.50285C14.4841 9.4383 12.9269 9.90484 11.5086 9.60292C11.1874 9.5345 10.9011 9.42399 10.6609 9.28537C10.1602 8.99625 9.86009 8.58473 9.86121 8.17636L9.87382 3.72485C9.87263 4.13322 10.1728 4.54474 10.6735 4.83386C10.9136 4.97247 11.1999 5.08299 11.5212 5.15141C12.9395 5.45333 14.4967 4.98679 16.0006 5.05134C16.8833 5.08923 17.7251 5.32273 18.3507 5.68388C18.4091 5.71763 18.4657 5.7525 18.5202 5.78842C18.5873 5.83241 18.6473 5.87148 18.7043 5.90438C18.9386 6.03972 19.1202 6.06999 19.5123 5.90326C19.8499 5.76058 20.0652 5.519 20.1262 5.28162C20.1431 5.21583 20.1508 5.1499 20.151 5.08397Z" fill="#E56353"/>
<path d="M18.8812 3.07465C19.034 3.16291 19.1666 3.26429 19.2767 3.37113C19.5387 3.62512 19.6916 3.91049 19.8414 4.19292C20.0305 4.54639 20.2207 4.91581 20.1266 5.28169C20.0656 5.51914 19.8503 5.76065 19.5128 5.90334C19.1207 6.07006 18.9392 6.03979 18.7047 5.90445C18.6477 5.87156 18.5877 5.83249 18.5207 5.78849C18.4662 5.75257 18.4096 5.71771 18.3511 5.68395C17.7255 5.3228 16.8837 5.0893 16.0011 5.05141C14.4972 4.98686 12.94 5.45341 11.5217 5.15148C11.2004 5.08306 10.9141 4.97255 10.674 4.83393C9.9817 4.43423 9.67281 3.80051 10.0135 3.26462C10.4715 2.5435 12.0239 2.13198 13.2703 2.40199C13.9007 2.53818 14.4348 2.81935 15.0945 2.89578C16.103 3.01181 17.1638 2.62223 18.143 2.80517C18.4235 2.85711 18.6714 2.95357 18.8812 3.07465Z" fill="#E56353"/>
<path d="M19.2656 11.1038C19.2601 11.0987 19.2545 11.0936 19.2489 11.0885C19.2531 9.60459 19.2573 8.12084 19.2615 6.63696C19.2672 6.64202 19.2728 6.64714 19.2782 6.65226C19.274 8.13621 19.2698 9.61996 19.2656 11.1038Z" fill="#D5D6DB"/>
<path d="M9.77696 9.80835C8.72016 9.82608 7.93265 10.4655 7.94322 11.0771L7.95583 6.6256C7.94526 6.014 8.73277 5.37457 9.78957 5.35684C10.9946 5.33727 11.8603 6.0578 13.0315 6.22656C13.8336 6.34141 14.5776 6.15256 15.1554 5.8417C15.5854 5.61076 15.9696 5.39466 16.5931 5.59185L16.5805 10.0434C15.957 9.84624 15.5728 10.0623 15.1428 10.2932C14.565 10.604 13.8209 10.7929 13.0189 10.6781C11.8477 10.5093 10.982 9.78878 9.77696 9.80835Z" fill="#D5D6DB"/>
<path d="M19.2667 11.1039C19.2709 9.61997 19.2751 8.13622 19.2793 6.65234C19.3338 6.70382 19.3749 6.75885 19.4046 6.81644C19.4004 8.30032 19.3962 9.78407 19.392 11.2679C19.3624 11.2104 19.3212 11.1553 19.2667 11.1039Z" fill="#D5D6DB"/>
<path d="M19.3989 11.283C19.3965 11.2779 19.394 11.2729 19.3915 11.2679C19.3957 9.78404 19.3999 8.30029 19.4041 6.81641C19.4066 6.8214 19.4091 6.82639 19.4115 6.83144C19.4073 8.31539 19.403 9.79907 19.3989 11.283Z" fill="#D5D6DB"/>
<path d="M18.1437 10.9C17.6791 10.9814 17.3869 11.1877 17.2107 11.4307C17.2149 9.94683 17.2191 8.46308 17.2233 6.9792C17.3995 6.73618 17.6917 6.52993 18.1563 6.4485C18.5128 6.38573 18.8918 6.40786 19.1482 6.55586C19.1892 6.57957 19.2271 6.60643 19.2613 6.63676C19.2613 6.63683 19.2613 6.63683 19.2614 6.63689C19.2572 8.12078 19.253 9.60452 19.2488 11.0884C19.2487 11.0883 19.2487 11.0883 19.2486 11.0883C19.2145 11.058 19.1766 11.0311 19.1356 11.0074C18.8792 10.8594 18.5002 10.8372 18.1437 10.9Z" fill="#D5D6DB"/>
<path d="M17.2036 11.4418C17.2078 9.95791 17.212 8.47416 17.2162 6.99028C17.2188 6.9866 17.2215 6.98293 17.2241 6.97925C17.2199 8.46313 17.2157 9.94688 17.2115 11.4308C17.2088 11.4344 17.2062 11.4381 17.2036 11.4418Z" fill="#D5D6DB"/>
<path d="M19.3986 11.2828C19.3959 11.2708 19.3987 11.2541 19.3988 11.2418C19.3988 11.2288 19.3988 11.2114 19.3989 11.1984C19.399 11.1682 19.3991 11.1379 19.3992 11.1076C19.3994 11.0493 19.3995 10.991 19.3997 10.9326C19.4036 9.56549 19.4074 8.19849 19.4113 6.8313C19.4394 6.89013 19.4557 6.9516 19.4619 7.01463C19.4577 8.49851 19.4535 9.98226 19.4493 11.4661C19.443 11.4031 19.4267 11.3416 19.3986 11.2828Z" fill="#D5D6DB"/>
<path d="M19.4524 11.5048C19.4519 11.4919 19.4511 11.4791 19.4498 11.4664C19.454 9.98252 19.4582 8.49877 19.4624 7.01489C19.4637 7.02763 19.4645 7.04044 19.465 7.05331C19.4608 8.53719 19.4565 10.0209 19.4524 11.5048Z" fill="#D5D6DB"/>
<path d="M19.4517 11.5046C19.4495 11.3662 19.4525 11.2279 19.4529 11.0896C19.4533 10.9512 19.4537 10.8129 19.4541 10.6746C19.4575 9.46732 19.4609 8.26022 19.4643 7.05298C19.4646 7.06106 19.4647 7.0692 19.4647 7.07727L19.4521 11.5288C19.4521 11.5207 19.452 11.5126 19.4517 11.5046Z" fill="#D5D6DB"/>
<path d="M17.2033 11.4419C17.151 11.5159 17.1092 11.5931 17.0764 11.6712C17.0806 10.1873 17.0849 8.70346 17.0891 7.21958C17.1219 7.14157 17.1636 7.06442 17.216 6.99048C17.2121 8.3624 17.2081 9.73413 17.2043 11.106C17.2041 11.1619 17.2039 11.2179 17.2038 11.2738C17.2038 11.2805 17.2037 11.2893 17.2037 11.2958C17.2037 11.3024 17.2037 11.3112 17.2037 11.3178C17.2036 11.3527 17.2035 11.3876 17.2033 11.4226C17.2033 11.4284 17.2051 11.4364 17.2033 11.4419Z" fill="#D5D6DB"/>
<path d="M17.0067 11.8889C16.9804 12.0072 16.9672 12.1264 16.9669 12.2456L16.9795 7.79411C16.9799 7.67486 16.9931 7.55562 17.0193 7.43742C17.0355 7.36539 17.0582 7.29211 17.0887 7.21948C17.0845 8.70336 17.0803 10.1872 17.0761 11.6711C17.0456 11.7437 17.0229 11.817 17.0067 11.8889Z" fill="#D5D6DB"/>
<path d="M15.4512 12.6122L15.4638 8.16071C15.4649 7.76903 15.6656 7.37806 15.865 6.9997C16.1087 6.53611 16.4239 6.06543 16.593 5.5918L16.5804 10.0433C16.4114 10.5169 16.0961 10.9876 15.8524 11.4512C15.653 11.8296 15.4523 12.2206 15.4512 12.6122Z" fill="#E56353"/>
<path d="M15.4822 12.8735C15.4606 12.7865 15.4509 12.6995 15.4512 12.6124L15.4638 8.16089C15.4635 8.24789 15.4732 8.33496 15.4948 8.42197V8.42203C15.4906 9.90592 15.4864 11.3897 15.4822 12.8735C15.4822 12.8735 15.4822 12.8735 15.4822 12.8735Z" fill="#D5D6DB"/>
<path d="M15.6868 13.6199C15.6875 13.3807 15.5425 13.1165 15.4821 12.8734C15.4863 11.3895 15.4905 9.90576 15.4947 8.42188C15.5551 8.66503 15.7001 8.9292 15.6994 9.16835C15.6957 10.5038 15.6906 12.2844 15.6868 13.6199Z" fill="#D5D6DB"/>
<path d="M15.6996 9.16858L15.687 13.6201C15.6866 13.7659 15.6321 13.9024 15.4713 14.0192C15.0998 14.2897 14.3862 14.2696 13.8042 14.1909C12.1752 13.9705 10.6568 13.4815 9.4723 12.7976C9.41248 12.763 9.35339 12.7279 9.29527 12.6924C8.56607 12.2478 7.9527 11.6894 7.94312 11.0772L7.95572 6.62573C7.96531 7.23792 8.57868 7.7962 9.30788 8.24088C9.36599 8.2764 9.42509 8.31153 9.48491 8.34607C10.6694 9.0299 12.1877 9.51903 13.8168 9.7394C14.3988 9.81813 15.1124 9.83829 15.4839 9.56769C15.6447 9.45087 15.6992 9.31435 15.6996 9.16858Z" fill="#E56353"/>
<path d="M19.4648 7.07739L19.4522 11.5289C19.4511 11.9245 19.0869 12.37 18.758 12.639C18.5084 12.8425 17.7185 13.4459 17.3138 13.2123C17.2499 13.1754 17.1955 13.1175 17.1544 13.0339C17.0296 12.7776 16.9664 12.5115 16.9672 12.2456L16.9798 7.79412C16.979 8.05999 17.0422 8.32606 17.1671 8.58235C17.2081 8.66601 17.2625 8.72379 17.3264 8.76076C17.7311 8.99439 18.5211 8.39094 18.7706 8.18745C19.0994 7.91849 19.4637 7.47302 19.4648 7.07739Z" fill="#E56353"/>
<path d="M19.8871 8.93217L19.8745 13.3837C18.8924 14.1433 17.5069 14.585 15.7566 14.6957C15.495 14.7123 15.2313 14.7206 14.9727 14.72C12.4886 14.72 10.4879 13.9496 9.05659 13.1233C7.41597 12.1761 6.5232 11.1553 6.50671 11.1363L6.51932 6.68481C6.5358 6.70379 7.42857 7.72454 9.0692 8.67175C10.5005 9.49813 12.5012 10.2685 14.9853 10.2685C15.2439 10.2691 15.5076 10.2608 15.7692 10.2442C17.5195 10.1335 18.905 9.69184 19.8871 8.93217Z" fill="#D5D6DB"/>
<path d="M21.5502 5.59131L21.5376 10.0428C21.5347 11.0578 21.1284 12.4137 19.8745 13.3839L19.8871 8.93244C21.141 7.96218 21.5473 6.60628 21.5502 5.59131Z" fill="#D5D6DB"/>
<path d="M19.1492 6.55588C19.1902 6.57959 19.2281 6.60644 19.2623 6.63678C19.7646 7.08376 19.2331 7.80961 18.7712 8.18738C18.5216 8.39087 17.7317 8.99432 17.327 8.76069C17.263 8.72379 17.2087 8.66594 17.1676 8.58228C16.9867 8.21108 16.9354 7.81913 17.0202 7.43723C17.1119 7.02873 17.4139 6.57873 18.1573 6.44846C18.5138 6.38575 18.8928 6.40788 19.1492 6.55588Z" fill="#E56353"/>
<path d="M16.5937 5.59191C16.4247 6.06555 16.1095 6.53623 15.8657 6.99982C15.622 7.46223 15.3763 7.94355 15.4956 8.42191C15.5928 8.81327 15.9091 9.25907 15.4846 9.56756C15.1131 9.83809 14.3995 9.818 13.8175 9.73927C12.1885 9.5189 10.6701 9.02983 9.48559 8.34594C9.42577 8.3114 9.36668 8.27627 9.30856 8.24075C8.57936 7.79613 7.96599 7.23779 7.95641 6.6256C7.94577 6.014 8.73334 5.37457 9.79014 5.35684C10.9951 5.33727 11.8609 6.0578 13.0321 6.22656C13.8341 6.34141 14.5782 6.15256 15.156 5.8417C15.5861 5.61089 15.9702 5.39479 16.5937 5.59191Z" fill="#E56353"/>
<path d="M19.8869 8.93238C18.9048 9.69198 17.5192 10.1337 15.769 10.2444C15.5074 10.261 15.2437 10.2693 14.9851 10.2687C12.501 10.2687 10.5003 9.49834 9.06897 8.67196C7.42835 7.72475 6.53558 6.704 6.5191 6.68502C6.06043 6.25774 5.57012 5.92752 5.12872 5.67261C4.42743 5.26772 3.84932 5.05307 3.81038 5.03849C3.03666 4.85181 2.41344 4.6055 1.90428 4.31159C0.878276 3.71923 0.315205 2.93336 0.544242 2.24047C0.957336 0.994165 3.77952 0.279541 8.28501 0.279541C13.0113 0.279541 16.5676 0.87748 18.8537 2.05806C18.9749 2.12064 19.0911 2.18413 19.2019 2.24809C20.6742 3.09805 21.2309 4.04913 21.4353 4.71818C21.7237 5.66132 21.558 7.63932 19.8869 8.93238ZM10.0129 3.2647C9.6721 3.80059 9.98098 4.43431 10.6733 4.83401C10.9133 4.97263 11.1996 5.08314 11.5209 5.15157C12.9393 5.45349 14.4964 4.98694 16.0004 5.05149C16.883 5.08938 17.7248 5.32288 18.3504 5.68404C18.4089 5.71779 18.4655 5.75266 18.52 5.78857C18.587 5.83257 18.6471 5.87164 18.704 5.90454C18.9384 6.03987 19.1199 6.07014 19.5121 5.90342C19.8496 5.76073 20.0649 5.51915 20.1259 5.28178C20.2199 4.9159 20.0298 4.54647 19.8407 4.193C19.691 3.91058 19.538 3.6252 19.276 3.37121C19.1659 3.26437 19.0334 3.16299 18.8805 3.07474C18.6707 2.95365 18.4228 2.85726 18.1423 2.80518C17.1631 2.62224 16.1023 3.01183 15.0937 2.8958C14.4341 2.81943 13.9 2.53819 13.2695 2.40201C12.0232 2.13213 10.4708 2.54358 10.0129 3.2647ZM13.817 9.73939C14.399 9.81812 15.1126 9.83828 15.4841 9.56768C15.9086 9.25919 15.5923 8.8134 15.495 8.42204C15.3758 7.94367 15.6215 7.46229 15.8652 6.99988C16.1089 6.53629 16.4241 6.06561 16.5932 5.59197C15.9696 5.39485 15.5855 5.61095 15.1555 5.84183C14.5777 6.15262 13.8336 6.34153 13.0316 6.22669C11.8604 6.05793 10.9946 5.33739 9.78964 5.35696C8.73284 5.37469 7.94532 6.01413 7.9559 6.62573C7.96548 7.23791 8.57885 7.79619 9.30806 8.24087C9.36617 8.27639 9.4252 8.31153 9.48509 8.34606C10.6695 9.02996 12.1879 9.51902 13.817 9.73939ZM6.47904 5.38014C7.17088 5.54351 8.0498 5.51869 8.56014 5.20429C8.91663 4.98406 9.03443 4.66138 8.98571 4.36064C8.96982 4.26648 8.94073 4.17415 8.90133 4.08295C8.74498 3.71884 8.69173 3.34107 8.75398 2.96751C8.78865 2.76323 8.75785 2.56137 8.61773 2.37075C8.53486 2.25774 8.41587 2.15787 8.27017 2.07375C8.05183 1.94768 7.77355 1.85693 7.4667 1.81011C6.69225 1.69231 6.11093 1.922 5.55613 2.1446C4.91774 2.40155 4.27831 2.6579 3.63887 2.91425C3.26662 3.06403 2.85063 3.24875 3.10712 3.59631C3.17304 3.68627 3.27568 3.76566 3.39466 3.83434C3.83356 4.08892 4.27246 4.3435 4.71241 4.59749C4.75417 4.62179 4.79613 4.64615 4.83822 4.67051C5.32749 4.95286 5.84302 5.23023 6.47904 5.38014ZM11.9086 0.663808C11.6673 0.647261 11.4155 0.761516 11.3682 0.899477C11.326 1.02378 11.4534 1.14342 11.5634 1.25295C11.6744 1.36307 11.7753 1.49689 11.6819 1.61174C11.6129 1.69697 11.4496 1.75029 11.4041 1.84084C11.3692 1.91084 11.4205 1.9807 11.511 2.03297C11.5804 2.07303 11.6729 2.10277 11.7675 2.11433C11.9864 2.1404 12.209 2.10133 12.4286 2.08058C12.968 2.02851 13.5376 2.08353 14.0189 2.23509C14.2656 2.31264 14.489 2.41448 14.7419 2.48376C15.1842 2.6057 15.6923 2.6229 16.1765 2.58265C16.4748 2.55776 18.1216 2.39314 17.8717 2.1226C17.8627 2.11276 17.8393 2.09667 17.8023 2.07533C17.3768 1.82961 15.1373 0.883849 11.9086 0.663808ZM1.97585 3.8C2.05846 3.76861 2.05708 3.69933 2.05268 3.64253C2.02898 3.24645 2.40812 2.87288 2.91466 2.60819C3.42112 2.34357 4.04677 2.17126 4.66316 2.00191C4.97441 1.91603 5.28468 1.83079 5.59494 1.74556C5.83067 1.68101 6.06641 1.61646 6.30116 1.55133C6.50321 1.49564 6.71248 1.43825 6.86725 1.3435C7.02209 1.24993 7.11736 1.11019 7.04618 0.986482C7.02314 0.947084 6.98971 0.916484 6.94874 0.892845C6.79692 0.805183 6.54228 0.8128 6.33386 0.82068C5.98741 0.833091 5.63874 0.80295 5.29019 0.812997C4.55232 0.834338 3.82102 0.938547 3.15157 1.11972C2.29433 1.35302 1.51653 1.73131 1.16372 2.24047C0.825548 2.72567 0.952214 3.33562 1.58837 3.70295C1.61982 3.72113 1.65246 3.7386 1.68634 3.75554C1.76835 3.7958 1.88714 3.83368 1.97585 3.8ZM17.3264 8.76093C17.7311 8.99456 18.5211 8.39111 18.7706 8.18762C19.2325 7.80985 19.764 7.084 19.2617 6.63702C19.2276 6.60675 19.1897 6.57983 19.1486 6.55612C18.8923 6.40812 18.5133 6.38599 18.1568 6.44876C17.4134 6.57904 17.1113 7.02897 17.0196 7.43747C16.9349 7.81937 16.9861 8.21126 17.1671 8.58252C17.2081 8.66618 17.2625 8.72396 17.3264 8.76093ZM9.85891 0.60517C9.38088 0.654878 9.0041 0.915433 8.97297 1.19602C8.95452 1.36477 9.05052 1.53701 9.23727 1.66729C9.26078 1.68384 9.28488 1.6992 9.3095 1.71339C10.0503 2.14112 11.2499 1.5292 10.9957 1.00658C10.953 0.918257 10.8685 0.839722 10.7575 0.775634C10.5268 0.642467 10.1817 0.571616 9.85891 0.60517Z" fill="white"/>
<path d="M15.8296 10.3639C12.7869 10.5564 10.3902 9.67 8.73624 8.71511C7.01222 7.71977 6.14119 6.70342 6.09535 6.6499C5.68298 6.26826 5.2169 5.95478 4.79776 5.71287C4.11735 5.32007 3.58882 5.1261 3.56098 5.11592C2.81759 4.94132 2.13836 4.67407 1.57779 4.35034C0.62631 3.80099 0.010708 3.24771 0.0126123 2.55298L4.76401e-06 7.00442C-0.00196516 7.69915 0.607136 8.41062 1.55861 8.95997C2.11925 9.28363 2.79848 9.55095 3.5418 9.72555C3.56964 9.73573 4.09818 9.9297 4.77859 10.3225C5.19766 10.5645 5.66374 10.878 6.07618 11.2595C6.12201 11.313 6.99305 12.3294 8.71706 13.3247C10.371 14.2796 12.7677 15.166 15.8104 14.9735C20.9224 14.6491 22.0105 11.7739 22.0155 10.0436L22.0281 5.59212C22.0231 7.32237 20.9416 10.0395 15.8296 10.3639Z" fill="#D15241"/>
<path d="M21.91 4.66945C22.3057 5.96369 22.0379 10.1276 15.8235 10.522C12.7808 10.7145 10.3841 9.8281 8.73017 8.87327C7.00615 7.87794 6.13512 6.86159 6.08928 6.80807C5.67685 6.42643 5.21083 6.11295 4.79169 5.87104C4.11128 5.47824 3.58275 5.28426 3.55491 5.27409C2.81152 5.09949 2.13229 4.83217 1.57165 4.50851C-1.16819 2.92666 -1.06891 0.000525314 8.28424 0C14.2896 0 17.6512 0.958764 19.5417 2.05037C21.1983 3.0069 21.7253 4.06554 21.91 4.66945ZM15.7698 10.2443C17.52 10.1336 18.9056 9.69185 19.8877 8.93224C21.5588 7.63918 21.7245 5.66111 21.436 4.71798C21.2317 4.04892 20.675 3.09791 19.2026 2.24788C19.0919 2.18393 18.9758 2.1205 18.8545 2.05785C16.5684 0.877274 13.0122 0.279336 8.28582 0.279336C3.78027 0.279336 0.958081 0.99396 0.544988 2.24027C0.315951 2.93316 0.879022 3.71903 1.90503 4.31138C2.41419 4.60536 3.03741 4.85167 3.7343 5.01524C3.85007 5.05286 4.42817 5.26752 5.12947 5.67241C5.57086 5.92725 6.06118 6.25754 6.4962 6.66052C6.53632 6.70379 7.42916 7.72454 9.06972 8.67175C10.5011 9.49814 12.5017 10.2685 14.9859 10.2685C15.2446 10.2692 15.5082 10.2609 15.7698 10.2443Z" fill="#E56353"/>
</svg>
