<svg width="212" height="253" viewBox="0 0 212 253" fill="none" xmlns="http://www.w3.org/2000/svg">
<path d="M211.029 252.851H179.516C179.516 252.851 116.251 237.451 108.694 201.374C101.136 165.298 141.158 177.133 152.946 200.709C164.733 224.332 183.603 238.116 189.07 237.783C200.239 237.118 208.415 236.453 211.029 252.851Z" fill="#5B4949"/>
<path d="M179.515 252.851H211.076C208.462 236.452 200.239 237.165 189.117 237.831C187.311 245.436 173.574 244.723 171.625 250.569C176.426 252.09 179.515 252.851 179.515 252.851Z" fill="#BA9B8A"/>
<path d="M42.482 128.271L41.4364 129.269C41.2462 129.459 41.1036 129.602 41.0086 129.649L40.6759 129.934L40.3431 130.219C40.2481 130.314 40.153 130.41 40.1055 130.41L39.9154 130.552C39.8678 130.6 39.8203 130.647 39.7728 130.647C39.6302 130.742 39.6302 130.647 39.5826 130.647L39.4876 130.552L39.0598 130.172L38.2042 129.411L36.4931 127.843C35.3998 126.75 34.3542 125.609 33.261 124.468C32.2153 123.327 31.2646 122.092 30.2665 120.903C29.7436 120.333 29.3158 119.667 28.888 119.05L27.5572 117.148C24.0874 111.967 21.283 106.359 19.1916 100.465C15.0088 88.6769 13.5829 75.9859 14.7237 63.4851C15.8644 50.9843 19.5243 38.5786 26.0837 27.3612C29.4109 21.8 33.4511 16.524 38.3468 11.9609C40.7709 9.67942 43.4802 7.58802 46.2846 5.68676C46.95 5.16391 47.7106 4.78367 48.4711 4.35588L50.705 3.07253C52.226 2.26449 53.7946 1.59904 55.3631 0.838538C59.9262 -1.25285 65.3447 0.695966 67.4361 5.259C69.5275 9.82202 67.5787 15.2406 63.0157 17.332C62.9682 17.332 62.9206 17.3795 62.8731 17.3795L62.4453 17.5697C53.9371 21.2771 46.5222 28.0266 41.0561 36.5347C38.2993 40.7651 35.9702 45.3756 34.164 50.2238C32.3578 55.072 30.9794 60.1579 30.1238 65.3389C28.4127 75.7007 28.6029 86.4904 31.122 96.7572C32.4054 101.891 34.2116 106.881 36.6832 111.587L37.6338 113.346C37.9666 113.916 38.2517 114.534 38.632 115.057C39.345 116.15 40.0579 117.338 40.8184 118.384C41.6265 119.43 42.387 120.523 43.2426 121.569L44.5734 123.09L45.2389 123.85L45.5716 124.23L45.6667 124.326C45.6667 124.373 45.7617 124.326 45.6667 124.516C45.6667 124.563 45.6191 124.611 45.5716 124.658L45.429 124.848C45.3815 124.896 45.334 124.991 45.2389 125.086L44.9537 125.419L44.6685 125.751C44.621 125.847 44.4784 125.989 44.2883 126.179L43.3376 127.272L43.2901 127.32C43.1 127.653 42.7672 127.985 42.482 128.271Z" fill="#7C6666"/>
<path d="M45.6665 124.373L45.5714 124.278L45.2387 123.898L44.5733 123.138L43.2424 121.616C42.4344 120.571 41.6263 119.478 40.8183 118.432C40.0578 117.339 39.3448 116.198 38.6318 115.105C38.2516 114.582 37.9664 113.964 37.6337 113.394L36.683 111.635C34.8293 108.118 33.3558 104.458 32.2151 100.703C23.7069 88.8673 18.3834 71.9935 18.3834 53.2186C18.3834 49.8914 18.5735 46.6592 18.8587 43.4746C16.7198 49.9864 15.3889 56.6884 14.771 63.3903C13.6303 75.8911 15.0562 88.5821 19.239 100.37C21.3304 106.264 24.1347 111.873 27.6045 117.053L28.9354 118.955C29.4107 119.573 29.8385 120.238 30.3138 120.808C31.312 121.997 32.2626 123.233 33.3083 124.373C34.4015 125.514 35.4472 126.655 36.5404 127.748L38.2516 129.317L39.1071 130.077L39.5349 130.457L39.63 130.552C39.6775 130.552 39.6775 130.647 39.8201 130.552C39.8677 130.552 39.9152 130.505 39.9627 130.457L40.1529 130.315C40.2004 130.267 40.2955 130.22 40.3905 130.125L40.7232 129.839L41.0559 129.554C41.151 129.507 41.2936 129.364 41.4837 129.174L42.5295 128.176C42.8146 127.891 43.0998 127.605 43.385 127.273L43.4325 127.225L44.3831 126.132C44.5733 125.942 44.6683 125.799 44.7634 125.704L45.0486 125.371L45.3338 125.039C45.4288 124.944 45.5239 124.801 45.5239 124.801L45.6665 124.611C45.7141 124.563 45.7616 124.516 45.7616 124.468C45.7616 124.373 45.6665 124.421 45.6665 124.373Z" fill="#665252"/>
<path d="M96.5729 252.851H69.9553C69.9553 252.851 28.08 195.67 37.111 161.733C46.0944 127.748 94.0062 173.758 75.2313 222.953C75.2313 222.953 80.7925 237.736 84.595 243.725C84.5475 243.63 93.6735 242.774 96.5729 252.851Z" fill="#5B4949"/>
<path d="M67.0557 137.635C47.1875 113.251 21.1402 123.423 15.2463 130.22C9.35241 137.017 27.2718 199.045 35.1145 209.787C43.0047 220.482 63.6334 230.749 98.9494 234.504C127.468 237.546 150.141 233.648 154.466 226.614C161.073 215.919 145.863 189.729 126.945 170.431C100.043 164.775 85.7356 160.592 67.0557 137.635Z" fill="#725E5E"/>
<path d="M67.0558 137.635C47.1876 113.251 21.1403 123.423 15.2464 130.22C14.0106 131.646 13.8204 135.401 14.3433 140.629C18.8112 151.656 29.4108 163.872 44.098 173.521C68.8144 189.777 95.7173 192.629 104.083 179.843C106.697 175.85 107.22 170.812 105.937 165.298C91.2493 160.64 80.222 153.843 67.0558 137.635Z" fill="#7C6666"/>
<path d="M126.946 170.431C119.198 168.815 112.496 167.294 106.46 165.393C109.739 179.7 106.982 193.151 97.6663 200.947C82.1235 213.97 54.4126 206.413 35.6851 184.12C18.5738 163.729 14.5336 138.3 12.6323 140.486C6.73842 147.283 27.2721 199.045 35.1623 209.787C43.0525 220.482 63.6812 230.749 98.9971 234.504C127.516 237.546 150.189 233.648 154.514 226.614C161.073 215.919 145.911 189.682 126.946 170.431Z" fill="#665252"/>
<path d="M47.6628 215.396C59.8784 194.91 49.6116 157.312 41.0559 151.418L38.6318 206.698L47.6628 215.396Z" fill="#665252"/>
<path d="M154.799 252.851H112.068C112.068 252.851 68.0065 229.228 65.1546 193.199C62.2552 157.122 88.8729 177.133 97.6187 200.756C106.364 224.38 125.852 238.354 130.843 239.97C137.498 242.109 154.324 236.453 154.799 252.851Z" fill="#8C7474"/>
<path d="M120.434 233.03C113.399 226.328 102.419 211.879 97.7137 199.093C88.9679 175.47 60.9243 156.457 63.7762 192.533C65.012 207.696 74.8985 221.338 84.3098 231.272C90.4413 228.23 106.745 228.42 120.434 233.03Z" fill="#725E5E"/>
<path d="M109.454 251.33C111.117 252.328 112.068 252.851 112.068 252.851H154.799C154.276 236.452 137.497 242.109 130.843 239.97C121.574 240.16 111.355 245.436 109.454 251.33Z" fill="#CCB2A2"/>
<path d="M161.026 158.406C158.839 158.834 151.615 170.431 152.518 177.181L174.81 184.833C173.051 173.045 164.543 157.74 161.026 158.406Z" fill="#AF9797"/>
<path d="M161.977 160.212C160.741 160.45 158.649 171.572 160.503 177.751L172.624 182.362C170.437 173.426 163.878 159.832 161.977 160.212Z" fill="#564141"/>
<path d="M162.309 161.495C161.359 161.78 160.693 172.142 162.689 177.799L171.15 181.126C168.678 172.903 163.783 161.067 162.309 161.495Z" fill="#E06161"/>
<path d="M166.587 175.422C166.824 176.848 167.015 178.226 167.157 179.51L171.197 181.078C168.678 172.855 163.782 161.02 162.356 161.448C162.309 161.448 162.261 161.495 162.214 161.543C163.877 164.3 165.589 169.433 166.587 175.422Z" fill="#BA4F4F"/>
<path d="M90.7741 177.085C78.0831 184.168 85.7833 194.672 85.7833 194.672C85.7833 194.672 90.1086 188.541 98.4742 184.453L90.7741 177.085Z" fill="#7C6666"/>
<path d="M90.0135 172.475C79.0812 173.854 76.8948 184.928 76.8948 184.928C76.8948 184.928 82.8362 181.459 89.6808 181.031L90.0135 172.475Z" fill="#7C6666"/>
<path d="M83.7869 168.577C72.8547 169.956 70.6682 181.03 70.6682 181.03C70.6682 181.03 76.6097 177.561 83.4542 177.133L83.7869 168.577Z" fill="#7C6666"/>
<path d="M73.2824 164.49C64.0613 172.332 66.723 182.076 66.723 182.076C66.723 182.076 70.6207 175.755 76.5621 171.192L73.2824 164.49Z" fill="#7C6666"/>
<path d="M84.5474 163.207C84.5474 165.631 96.3352 180.27 98.9494 188.351L119.911 169.576C101.801 156.457 84.5474 160.83 84.5474 163.207Z" fill="#AF9797"/>
<path d="M88.2074 165.108C88.3025 167.104 98.4267 179.13 100.898 185.879L116.916 169.623C101.754 159.024 88.0648 163.111 88.2074 165.108Z" fill="#564141"/>
<path d="M89.3958 165.868C89.4909 167.722 99.3774 178.559 101.611 184.738L115.633 170.479C101.754 160.782 89.3007 164.014 89.3958 165.868Z" fill="#E06161"/>
<path d="M99.7576 167.246C104.796 168.958 108.884 171.857 111.165 175.042L115.633 170.479C101.754 160.782 89.3007 164.014 89.3958 165.868C92.5329 165.583 96.1452 166.011 99.7576 167.246Z" fill="#BA4F4F"/>
<path d="M166.73 228.99C172.623 225.473 174.144 220.91 174.144 220.91L186.17 212.83L185.077 211.309C185.077 211.309 190.971 211.071 190.971 210.215C190.971 209.36 186.598 206.698 186.598 206.698C186.598 206.698 192.064 207.554 192.064 206.698C192.064 205.842 179.183 193.151 179.183 193.151C179.183 193.151 182.225 192.724 182.035 191.821C181.797 190.965 174.144 181.316 174.144 181.316C174.144 181.316 145.53 163.634 138.971 163.159C132.412 162.731 140.73 166.201 140.73 166.201C140.73 166.201 130.891 162.921 128.942 164.015C126.993 165.108 131.556 166.439 131.556 166.439C131.556 166.439 119.958 167.104 117.582 169.053C115.158 171.002 98.3316 181.744 93.3408 198.332L95.7649 197.477C95.7649 197.477 91.1543 206.888 90.7265 209.93C90.2988 212.972 94.8618 207.744 94.8618 207.744C94.8618 207.744 90.7266 212.354 91.3445 213.875C92.0099 215.396 97.9038 213.875 98.7594 214.968C99.615 216.062 91.9624 219.341 93.5309 221.29C95.0519 223.239 105.747 222.146 105.747 222.146C105.747 222.146 102.467 223.477 102.705 224.095C102.942 224.76 127.183 232.175 146.434 231.082C146.434 231.082 142.061 234.599 143.582 235.692C145.103 236.785 157.366 230.654 157.366 230.654C157.366 230.654 155.607 233.268 158.031 233.506C160.455 233.743 164.353 226.519 165.256 226.519C166.064 226.614 165.304 229.846 166.73 228.99Z" fill="#8C7474"/>
<path d="M124.949 167.151C121.907 167.579 118.675 168.197 117.534 169.148C115.11 171.096 98.2841 181.839 93.2932 198.427L95.7173 197.572C95.7173 197.572 91.1068 206.983 90.679 210.025C90.2988 212.829 94.1013 208.646 94.7192 207.933C94.1488 208.599 90.7266 212.544 91.2969 213.97C91.9624 215.491 97.8563 213.97 98.7119 215.063C99.5674 216.156 91.9148 219.436 93.4834 221.385C95.0044 223.334 142.583 205.509 145.055 191.868C146.386 184.643 137.688 172.665 124.949 167.151Z" fill="#7C6666"/>
<path d="M150.283 209.93C146.243 211.926 138.448 207.221 138.686 205.272C139.399 199.378 153.706 198.808 153.706 198.808L158.221 203.989C158.174 203.989 152.422 208.884 150.283 209.93Z" fill="#EAD5BE"/>
<path d="M147.717 207.696C144.104 207.696 140.967 206.033 139.351 203.608C139.018 204.131 138.781 204.702 138.686 205.32C138.448 207.268 146.196 211.926 150.283 209.978C152.422 208.932 158.221 204.036 158.221 204.036L157.841 203.608C154.894 205.89 150.759 207.696 147.717 207.696Z" fill="#DBBA9A"/>
<path d="M164.923 209.645C168.963 211.641 173.336 204.939 173.622 202.99C174.049 199.616 161.739 198 161.739 198L157.033 202.325C156.985 202.325 162.784 208.599 164.923 209.645Z" fill="#EAD5BE"/>
<path d="M172.053 205.89C168.536 208.789 163.355 208.884 161.358 204.797C160.313 202.61 160.55 200.186 161.644 198.142L157.033 202.372C157.033 202.372 162.784 208.694 164.971 209.74C167.87 211.166 171.007 208.076 172.576 205.509C172.386 205.605 172.196 205.747 172.053 205.89Z" fill="#DBBA9A"/>
<path d="M60.9243 252.851H33.4035C33.4035 252.851 -7.66374 194.719 1.27219 159.974C10.2557 125.228 21.378 124.801 26.4164 127.605C31.4547 130.457 67.7213 174.804 37.5863 222.906C37.5863 222.906 41.9592 234.694 45.4765 240.825C45.429 240.825 59.1656 237.308 60.9243 252.851Z" fill="#7C6666"/>
<path d="M45.429 240.825C41.9117 234.694 37.5388 222.906 37.5388 222.906C41.8642 216.014 44.8111 209.169 46.7123 202.563C42.0543 213.4 34.9721 220.054 27.0819 219.531C13.06 218.628 1.74751 195.718 1.74751 168.387C1.74751 163.634 2.08022 159.119 2.74567 154.841C2.27035 156.457 1.79503 158.168 1.31972 159.974C-7.66374 194.72 33.451 252.851 33.451 252.851H60.9718C59.1656 237.308 45.429 240.825 45.429 240.825Z" fill="#725E5E"/>
<path d="M37.5389 222.906C38.2043 221.86 38.8222 220.815 39.3926 219.769L25.9412 224.665C25.9412 224.665 31.6449 223.429 39.345 227.659C38.2993 224.855 37.5389 222.906 37.5389 222.906Z" fill="#665252"/>
<path d="M33.4036 252.851H60.9244C59.1657 237.355 45.4291 240.825 45.4291 240.825C39.2975 242.109 34.4018 246.244 32.5005 251.567C33.0709 252.375 33.4036 252.851 33.4036 252.851Z" fill="#CCB2A2"/>
<path d="M179.183 193.151C179.183 193.151 182.225 192.723 182.035 191.82C181.797 190.965 174.144 181.316 174.144 181.316C174.144 181.316 153.421 168.53 143.201 164.395C139.209 172.047 149.856 186.307 167.775 196.954C176.141 201.944 184.649 205.272 192.016 206.793C192.064 206.745 192.064 206.698 192.064 206.65C192.064 205.842 179.183 193.151 179.183 193.151Z" fill="#7C6666"/>
<path d="M173.384 191.82C173.194 191.82 173.004 191.773 172.813 191.63C172.623 191.488 168.488 188.588 162.784 191.107C162.309 191.298 161.739 191.107 161.501 190.632C161.263 190.157 161.501 189.586 161.976 189.349C168.726 186.354 173.717 189.919 173.907 190.062C174.334 190.394 174.43 190.965 174.097 191.393C173.954 191.678 173.669 191.82 173.384 191.82Z" fill="#564141"/>
<path d="M120.719 196.336C120.434 196.336 120.148 196.193 119.958 195.956C119.626 195.528 119.721 194.91 120.149 194.625C127.278 189.349 134.693 190.632 134.978 190.68C135.501 190.775 135.834 191.297 135.739 191.82C135.644 192.343 135.121 192.676 134.598 192.581C134.551 192.581 127.706 191.44 121.242 196.193C121.099 196.288 120.909 196.336 120.719 196.336Z" fill="#564141"/>
<path d="M159.742 204.654C158.934 205.224 157.889 204.939 157.889 204.939C157.889 204.939 150.997 200.043 151.329 198.712C151.567 197.762 163.925 196.336 164.638 198.189C164.971 198.855 159.742 204.654 159.742 204.654Z" fill="#D85D5D"/>
<path d="M159.6 203.608C158.934 204.083 158.079 203.845 158.079 203.845C158.079 203.845 152.423 199.805 152.708 198.712C152.898 197.952 163.022 196.763 163.64 198.284C163.878 198.855 159.6 203.608 159.6 203.608Z" fill="#EF7878"/>
<path d="M153.706 200.708C156.082 199.139 157.318 199.377 157.889 200.233C158.459 201.041 156.843 203.37 156.843 203.37L153.706 200.708Z" fill="#D85D5D"/>
<path d="M161.311 199.853C160.883 200.661 161.169 202.847 161.169 202.847L163.165 200.233C162.357 198.807 161.739 199.045 161.311 199.853Z" fill="#D85D5D"/>
<path d="M153.278 212.639C160.265 215.349 162.357 211.974 161.453 210.12C160.218 212.782 157.033 213.067 153.278 212.639Z" fill="#564141"/>
<path d="M192.064 206.698C192.064 206.602 191.874 206.27 191.493 205.842C190.685 205.747 190.067 205.652 190.067 205.652C190.067 205.652 190.97 206.175 191.969 206.888C192.016 206.84 192.064 206.793 192.064 206.698Z" fill="#665252"/>
<path d="M182.035 191.963C182.035 191.915 182.035 191.915 182.035 191.868V191.82C181.987 191.82 181.939 191.82 181.939 191.82C181.939 191.82 181.939 191.868 182.035 191.963Z" fill="#665252"/>
<path d="M188.784 210.358L189.212 210.928C190.21 210.786 190.971 210.548 190.971 210.215C189.782 210.31 188.784 210.358 188.784 210.358Z" fill="#665252"/>
<path d="M94.3866 208.266C95.0996 204.606 98.6169 196.288 98.6169 196.288L96.2404 197.191C98.4743 188.113 104.178 180.745 109.312 175.564C103.465 180.65 96.2403 188.493 93.2458 198.427L95.6699 197.572C95.6699 197.572 91.0594 206.983 90.6316 210.025C90.2989 212.496 93.2934 209.454 94.3866 208.266Z" fill="#665252"/>
<path d="M107.077 223.524C106.84 222.859 110.024 221.528 110.024 221.528C110.024 221.528 99.3773 222.621 97.7613 220.625C96.1452 218.628 103.608 215.254 102.657 214.16C101.706 213.067 95.9075 214.588 95.147 213.067C94.4816 211.641 97.7137 207.601 98.2366 206.936C97.6662 207.649 94.0538 211.926 94.2915 209.074C94.2915 208.884 94.339 208.599 94.3865 208.361C93.3409 209.597 90.7742 212.782 91.297 214.018C91.9624 215.539 97.8563 214.018 98.7119 215.111C99.5675 216.204 91.9149 219.484 93.4834 221.433C95.0044 223.381 105.699 222.288 105.699 222.288C105.699 222.288 102.419 223.619 102.657 224.237C102.752 224.522 108.076 226.328 115.681 227.992C110.452 225.853 107.173 223.809 107.077 223.524Z" fill="#665252"/>
<path d="M92.1526 208.742C94.4816 208.932 94.8619 210.405 94.1965 212.592C98.3792 209.217 101.754 201.707 101.754 201.707C101.754 201.707 98.2842 205.034 92.1526 208.742Z" fill="#665252"/>
</svg>
