<svg width="337" height="213" viewBox="0 0 337 213" fill="none" xmlns="http://www.w3.org/2000/svg">
<path d="M90.6335 36.332L100.21 41.6715L117.679 33.8363C103.808 30.8764 90.6335 36.332 90.6335 36.332Z" fill="#7C6666"/>
<path d="M79.8384 44.9797L90.0531 48.5781L102.067 36.7383C89.937 37.1445 79.8384 44.9797 79.8384 44.9797Z" fill="#7C6666"/>
<path d="M70.3203 56.0648L81.1153 57.1675L90.0533 42.8901C78.3876 46.1403 70.3203 56.0648 70.3203 56.0648Z" fill="#7C6666"/>
<path d="M66.9541 67.0342L77.7491 66.3958L84.2495 50.8416C73.2803 55.8909 66.9541 67.0342 66.9541 67.0342Z" fill="#7C6666"/>
<path d="M62.427 80.9631L72.8158 77.8291L75.6016 61.1721C66.0834 68.659 62.427 80.9631 62.427 80.9631Z" fill="#7C6666"/>
<path d="M61.9627 109.634L70.6104 103.134L67.4183 86.5928C61.0922 96.8655 61.9627 109.634 61.9627 109.634Z" fill="#725E5E"/>
<path d="M60.1636 96.1691L70.0301 91.7001L70.4942 74.811C62.0787 83.5168 60.1636 96.1691 60.1636 96.1691Z" fill="#725E5E"/>
<path d="M336.599 151.421C337.992 149.622 315.357 139.466 315.357 139.466C315.357 139.466 303.692 146.256 299.571 156.529L300.673 158.212C317.04 157.457 333.755 155.02 336.599 151.421Z" fill="#E5A24A"/>
<path d="M304.736 148.403C309.437 149.274 315.009 149.448 320.871 148.752C324.295 148.345 327.487 147.707 330.447 146.836C324.179 143.412 315.357 139.466 315.357 139.466C315.357 139.466 309.553 142.774 304.736 148.403Z" fill="#EFC867"/>
<path d="M0.268022 140.51C-1.93743 138.537 10.1926 120.313 10.1926 120.313C10.1926 120.313 23.5993 126.233 33.0596 138.421L33.1758 140.8C19.5948 143.644 4.67892 144.457 0.268022 140.51Z" fill="#E5A24A"/>
<path d="M9.90252 135.287C16.751 135.287 22.9611 134.242 27.7202 132.443C19.2466 124.26 10.1927 120.255 10.1927 120.255C10.1927 120.255 4.56304 128.728 1.66113 134.706C4.27285 135.113 7.05865 135.287 9.90252 135.287Z" fill="#EFC867"/>
<path d="M76.2401 98.781C62.1948 96.2854 45.828 114.684 49.0782 133.778L75.5436 120.894C75.5436 120.894 90.5174 101.335 76.2401 98.781Z" fill="#665252"/>
<path d="M236.947 87.5216C232.188 82.066 193.361 46.9529 188.428 44.2832C178.445 38.9436 154.998 44.9216 154.998 44.9216C145.944 38.9437 121.394 30.6442 108.509 33.8943C60.7437 45.8502 61.0919 109.866 71.6548 131.514L249.426 125.537C250.122 120.719 243.506 95.0085 236.947 87.5216Z" fill="#725E5E"/>
<path d="M236.948 87.5215C232.188 82.0659 193.361 46.9529 188.428 44.2831C187.383 43.7027 186.164 43.2965 184.887 42.9482C185.816 46.5466 151.748 61.1722 151.748 65.0027C151.748 99.0711 147.511 115.786 99.6874 115.786C87.9056 115.786 76.6463 114.103 66.3735 111.027C67.2441 119.268 69.1594 126.465 71.597 131.398L249.368 125.42C250.122 120.719 243.506 95.0084 236.948 87.5215Z" fill="#665252"/>
<path d="M135.149 123.969C135.149 99.129 117.331 79.4541 117.331 79.4541C117.331 79.4541 126.211 102.495 117.331 128.264L135.149 123.969Z" fill="#665252"/>
<path d="M140.488 45.3279C141.591 43.3546 142.578 41.3232 143.448 39.2919C132.305 34.9971 117.505 31.5728 108.451 33.8363C84.4235 39.8142 72.5836 58.9668 68.0566 79.2802C91.5621 91.0039 123.715 76.0881 140.488 45.3279Z" fill="#7C6666"/>
<path d="M155.868 79.9186C146.814 101.857 148.788 116.483 150.935 122.983C153.083 129.541 186.455 127.452 186.455 127.452L193.187 106.326C193.187 106.326 185.584 102.554 171.829 104.295C171.829 104.295 161.498 66.3377 155.868 79.9186Z" fill="#725E5E"/>
<path d="M180.128 103.888C166.838 106.79 157.319 114.915 157.319 124.55C157.319 125.188 157.377 125.827 157.435 126.465C167.708 128.612 186.454 127.452 186.454 127.452L193.187 106.326C193.187 106.326 188.602 104.062 180.128 103.888Z" fill="#7C6666"/>
<path d="M48.9039 129.773C48.1494 113.058 113.675 96.2854 129.635 118.398C142.171 135.809 77.7489 142.252 54.5917 138.595C48.3236 137.608 49.02 132.095 48.9039 129.773Z" fill="#7C6666"/>
<path d="M71.8292 112.362C68.405 114.974 66.4316 118.108 66.4316 121.416C66.4316 129.541 78.2134 136.332 94.0578 138.189C116.635 135.461 137.238 128.961 129.635 118.456C120.001 105.049 92.1426 105.92 71.8292 112.362Z" fill="#8C7474"/>
<path d="M277.923 213H74.383C74.383 213 20.5235 182.124 27.43 137.028C27.43 137.028 147.627 102.031 186.745 122.286C186.745 122.286 257.667 111.259 303.692 154.033C307.986 175.74 295.973 193.441 277.923 213Z" fill="#EFC867"/>
<path d="M84.0752 123.563C110.308 125.014 146.234 125.014 192.723 132.385C223.076 137.202 244.202 135.403 264.922 130.586C225.92 116.134 186.687 122.228 186.687 122.228C165.619 111.317 120.813 116.482 84.0752 123.563Z" fill="#E5A24A"/>
<path d="M184.423 174.985C113.558 174.985 52.8507 159.257 27.6621 136.912C27.488 136.97 27.3719 136.97 27.3719 136.97C20.4654 182.124 74.3247 212.942 74.3247 212.942H277.864C295.102 194.312 306.825 177.364 304.156 156.993C273.57 168.136 231.202 174.985 184.423 174.985Z" fill="#E5A24A"/>
<path d="M228.3 19.7329L262.078 37.4926C266.953 28.6708 267.476 3.07593 267.476 3.07593C267.476 3.07593 239.966 4.81708 228.3 19.7329Z" fill="#AF9797"/>
<path d="M154.708 0C154.708 0 149.426 16.9471 159.06 41.9035L193.767 20.6035C176.53 4.58501 154.708 0 154.708 0Z" fill="#AF9797"/>
<path d="M232.014 19.7331C242.055 26.3494 254.243 28.0325 260.221 32.6755C260.221 32.6755 264.168 20.9519 263.413 8.24151C250.355 8.12543 238.341 13.7551 232.014 19.7331Z" fill="#564141"/>
<path d="M233.988 19.9652C242.868 25.769 253.605 27.278 258.886 31.3987C258.886 31.3987 262.368 21.0679 261.672 9.86651C250.122 9.75043 239.559 14.6837 233.988 19.9652Z" fill="#E06161"/>
<path d="M248.613 26.6396C252.734 28.1486 256.39 29.4835 258.886 31.3988C258.886 31.3988 262.194 21.5323 261.73 10.6211C259.408 16.1928 254.881 21.8805 248.613 26.6396Z" fill="#BA4F4F"/>
<path d="M186.687 18.6883C175.427 22.7509 167.186 29.9477 160.802 34.4166C160.802 34.4166 155.288 15.9605 157.261 5.04932C169.043 7.83515 180.303 13.2327 186.687 18.6883Z" fill="#564141"/>
<path d="M185.294 19.7911C175.427 23.5636 168.172 30.1799 162.485 34.3006C162.485 34.3006 157.726 17.4115 159.467 7.42896C169.856 9.86656 179.722 14.7998 185.294 19.7911Z" fill="#E06161"/>
<path d="M161.324 7.83521C166.954 10.563 172.003 17.0052 174.673 25.3047C177.865 23.2153 181.405 21.242 185.352 19.733C180.012 15.09 170.958 10.4469 161.324 7.83521Z" fill="#BA4F4F"/>
<path d="M226.675 4.99137C226.675 4.99137 223.715 9.92459 219.71 11.6077C219.014 7.6611 216.576 3.94665 216.576 3.94665C216.576 3.94665 215.532 7.37091 211.411 9.69244C209.96 5.91996 207.174 2.96003 207.174 2.96003C207.174 2.96003 207 6.44232 204.33 9.92461C202.125 5.45567 197.83 2.78589 197.83 2.78589C197.83 2.78589 198.817 7.1968 197.134 12.5943C195.044 7.66111 190.285 4.70118 190.285 4.70118C190.285 4.70118 191.852 11.7818 187.615 19.0366C190.807 19.5589 226.269 19.675 229.635 19.733C230.505 11.7238 226.675 4.99137 226.675 4.99137Z" fill="#8C7474"/>
<path d="M268.927 52.9888L278.851 56.0648C278.851 56.0648 270.842 47.8814 266.663 45.0956L271.132 43.7607C271.132 43.7607 268.172 39.2338 261.266 36.3319L265.502 34.3586C265.502 34.3586 255.172 26.1171 242.287 23.4474C242.287 23.4474 207.812 4.00462 174.731 23.8537L160.511 34.0103C152.038 38.3632 143.1 52.0602 143.1 52.0602L148.207 53.3951C148.207 53.3951 138.689 62.1588 137.122 65.1768L142.171 66.6277C142.171 66.6277 132.711 77.0746 130.796 80.3828L149.832 78.3514L143.622 92.5708C143.622 92.5708 158.538 91.1779 165.909 86.8831L163.471 93.7896C163.471 93.7896 170.958 93.6155 175.717 90.7136L176.298 99.1291C176.298 99.1291 185.642 98.5487 190.691 94.486C190.691 94.486 192.084 100.464 193.129 103.366C193.129 103.366 199.281 101.044 203.285 96.9817L212.281 105.281C212.281 105.281 217.157 100.696 218.898 96.7495C218.898 96.7495 224.411 104.469 229.809 106.848C229.809 106.848 234.278 101.277 234.916 97.0397L241.126 105.281C241.126 105.281 247.975 97.388 248.207 93.5574L254.881 102.089C254.881 102.089 256.681 94.428 256.274 90.7136L267.302 100.348C267.302 100.348 266.895 92.8029 265.851 89.4948L277.342 95.4727C277.342 95.4727 273.454 79.3381 272.061 75.8558L279.199 80.0926C279.199 80.0926 278.561 71.9092 275.659 67.6725L281.405 70.3422C281.463 70.4583 272.699 57.3416 268.927 52.9888Z" fill="#8C7474"/>
<path d="M169.739 72.7217C200.732 63.3776 220.465 37.7828 213.732 15.5542C213.674 15.4381 213.616 15.264 213.616 15.148C202.067 14.1613 188.312 15.6703 174.789 23.8537L160.57 34.0103C152.096 38.3632 143.158 52.0602 143.158 52.0602L148.265 53.3951C148.265 53.3951 138.747 62.1588 137.18 65.1768L142.229 66.6277C142.229 66.6277 138.225 71.0967 134.859 75.1013C145.48 77.0166 157.551 76.3781 169.739 72.7217Z" fill="#7C6666"/>
<path d="M279.141 78.7577C278.793 76.2621 277.922 70.9226 275.775 67.7305L281.521 70.4002C281.521 70.4002 272.757 57.3417 268.985 52.9888L278.909 56.0648C278.909 56.0648 270.9 47.8815 266.721 45.0956L271.19 43.7608C271.19 43.7608 268.23 39.2338 261.324 36.3319L265.56 34.3586C265.56 34.3586 255.984 25.4787 243.274 22.0545C238.515 20.7776 235.148 19.3267 224.121 16.8311C223.309 18.6302 222.612 20.4875 222.148 22.4608C216.692 45.0376 237.818 69.4716 269.275 77.0746C270.435 77.3648 271.596 77.597 272.815 77.8291C272.583 77.0747 272.351 76.4362 272.177 75.9719L276.297 78.4095C277.226 78.5256 278.155 78.6417 279.141 78.7577Z" fill="#7C6666"/>
<path d="M232.131 131.747C231.028 140.743 233.117 150.783 250.413 151.015C267.766 151.247 266.025 135.403 263.123 130.47C259.35 123.969 232.827 122.461 232.131 131.747Z" fill="#E5A24A"/>
<path d="M235.09 124.724C232.711 135.287 234.568 147.011 251.225 146.72C267.824 146.43 261.962 122.693 258.712 116.773C252.676 105.629 239.501 105.281 235.09 124.724Z" fill="#8C7474"/>
<path d="M249.6 131.05C244.957 131.05 236.019 128.555 235.149 124.55C235.149 124.608 235.09 124.666 235.09 124.724C232.711 135.287 234.568 147.011 251.225 146.72C264.922 146.488 263.355 130.296 260.569 121.3C262.078 128.38 255.346 131.05 249.6 131.05Z" fill="#EAD5BE"/>
<path d="M176.82 129.715C176.124 139.35 176.53 149.796 195.566 150.029C214.603 150.261 208.799 129.425 205.317 124.202C198.816 114.277 177.981 112.536 176.82 129.715Z" fill="#E5A24A"/>
<path d="M100.152 126.639C98.701 138.247 94.2901 158.154 119.595 160.417C141.359 162.333 139.27 131.456 135.613 125.072C128.765 113 100.732 121.938 100.152 126.639Z" fill="#E5A24A"/>
<path d="M178.909 121.648C179.084 133.72 180.186 146.72 195.683 147.069C211.179 147.417 204.91 121.358 201.66 114.799C195.682 102.379 178.619 100.174 178.909 121.648Z" fill="#8C7474"/>
<path d="M197.191 128.09C190.633 130.412 183.262 127.161 178.909 120.661C178.909 121.009 178.909 121.3 178.909 121.648C179.084 133.72 180.186 146.72 195.683 147.068C207.464 147.301 206.652 132.385 204.156 122.286C202.531 124.956 200.151 127.045 197.191 128.09Z" fill="#EAD5BE"/>
<path d="M120.407 111.433L103.808 118.572C112.34 130.76 98.5267 150.144 115.3 155.194C137.702 161.868 143.448 121.125 120.407 111.433Z" fill="#8C7474"/>
<path d="M192.897 54.1495C186.803 63.4356 191.736 72.7797 198.817 72.7797C205.897 72.7797 219.188 59.8372 219.536 57.2255C219.594 56.5871 217.505 53.337 215.299 52.6405C208.451 50.5511 194.522 51.5958 192.897 54.1495Z" fill="#EAD5BE"/>
<path d="M201.719 67.9625C195.624 67.9625 191.156 61.1721 193.767 53.3369C193.361 53.5691 193.013 53.8012 192.839 54.0914C186.745 63.3775 191.678 72.7216 198.759 72.7216C205.839 72.7216 219.13 59.7791 219.478 57.1674C219.478 57.0513 219.42 56.8772 219.362 56.7031C215.009 61.4042 206.826 67.9625 201.719 67.9625Z" fill="#DBBA9A"/>
<path d="M237.528 71.1547C229.286 73.0119 216.866 63.3776 213.79 53.9174C212.455 49.7386 243.506 53.5111 245.537 56.5871C247.569 59.6631 240.894 70.4002 237.528 71.1547Z" fill="#EAD5BE"/>
<path d="M245.537 56.5871C245.363 56.2969 244.841 56.0067 244.202 55.7166C243.68 60.0114 238.631 67.4402 235.845 68.0787C229.054 69.5877 219.42 63.3196 214.487 55.7746C218.433 64.5964 229.809 72.8959 237.528 71.1547C240.894 70.4002 247.569 59.6631 245.537 56.5871Z" fill="#DBBA9A"/>
<path d="M217.679 60.998C215.183 60.1855 211.179 52.9307 211.004 51.944C210.83 50.9574 216.112 50.2029 218.027 50.2029C219.942 50.2029 224.527 50.5511 224.643 52.1181C224.934 55.7165 217.679 60.998 217.679 60.998Z" fill="#D85D5D"/>
<path d="M192.026 48.5779C188.602 48.5199 184.887 47.7654 181.927 45.676C181.521 45.3859 181.405 44.8055 181.695 44.3992C181.986 43.9929 182.508 43.8769 182.972 44.1671C189.589 48.694 200.093 46.0823 201.254 45.0957C201.66 44.8055 202.183 44.8635 202.531 45.2117C202.879 45.618 202.821 46.1404 202.415 46.4886C201.254 47.4172 196.901 48.694 192.026 48.5779Z" fill="#564141"/>
<path d="M245.537 50.7834C241.707 50.6673 237.18 49.6807 233.872 46.7788C233.465 46.4306 233.465 45.8502 233.756 45.502C234.104 45.1537 234.626 45.0957 235.032 45.4439C240.604 50.2611 250.645 48.9842 251.98 48.0556C252.386 47.7654 252.966 47.8815 253.256 48.2878C253.547 48.6941 253.488 49.2744 253.082 49.5646C252.154 50.145 249.136 50.8415 245.537 50.7834Z" fill="#564141"/>
<path d="M283.436 206.848C259.757 205.049 232.769 204.004 204.156 204.004C152.038 204.004 105.375 207.37 74.0347 212.768C74.2668 212.942 74.4409 213 74.4409 213H277.981C279.838 210.91 281.637 208.879 283.436 206.848Z" fill="#E5753C"/>
<path d="M217.737 59.0828C215.764 58.4444 212.572 52.6986 212.455 51.8861C212.339 51.0736 216.518 50.4932 218.027 50.4932C219.594 50.4932 223.193 50.7253 223.251 52.0022C223.483 54.9041 217.737 59.0828 217.737 59.0828Z" fill="#EF7878"/>
<path d="M215.706 57.806C216.228 56.0068 216.344 54.4978 215.996 53.8014C215.648 53.0469 212.746 53.3371 212.746 53.3371C213.268 54.9622 214.197 56.5292 215.706 57.806Z" fill="#D85D5D"/>
<path d="M219.942 58.2702C219.594 56.471 219.594 54.904 220 54.2075C220.407 53.511 223.251 53.9753 223.251 53.9753C222.612 55.6584 221.567 57.1094 219.942 58.2702Z" fill="#D85D5D"/>
<path d="M210.656 69.0074C212.978 74.2308 220.465 74.521 223.483 68.8333C219.13 70.8646 214.835 70.9226 210.656 69.0074Z" fill="#665252"/>
<path d="M165.967 86.9412L163.529 93.8478C163.529 93.8478 163.703 93.8478 163.994 93.8478L170.32 84.1554C163.239 85.2001 148.672 88.2761 148.672 88.2761L154.185 75.6238L135.149 77.6551C137.064 74.3469 147.337 65.0028 147.337 65.0028L141.591 63.1456C143.1 60.1276 152.85 51.8862 152.85 51.8862L147.453 49.3906C147.453 49.3906 149.774 44.6314 153.257 39.6401C147.569 45.2118 143.042 52.1764 143.042 52.1764L148.149 53.5113C148.149 53.5113 138.631 62.275 137.064 65.293L142.113 66.7439C142.113 66.7439 132.653 77.1908 130.738 80.499L149.774 78.4677L143.564 92.687C143.622 92.5709 158.538 91.178 165.967 86.9412Z" fill="#A58888"/>
<path d="M269.797 54.0915L268.23 53.6272C271.945 57.9801 276.762 74.1146 276.762 74.1146L269.391 72.0253C270.842 75.4495 273.628 88.4501 273.628 88.4501L263.413 83.1106C263.877 86.767 263.645 93.2672 263.645 93.2672L255.578 86.0705C255.81 88.2179 254.997 96.6335 255.055 101.857C255.404 100.348 256.739 94.0217 256.39 90.8296L267.418 100.464C267.418 100.464 267.011 92.919 265.967 89.6108L277.458 95.5888C277.458 95.5888 273.57 79.4542 272.177 75.9719L279.315 80.2087C279.315 80.2087 278.677 72.0253 275.775 67.7885L281.521 70.4583C281.463 70.4583 273.918 59.1989 269.797 54.0915Z" fill="#A58888"/>
<path d="M177.865 74.9853C171.887 76.3782 162.543 78.0613 162.543 78.0613L172.351 63.958L167.882 75.1594L177.865 74.9853Z" fill="#A58888"/>
<path d="M165.503 62.217C160.454 62.275 152.56 61.9268 152.56 61.9268L163.007 52.2925L157.435 60.5339L165.503 62.217Z" fill="#A58888"/>
<path d="M247.104 75.8558C251.573 76.9005 258.48 78.2354 258.48 78.2354L251.167 67.3242L254.475 75.9719L247.104 75.8558Z" fill="#A58888"/>
<path d="M229.577 81.8337C232.653 84.7356 237.76 89.0304 237.76 89.0304L239.559 78.0032L235.961 85.5481L229.577 81.8337Z" fill="#7C6666"/>
<path d="M205.143 81.5435C206.884 85.374 210.018 91.2939 210.018 91.2939L215.822 81.7176L209.67 87.4053L205.143 81.5435Z" fill="#7C6666"/>
<path d="M187.557 74.521C186.919 78.6997 186.28 85.3161 186.28 85.3161L196.379 80.4989L188.138 81.8338L187.557 74.521Z" fill="#7C6666"/>
<path d="M169.913 39.1177C166.663 41.8455 161.846 46.4305 161.846 46.4305L172.641 49.4485L165.561 45.0376L169.913 39.1177Z" fill="#A58888"/>
<path d="M255.81 64.8286C259.466 65.5831 265.27 66.5117 265.27 66.5117L259.176 57.6899L261.962 64.7706L255.81 64.8286Z" fill="#A58888"/>
<path d="M267.127 96.9818L256.39 87.5796C256.797 91.294 254.997 98.9551 254.997 98.9551L248.323 90.4234C248.091 94.254 241.242 102.147 241.242 102.147L235.032 93.9057C234.394 98.1425 229.925 103.714 229.925 103.714C224.527 101.335 219.014 93.6155 219.014 93.6155C217.273 97.5621 212.397 102.147 212.397 102.147L203.401 93.8477C199.397 97.9104 193.245 100.232 193.245 100.232C192.2 97.33 190.807 91.3521 190.807 91.3521C185.758 95.3567 176.414 95.9951 176.414 95.9951L175.833 87.5796C172.235 89.785 167.012 90.4235 164.748 90.5976L163.587 93.9057C163.587 93.9057 171.074 93.7316 175.833 90.8297L176.414 99.2453C176.414 99.2453 185.758 98.6649 190.807 94.6022C190.807 94.6022 192.2 100.58 193.245 103.482C193.245 103.482 199.397 101.16 203.401 97.0978L212.397 105.397C212.397 105.397 217.273 100.812 219.014 96.8657C219.014 96.8657 224.527 104.585 229.925 106.964C229.925 106.964 234.394 101.393 235.032 97.1558L241.242 105.397C241.242 105.397 248.091 97.5041 248.323 93.6736L254.997 102.205C254.997 102.205 256.797 94.5442 257.087 92.0485L268.114 101.683C268.056 101.683 267.301 98.9551 267.127 96.9818Z" fill="#A58888"/>
<path d="M254.417 42.3097C240.778 44.1669 232.188 39.0595 232.188 39.0595L234.51 35.0549C239.095 38.0729 245.944 40.4525 254.417 42.3097Z" fill="#A58888"/>
<path d="M180.825 38.247C193.535 41.207 202.067 36.9122 202.067 36.9122L200.267 32.7334C195.566 35.4032 188.95 37.1443 180.825 38.247Z" fill="#A58888"/>
<path d="M166.199 184.735C209.786 198.548 253.372 188.392 276.994 173.36C235.381 184.387 199.455 186.593 166.199 184.735Z" fill="#EFC867"/>
</svg>
