<svg width="24" height="15" viewBox="0 0 24 15" fill="none" xmlns="http://www.w3.org/2000/svg">
<path d="M18.0301 6.37528C18.6327 8.22617 21.4277 7.69694 21.4277 9.47695C21.4277 11.1028 16.4126 12.1108 14.7829 12.1947L7.98942 12.3211C3.63732 12.3211 0.483643 11.1343 0.483643 7.56783C0.483643 4.00139 3.70107 0.13916 8.30123 0.13916C12.646 0.13916 16.9216 2.96945 18.0301 6.37528Z" fill="#D87E35"/>
<path d="M19.7523 7.86797C19.4606 7.74581 19.1212 7.80956 18.8995 8.03518C17.7295 9.22702 13.9763 9.94875 12.6082 10.0191L5.81467 10.1453C3.82702 10.1453 2.08957 9.89764 0.788208 9.28881C1.67555 11.5275 4.43229 12.3212 7.99055 12.3212L14.784 12.1948C16.4136 12.1111 21.4288 11.1028 21.4288 9.47703C21.4288 8.50939 20.6029 8.22411 19.7523 7.86797Z" fill="#C67030"/>
<path d="M20.0586 0.351352C19.8183 0.678116 19.865 1.07379 19.9457 1.34678C20.0075 1.55584 19.932 1.78074 19.7558 1.90896L16.7384 4.09534C16.371 4.36156 16.2905 4.87601 16.5591 5.24177C16.8274 5.60736 17.3424 5.68464 17.7064 5.41379L20.6961 3.18966C20.8713 3.06002 21.1085 3.05539 21.2894 3.17684C21.5257 3.33568 21.8893 3.49879 22.2729 3.3672C22.7758 3.195 22.9875 2.6371 22.776 2.14971C22.6096 1.76668 22.2524 1.561 21.8892 1.561C21.811 1.561 21.7444 1.522 21.7031 1.46466C21.6609 1.40822 21.6436 1.33307 21.6669 1.25846C21.7757 0.911926 21.6865 0.509303 21.3708 0.236139C20.9691 -0.111816 20.3736 -0.0767352 20.0586 0.351352Z" fill="#E2E2E2"/>
<path d="M8.97453 10.8096C10.2269 12.5154 12.7061 12.8233 14.5117 11.4975C15.3613 10.8737 15.8772 10.0238 16.2013 9.01338C16.6319 7.67124 17.2624 6.58945 18.3152 5.62358C18.5816 5.37909 18.6311 4.98768 18.4288 4.71238L17.6234 3.61545C17.4213 3.33997 17.0329 3.26999 16.72 3.45091C15.4831 4.16606 14.2621 4.44385 12.8526 4.45275C11.7917 4.45934 10.8261 4.69707 9.97655 5.32086C8.17089 6.64643 7.72233 9.10402 8.97453 10.8096Z" fill="#E88C38"/>
<path d="M18.4277 4.71229L17.6223 3.61536C17.5573 3.52685 17.4337 3.48234 17.2944 3.4631C16.9221 3.412 16.5522 3.56532 16.3047 3.8481C15.4619 4.81112 14.6465 6.07419 14.3101 7.12322C13.986 8.1336 13.47 8.98354 12.6204 9.60733C11.3826 10.5162 9.8282 10.6571 8.56958 10.1063C8.67589 10.3508 8.8098 10.5867 8.97363 10.8097C10.2258 12.5153 12.705 12.8233 14.5106 11.4974C15.3602 10.8738 15.8763 10.0237 16.2002 9.01346C16.6308 7.67132 17.2613 6.58953 18.3141 5.62349C18.5805 5.37917 18.63 4.98776 18.4277 4.71229Z" fill="#D38231"/>
<path d="M22.6872 12.0508H0.653172C0.292396 12.0508 0 12.3432 0 12.704C0 13.0647 0.292396 13.3571 0.653172 13.3571H1.93031C2.09307 13.3571 2.2398 13.4556 2.30124 13.6064L2.5249 14.1536C2.73395 14.6654 3.23185 15 3.78476 15H19.5556C20.1085 15 20.6064 14.6654 20.8155 14.1536L21.0391 13.6064C21.1006 13.4556 21.2473 13.3571 21.4101 13.3571H22.6872C23.048 13.3571 23.3404 13.0647 23.3404 12.704C23.3404 12.3432 23.048 12.0508 22.6872 12.0508Z" fill="#E2E2E2"/>
<path d="M22.6884 12.0508H20.6569C20.6569 12.7723 20.0722 13.3571 19.3506 13.3571H19.3349C19.3266 13.3571 19.3184 13.3578 19.31 13.358H1.94397C2.10156 13.363 2.24242 13.4595 2.30243 13.6062L2.48887 14.0625H18.1757C18.1577 14.0972 18.1406 14.1326 18.1256 14.1695L17.9663 14.5598C17.8575 14.826 17.5985 14.9998 17.311 14.9998H19.5568C20.1097 14.9998 20.6076 14.6654 20.8167 14.1536L21.0403 13.6062C21.102 13.4556 21.2485 13.3571 21.4113 13.3571H22.6884C23.0492 13.3571 23.3416 13.0647 23.3416 12.704C23.3416 12.3432 23.0492 12.0508 22.6884 12.0508Z" fill="#D8D6D4"/>
</svg>
