<svg width="62" height="59" viewBox="0 0 49 58" fill="none" xmlns="http://www.w3.org/2000/svg">
<path d="M0.481309 23.0288C0.40896 23.0288 0.33566 23.0469 0.263311 23.0812C0.19953 23.1126 0.142413 23.1678 0.0938629 23.2449C0.0595924 23.2992 0.0348415 23.3715 0.0186582 23.4639C0.00533084 23.5505 0.000571315 23.6419 0.00628305 23.7437C0.0167546 23.9379 0.0567365 24.1607 0.129085 24.4234C0.192866 24.6595 0.274735 24.9061 0.38897 25.1993C0.486069 25.4525 0.603159 25.7267 0.739289 26.016C0.996318 26.5672 1.22288 26.9699 1.47134 27.3231C2.07298 28.1779 2.74887 29.0014 3.48188 29.7696C4.21774 30.5407 5.01643 31.2585 5.8551 31.9039C6.68997 32.5474 7.56196 33.1148 8.44633 33.5898C8.433 33.6231 8.44157 33.6688 8.46632 33.705C8.48726 33.7383 8.51677 33.7583 8.552 33.765C8.66147 33.784 8.77095 33.8002 8.88137 33.8154C8.92612 33.8392 8.97466 33.863 9.02322 33.8868C9.04416 33.8983 9.06891 33.904 9.09461 33.904C9.1384 33.904 9.18029 33.8849 9.20885 33.8516C9.56012 33.8887 9.93709 33.9078 10.3264 33.9078L10.3769 33.9068C11.1765 33.9049 11.8838 33.8249 12.5378 33.6622C13.3004 33.4746 13.9077 33.1738 14.3456 32.7683C14.5788 32.5512 14.7673 32.2856 14.8892 32C14.9215 31.9248 14.951 31.8458 14.9758 31.7678C15.0101 31.6554 15.031 31.5431 15.0386 31.426C15.051 31.2213 14.9977 30.9995 14.8844 30.7854C14.8216 30.6664 14.7378 30.5626 14.6645 30.4779C14.5912 30.3941 14.4998 30.3103 14.3856 30.2208C14.2923 30.1494 14.1971 30.0847 14.101 30.0285C14.4427 30.0695 14.813 30.0885 15.1986 30.0885C15.3537 30.0885 15.5098 30.0857 15.6641 30.079C15.7469 30.0761 15.8126 30.0086 15.8107 29.9286C15.8107 29.8486 15.744 29.781 15.666 29.781C15.506 29.7877 15.3528 29.7915 15.1986 29.7915C14.7483 29.7915 14.2837 29.7649 13.8173 29.7125C12.5512 29.5659 11.2137 29.2203 9.84285 28.6863C7.97321 27.9495 6.08357 26.8966 4.06543 25.4677C3.82839 25.2992 3.59421 25.1279 3.36003 24.9546C2.94973 24.6481 2.54039 24.3311 2.14533 24.0131L1.98064 23.8808C1.72076 23.6695 1.45326 23.4524 1.1572 23.2744C1.03916 23.2021 0.920161 23.144 0.795455 23.0964C0.704067 23.0602 0.60792 23.0374 0.507964 23.0298C0.499397 23.0288 0.489877 23.0288 0.481309 23.0288Z" fill="#5B4B6D"/>
<path d="M0.261848 23.0784C0.197115 23.1089 0.139997 23.1651 0.0914474 23.2441C0.057177 23.2974 0.032426 23.3697 0.0143388 23.464C0.00101142 23.5496 -0.0027965 23.641 0.00196328 23.7438C0.0124348 23.939 0.0533692 24.1627 0.125718 24.4254C0.188547 24.6596 0.271367 24.9062 0.385602 25.2013C0.484605 25.4583 0.602648 25.7325 0.735922 26.0181C0.99295 26.5693 1.21856 26.9719 1.46893 27.3251C1.94015 27.9953 2.45611 28.6445 3.00824 29.2633C2.95493 29.1291 2.90734 28.9929 2.8645 28.8549C2.77882 28.5769 2.70933 28.2942 2.66173 28.0086C2.61508 27.7278 2.58367 27.4441 2.57986 27.1604C2.5751 26.8986 2.59129 26.6349 2.64269 26.3789C2.66554 26.2627 2.6941 26.1475 2.73503 26.0362C2.77216 25.9324 2.8169 25.8315 2.87211 25.7372C2.97492 25.563 3.11391 25.4069 3.29097 25.3051C3.38046 25.2546 3.47756 25.2137 3.57751 25.1899C3.60512 25.1832 3.63368 25.1775 3.66224 25.1727C3.56228 25.0994 3.46233 25.0261 3.36332 24.9519C2.95874 24.6492 2.5494 24.3331 2.14863 24.0104L1.98394 23.8771C1.71739 23.6629 1.45274 23.4478 1.15954 23.2717C1.04245 23.2003 0.924409 23.1422 0.796847 23.0937C0.709267 23.0575 0.611216 23.0346 0.508404 23.0251C0.499837 23.0242 0.490317 23.0242 0.480798 23.0242C0.408449 23.0242 0.334196 23.0432 0.261848 23.0784Z" fill="#FEFEFE"/>
<path d="M16.3775 41.3643C16.2424 41.3643 16.0996 41.37 15.952 41.3823C15.5522 41.4176 15.1705 41.4985 14.8192 41.6241C14.4555 41.7517 14.1271 41.9231 13.8434 42.1353C13.6426 42.2867 13.4608 42.4562 13.3046 42.638C13.1542 42.8122 13.0209 43.0064 12.9086 43.2149C12.7087 43.5823 12.5726 44.0059 12.4907 44.5076C12.484 44.5476 12.4774 44.5885 12.4717 44.6295H12.4679C12.4355 44.6295 12.3974 44.6504 12.3708 44.6818C12.3498 44.7075 12.3384 44.7408 12.3413 44.7713C12.3651 45.0217 12.3841 45.272 12.4022 45.5224C12.3974 45.6852 12.3965 45.847 12.3974 46.0089C12.3974 46.0498 12.4136 46.0869 12.4431 46.1155C12.4545 46.3068 12.4679 46.502 12.4831 46.6962C12.5526 47.5986 12.6383 48.325 12.7525 48.9847C12.9029 49.8319 13.1057 50.5392 13.3751 51.1466C13.5198 51.475 13.6902 51.773 13.8815 52.0309C13.9834 52.169 14.0919 52.2975 14.2052 52.4136C14.3118 52.5231 14.4337 52.6278 14.5784 52.7354C14.7906 52.8924 15.0343 53.0181 15.3456 53.1323C15.5798 53.2171 15.8254 53.2904 16.1186 53.3627C16.7993 53.5322 17.4809 53.634 18.1453 53.6654C18.2653 53.6702 18.3852 53.6731 18.5042 53.6731C18.7327 53.6731 18.9583 53.6616 19.1744 53.6388C19.5342 53.5988 19.837 53.5303 20.1007 53.4284C20.3929 53.3189 20.6366 53.1676 20.8241 52.9791C20.9212 52.881 21.0031 52.7706 21.0688 52.6488C21.1411 52.5174 21.1935 52.3679 21.2306 52.1928C21.2497 52.1014 21.2611 52.0062 21.2658 51.91C21.2697 51.831 21.2649 51.7472 21.2487 51.6368C21.2268 51.494 21.1706 51.3446 21.0821 51.1923C21.0041 51.059 20.9051 50.9381 20.8013 50.8162L20.709 50.7106C20.6395 50.6316 20.5709 50.5516 20.5062 50.4707C20.4043 50.3345 20.332 50.2155 20.2787 50.0956C20.2311 49.9747 20.1977 49.8443 20.1768 49.6948C20.1321 49.3531 20.1473 49.0075 20.1606 48.6734L20.1635 48.6115C20.1682 48.4944 20.172 48.3773 20.174 48.2612C20.1749 48.2012 20.1749 48.1412 20.1749 48.0813C20.1749 48.0203 20.1749 47.9604 20.1759 47.9004C20.1759 47.7976 20.1778 47.6948 20.1797 47.592L20.1816 47.4882L20.1892 47.1826C20.1939 47.0141 20.1977 46.8456 20.2006 46.6781C20.2187 45.6861 20.2035 44.5409 19.797 43.4957C19.6961 43.2377 19.5914 43.0235 19.4752 42.8388C19.3772 42.6837 19.2591 42.5352 19.1268 42.3971C18.8783 42.1411 18.5747 41.9259 18.2224 41.7603C17.6779 41.5013 17.0401 41.3643 16.3775 41.3643Z" fill="#463A54"/>
<path d="M39.6606 41.7996H39.6349C39.2303 41.8024 38.8 41.8833 38.3554 42.0404C37.9528 42.1832 37.5501 42.3841 37.1246 42.6554C36.7504 42.8953 36.3801 43.1799 35.9927 43.5255C35.6604 43.8225 35.332 44.1585 35.015 44.5241C34.7332 44.8487 34.4686 45.1914 34.2297 45.5427C34.0945 45.7407 33.9669 45.9453 33.8508 46.1529C33.727 46.3766 33.6128 46.6184 33.5024 46.8897C33.3082 47.3657 33.1749 47.8826 33.1073 48.4271C33.0426 48.9421 33.0502 49.4885 33.1273 50.0502C33.272 51.084 33.5785 52.1169 34.0393 53.1183C34.1468 53.3525 34.2696 53.5914 34.4039 53.8285C34.5438 54.0779 34.6676 54.273 34.7923 54.4444C34.9903 54.7138 35.2549 54.9537 35.5767 55.1574C35.867 55.3392 36.2145 55.4916 36.6095 55.6077C36.9675 55.7134 37.3644 55.7819 37.7871 55.8114C37.9223 55.8209 38.0594 55.8257 38.1965 55.8257C38.4563 55.8257 38.72 55.8086 38.9799 55.7733C39.3864 55.72 39.7634 55.6277 40.1013 55.5001C40.2774 55.4335 40.4459 55.3564 40.6011 55.2707C40.7553 55.1869 40.9038 55.087 41.0561 54.9632C41.3912 54.6948 41.6092 54.3511 41.6701 53.996C41.713 53.7399 41.6863 53.4582 41.5902 53.1583C41.4874 52.8432 41.3255 52.55 41.1808 52.3044C41.0714 52.1188 40.9533 51.9369 40.8362 51.7551C40.7744 51.6599 40.7125 51.5647 40.6516 51.4686C40.4735 51.1887 40.3326 50.9507 40.2203 50.6956C40.1451 50.5157 40.0947 50.3386 40.0671 50.1568C40.0375 49.894 40.0433 49.6237 40.0832 49.3143C40.1489 48.8497 40.2708 48.4004 40.4336 47.8692C40.4688 47.7531 40.505 47.6379 40.5421 47.5227C40.5783 47.4075 40.6144 47.2924 40.6506 47.1762C40.702 47.0077 40.7487 46.8383 40.7963 46.6688L40.8524 46.4661C40.9933 45.9644 41.1504 45.4579 41.3027 44.9686C41.5074 44.3099 41.7187 43.6283 41.892 42.9476C41.9576 42.6925 42.0176 42.4288 42.0719 42.1651C42.089 42.0832 42.0462 42.008 41.971 41.9871C41.9595 41.9842 41.9472 41.9823 41.9348 41.9823C41.8767 41.9823 41.8072 42.0195 41.7929 42.089C41.7482 42.3079 41.6978 42.5297 41.6435 42.7496C41.494 42.3945 41.1361 42.1708 40.8629 42.0452C40.6773 41.9604 40.4821 41.8967 40.2822 41.8576C40.0861 41.8186 39.8767 41.7996 39.6606 41.7996Z" fill="#5B4B6D"/>
<path fill-rule="evenodd" clip-rule="evenodd" d="M38.1282 50.0212C37.9873 50.0212 37.8464 50.0317 37.7065 50.0498H37.7103C37.558 50.0717 37.4076 50.1022 37.2591 50.144C37.1048 50.1869 36.9554 50.2392 36.8088 50.3002L36.8193 50.2954C36.6422 50.3706 36.4689 50.4572 36.3023 50.5553C36.1434 50.6514 35.9901 50.7562 35.8425 50.8685C35.8425 50.8694 35.8416 50.8694 35.8416 50.8694C35.8387 50.8713 35.8368 50.8732 35.834 50.8751C35.8349 50.8742 35.8349 50.8742 35.8359 50.8732C35.8349 50.8742 35.834 50.8751 35.833 50.8751H35.834C35.834 50.8751 35.834 50.8751 35.833 50.8751C35.6655 51.0075 35.5056 51.1493 35.3542 51.3007C35.2057 51.453 35.0667 51.6129 34.9363 51.7795C34.8021 51.9566 34.6774 52.1393 34.565 52.3316C34.4508 52.5277 34.3499 52.7315 34.2604 52.9399C34.2613 52.938 34.2623 52.9371 34.2633 52.9352C34.2642 52.9342 34.2642 52.9342 34.2642 52.9333C34.2642 52.9342 34.2642 52.9342 34.2633 52.9352C34.2128 53.057 34.1662 53.1808 34.1243 53.3064C34.209 53.4787 34.3013 53.6539 34.4003 53.83C34.5422 54.0813 34.6659 54.2765 34.7897 54.4469C34.9905 54.7182 35.2542 54.9581 35.575 55.159C35.8644 55.3427 36.2119 55.494 36.6089 55.6111C36.9659 55.7158 37.3619 55.7844 37.7874 55.8158C37.9245 55.8253 38.0625 55.8301 38.1967 55.8301C38.4576 55.8301 38.7213 55.812 38.9802 55.7777C39.3895 55.7235 39.7675 55.6311 40.1035 55.5026C40.2815 55.435 40.45 55.3579 40.6033 55.2741C40.7604 55.1875 40.9098 55.0876 41.0593 54.9657C41.3944 54.6973 41.6133 54.3526 41.6742 53.9957C41.7171 53.7396 41.6904 53.4569 41.5933 53.156C41.4905 52.839 41.3287 52.5468 41.1849 52.3031C41.0745 52.1165 40.9536 51.929 40.8394 51.7538C40.7775 51.6586 40.7156 51.5625 40.6547 51.4663C40.5452 51.294 40.45 51.1369 40.3672 50.9837C40.3282 50.9456 40.2891 50.9085 40.2492 50.8723C40.1778 50.8076 40.1035 50.7457 40.0283 50.6867C39.9103 50.5962 39.7884 50.5125 39.6608 50.4382C39.5476 50.3716 39.4295 50.3125 39.3077 50.2592C39.3067 50.2592 39.3058 50.2592 39.3048 50.2583C39.3058 50.2583 39.3067 50.2592 39.3077 50.2592C39.1801 50.2059 39.0487 50.1593 38.9145 50.1241C38.7908 50.0907 38.6651 50.065 38.5385 50.0469C38.5432 50.0479 38.5471 50.0489 38.5509 50.0489C38.4157 50.0308 38.2796 50.0212 38.1425 50.0212H38.1282ZM37.7198 50.0489C37.717 50.0489 37.7131 50.0498 37.7103 50.0498C37.7131 50.0498 37.717 50.0489 37.7198 50.0489ZM34.2661 52.9285C34.2652 52.9304 34.2652 52.9323 34.2642 52.9333C34.2652 52.9323 34.2652 52.9304 34.2661 52.9285Z" fill="#ECECEC"/>
<path d="M35.8391 50.8712C35.8402 50.8701 35.8413 50.8701 35.8413 50.8701C35.8413 50.869 35.8424 50.869 35.8424 50.869V50.8679L35.8391 50.8712Z" fill="#ECECEC"/>
<path d="M38.1076 53.1213C38.0762 53.1413 38.0562 53.1918 38.0809 53.2251C38.2085 53.3964 38.3104 53.584 38.3951 53.7801C38.4598 53.9362 38.515 54.0961 38.5588 54.2599C38.6083 54.4407 38.6426 54.6245 38.6673 54.8101C38.6673 54.8025 38.6664 54.7958 38.6654 54.7891C38.7064 55.1004 38.7178 55.4146 38.6759 55.7259C38.6778 55.7116 38.6797 55.6983 38.6816 55.683C38.6759 55.7249 38.6673 55.7658 38.6597 55.8058C38.774 55.7954 38.8872 55.7849 39.0015 55.7735C39.0034 55.585 38.9882 55.3955 38.9672 55.209C38.9367 54.9567 38.8853 54.7092 38.8178 54.4636C38.7511 54.2227 38.6645 53.9857 38.5626 53.7572C38.4665 53.544 38.3503 53.3374 38.2104 53.1489C38.1952 53.1261 38.1704 53.1108 38.1447 53.1108C38.1333 53.1108 38.12 53.1146 38.1076 53.1213Z" fill="#514261"/>
<path d="M39.9562 52.6175C39.9219 52.6518 39.9257 52.7051 39.9562 52.7403C39.9847 52.7717 40.0133 52.805 40.04 52.8393C40.177 53.0211 40.2856 53.2201 40.375 53.4286C40.3722 53.42 40.3684 53.4124 40.3655 53.4038C40.5216 53.7779 40.6149 54.173 40.6701 54.5738C40.6682 54.5604 40.6663 54.5462 40.6644 54.5328C40.6949 54.7546 40.712 54.9774 40.713 55.2002C40.7473 55.1792 40.7815 55.1583 40.8158 55.1364C40.8148 55.1373 40.8148 55.1373 40.8139 55.1373C40.8148 55.1373 40.8148 55.1364 40.8158 55.1364H40.8168C40.8177 55.1354 40.8187 55.1345 40.8196 55.1335C40.8196 55.1335 40.8206 55.1326 40.8215 55.1326C40.8206 55.1326 40.8206 55.1335 40.8196 55.1335C40.8187 55.1345 40.8187 55.1345 40.8177 55.1354C40.8177 55.1354 40.8168 55.1354 40.8168 55.1364C40.8168 55.1364 40.8167 55.1364 40.8158 55.1364C40.8167 55.1364 40.8168 55.1354 40.8177 55.1354L40.8244 55.1307C40.8244 55.1307 40.8234 55.1307 40.8234 55.1316L40.8215 55.1326C40.8215 55.1316 40.8225 55.1316 40.8234 55.1316C40.8986 55.0821 40.9719 55.0307 41.0443 54.9774C41.0043 54.6042 40.9119 54.2349 40.7853 53.8826C40.6235 53.4276 40.4007 52.9811 40.079 52.6175C40.0638 52.6004 40.0409 52.5918 40.02 52.5918C39.9962 52.5918 39.9724 52.6004 39.9562 52.6175Z" fill="#514261"/>
<path d="M43.0411 29.0803C42.8783 29.0803 42.7022 29.0879 42.4852 29.1032C42.1368 29.1289 41.7579 29.1698 41.2943 29.2298C40.5365 29.3269 39.7702 29.4563 39.0296 29.5811L38.9372 29.5972C38.0986 29.7381 37.3418 29.8638 36.5764 29.959C35.7558 30.0618 34.9295 30.1122 34.1584 30.1513C33.0304 30.2093 31.869 30.2389 30.7076 30.2389C29.887 30.2389 29.0474 30.2236 28.2097 30.1951L28.1906 30.196V30.1941C25.151 30.0837 21.9981 29.7753 18.8138 29.2783C18.8062 29.2764 18.7986 29.2764 18.7919 29.2764C18.7615 29.2764 18.731 29.2859 18.7053 29.304C18.4216 29.2974 18.137 29.2869 17.8524 29.2774C17.3973 29.2612 16.9261 29.2441 16.4635 29.2441L16.3664 29.245H16.2683C15.2916 29.2555 14.5024 29.3573 13.7856 29.5649C12.609 29.9057 11.4466 30.5739 10.33 31.5507C9.86259 31.9581 9.39613 32.4322 8.90207 33.0005C8.48892 33.4765 8.07672 34.0038 7.64263 34.6131C7.29517 35.0995 6.93247 35.645 6.53551 36.279C6.10808 36.9635 5.73681 37.5956 5.39982 38.2105C4.63445 39.6071 3.96617 41.0626 3.41404 42.5391C3.13988 43.2711 2.88666 44.0346 2.66199 44.8066C2.55537 45.1712 2.45256 45.552 2.3469 45.969C2.2993 46.1594 2.25265 46.3507 2.20601 46.5411L2.10986 46.9371C1.9366 47.6349 1.78334 48.2651 1.65482 48.9096C1.49394 49.7111 1.40541 50.3803 1.37685 51.0163C1.34163 51.7664 1.40256 52.4033 1.56153 52.9621C1.63769 53.2324 1.72432 53.4456 1.83379 53.6341C1.9347 53.8074 2.06131 53.974 2.20981 54.1301C2.49159 54.4243 2.84667 54.6746 3.29505 54.8926C3.69106 55.0868 4.13753 55.2315 4.6611 55.3343C5.06378 55.4152 5.4855 55.4552 5.91293 55.4552C5.98908 55.4552 6.06524 55.4543 6.1414 55.4514C6.64974 55.4343 7.13238 55.36 7.57409 55.2296C8.03484 55.0944 8.44323 54.8983 8.78879 54.6489C8.95443 54.5299 9.10769 54.389 9.2581 54.2177C9.41708 54.0368 9.55797 53.8112 9.68838 53.5285C9.82737 53.2238 9.89115 52.9002 9.87306 52.5946C9.85783 52.3319 9.78168 52.0653 9.63984 51.7816C9.5018 51.5075 9.31807 51.2533 9.14101 51.0153L8.98299 50.804C8.8459 50.6221 8.70311 50.4337 8.57174 50.2433C8.63933 50.1747 8.70501 50.1062 8.7726 50.0386L9.00774 49.8063C9.1629 49.655 9.31903 49.5065 9.4761 49.3589C9.5494 49.2885 9.62365 49.219 9.69886 49.1495L9.74455 49.1066L9.76359 49.0895L9.83308 49.0229L9.97016 48.8963L10.2386 48.6478C10.4204 48.4793 10.6032 48.3108 10.785 48.1413C10.7965 48.1337 10.805 48.1252 10.8126 48.1147C11.2801 47.6796 11.6332 47.3398 11.9598 47.0133C12.7023 46.2698 13.2687 45.6177 13.7409 44.9637C13.8951 44.7514 14.0388 44.5372 14.1673 44.3278C14.3711 44.5468 14.5948 44.7648 14.828 44.9761C15.1241 45.2445 15.462 45.5206 15.8923 45.8452C16.5729 46.3612 17.2945 46.8381 18.0361 47.2617C19.4678 48.0804 21.0167 48.7068 22.6417 49.1228C24.2 49.5217 25.8869 49.7273 27.6556 49.734H27.7403C29.391 49.734 30.9932 49.556 32.5011 49.2037C34.0194 48.8487 35.4721 48.2975 36.8163 47.5654C38.1652 46.8305 39.4161 45.8871 40.5337 44.7619C41.1049 44.186 41.637 43.5615 42.1158 42.9065C42.5794 42.2697 42.9954 41.5709 43.3505 40.8303C44.0397 39.3929 44.4862 37.8174 44.6775 36.1496C44.9489 33.802 44.6756 31.4307 43.8893 29.2936C43.8722 29.245 43.8303 29.2079 43.7818 29.1965C43.7618 29.1574 43.7237 29.1308 43.6808 29.1241C43.479 29.0946 43.2696 29.0803 43.0411 29.0803Z" fill="#625175"/>
<path d="M16.463 29.2368H16.3659L16.2679 29.2378C15.2911 29.2482 14.501 29.3501 13.7823 29.5586C12.6057 29.8994 11.4424 30.5667 10.3238 31.5453C9.86309 31.948 9.39568 32.4221 8.89685 32.9951C8.48085 33.473 8.06865 34.0004 7.63646 34.6097C7.28995 35.0923 6.92821 35.6378 6.53029 36.2756C6.0981 36.9658 5.72589 37.5978 5.3927 38.2071C4.62733 39.6036 3.95906 41.0601 3.40692 42.5366C3.26413 42.9136 3.12038 43.3229 2.97949 43.7542C3.01947 43.6875 3.05374 43.619 3.08802 43.5514L3.15846 43.4143C3.31077 43.1211 3.43548 42.8888 3.54971 42.6842C3.663 42.4833 3.77914 42.2834 3.89527 42.0844C4.1009 41.7303 4.30747 41.3771 4.51881 41.0258C5.0043 40.2176 5.42221 39.5522 5.83346 38.9344C7.01674 37.159 8.11149 35.812 9.27668 34.6953C9.60796 34.3774 9.92687 34.0966 10.2515 33.8357C10.6189 33.5406 10.9693 33.2855 11.3205 33.058C12.0869 32.562 12.8627 32.1793 13.6262 31.9213C14.0517 31.7776 14.4677 31.6681 14.8637 31.5948C15.3949 31.4939 15.9042 31.4425 16.3792 31.4406L16.4373 31.4396C16.7162 31.4396 16.9685 31.4501 17.2074 31.472C17.493 31.4977 17.7548 31.5301 18.0071 31.572C18.5011 31.6529 19.0342 31.7709 19.6349 31.9318C19.9948 32.0289 20.3536 32.1317 20.7116 32.2355C20.8906 32.2878 21.0695 32.3392 21.2485 32.3897C21.8511 32.561 22.3594 32.6972 22.8839 32.8086C23.0391 32.8419 23.1962 32.8733 23.3523 32.9018C23.4951 32.9276 23.6379 32.9504 23.7807 32.9723C24.0986 33.0208 24.3947 33.0618 24.686 33.097C25.0582 33.1398 25.379 33.1713 25.6665 33.1931C25.9531 33.215 26.2558 33.2331 26.5652 33.2446C26.825 33.2541 27.0878 33.2579 27.341 33.2579C27.9303 33.2579 28.5014 33.2331 29.0393 33.1846C29.4962 33.1427 29.9132 33.0903 30.314 33.0256C30.7062 32.9609 31.105 32.8819 31.4982 32.7914C32.2084 32.621 32.8347 32.4363 33.4126 32.2241C33.742 32.1041 34.0371 31.9861 34.3131 31.8623C34.6092 31.7309 34.8976 31.5891 35.1709 31.4425C35.6068 31.2045 35.9829 30.9694 36.3218 30.7247C36.5093 30.5895 36.6768 30.4601 36.8358 30.3297C37.01 30.1859 37.1709 30.0441 37.328 29.8956L37.3765 29.848L37.2652 29.8603C37.0338 29.8918 36.8054 29.9222 36.5759 29.9517C35.7734 30.0526 34.9395 30.104 34.158 30.1431C33.0356 30.2011 31.8752 30.2307 30.7071 30.2307C29.8646 30.2307 29.0241 30.2154 28.2101 30.1869L28.1902 30.1878C25.1496 30.0764 21.9958 29.768 18.8134 29.2701C18.8058 29.2692 18.7991 29.2692 18.7915 29.2692C18.7591 29.2692 18.7258 29.2797 18.7011 29.2977C18.5021 29.292 18.2974 29.2854 18.0937 29.2777L17.9709 29.2739L17.8519 29.2692L17.7872 29.2673C17.3769 29.253 16.9123 29.2368 16.463 29.2368Z" fill="#5B4B6D"/>
<path d="M5.27226 49.3847C5.27607 49.3837 5.27987 49.3837 5.28463 49.3828C4.8315 49.4266 4.38599 49.5256 3.95951 49.6846L3.97093 49.6798C3.61871 49.814 3.28267 49.9863 2.97424 50.2024C2.97519 50.2024 2.97519 50.2024 2.97519 50.2024H2.97614C2.97519 50.2024 2.97519 50.2024 2.97519 50.2024C2.84667 50.2948 2.72197 50.3928 2.60678 50.5004C2.4954 50.6022 2.39164 50.7108 2.29359 50.825C2.29739 50.8221 2.2993 50.8193 2.30215 50.8164C2.21457 50.9211 2.13271 51.0306 2.05941 51.1449C1.9861 51.2581 1.92042 51.3762 1.86235 51.4971C1.86235 51.4971 1.86235 51.4971 1.86235 51.498C1.86045 51.4999 1.85949 51.5028 1.85854 51.5056C1.80143 51.6285 1.75002 51.7551 1.70909 51.8855C1.66815 52.0149 1.63674 52.1473 1.61199 52.2796C1.58533 52.4338 1.56915 52.589 1.56344 52.7441C1.56058 52.8222 1.56058 52.8993 1.56248 52.9774C1.63864 53.242 1.72432 53.4524 1.83189 53.6361C1.93184 53.8094 2.05845 53.976 2.20696 54.133C2.49064 54.4282 2.84572 54.6785 3.29314 54.8965C3.6882 55.0898 4.13562 55.2345 4.6611 55.3392C5.06378 55.4191 5.4855 55.4601 5.91388 55.4601C5.99003 55.4601 6.06524 55.4582 6.14139 55.4563C6.64879 55.4391 7.13238 55.3639 7.57599 55.2335C8.03674 55.0974 8.44513 54.9013 8.79069 54.6528C8.95728 54.5329 9.1115 54.391 9.26096 54.2206C9.42279 54.0369 9.56273 53.8103 9.69219 53.5305C9.83118 53.2249 9.89591 52.9022 9.87878 52.5947C9.86164 52.3281 9.78358 52.0625 9.64269 51.7798C9.50466 51.5037 9.31331 51.2391 9.14482 51.0125L8.98584 50.8012C8.90588 50.6946 8.82591 50.5889 8.7488 50.4832C8.6993 50.4376 8.6498 50.3938 8.59839 50.3509C8.59839 50.3509 8.59839 50.35 8.59744 50.35L8.59839 50.3509H8.59935C8.5984 50.35 8.59744 50.35 8.59744 50.349V50.35C8.59744 50.35 8.59744 50.349 8.59649 50.349C8.59459 50.3481 8.59363 50.3462 8.59078 50.3452C8.59173 50.3452 8.59364 50.3462 8.59459 50.3471C8.59268 50.3452 8.59078 50.3443 8.58983 50.3424C8.58983 50.3433 8.59078 50.3443 8.59078 50.3452C8.4575 50.2338 8.31947 50.131 8.17382 50.0368C8.02437 49.9425 7.87015 49.8559 7.71117 49.7798C7.71022 49.7798 7.70927 49.7797 7.70736 49.7788C7.70831 49.7788 7.70927 49.7798 7.71022 49.7798C7.70831 49.7788 7.70736 49.7778 7.70546 49.7778C7.51412 49.6893 7.31896 49.6141 7.11715 49.5551C6.95437 49.5075 6.78968 49.4685 6.62308 49.438C6.33464 49.3875 6.04239 49.3628 5.74919 49.3628C5.59021 49.3628 5.43028 49.3704 5.27226 49.3847Z" fill="#FEFEFE"/>
<path d="M7.71119 49.7795L7.71253 49.7809C7.71119 49.7795 7.71118 49.7795 7.70984 49.7795H7.71119Z" fill="#FEFEFE"/>
<path d="M8.59717 50.3499C8.59583 50.3485 8.59583 50.3472 8.59448 50.3472C8.59583 50.3472 8.59583 50.3485 8.59717 50.3499Z" fill="#FEFEFE"/>
<path d="M1.85986 51.502C1.86099 51.4998 1.86211 51.4986 1.86211 51.4975C1.86211 51.4964 1.86323 51.4953 1.86323 51.4941C1.86211 51.4975 1.86099 51.4986 1.85986 51.502Z" fill="#FEFEFE"/>
<path fill-rule="evenodd" clip-rule="evenodd" d="M42.0058 32.6169H42.0192C41.9316 32.6188 41.844 32.6255 41.7583 32.6407C41.6717 32.655 41.586 32.675 41.5022 32.6998C41.5061 32.6988 41.5099 32.6979 41.5146 32.6969C41.4099 32.7293 41.308 32.7674 41.209 32.815C41.1091 32.8625 41.012 32.9149 40.9177 32.973C40.9158 32.9749 40.9149 32.9758 40.912 32.9768C40.7616 33.0729 40.6169 33.1805 40.4808 33.2976C40.3361 33.4223 40.1981 33.5546 40.0657 33.6927C40.0667 33.6917 40.0676 33.6908 40.0686 33.6898C39.6945 34.0887 39.3661 34.5285 39.0624 34.9826C38.7739 35.4138 38.5055 35.8584 38.2418 36.3058C38.1123 36.5238 37.9838 36.7427 37.8515 36.9598C37.7925 37.0569 37.7334 37.153 37.6716 37.2473C37.5821 37.3853 37.4907 37.5224 37.3984 37.6585C36.9738 38.2868 36.534 38.9056 36.0666 39.5034C35.1898 40.6219 34.2169 41.6758 33.0927 42.5506C32.5386 42.9809 31.9532 43.3712 31.3363 43.7072C30.6814 44.0642 29.995 44.3641 29.2877 44.603C28.9212 44.7268 28.5509 44.8372 28.1768 44.9305C27.7541 45.0362 27.3286 45.1314 26.9002 45.2113C26.0387 45.3722 25.1686 45.4836 24.2947 45.5388C23.4322 45.5921 22.5659 45.5969 21.7044 45.5436C20.8305 45.4893 19.9604 45.3817 19.1018 45.2104C18.2593 45.0428 17.4273 44.8201 16.6171 44.5345C16.2069 44.3888 15.8004 44.2308 15.4025 44.0537C15.0426 43.8948 14.6894 43.7234 14.342 43.5387C14.3496 43.6406 14.3515 43.7434 14.3448 43.8462C14.3363 43.99 14.3163 44.1328 14.282 44.2727C14.2706 44.3184 14.2582 44.365 14.2449 44.4107C14.4143 44.5926 14.6095 44.7829 14.8246 44.9791C15.1207 45.2466 15.4586 45.5236 15.8889 45.8491C16.5762 46.368 17.2987 46.8449 18.0346 47.2647C19.4654 48.0834 21.0152 48.7098 22.6402 49.1258C24.1995 49.5265 25.8873 49.7331 27.6551 49.7388H27.7408C29.3905 49.7388 30.9936 49.5589 32.5024 49.2067C34.0218 48.8526 35.4745 48.3014 36.8177 47.5684C38.1694 46.8325 39.4203 45.8891 40.536 44.7649C41.1034 44.1937 41.6355 43.5692 42.1182 42.9095C42.5827 42.2707 42.9987 41.572 43.3528 40.8323C43.7241 40.0574 44.0259 39.2426 44.2543 38.3934C44.2981 38.1592 44.3334 37.9231 44.361 37.6861C44.4152 37.2187 44.4409 36.7484 44.4314 36.2782C44.4314 36.2791 44.4324 36.2801 44.4324 36.281C44.4181 35.6975 44.3495 35.113 44.1849 34.5523C44.1858 34.5523 44.1858 34.5532 44.1858 34.5542C44.1858 34.5532 44.1858 34.5523 44.1849 34.5513C44.1344 34.3885 44.0792 34.2277 44.0087 34.0725C43.9469 33.9316 43.8764 33.7964 43.7946 33.665L43.7993 33.6717C43.7422 33.5813 43.6813 33.4927 43.6137 33.4099C43.5461 33.3271 43.4737 33.2481 43.3966 33.1748H43.3976C43.33 33.112 43.2586 33.052 43.1824 32.9987C43.1149 32.9501 43.0444 32.9054 42.9721 32.8645C42.8892 32.8197 42.8036 32.7788 42.716 32.7455C42.6379 32.7159 42.558 32.6912 42.4761 32.6693C42.3999 32.6512 42.3219 32.636 42.2429 32.6274C42.1705 32.6208 42.0982 32.6169 42.0258 32.6169C42.0192 32.6169 42.0125 32.6169 42.0058 32.6169ZM40.0657 33.6927C40.0648 33.6955 40.0619 33.6965 40.06 33.6984C40.0619 33.6965 40.0648 33.6955 40.0657 33.6927Z" fill="#FEFEFE"/>
<path d="M40.9163 32.9756C40.9163 32.9742 40.9176 32.9742 40.919 32.9729C40.919 32.9742 40.9176 32.9742 40.9163 32.9756Z" fill="#FEFEFE"/>
<path d="M40.9119 32.9774C40.9119 32.9774 40.9119 32.9774 40.9131 32.9774C40.9144 32.9761 40.9157 32.9749 40.917 32.9749C40.9157 32.9749 40.9131 32.9761 40.9119 32.9774Z" fill="#FEFEFE"/>
<path d="M15.077 40.4658C15.0551 40.6343 15.0437 40.8037 15.0266 40.9713C15.0075 41.1541 14.9847 41.3349 14.9561 41.5158C14.9057 41.8461 14.8305 42.1707 14.7391 42.4906C14.6258 42.8733 14.4868 43.2465 14.325 43.6111C14.1574 43.9861 13.9632 44.3507 13.7528 44.7039C13.7567 44.6972 13.7605 44.6906 13.7652 44.683C13.6091 44.9419 13.4454 45.1942 13.2692 45.4398C13.0941 45.6863 12.9056 45.9215 12.7124 46.1547C12.3182 46.6307 11.8908 47.08 11.4463 47.5084L11.4596 47.495C10.7523 48.1747 10.0069 48.8144 9.25295 49.4399C9.23295 49.457 9.22629 49.4856 9.24247 49.5075C9.25771 49.5275 9.28912 49.5341 9.30911 49.5179C10.0631 48.8925 10.8227 48.2737 11.5424 47.6093C11.9022 47.277 12.2564 46.9381 12.5934 46.584C12.9304 46.2299 13.2483 45.8596 13.5491 45.475C13.8071 45.1437 14.0479 44.7991 14.2621 44.4383C14.4763 44.0785 14.6629 43.7043 14.8219 43.3169C14.9856 42.9133 15.1141 42.4954 15.2093 42.0708C15.2684 41.81 15.3131 41.5453 15.3502 41.2807C15.3864 41.0141 15.414 40.7428 15.4092 40.4744C15.4064 40.4439 15.3959 40.4163 15.3778 40.3925C15.3521 40.3563 15.3121 40.3316 15.2684 40.3249C15.2598 40.3239 15.2522 40.323 15.2436 40.323C15.1636 40.323 15.0875 40.383 15.077 40.4658Z" fill="#514261"/>
<path d="M4.00285 52.2975C4.02855 52.6498 4.01618 53.001 3.97048 53.3504C3.97239 53.3409 3.97429 53.3314 3.97524 53.3209C3.94097 53.5732 3.89242 53.8245 3.82769 54.0701C3.76105 54.3271 3.66776 54.5765 3.5659 54.8202C3.5421 54.8783 3.51545 54.9364 3.48975 54.9925C3.54877 55.0173 3.60969 55.0411 3.66967 55.0649C3.67443 55.0668 3.68014 55.0687 3.6849 55.0706C3.70298 55.0763 3.72107 55.083 3.73916 55.0887C3.77438 55.1011 3.8096 55.1115 3.84483 55.1229C3.89338 54.9316 3.94478 54.7422 3.98857 54.5499C4.04569 54.3005 4.09709 54.0482 4.13708 53.795C4.21609 53.3009 4.23608 52.7973 4.19895 52.2975C4.19515 52.2452 4.15707 52.2004 4.1009 52.2004C4.05045 52.2004 3.99904 52.2452 4.00285 52.2975Z" fill="#514261"/>
<path d="M6.73959 51.9928C6.68152 52.008 6.64059 52.0728 6.65963 52.1318C6.80147 52.5649 6.90238 53.0076 6.96425 53.4588C7.00519 53.7825 7.0328 54.108 7.04232 54.4346C7.04707 54.6031 7.04517 54.7716 7.04041 54.9401C7.03565 55.0828 7.02708 55.2247 7.02137 55.3675C7.0861 55.357 7.15084 55.3465 7.21557 55.3342C7.29458 55.3199 7.37169 55.3037 7.44975 55.2866C7.46213 55.0629 7.45261 54.8372 7.43738 54.6145C7.41739 54.3232 7.37836 54.0328 7.3279 53.7454C7.27745 53.4607 7.207 53.1808 7.13085 52.9029C7.05564 52.6239 6.96997 52.3469 6.87858 52.0718C6.8624 52.0223 6.81861 51.988 6.7691 51.988C6.75958 51.988 6.74911 51.9899 6.73959 51.9928Z" fill="#514261"/>
<path fill-rule="evenodd" clip-rule="evenodd" d="M12.0701 30.4663C12.0892 30.4663 12.1082 30.4796 12.1149 30.4958C12.1253 30.5215 12.112 30.5463 12.0901 30.5586C11.9825 30.6177 11.8769 30.6776 11.7712 30.7405C10.8726 31.2812 10.0596 31.959 9.33039 32.712C9.33134 32.711 9.33229 32.7101 9.33324 32.7091C9.32944 32.7129 9.32658 32.7158 9.32372 32.7186C9.32277 32.7205 9.32182 32.7215 9.31992 32.7224L9.31896 32.7243C9.32277 32.7205 9.32658 32.7167 9.33039 32.7129C9.32753 32.7148 9.32563 32.7167 9.32372 32.7186C9.32277 32.7205 9.32182 32.7215 9.31992 32.7224L9.31896 32.7243C9.2647 32.7815 9.21044 32.8395 9.15618 32.8967C8.42603 33.6811 7.78346 34.5407 7.20181 35.4393C6.90671 35.8963 6.62969 36.3637 6.35552 36.832C6.04519 37.3642 5.74437 37.9001 5.44926 38.4408C5.45497 38.4313 5.45878 38.4237 5.46449 38.4142C5.3455 38.6312 5.22936 38.8483 5.11227 39.0653C5.00184 39.27 4.88665 39.4747 4.78099 39.6832C4.7629 39.7193 4.72577 39.7403 4.68579 39.725C4.64867 39.7117 4.62772 39.667 4.64295 39.6298C4.72101 39.4499 4.79527 39.27 4.87714 39.092C4.9552 38.9254 5.03421 38.7588 5.11703 38.5941C5.27791 38.2733 5.44736 37.9554 5.61871 37.6403C5.61776 37.6422 5.61681 37.6431 5.61585 37.645C5.76817 37.367 5.92238 37.0891 6.07755 36.8121C6.21939 36.556 6.36028 36.2989 6.50688 36.0467C6.77438 35.585 7.06854 35.1395 7.38554 34.7101C7.54357 34.495 7.70825 34.2837 7.87675 34.0761C8.0462 33.8677 8.21945 33.6601 8.39937 33.4602C8.75826 33.0623 9.12952 32.6768 9.52459 32.3141C9.91489 31.9533 10.3233 31.6106 10.7526 31.2974C11.1686 30.9946 11.6008 30.7167 12.052 30.4711C12.0577 30.4682 12.0635 30.4663 12.0701 30.4663ZM5.6149 37.6469C5.61585 37.646 5.61585 37.646 5.61585 37.645C5.61585 37.646 5.61585 37.646 5.6149 37.6469ZM5.61966 37.6383C5.61966 37.6393 5.61966 37.6393 5.61871 37.6403C5.61966 37.6393 5.61966 37.6393 5.61966 37.6383ZM9.33039 32.7129V32.712V32.7129Z" fill="#514261"/>
<path d="M31.7847 40.7964C31.3249 40.7964 30.8309 40.843 30.274 40.9382C29.2116 41.1181 28.1749 41.4475 27.1182 41.7969L26.7317 41.9245C26.5328 41.9911 26.3338 42.0568 26.1339 42.1215C26.0216 42.1577 25.9102 42.1929 25.7979 42.2281C25.5665 42.3005 25.3266 42.3766 25.0944 42.4585C24.3861 42.7117 23.6978 43.0421 23.0477 43.44C23.0239 43.4543 23.0048 43.4761 22.9915 43.5018C22.9829 43.5066 22.9744 43.5133 22.9686 43.5199C22.9391 43.5494 22.9306 43.5809 22.9258 43.6218C22.8021 44.6861 22.784 45.8465 22.8687 47.1697C22.9163 47.9008 22.9972 48.6862 23.1162 49.5706C23.1162 49.5791 23.1172 49.5868 23.1191 49.5953C23.1705 49.9713 23.2257 50.3483 23.2837 50.7234C23.3599 51.2194 23.4503 51.7962 23.5617 52.3665C23.6817 52.9786 23.8159 53.5069 23.972 53.981C24.0558 54.2352 24.1557 54.495 24.2709 54.754C24.3842 55.0081 24.4975 55.2252 24.6174 55.4175C24.8373 55.7678 25.1115 56.0781 25.4323 56.3399C26.0149 56.8169 26.7746 57.1424 27.6285 57.2833C27.9674 57.3395 28.3215 57.3671 28.6804 57.3671C29.143 57.3671 29.6228 57.3204 30.1074 57.2281C30.5348 57.1472 30.9394 57.0339 31.3087 56.8911C31.7543 56.7188 32.0989 56.5113 32.3626 56.2562C32.5958 56.0286 32.7643 55.7412 32.8509 55.4261C32.9271 55.1443 32.9413 54.8263 32.8937 54.4541C32.8528 54.1304 32.7729 53.7906 32.6358 53.3536C32.5748 53.1566 32.5073 52.9624 32.4387 52.7691C32.3511 52.5178 32.2864 52.2465 32.2417 51.94C32.1341 51.1032 32.2217 50.2503 32.3064 49.4259L32.3178 49.3145L32.3578 48.9128C32.3892 48.5882 32.4216 48.2635 32.4578 47.9389C32.5082 47.481 32.5672 47.0079 32.6367 46.4929C32.751 45.6447 32.8871 44.7613 33.0413 43.8655C33.1146 43.4343 33.1908 42.9868 33.2831 42.5508C33.3288 42.3367 33.3773 42.1234 33.4268 41.9102C33.4792 41.6817 33.5316 41.4542 33.5792 41.2248C33.5963 41.1429 33.5535 41.0677 33.4773 41.0477C33.4564 41.0277 33.4335 41.0144 33.4097 41.0077C32.9366 40.8754 32.4178 40.804 31.8685 40.7973C31.8399 40.7964 31.8123 40.7964 31.7847 40.7964Z" fill="#625175"/>
<path d="M29.0414 50.606C28.8795 50.606 28.7196 50.6174 28.5597 50.6383C28.5644 50.6374 28.5682 50.6364 28.573 50.6364C28.3912 50.6602 28.2112 50.6973 28.0351 50.7459C27.8562 50.7964 27.682 50.8573 27.5116 50.9287C27.5125 50.9287 27.5135 50.9277 27.5154 50.9268C27.324 51.0086 27.1384 51.101 26.9613 51.2076C26.7881 51.3114 26.6205 51.4256 26.4606 51.5474H26.4616C26.4606 51.5474 26.4596 51.5484 26.4587 51.5484C26.4577 51.5493 26.4568 51.5503 26.4558 51.5512C26.4549 51.5512 26.4549 51.5522 26.4539 51.5522C26.4539 51.5522 26.4549 51.5512 26.4558 51.5512C26.4568 51.5503 26.4568 51.5503 26.4577 51.5493C26.4558 51.5503 26.4539 51.5522 26.453 51.5532C26.453 51.5532 26.453 51.5532 26.4539 51.5522L26.4511 51.5541C26.452 51.5541 26.452 51.5541 26.453 51.5532C26.2721 51.694 26.1008 51.8454 25.9408 52.0082C25.7819 52.1681 25.6324 52.3385 25.4944 52.5165C25.3506 52.7041 25.2192 52.8983 25.1012 53.101C24.987 53.299 24.8842 53.5018 24.7937 53.7122C24.7937 53.7112 24.7947 53.7112 24.7947 53.7103C24.7937 53.7131 24.7928 53.715 24.7918 53.717C24.7909 53.7189 24.7899 53.7208 24.789 53.7227V53.7217C24.7004 53.934 24.6233 54.1501 24.5643 54.3719C24.5034 54.5918 24.4577 54.8146 24.4263 55.0402V55.0383C24.4244 55.0516 24.4234 55.064 24.4215 55.0773C24.4843 55.1992 24.5481 55.3124 24.6157 55.4181C24.8356 55.7703 25.1088 56.0807 25.4296 56.3424C26.0122 56.8184 26.7728 57.1449 27.6287 57.2868C27.9695 57.343 28.3236 57.3715 28.6806 57.3715C29.1413 57.3715 29.6211 57.3239 30.1085 57.2325C30.5407 57.1497 30.9453 57.0355 31.3099 56.8936C31.7554 56.7223 32.1009 56.5148 32.3656 56.2587C32.5988 56.0293 32.7683 55.7427 32.8539 55.4267C32.931 55.1449 32.9453 54.826 32.8977 54.4547C32.8558 54.1282 32.7759 53.7884 32.6388 53.3514C32.5779 53.1553 32.5103 52.9611 32.4417 52.7669C32.4218 52.7088 32.4027 52.6489 32.3846 52.5889C32.3104 52.4756 32.2323 52.3642 32.1504 52.2576C32.0162 52.0843 31.8706 51.9187 31.7144 51.7654C31.5831 51.636 31.446 51.5151 31.3003 51.4027C31.1633 51.2971 31.0195 51.1971 30.8701 51.1105C30.7254 51.0258 30.575 50.9496 30.4198 50.8839C30.4236 50.8849 30.4274 50.8868 30.4322 50.8877C30.2827 50.8259 30.1304 50.7716 29.9743 50.7297C29.822 50.6888 29.6687 50.6574 29.5126 50.6364C29.5135 50.6364 29.5145 50.6364 29.5154 50.6364C29.3631 50.6164 29.2098 50.606 29.0566 50.606H29.0414Z" fill="#FEFEFE"/>
<path d="M26.46 51.5492C26.46 51.5474 26.46 51.5474 26.4617 51.5474C26.46 51.5474 26.46 51.5474 26.46 51.5492Z" fill="#FEFEFE"/>
<path fill-rule="evenodd" clip-rule="evenodd" d="M22.9516 42.9026C22.9726 42.9026 22.9935 42.9064 23.0135 42.9131C23.0611 42.9292 23.102 42.9645 23.1258 43.0092C23.142 43.0406 23.1487 43.0739 23.1468 43.1092C23.1439 43.1263 23.1401 43.1444 23.1373 43.1615C23.1106 43.2796 23.0839 43.3967 23.0611 43.5156C23.0611 43.5118 23.062 43.509 23.063 43.5052C23.062 43.5109 23.0611 43.5166 23.0592 43.5223C23.0592 43.5233 23.0592 43.5233 23.0592 43.5242L23.0535 43.5547C23.0544 43.5499 23.0554 43.5452 23.0563 43.5404C22.9364 44.1925 22.8859 44.856 22.864 45.5176C22.8526 45.8727 22.8536 46.2278 22.8659 46.5819C22.8717 46.7666 22.8774 46.9513 22.8888 47.135C22.8983 47.2987 22.9059 47.4634 22.9183 47.6271C22.964 48.1926 23.0297 48.7571 23.1106 49.3188C23.1868 49.8443 23.2819 50.3678 23.4048 50.8838C23.4181 50.9438 23.3257 50.9638 23.3115 50.9038C23.2505 50.6477 23.1896 50.3907 23.1325 50.1337C23.0716 49.8623 23.0154 49.591 22.9611 49.3197C22.8574 48.7952 22.7698 48.2678 22.7041 47.7376C22.687 47.5976 22.667 47.4577 22.6518 47.3178C22.6375 47.1883 22.6241 47.0579 22.6127 46.9284C22.5889 46.6571 22.568 46.3848 22.5566 46.1126C22.5347 45.5842 22.529 45.055 22.5642 44.5276C22.5965 44.0278 22.6575 43.5261 22.766 43.0368C22.7755 42.9902 22.8203 42.9464 22.8612 42.9245C22.8897 42.9102 22.9202 42.9026 22.9516 42.9026ZM23.063 43.5042V43.5052V43.5042ZM23.0563 43.5404C23.0582 43.5328 23.0592 43.5242 23.0611 43.5166C23.0601 43.5185 23.0601 43.5204 23.0592 43.5223C23.0592 43.5233 23.0592 43.5233 23.0592 43.5242C23.0582 43.5299 23.0573 43.5347 23.0563 43.5404ZM23.0611 43.5166V43.5156V43.5166Z" fill="#514261"/>
<path d="M33.4975 40.5535C33.4613 40.6944 33.4337 40.8372 33.4051 40.9791C33.3728 41.1352 33.3404 41.2913 33.309 41.4474C33.2481 41.7511 33.1919 42.0557 33.1386 42.3604C33.032 42.9715 32.9377 43.5846 32.854 44.1995C32.7702 44.8116 32.694 45.4257 32.6274 46.0397C32.5608 46.6537 32.5027 47.2696 32.4465 47.8855C32.3313 49.1411 32.2323 50.3977 32.1162 51.6533C32.1133 51.6791 32.1381 51.7019 32.1628 51.7019C32.1904 51.7019 32.2085 51.681 32.2114 51.6553C32.2647 51.0898 32.3199 50.5224 32.3799 49.9579C32.4408 49.3905 32.5065 48.8241 32.5731 48.2577C32.6407 47.6913 32.7121 47.1258 32.7902 46.5604C32.8692 45.9949 32.9511 45.4304 33.0396 44.8669C33.0386 44.8783 33.0358 44.8916 33.0348 44.903C33.0444 44.8412 33.0539 44.7793 33.0634 44.7183V44.7202C33.0653 44.7088 33.0672 44.6974 33.0691 44.686C33.0691 44.685 33.0691 44.6841 33.0691 44.6831C33.1767 44.012 33.2938 43.3428 33.4213 42.6764C33.487 42.3366 33.5546 41.9977 33.626 41.6588C33.6612 41.4903 33.6964 41.3218 33.7345 41.1533C33.7726 40.9886 33.8164 40.8258 33.8488 40.6592C33.8507 40.643 33.8545 40.6268 33.8564 40.6107C33.8573 40.5783 33.8497 40.5478 33.8345 40.5193C33.8116 40.4774 33.7726 40.445 33.725 40.4307C33.7088 40.426 33.6917 40.4241 33.6755 40.4241C33.5965 40.4241 33.5184 40.4745 33.4975 40.5535Z" fill="#514261"/>
<path fill-rule="evenodd" clip-rule="evenodd" d="M28.1307 54.8345C28.1678 54.8345 28.2059 54.8592 28.2144 54.8973C28.3039 55.3362 28.3477 55.7855 28.3344 56.2338C28.3277 56.468 28.3077 56.7022 28.2715 56.9335C28.2496 57.0792 28.2201 57.2229 28.1849 57.3667C28.1259 57.3629 28.0678 57.3591 28.0098 57.3543C27.9507 57.3476 27.8927 57.34 27.8346 57.3324C27.8346 57.3315 27.8355 57.3305 27.8355 57.3296C27.965 57.0116 28.0497 56.6765 28.0945 56.3357V56.3414C28.1402 55.9606 28.1411 55.5761 28.0926 55.1953C28.0916 55.1886 28.0907 55.1819 28.0897 55.1762C28.0907 55.18 28.0916 55.1838 28.0916 55.1867C28.0916 55.1829 28.0907 55.18 28.0897 55.1762C28.0783 55.0972 28.064 55.0201 28.0488 54.943C28.0393 54.8973 28.0612 54.8497 28.1088 54.8373C28.1164 54.8364 28.123 54.8345 28.1307 54.8345ZM28.0897 55.1743C28.0897 55.1753 28.0897 55.1753 28.0897 55.1762C28.0897 55.1753 28.0897 55.1753 28.0897 55.1743Z" fill="#514261"/>
<path d="M30.4899 54.408C30.4632 54.4242 30.4547 54.4594 30.4699 54.4861C30.5242 54.5832 30.5737 54.6822 30.6165 54.785C30.6165 54.7841 30.6156 54.7831 30.6156 54.7821C30.6165 54.785 30.6184 54.7869 30.6184 54.7888V54.7898C30.7384 55.0877 30.8117 55.4009 30.8564 55.7198C30.8859 55.9521 30.9011 56.1863 30.905 56.4205C30.9069 56.6299 30.9031 56.8412 30.8869 57.0507C30.904 57.0459 30.9202 57.0421 30.9373 57.0373C30.9621 57.0307 30.9868 57.0231 31.0116 57.0154C31.103 56.984 31.1944 56.9498 31.2848 56.9126C31.2791 56.7708 31.2705 56.6299 31.2543 56.4871C31.2277 56.2434 31.1858 56.0007 31.1249 55.7627C31.0059 55.2943 30.804 54.8497 30.567 54.428C30.5575 54.4109 30.5385 54.4014 30.5194 54.4014C30.5089 54.4014 30.4994 54.4042 30.4899 54.408Z" fill="#514261"/>
<path d="M30.6201 54.7912C30.6189 54.7889 30.6177 54.7865 30.6166 54.7842C30.6177 54.7865 30.6189 54.7889 30.6201 54.7912Z" fill="#514261"/>
<path d="M21.9639 2.93579C21.9078 2.93579 21.8497 2.9415 21.7802 2.95293C21.705 2.9653 21.6269 2.991 21.527 3.03479C21.4423 3.07192 21.3585 3.11952 21.269 3.17949C21.1148 3.28325 20.9587 3.41748 20.7787 3.60121C20.6283 3.75447 20.4894 3.91726 20.3266 4.11336C19.6383 4.95204 19.0576 5.76025 18.5512 6.58369C17.9552 7.55468 17.4783 8.53425 17.1347 9.49477C16.7529 10.561 16.5502 11.6024 16.5311 12.5915C16.5216 13.1084 16.5682 13.6282 16.6711 14.1394C16.7539 14.5535 16.8748 14.9495 17.0299 15.3141C17.2042 15.7225 17.4279 16.0652 17.6954 16.3346C17.9924 16.6325 18.3617 16.8325 18.7663 16.9143C18.8006 16.921 18.8349 16.9257 18.8691 16.9315C18.8834 16.9334 18.8977 16.9343 18.9101 16.9343C18.9367 16.9343 18.9586 16.9286 18.9805 16.9162C19.0024 16.9029 19.0214 16.8829 19.0338 16.8601C19.0405 16.862 19.0481 16.8629 19.0557 16.8629C19.0957 16.8629 19.1309 16.8477 19.1547 16.8201C20.5008 15.2332 21.7136 13.3226 22.7598 11.1426C23.151 10.3258 23.5337 9.44146 23.8964 8.51235C23.9107 8.47618 23.8993 8.42858 23.8821 8.40097C23.8631 8.27056 23.8507 8.15346 23.8383 8.03542C23.8241 7.9031 23.8098 7.77078 23.7984 7.63846C23.7812 7.45758 23.7669 7.27671 23.7527 7.09679L23.7403 6.95305C23.7013 6.47802 23.6537 5.97063 23.5727 5.47561C23.4814 4.92062 23.3595 4.47891 23.1891 4.08385C23.0844 3.83825 22.9682 3.63262 22.835 3.45651C22.6779 3.24518 22.5123 3.10238 22.3314 3.01861C22.2457 2.97863 22.1562 2.95388 22.0591 2.9415C22.0268 2.93769 21.9953 2.93579 21.9639 2.93579Z" fill="#625175"/>
<path d="M21.4675 5.77173C21.4332 5.77173 21.398 5.77458 21.3533 5.7822C21.3028 5.79077 21.2543 5.80695 21.1943 5.83361C21.1419 5.85645 21.0896 5.88596 21.0344 5.92309C20.942 5.98592 20.8449 6.06874 20.7297 6.18488C20.6374 6.27912 20.5536 6.37622 20.4499 6.50188C20.0205 7.02546 19.6616 7.52618 19.3522 8.03072C18.981 8.63521 18.6859 9.24066 18.4755 9.83182C18.2385 10.4915 18.1128 11.137 18.1004 11.7491C18.0947 12.0661 18.1242 12.3888 18.188 12.7077C18.2385 12.9628 18.3137 13.2075 18.4108 13.435C18.5164 13.6853 18.6554 13.8986 18.823 14.068C19.0067 14.2518 19.2361 14.3765 19.4874 14.4279C19.5027 14.4317 19.5169 14.4336 19.5312 14.4355L19.5531 14.4393C19.5626 14.4412 19.5702 14.4412 19.5788 14.4412C19.5959 14.4412 19.6102 14.4364 19.6245 14.4279C19.6407 14.4183 19.6521 14.406 19.6597 14.3907C19.6645 14.3907 19.6693 14.3907 19.674 14.3907C19.7054 14.3907 19.7226 14.3831 19.734 14.3679C20.5669 13.3864 21.3171 12.2041 21.9644 10.8552C22.2081 10.3487 22.4442 9.80136 22.6679 9.22828C22.6784 9.20448 22.6708 9.17307 22.6584 9.15498C22.6517 9.09691 22.6451 9.0417 22.6394 8.98744L22.6327 8.93127C22.6241 8.8494 22.6156 8.76754 22.6089 8.68567C22.5994 8.59618 22.5918 8.5067 22.5851 8.41722L22.5794 8.34963L22.5727 8.26205C22.547 7.96599 22.5185 7.65279 22.469 7.34817C22.4109 7.00166 22.3347 6.72749 22.23 6.48474C22.1653 6.33338 22.0939 6.20582 22.0111 6.09539C21.913 5.96498 21.8102 5.87549 21.696 5.82313C21.6436 5.79838 21.5874 5.78315 21.5265 5.77554C21.5056 5.77268 21.4865 5.77173 21.4675 5.77173Z" fill="#FBBAAB"/>
<path d="M35.959 2.39719C35.8905 2.3991 35.84 2.40481 35.7953 2.41623C35.7506 2.42861 35.7182 2.44098 35.6868 2.45621C35.6696 2.46383 35.6525 2.47335 35.6354 2.48382C35.584 2.51809 35.5402 2.55522 35.504 2.60091C35.424 2.6942 35.3698 2.81796 35.3374 2.97979C35.3089 3.11306 35.2984 3.25871 35.306 3.42435C35.3136 3.68424 35.3631 3.96316 35.4583 4.30491C35.5459 4.60954 35.6573 4.91416 35.7544 5.175L35.7867 5.25782L35.8105 5.32065C35.8429 5.40442 35.8734 5.48915 35.9038 5.57387C35.9333 5.65003 35.96 5.72714 35.9866 5.8052L36.0057 5.85946L36.0609 6.02034C36.058 6.04128 36.0647 6.0727 36.0828 6.08793C36.5312 6.51155 36.9795 6.90471 37.4146 7.25693C38.576 8.19937 39.7592 8.94665 40.9321 9.47784C40.9387 9.4807 40.9473 9.4826 40.9559 9.4826C40.9663 9.4826 40.9787 9.4807 41.0092 9.46737C41.0244 9.4788 41.0406 9.48451 41.0644 9.48451C41.0768 9.48451 41.0882 9.4826 41.1006 9.47784C41.1091 9.47404 41.1158 9.47023 41.1224 9.46547L41.1405 9.45309C41.1529 9.44453 41.1643 9.43691 41.1758 9.42739C41.3814 9.27317 41.5356 9.06279 41.6222 8.81814C41.7003 8.59443 41.7346 8.34311 41.7231 8.07181C41.7146 7.83001 41.6784 7.57679 41.6156 7.32071C41.5356 7.00561 41.4242 6.70099 41.2833 6.41635C41.0101 5.86898 40.6208 5.33969 40.1238 4.84562C39.6793 4.39916 39.1538 3.97744 38.5626 3.59285C38.0686 3.27014 37.5298 2.97217 36.9167 2.68088C36.7701 2.61329 36.654 2.56093 36.5283 2.51333C36.3722 2.45717 36.2484 2.4248 36.1409 2.40957C36.0876 2.401 36.0361 2.39624 35.9885 2.39624L35.959 2.39719Z" fill="#FBBAAB"/>
<path d="M21.7796 2.949C21.6996 2.96327 21.6216 2.98898 21.5254 3.03182C21.4388 3.06894 21.355 3.11654 21.2665 3.17651C21.1151 3.27837 20.959 3.4126 20.7753 3.59823C20.6268 3.74959 20.4916 3.90666 20.3231 4.11038C19.632 4.95191 19.0513 5.76107 18.5477 6.58261C17.9518 7.5517 17.4749 8.53127 17.1302 9.4937C16.7485 10.558 16.5457 11.5994 16.5267 12.5914C16.5172 13.1064 16.5648 13.628 16.6666 14.1402C16.7485 14.5533 16.8694 14.9484 17.0265 15.3149C17.2007 15.7252 17.4244 16.0689 17.6919 16.3373C17.9899 16.6343 18.3602 16.8352 18.7648 16.918C18.799 16.9247 18.8333 16.9304 18.8685 16.9361C18.8914 16.937 18.9009 16.9389 18.9104 16.9389C18.9361 16.9389 18.959 16.9323 18.9808 16.919C19.0056 16.9047 19.0246 16.8847 19.037 16.8618C19.038 16.8656 19.0446 16.8675 19.0551 16.8675C19.097 16.8675 19.1322 16.8514 19.157 16.8238C19.4102 16.5248 19.6586 16.2145 19.9023 15.8937C19.791 15.8547 19.6815 15.8128 19.5739 15.7661C19.3159 15.6548 19.0665 15.5224 18.839 15.3587C18.6182 15.1997 18.4135 15.0179 18.2383 14.8085C18.0584 14.5933 17.907 14.3553 17.7919 14.1002C17.73 13.965 17.6767 13.826 17.6329 13.6842C17.5691 13.4776 17.5225 13.2653 17.4901 13.0512C17.453 12.7989 17.432 12.5457 17.4301 12.2915C17.4273 12.0249 17.4406 11.7584 17.4691 11.4938C17.5272 10.9578 17.6357 10.4285 17.7804 9.9097C17.9261 9.38708 18.1041 8.87397 18.304 8.36943C18.3973 8.13525 18.4944 7.90298 18.5944 7.67165C18.6458 7.55361 18.6972 7.43652 18.7514 7.32133C18.8333 7.14617 18.9199 6.97482 19.0075 6.80252C19.1332 6.55786 19.2636 6.31511 19.3978 6.07427C19.5558 5.79249 19.7196 5.51357 19.89 5.23845C20.067 4.95286 20.2527 4.67204 20.4497 4.39978C20.6344 4.1456 20.8276 3.89619 21.039 3.66392C21.2189 3.46686 21.4131 3.27742 21.633 3.12416C21.7434 3.048 21.8615 2.97851 21.9881 2.93186C21.9795 2.93091 21.9719 2.93091 21.9633 2.93091C21.911 2.93091 21.8539 2.93662 21.7796 2.949Z" fill="#5B4B6D"/>
<path fill-rule="evenodd" clip-rule="evenodd" d="M34.5044 0C34.5815 0 34.6644 0.00666345 34.7557 0.0209428C34.9452 0.0504534 35.1441 0.105667 35.3812 0.194199C35.5839 0.268452 35.7781 0.35508 36.0085 0.462651C36.9919 0.926254 37.862 1.40794 38.6711 1.93628C39.6231 2.55695 40.4741 3.23856 41.1986 3.96109C41.9992 4.76073 42.6284 5.61654 43.0692 6.50377C43.3015 6.97118 43.4814 7.46239 43.6051 7.96216C43.7089 8.37626 43.7689 8.78561 43.7841 9.17876C43.8012 9.62428 43.7451 10.0308 43.6175 10.3868C43.4785 10.7828 43.2301 11.1227 42.8978 11.3702C42.8693 11.3911 42.8407 11.4101 42.8112 11.4301C42.7988 11.4387 42.7874 11.4454 42.775 11.4511C42.756 11.4606 42.7369 11.4654 42.7027 11.4654C42.6751 11.4625 42.6484 11.453 42.6322 11.4368C42.6284 11.4406 42.6218 11.4454 42.6122 11.4482C42.5942 11.4577 42.5732 11.4635 42.5523 11.4635C42.5332 11.4635 42.5161 11.4597 42.5028 11.452C40.6093 10.5943 38.6949 9.38724 36.8129 7.86316C36.1075 7.29103 35.3831 6.65513 34.6596 5.97257C34.632 5.94497 34.6206 5.89642 34.6253 5.86405C34.5911 5.75553 34.5577 5.65748 34.5244 5.55942L34.5092 5.51468L34.4959 5.47851L34.4616 5.38141C34.433 5.30049 34.4045 5.21862 34.375 5.13866C34.3245 5.00063 34.2722 4.86164 34.2207 4.72456L34.1846 4.62936L34.1341 4.49514C33.9856 4.10388 33.7981 3.59078 33.6534 3.08719C33.4973 2.54363 33.4182 2.09145 33.403 1.66402C33.3944 1.39557 33.4116 1.15948 33.4554 0.945292C33.5087 0.685408 33.5963 0.484546 33.7238 0.330329C33.7857 0.258932 33.8552 0.197055 33.939 0.145649C33.9666 0.128514 33.9932 0.112331 34.0227 0.0990035C34.0761 0.0733007 34.1313 0.0533097 34.196 0.0361744C34.2712 0.0142794 34.3531 0.00380783 34.4616 0H34.5044ZM40.9539 9.4872C40.9663 9.4872 40.9796 9.48244 41.0111 9.47006C41.0206 9.48149 41.0368 9.4872 41.0653 9.4891C41.0777 9.4891 41.0891 9.48529 41.1015 9.48053C41.1091 9.47673 41.1167 9.47292 41.1243 9.46816L41.1424 9.45483C41.1548 9.44722 41.1672 9.43865 41.1786 9.43008C41.3566 9.29585 41.4994 9.11593 41.5898 8.90936C41.6032 8.8808 41.6155 8.85034 41.6251 8.81892C41.7041 8.59521 41.7383 8.34295 41.7269 8.07164C41.7174 7.82223 41.6803 7.56901 41.6174 7.31864C41.5384 7.0045 41.4271 6.70082 41.2852 6.41523C41.0139 5.86691 40.6246 5.33762 40.1267 4.8426C39.6793 4.39518 39.1538 3.97347 38.5645 3.58983C38.0705 3.26711 37.5317 2.9682 36.9176 2.6769C36.7606 2.60455 36.6463 2.55315 36.5292 2.51031C36.3712 2.45319 36.2513 2.42082 36.1418 2.40464C36.0847 2.39607 36.0323 2.39131 35.9828 2.39131L35.959 2.39227C35.8857 2.39512 35.8391 2.40083 35.7934 2.41416C35.7553 2.42463 35.7248 2.43415 35.6972 2.44653C35.6687 2.46081 35.6515 2.47033 35.6344 2.4808C35.5801 2.51602 35.5364 2.5541 35.5011 2.59789C35.4193 2.69594 35.364 2.82065 35.3326 2.97962C35.3107 3.08529 35.2993 3.20048 35.2993 3.33185L35.3022 3.42419C35.3088 3.68026 35.3583 3.96014 35.4554 4.3057C35.5421 4.60842 35.6534 4.91305 35.7515 5.17579L35.7839 5.25956L35.8077 5.32144C35.8391 5.40616 35.8705 5.49088 35.9009 5.57466C35.9257 5.63844 35.9485 5.70412 35.9714 5.76886L35.9838 5.80693L36.0019 5.86024L36.058 6.02112C36.0561 6.05539 36.0647 6.07919 36.0799 6.09062C36.535 6.5209 36.9824 6.91406 37.4117 7.25962C38.5712 8.20015 39.7554 8.94839 40.9301 9.48149C40.9397 9.48625 40.9511 9.4872 40.9539 9.4872Z" fill="#5B4B6D"/>
<path fill-rule="evenodd" clip-rule="evenodd" d="M33.4365 4.66926C33.4756 4.67021 33.5146 4.67021 33.5527 4.67211C34.3352 4.69686 35.0815 4.79396 35.7717 4.9596C36.5532 5.14809 37.2929 5.41464 37.9726 5.75258C38.519 6.02579 39.0712 6.34565 39.6138 6.70549C40.1336 7.0501 40.6438 7.42803 41.1331 7.82785C42.1193 8.63701 43.0542 9.5585 43.9119 10.5666C44.7686 11.5728 45.5483 12.6619 46.228 13.8014C46.921 14.9618 47.495 16.147 47.9348 17.3236C48.3984 18.5612 48.7192 19.7768 48.8877 20.9382C48.9296 21.2295 48.9715 21.5408 48.9886 21.8502C49.0077 22.1891 49.0029 22.4994 48.9725 22.7983C48.9115 23.4142 48.7621 24.0168 48.5279 24.5889C48.0814 25.6827 47.356 26.7004 46.3717 27.6133C45.9072 28.0436 45.4045 28.4348 44.8781 28.7756C44.8286 28.808 44.7781 28.8404 44.7258 28.8727C44.3812 29.1317 43.9918 29.3801 43.5673 29.6096C43.1103 29.8561 42.6001 30.096 42.008 30.3426C41.5282 30.5434 41.0284 30.7386 40.5229 30.9242C39.5548 31.2783 38.5485 31.5972 37.5328 31.8733C35.3005 32.4797 33.0967 32.871 30.9833 33.0385C30.2227 33.0985 29.484 33.1289 28.7891 33.1289C27.5525 33.1289 26.3778 33.0318 25.2992 32.8396C25.2802 32.8481 25.2583 32.8529 25.2373 32.8529C25.2297 32.8529 25.2212 32.8519 25.2126 32.851C24.4615 32.7187 23.8075 32.5692 23.2125 32.3931C22.3977 32.1522 21.7113 31.8809 21.1144 31.5639C20.4309 31.2012 19.875 30.8062 19.4161 30.3549C19.0211 29.9665 18.6831 29.5391 18.4109 29.0841C18.1338 28.6233 17.9035 28.1245 17.7274 27.6009C17.3894 26.6004 17.2047 25.4562 17.1762 24.1977C17.1505 23.0468 17.24 21.8483 17.4484 20.5346C17.6264 19.4074 17.8882 18.2213 18.2252 17.0085C18.3747 16.4726 18.5356 15.9395 18.7041 15.4235C18.8935 14.8362 19.0477 14.3897 19.2019 13.9775C20.1349 11.4805 21.7141 9.29957 23.7704 7.67078C24.8099 6.84733 25.9418 6.18382 27.1355 5.69832C28.0818 5.31373 29.0737 5.03766 30.0828 4.87869C30.0942 4.87202 30.1056 4.86726 30.1171 4.86536C30.8491 4.72923 31.6183 4.65593 32.4056 4.64927C32.5208 4.64546 32.6359 4.64355 32.7511 4.64355C32.9948 4.64355 33.2195 4.65212 33.4365 4.66926ZM17.4837 22.9373L17.4808 22.964C17.4789 23.0058 17.477 23.0468 17.4751 23.0877C17.4779 23.0382 17.4808 22.9878 17.4837 22.9373Z" fill="#625175"/>
<path d="M27.1341 5.69552C25.9403 6.18007 24.8075 6.84358 23.768 7.66798C21.7117 9.29773 20.1315 11.4796 19.1995 13.9756C19.051 14.3717 18.8968 14.8172 18.7017 15.4217C18.5294 15.9462 18.3685 16.4802 18.2228 17.0076C17.8858 18.2176 17.624 19.4046 17.4441 20.5337C17.2366 21.8493 17.1471 23.0487 17.1719 24.1987C17.2004 25.4562 17.3861 26.6024 17.725 27.6029C17.8992 28.1246 18.1295 28.6234 18.4085 29.0851C18.6798 29.5392 19.0177 29.9676 19.4128 30.3588C19.8754 30.811 20.4323 31.2061 21.113 31.5668C21.7117 31.8858 22.3981 32.1571 23.2111 32.397C23.8032 32.5721 24.4572 32.7216 25.213 32.8548C25.2216 32.8567 25.2292 32.8577 25.2378 32.8577C25.2597 32.8577 25.2806 32.852 25.3006 32.8425C26.3782 33.0357 27.5529 33.1338 28.7895 33.1338C29.2779 33.1338 29.7881 33.1185 30.3136 33.0881C30.1109 33.0757 29.9081 33.0605 29.7063 33.0414C28.9866 32.9729 28.2698 32.8663 27.5653 32.7063C26.8533 32.5445 26.1517 32.3351 25.4739 32.0666C24.798 31.8001 24.1421 31.484 23.5205 31.108C22.8788 30.7215 22.2696 30.2808 21.7051 29.7867C21.4043 29.5239 21.1158 29.2479 20.8493 28.9499C20.6018 28.6729 20.3695 28.3826 20.1601 28.0751C19.9516 27.7695 19.7621 27.4515 19.5965 27.1212C19.4394 26.8042 19.2995 26.4786 19.1814 26.1455C19.0605 25.7999 18.9577 25.4496 18.8778 25.0926C18.7978 24.7394 18.735 24.3834 18.6902 24.0245C18.5931 23.2563 18.5655 22.4785 18.5884 21.7036C18.6074 21.0211 18.6702 20.3395 18.774 19.6636C18.9911 18.2566 19.3747 16.8763 19.9011 15.553C20.4342 14.2117 21.1044 12.9247 21.9012 11.7205C22.6989 10.5191 23.6157 9.39388 24.6504 8.38861C25.1578 7.8955 25.69 7.42904 26.2507 6.99875C26.8133 6.56656 27.4006 6.16579 28.0127 5.80881C28.5782 5.47943 29.1627 5.18337 29.7662 4.9292C28.8657 5.09389 27.9813 5.35092 27.1341 5.69552Z" fill="#5B4B6D"/>
<path d="M43.7177 18.0727C43.7129 18.0375 43.7062 18.0023 43.6748 17.9708C43.6482 17.9442 43.612 17.929 43.573 17.929C43.5339 17.929 43.4978 17.9432 43.4702 17.9708C43.4464 17.9956 43.4235 18.0384 43.4283 18.0737C43.2264 18.1393 43.0875 18.3031 43.0065 18.4325C42.8647 18.6591 42.7895 18.9266 42.7343 19.1589C42.6657 19.4473 42.6201 19.7415 42.581 20.0147L42.5553 20.1994C42.5325 20.3641 42.5096 20.5335 42.4744 20.6972C42.4411 20.841 42.3925 20.979 42.3411 21.1199C42.2802 21.2827 42.205 21.4512 42.1184 21.6197C41.947 21.9405 41.7385 22.2375 41.4996 22.5012C41.254 22.763 40.9751 22.9953 40.6704 23.1914C40.6828 23.1876 40.6933 23.1809 40.7038 23.1752C40.3877 23.3703 40.0517 23.5303 39.7033 23.6445C39.3253 23.7625 38.9141 23.8311 38.4457 23.8558C38.321 23.8615 38.2087 23.8635 38.0964 23.8635C37.6756 23.8635 37.2482 23.8349 36.836 23.8073C36.4095 23.7787 35.983 23.7492 35.5642 23.7492C35.3671 23.7492 35.1862 23.7559 35.0111 23.7683C34.4075 23.812 33.8621 23.9577 33.3889 24.2014C33.0082 24.3965 32.6635 24.6621 32.3304 24.9182C32.2133 25.0087 32.0962 25.0981 31.9781 25.1857C31.8706 25.2638 31.762 25.3399 31.6497 25.4123C31.5583 25.4704 31.4669 25.5256 31.3717 25.576C31.2689 25.6312 31.1623 25.6798 31.0528 25.7283C30.8339 25.8254 30.6007 25.914 30.3608 25.993C29.8438 26.1567 29.3384 26.2529 28.8595 26.2767C28.8043 26.2786 28.7491 26.2795 28.6939 26.2795C28.2998 26.2795 27.8762 26.2291 27.4344 26.1301L27.4544 26.1386C26.9137 26.0082 26.374 25.8054 25.8504 25.5313C25.8504 25.5313 25.8561 25.5351 25.8561 25.536C25.8552 25.537 25.8637 25.5427 25.8647 25.5437C25.2668 25.2228 24.6509 24.7935 23.9427 24.1976C23.6247 23.9301 23.3163 23.6521 23.0307 23.3913L22.9203 23.2894L22.8098 23.1876C22.8013 23.179 22.7927 23.1714 22.7832 23.1647L22.7489 23.1324L22.7137 23.1C22.6823 23.0705 22.6566 23.0524 22.6156 23.0495H22.6118C22.5671 23.0495 22.5357 23.061 22.51 23.0819C22.4928 23.0971 22.4776 23.1171 22.47 23.1381C22.4319 23.1514 22.3967 23.1704 22.3605 23.1952C22.3367 23.1457 22.2872 23.1143 22.233 23.1143C22.2196 23.1143 22.2073 23.1152 22.1949 23.119C22.1578 23.1295 22.1254 23.1561 22.1063 23.1914C22.0873 23.2247 22.0835 23.2628 22.094 23.298C22.1168 23.3713 22.1406 23.4446 22.1644 23.5169C22.1425 23.615 22.1435 23.7149 22.1473 23.7997C22.153 23.9206 22.1854 24.0348 22.2168 24.131C22.2282 24.1652 22.2672 24.1928 22.2977 24.2052C22.3139 24.2109 22.3301 24.2138 22.3472 24.2138C22.3691 24.2138 22.391 24.209 22.41 24.1995C22.4186 24.1957 22.4262 24.1909 22.4348 24.1843C22.47 24.2652 22.509 24.3461 22.55 24.4251C22.7223 24.7611 22.9355 25.0943 23.184 25.4142C23.6361 25.9987 24.2083 26.527 24.8842 26.9859C25.4991 27.4038 26.2217 27.7655 27.0318 28.0625C27.7686 28.3329 28.5797 28.5423 29.444 28.6842C30.3217 28.8289 31.2261 28.9022 32.1324 28.9022C32.8996 28.9022 33.6774 28.8498 34.4427 28.746C35.23 28.6394 35.9754 28.4795 36.6599 28.271C37.053 28.152 37.4538 28.0045 37.8841 27.8207C38.341 27.6256 38.7875 27.399 39.2111 27.1477C40.0507 26.6498 40.798 26.0491 41.432 25.3599C42.0698 24.666 42.5877 23.8825 42.9704 23.0305C43.276 22.3498 43.4949 21.6225 43.6215 20.8705C43.6862 20.4916 43.7291 20.0918 43.7491 19.6825C43.7729 19.1713 43.7862 18.6229 43.7177 18.0727Z" fill="#392E44"/>
<path d="M36.4261 22.9536C36.0101 22.9536 35.5713 22.9888 35.1219 23.0583C34.1452 23.2097 33.1895 23.5476 32.2813 24.0607C31.7491 24.3616 31.2284 24.7347 30.7344 25.1688H30.7306C30.7182 25.1688 30.7068 25.1717 30.6963 25.1755C30.6601 25.1879 30.6296 25.2145 30.6125 25.2497C30.6049 25.2659 30.6011 25.2802 30.5992 25.2916C30.5706 25.3154 30.5544 25.3516 30.5544 25.3916C30.5544 25.4325 30.5706 25.4744 30.5992 25.502C30.6125 25.5163 30.6306 25.5277 30.6515 25.5353L30.6687 25.6153C30.6896 25.7067 30.7106 25.8 30.7296 25.8942L30.7382 25.8733C30.8534 26.4977 30.9324 27.1308 31.0085 27.7429L31.0142 27.7905C31.0637 28.1894 31.1199 28.6416 31.1923 29.0823C31.2932 29.6973 31.4103 30.1999 31.5597 30.6616C31.7301 31.1871 31.9357 31.6288 32.189 32.0134C32.6402 32.6978 33.3065 33.2624 34.1157 33.645C34.8049 33.9725 35.5779 34.1458 36.3528 34.1458C36.4413 34.1458 36.5299 34.1439 36.6194 34.1391C37.4495 34.0963 38.2577 33.8335 38.9574 33.3794C39.2506 33.189 39.52 32.9577 39.7589 32.6912C39.976 32.4465 40.1635 32.1676 40.3149 31.8649C40.5909 31.3156 40.748 30.6587 40.7813 29.9134C40.8108 29.2622 40.7356 28.5635 40.5509 27.78C40.3929 27.0994 40.1511 26.3978 39.8322 25.6933C39.5371 25.0384 39.1925 24.4206 38.8089 23.857C38.5947 23.541 38.4043 23.2925 38.212 23.0726C38.1863 23.0421 38.1606 23.0203 38.1196 23.0107C38.1092 23.0098 38.1006 23.0088 38.0901 23.0088C38.0606 23.0088 38.0311 23.0174 38.0073 23.0345C37.9845 23.0488 37.9654 23.0726 37.954 23.0974C37.5323 23.0183 37.0925 22.9717 36.6489 22.9574C36.5737 22.9555 36.4994 22.9536 36.4261 22.9536Z" fill="#F2607B"/>
<path d="M35.1214 23.0534C34.1418 23.2067 33.1861 23.5447 32.2788 24.0578C31.7448 24.3595 31.2241 24.7327 30.731 25.1658H30.7271C30.7138 25.1658 30.7043 25.1677 30.6938 25.1725C30.6567 25.1849 30.6262 25.2125 30.6091 25.2477C30.5996 25.2667 30.5958 25.2801 30.5948 25.2915C30.5663 25.3143 30.5501 25.3515 30.5501 25.3915C30.5491 25.4333 30.5663 25.4752 30.5958 25.5047C30.6091 25.519 30.6291 25.5314 30.65 25.5381L30.6643 25.6152L30.6776 25.677C30.6938 25.7494 30.71 25.8217 30.7243 25.896L30.7395 25.875C30.8528 26.5186 30.9356 27.1983 31.0032 27.7428L31.0099 27.7894C31.0594 28.1883 31.1155 28.6395 31.1869 29.0822C31.2888 29.7029 31.4068 30.2045 31.5563 30.6634C31.7248 31.187 31.9304 31.6287 32.1855 32.0142C32.6358 32.7006 33.3031 33.266 34.1142 33.6478C34.8044 33.9771 35.5783 34.1504 36.3523 34.1504C36.4408 34.1504 36.5293 34.1485 36.6188 34.1437C37.2528 34.1104 37.8744 33.9495 38.4437 33.6725C38.3466 33.703 38.2486 33.7296 38.1496 33.7534C37.7164 33.8572 37.269 33.9048 36.8235 33.8781C36.3951 33.8515 35.9696 33.7649 35.5659 33.6135C35.3651 33.5383 35.1699 33.4517 34.9814 33.3498C34.7891 33.2451 34.6035 33.129 34.4274 32.9995C34.0476 32.7234 33.7058 32.3979 33.4069 32.0361C33.1042 31.6687 32.8367 31.2698 32.6196 30.8443C32.3969 30.4054 32.2141 29.9428 32.0894 29.4658C32.0266 29.225 31.9761 28.9822 31.9447 28.7347C31.9133 28.4882 31.8971 28.2378 31.9066 27.9884C31.9152 27.7523 31.9418 27.5162 31.9971 27.2858C32.0266 27.1668 32.0608 27.0479 32.1046 26.9327C32.137 26.8489 32.1741 26.768 32.2208 26.6909C32.3245 26.5157 32.455 26.3567 32.6016 26.2149C32.7586 26.0607 32.9309 25.9207 33.1118 25.7941C33.4754 25.539 33.8696 25.3248 34.2751 25.1439C34.3655 25.104 34.455 25.0649 34.5474 25.0288C34.6578 24.9859 34.7711 24.9478 34.8862 24.9193C35.1185 24.8603 35.3575 24.825 35.5964 24.8108C36.0971 24.7793 36.5979 24.8222 37.0976 24.8555C37.5917 24.8898 38.0896 24.9136 38.5817 24.845C38.5779 24.845 38.5741 24.846 38.5703 24.8469C38.7045 24.8269 38.8388 24.8012 38.9692 24.7641C39.0834 24.7327 39.1958 24.6937 39.3062 24.6489C39.1501 24.3738 38.9844 24.1092 38.8112 23.8559C38.5989 23.5428 38.4094 23.2924 38.2143 23.0696C38.1924 23.043 38.1657 23.0182 38.121 23.0078C38.1086 23.0049 38.0991 23.0039 38.0896 23.0039C38.0582 23.0039 38.0296 23.0135 38.0049 23.0316C37.9811 23.0468 37.9611 23.0696 37.9506 23.0963C37.5413 23.0163 37.1024 22.9687 36.6474 22.9525C36.5731 22.9506 36.4989 22.9487 36.4256 22.9487C36.0181 22.9487 35.5793 22.9849 35.1214 23.0534Z" fill="#E25A73"/>
<path d="M34.7472 23.8691C34.6454 23.9186 34.6054 24.0414 34.652 24.1423C34.7244 24.2994 34.8158 24.446 34.9043 24.5935C34.9928 24.7421 35.0833 24.8887 35.1718 25.0372C35.3489 25.3323 35.5174 25.6331 35.6792 25.9377C35.8401 26.2404 35.9829 26.5508 36.119 26.8659C36.2532 27.1819 36.376 27.5037 36.4836 27.8293L36.4817 27.8245C36.5921 28.1643 36.6911 28.5061 36.7806 28.8517C36.8701 29.1972 36.9453 29.5456 37.0129 29.895C37.15 30.6033 37.2585 31.3172 37.3404 32.034C37.3432 32.0607 37.3737 32.0797 37.4003 32.075C37.4289 32.0693 37.4451 32.0426 37.4413 32.015C37.3813 31.48 37.3194 30.946 37.2414 30.4138C37.1643 29.8788 37.0691 29.3476 36.9624 28.8183C36.8568 28.2909 36.7264 27.7702 36.5817 27.2533C36.437 26.7316 36.2618 26.2195 36.059 25.7169C35.9305 25.3989 35.7811 25.0876 35.6126 24.7887C35.5221 24.6288 35.4241 24.4727 35.3203 24.3213C35.2223 24.1794 35.1156 24.0386 34.9909 23.9205C34.9681 23.8939 34.9395 23.8739 34.9053 23.8615C34.8834 23.8529 34.8596 23.8491 34.8358 23.8491C34.8053 23.8491 34.7748 23.8558 34.7472 23.8691Z" fill="#C64E64"/>
<path d="M31.4119 8.88751C31.415 8.88751 31.4171 8.88647 31.4191 8.88647C31.4202 8.88647 31.4202 8.88647 31.4202 8.88647C31.4171 8.88647 31.4139 8.88751 31.4119 8.88751Z" fill="#FEFEFE"/>
<path d="M40.742 20.4233C40.742 20.4233 40.7433 20.4246 40.7446 20.4246C40.742 20.4233 40.742 20.4207 40.7407 20.4194C40.7407 20.4207 40.7407 20.422 40.742 20.4233Z" fill="#FEFEFE"/>
<path d="M30.1786 10.0146C30.1786 10.0127 30.1796 10.0117 30.1796 10.0107C30.1805 10.0078 30.1815 10.0058 30.1825 10.0029L30.1786 10.0146Z" fill="#FEFEFE"/>
<path d="M31.1613 8.95945C31.1642 8.95848 31.1661 8.95751 31.169 8.95653C31.17 8.95653 31.172 8.95556 31.1729 8.95459L31.1613 8.95945Z" fill="#FEFEFE"/>
<path d="M40.606 23.4529C40.6051 23.4529 40.6041 23.4529 40.6031 23.4539C40.6002 23.4548 40.5973 23.4568 40.5944 23.4587C40.5983 23.4568 40.6021 23.4548 40.606 23.4529Z" fill="#FEFEFE"/>
<path d="M31.6447 8.88232C31.6486 8.88331 31.6515 8.88429 31.6554 8.88429C31.6564 8.88429 31.6574 8.88429 31.6584 8.88527C31.6545 8.88429 31.6496 8.88331 31.6447 8.88232Z" fill="#FEFEFE"/>
<path d="M28.4299 20.6163L28.431 20.6152C28.4321 20.6141 28.4321 20.6141 28.4321 20.613C28.4321 20.6141 28.431 20.6141 28.4299 20.6163Z" fill="#FEFEFE"/>
<path d="M31.8812 8.94727C31.8822 8.94827 31.8842 8.94928 31.8852 8.95028C31.8883 8.95028 31.8903 8.95129 31.8923 8.9523L31.8812 8.94727Z" fill="#FEFEFE"/>
<path d="M41.6109 22.6896C41.5738 22.4383 41.5319 22.187 41.4681 21.9404C41.411 21.7224 41.3406 21.5092 41.2539 21.3017C41.1854 21.1408 41.1073 20.9847 41.0198 20.8333C40.9369 20.6924 40.8446 20.5572 40.7456 20.4268L40.7446 20.4249V20.4259C40.7446 20.4249 40.7446 20.424 40.7437 20.424C40.7437 20.424 40.7437 20.424 40.7427 20.423C40.7418 20.4221 40.7418 20.4211 40.7418 20.4211C40.7408 20.4202 40.7389 20.4183 40.738 20.4173C40.7389 20.4173 40.7389 20.4183 40.7399 20.4183C40.619 20.265 40.4886 20.1193 40.3477 19.9842C40.2087 19.849 40.0602 19.7224 39.905 19.6024C39.429 19.2378 38.9055 18.9437 38.3809 18.6543C38.0354 18.4629 37.6889 18.2725 37.35 18.0679C37.0016 17.8556 36.6617 17.629 36.3418 17.3748C36.2543 17.3063 36.1686 17.2359 36.0867 17.1616C36.0115 17.0921 35.9373 17.0217 35.8659 16.9474C35.7202 16.797 35.5841 16.6361 35.4565 16.4686C35.19 16.1164 34.9625 15.7356 34.7645 15.3415C34.3551 14.5228 34.0591 13.6527 33.783 12.7817C33.6478 12.3533 33.5174 11.9239 33.3794 11.4956C33.3137 11.2928 33.247 11.0891 33.1766 10.8882C33.1128 10.7092 33.0481 10.5312 32.9757 10.357C32.8396 10.0324 32.6778 9.71731 32.4636 9.43743C32.3665 9.31273 32.2589 9.19659 32.1332 9.09854C32.0561 9.03952 31.9743 8.98906 31.8848 8.95003C31.8448 8.9329 31.8029 8.91671 31.761 8.90624C31.7258 8.89672 31.6906 8.89006 31.6544 8.88435C31.6201 8.88054 31.584 8.87769 31.5487 8.87769H31.5364C31.4983 8.87864 31.4612 8.88054 31.424 8.8853C31.4221 8.8853 31.4212 8.8853 31.4193 8.8853H31.4183C31.3774 8.89196 31.3346 8.89958 31.2936 8.91291C31.2508 8.92528 31.2098 8.94051 31.168 8.9567C31.1051 8.98335 31.0452 9.01381 30.9871 9.04809C30.9252 9.08616 30.8662 9.1271 30.8091 9.17089C30.7405 9.2242 30.6758 9.28036 30.6158 9.34224C30.5625 9.3984 30.5111 9.45647 30.4635 9.5174C30.3474 9.66971 30.2541 9.83535 30.1789 10.0105C30.0646 10.2875 29.9952 10.5788 29.9533 10.8749V10.873C29.9066 11.2347 29.899 11.6003 29.9133 11.9639C29.9295 12.3466 29.9694 12.7274 30.0199 13.1063C30.019 13.1034 30.019 13.1006 30.018 13.0977C30.0884 13.6146 30.1798 14.1287 30.2684 14.6437C30.3074 14.8712 30.3464 15.0997 30.3788 15.3281C30.4093 15.5328 30.434 15.7384 30.4483 15.9441C30.4787 16.4067 30.4749 16.8751 30.3969 17.333C30.3626 17.5338 30.3169 17.7328 30.2531 17.926C30.1941 18.1098 30.1218 18.2897 30.037 18.4639C29.8581 18.8313 29.6286 19.1712 29.3773 19.493C29.2345 19.6748 29.086 19.8518 28.9328 20.0251C28.8452 20.125 28.7548 20.2221 28.6681 20.3221C28.5901 20.4163 28.512 20.5106 28.4358 20.6077H28.4368L28.4349 20.6086C28.4339 20.6115 28.432 20.6144 28.4301 20.6153C28.2493 20.8523 28.0798 21.0979 27.9275 21.355C27.7799 21.6072 27.6467 21.869 27.5324 22.1384V22.1375C27.4306 22.3802 27.3421 22.6287 27.2726 22.8829C27.2031 23.1342 27.1517 23.3893 27.1164 23.6492C27.1174 23.6463 27.1174 23.6444 27.1183 23.6416C27.0879 23.8691 27.0707 24.0985 27.0717 24.3279C27.0717 24.5612 27.0869 24.7925 27.1164 25.0238C27.1155 25.021 27.1155 25.0172 27.1145 25.0143C27.1421 25.2209 27.1812 25.4255 27.2326 25.6264C27.2811 25.8139 27.3392 26.0005 27.4068 26.1823C27.4096 26.1833 27.4115 26.1843 27.4144 26.1852C27.4525 26.1995 27.4896 26.2128 27.5267 26.2261C27.5258 26.2261 27.5229 26.2252 27.521 26.2242C27.68 26.2785 27.8428 26.3232 28.0075 26.3537C28.1741 26.3851 28.3416 26.407 28.5101 26.4184C28.5063 26.4184 28.5015 26.4184 28.4977 26.4175C28.7329 26.4318 28.9689 26.4308 29.2041 26.4118C29.4306 26.3927 29.6553 26.3604 29.879 26.3166C29.8752 26.3166 29.8704 26.3185 29.8666 26.3194C30.1608 26.2595 30.4521 26.1814 30.7367 26.0833C31.0042 25.992 31.2679 25.8872 31.5211 25.7616C31.5173 25.7635 31.5145 25.7654 31.5107 25.7673C31.5392 25.7521 31.5687 25.7378 31.5963 25.7226C31.8286 25.5978 32.0495 25.4532 32.2599 25.2951C32.4683 25.14 32.6682 24.9734 32.8672 24.8068C32.9205 24.762 32.9748 24.7173 33.0281 24.6735C33.1604 24.6088 33.2927 24.544 33.426 24.4822C33.8392 24.2889 34.2647 24.1204 34.7092 24.0186C34.7073 24.0195 34.7054 24.0195 34.7035 24.0205C34.7064 24.0195 34.7102 24.0186 34.7131 24.0186C34.7226 24.0157 34.7311 24.0138 34.7407 24.0119C34.734 24.0138 34.7273 24.0147 34.7216 24.0166C35.0643 23.9453 35.4118 23.9176 35.7621 23.9329C35.7764 23.9338 35.7907 23.9348 35.804 23.9357C35.8326 23.9376 35.8573 23.9376 35.8821 23.9291C35.9649 23.9319 36.0486 23.9367 36.1324 23.9405C36.2057 23.951 36.279 23.9624 36.3523 23.9719C36.6465 24.01 36.9416 24.0414 37.2376 24.0623H37.2357C37.5632 24.0833 37.8926 24.0928 38.221 24.0757C38.3857 24.0681 38.5504 24.0557 38.7141 24.0347C38.8664 24.0166 39.0178 23.9919 39.1673 23.9614C39.1673 23.9624 39.1663 23.9624 39.1644 23.9633C39.4138 23.91 39.6594 23.8415 39.8984 23.7539C40.1392 23.6682 40.3743 23.5683 40.6028 23.454C40.8132 23.3484 41.0179 23.2313 41.2092 23.0961C41.3396 22.9581 41.4757 22.8238 41.6109 22.6896Z" fill="#FEFEFE"/>
<path d="M41.2512 21.2949C41.2522 21.2969 41.2532 21.2998 41.2541 21.3017C41.2551 21.3027 41.2551 21.3046 41.2561 21.3066L41.2512 21.2949Z" fill="#FEFEFE"/>
<path d="M32.972 10.3467C32.9731 10.3497 32.9751 10.3537 32.9761 10.3577L32.972 10.3467Z" fill="#FEFEFE"/>
<path d="M34.7101 24.0186C34.714 24.0186 34.7179 24.0176 34.7228 24.0166L34.714 24.0186C34.713 24.0186 34.712 24.0186 34.7101 24.0186Z" fill="#FEFEFE"/>
<path d="M35.0584 20.1995H35.0289C34.85 20.2004 34.6729 20.2128 34.5025 20.2366C34.3064 20.2632 34.1084 20.3051 33.9313 20.3565C33.7524 20.407 33.5696 20.4708 33.3897 20.5469C33.2002 20.6278 33.0041 20.7278 32.8223 20.8363C32.6405 20.9429 32.4605 21.0648 32.2873 21.1981C32.0902 21.3523 31.9056 21.516 31.7361 21.6864C31.5705 21.853 31.4115 22.0339 31.263 22.2243C31.0954 22.4432 30.9546 22.6527 30.8317 22.8621C30.6994 23.0896 30.5814 23.3238 30.4814 23.5599C30.3834 23.794 30.3015 24.0311 30.2368 24.2662C30.1711 24.5061 30.1216 24.746 30.0883 24.9811C30.0569 25.2325 30.0416 25.4571 30.0416 25.6685C30.0416 25.8693 30.053 26.074 30.0759 26.2768C30.3015 26.2282 30.5233 26.1654 30.7394 26.0902C31.0336 25.9893 31.2906 25.8836 31.5248 25.7675L31.6 25.7284C31.818 25.6113 32.0417 25.4676 32.2644 25.301C32.4758 25.143 32.6804 24.9726 32.8727 24.8117L32.9346 24.7593L33.0336 24.6765L33.1126 24.6394C33.2174 24.588 33.323 24.5375 33.4296 24.488C33.917 24.2615 34.3245 24.1149 34.7119 24.0254C35.0051 23.9664 35.2879 23.9368 35.5753 23.9368C35.6372 23.9368 35.7001 23.9387 35.7619 23.9416C35.7753 23.9435 35.7895 23.9435 35.8038 23.9445L35.8276 23.9454C35.8495 23.9454 35.8676 23.9426 35.8838 23.9359L36.1161 23.9473C36.1941 23.9587 36.2731 23.9702 36.3521 23.9797C36.672 24.0206 36.9614 24.0501 37.2365 24.0701C37.4716 24.0853 37.6792 24.093 37.8715 24.093C37.9886 24.093 38.1047 24.0892 38.2208 24.0844C38.4188 24.0739 38.5759 24.0606 38.714 24.0435C38.8644 24.0244 39.0176 23.9997 39.169 23.9702C39.3698 23.9273 39.5698 23.8731 39.763 23.8093C39.6669 23.5741 39.5469 23.34 39.4098 23.1105C39.2699 22.8773 39.1157 22.6517 38.9538 22.4404C38.5683 21.9473 38.1304 21.5094 37.6506 21.1381C37.4697 21.0001 37.2984 20.8849 37.128 20.7849C36.9547 20.684 36.7786 20.5945 36.6044 20.5193C36.4169 20.4422 36.236 20.3794 36.0666 20.3356C35.9019 20.2909 35.7286 20.2556 35.5516 20.2318C35.3802 20.2099 35.2146 20.1995 35.0584 20.1995Z" fill="#FCDAD2"/>
<path d="M34.5965 22.687C34.5632 22.6965 34.5499 22.7279 34.5556 22.7603C34.5623 22.805 34.5689 22.8497 34.5756 22.8935C34.5956 23.063 34.6146 23.2324 34.6346 23.4019C34.6441 23.4866 34.6527 23.5723 34.6622 23.657C34.6717 23.7541 34.6813 23.8522 34.6984 23.9493C34.7041 23.9826 34.7336 24.0149 34.7612 24.0311C34.7926 24.0492 34.8317 24.054 34.8659 24.0445C34.9002 24.0359 34.9307 24.0121 34.9478 23.9816C34.9526 23.9712 34.9573 23.9607 34.9611 23.9493C34.9678 23.9245 34.9678 23.9007 34.9611 23.876C34.9469 23.7789 34.9192 23.6837 34.8926 23.5885C34.8659 23.4933 34.8383 23.399 34.8107 23.3038C34.7555 23.1144 34.7013 22.924 34.6689 22.7288C34.6651 22.7022 34.6356 22.6851 34.6099 22.6851C34.6051 22.6851 34.6003 22.686 34.5965 22.687Z" fill="#392E44"/>
<path d="M34.659 18.2339C34.58 18.2339 34.5019 18.2348 34.4238 18.2386C34.0059 18.2605 33.5947 18.3405 33.2025 18.4757C32.3352 18.7736 31.6879 19.3134 31.3795 19.996C31.2348 20.3158 31.172 20.6366 31.1929 20.9498C31.2138 21.2544 31.3157 21.5438 31.488 21.7856C31.5737 21.9065 31.6755 22.0132 31.7879 22.1017C31.8469 22.1483 31.905 22.1883 31.9659 22.2245C32.0373 22.2673 32.1134 22.3006 32.1848 22.3302C32.3133 22.3844 32.458 22.4187 32.6408 22.4396C32.6979 22.4463 32.7551 22.4491 32.8112 22.4491C32.9026 22.4491 32.9969 22.4425 33.1006 22.4273C33.2434 22.6824 33.4509 22.8832 33.6975 23.006C33.8365 23.0755 33.9888 23.1203 34.162 23.1441C34.2268 23.1526 34.2906 23.1565 34.3543 23.1565C34.44 23.1565 34.5314 23.1498 34.6314 23.1355C34.9322 23.0917 35.2301 22.9556 35.4929 22.7424C35.7432 22.5377 35.9279 22.2492 36.0127 21.9303C36.045 21.8113 36.0622 21.6828 36.0641 21.5476C36.3163 21.4248 36.659 21.1935 36.8485 20.8051C36.9208 20.6585 36.9646 20.4986 36.9846 20.3168C37.0017 20.1683 36.9922 20.0083 36.9541 19.8284C36.8884 19.5143 36.7238 19.2049 36.4791 18.9326C36.2421 18.6689 35.9308 18.4681 35.5805 18.3519C35.3939 18.2901 35.1997 18.2653 35.0169 18.2482C34.9036 18.2386 34.7837 18.2339 34.659 18.2339Z" fill="#392E44"/>
<g style="mix-blend-mode:soft-light">
<path d="M35.2937 18.6155C35.2214 18.605 35.1481 18.5984 35.0748 18.5955C35.0091 18.5936 34.9386 18.5965 34.8606 18.606C34.7863 18.6079 34.7092 18.6174 34.6302 18.6327C34.5474 18.6498 34.4646 18.6812 34.3855 18.725L34.3665 18.7326C34.3408 18.745 34.3313 18.7536 34.3227 18.7631C34.2675 18.8002 34.2218 18.843 34.1885 18.8897C34.1752 18.9087 34.1637 18.9335 34.1552 18.9649C34.1485 18.9934 34.1514 19.0201 34.1533 19.0429C34.1552 19.0677 34.1666 19.0925 34.179 19.1162C34.1942 19.1448 34.218 19.1705 34.2409 19.1934C34.2904 19.2429 34.3513 19.2781 34.4093 19.3085C34.4769 19.3438 34.5521 19.3752 34.6473 19.4075C34.7673 19.4494 34.8901 19.4789 35.011 19.498C35.0491 19.5037 35.0881 19.5085 35.1271 19.5113C35.2994 19.5265 35.4784 19.5132 35.6583 19.4732C35.7316 19.4561 35.803 19.4332 35.8725 19.4037C35.9353 19.3761 35.9905 19.3409 36.0362 19.2971C36.0705 19.2638 36.0953 19.2219 36.1076 19.1781C36.1114 19.1581 36.1133 19.1372 36.1124 19.1153C36.1114 19.0991 36.1086 19.0858 36.1057 19.0725C36.1038 19.062 36.0991 19.0506 36.0943 19.0401C36.081 19.0077 36.0638 18.9858 36.0505 18.9677C36.0305 18.943 36.0067 18.9192 35.9782 18.8963C35.903 18.8345 35.8173 18.7897 35.7497 18.7583C35.6383 18.705 35.5317 18.6669 35.4241 18.6403C35.3803 18.6307 35.3375 18.6222 35.2937 18.6155Z" fill="#FEFEFE"/>
</g>
<path d="M25.5993 15.3616C25.4527 15.3616 25.3071 15.3787 25.1652 15.4111C24.8549 15.4863 24.5512 15.6633 24.2866 15.9232C24.1676 16.0403 24.0543 16.1793 23.9505 16.3354C23.7935 16.5487 23.6592 16.7924 23.5431 17.0799C23.4298 17.3588 23.3432 17.6701 23.2861 18.0052C23.228 18.3364 23.2013 18.6772 23.2071 19.018C23.2118 19.3531 23.2508 19.6892 23.3213 20.0176C23.3908 20.3374 23.4965 20.6411 23.6345 20.9191C23.7716 21.1952 23.9448 21.4379 24.1504 21.6388C24.3608 21.8444 24.6102 22.0005 24.893 22.1014C25.0186 22.1481 25.1557 22.1804 25.3109 22.2014C25.4146 22.2157 25.5108 22.2223 25.6041 22.2223C25.646 22.2223 25.6879 22.2204 25.7297 22.2176C25.9877 22.2004 26.239 22.1281 26.477 22.0034C26.6893 21.8929 26.8902 21.734 27.0749 21.5302C27.2462 21.3418 27.4023 21.1142 27.5366 20.8544C27.7917 20.3603 27.9573 19.7825 28.0287 19.1342C28.0954 18.523 28.0554 17.9071 27.9126 17.3521C27.7631 16.7705 27.4956 16.2888 27.1415 15.9604C26.9254 15.7604 26.6484 15.6043 26.2943 15.4815C26.0648 15.4016 25.8316 15.3616 25.5993 15.3616Z" fill="#FEFEFE"/>
<path d="M25.9259 16.1146C25.8145 16.1223 25.705 16.1432 25.6022 16.1756C25.3719 16.2479 25.152 16.3974 24.9663 16.6068C24.8806 16.7039 24.8026 16.8143 24.735 16.9343C24.6284 17.1009 24.5408 17.2913 24.4675 17.515C24.3971 17.7311 24.3476 17.97 24.3219 18.2251C24.2952 18.4755 24.2933 18.7335 24.3152 18.9905C24.3361 19.2409 24.3828 19.4922 24.4532 19.7378C24.5218 19.9739 24.617 20.1966 24.7359 20.3984C24.854 20.6003 24.9977 20.7735 25.1624 20.9135C25.3309 21.0572 25.5261 21.1619 25.745 21.2238C25.8431 21.2514 25.9478 21.2695 26.0658 21.2771C26.1458 21.2819 26.2181 21.2819 26.2867 21.2771C26.3181 21.2752 26.3495 21.2723 26.3819 21.2676C26.5761 21.24 26.7617 21.1724 26.934 21.0667C27.0873 20.9725 27.2301 20.8421 27.3586 20.6793C27.4795 20.527 27.5842 20.347 27.6708 20.1462C27.8365 19.7635 27.9307 19.3199 27.9517 18.8268C27.9697 18.3632 27.9079 17.9024 27.7708 17.4931C27.6289 17.0628 27.4033 16.7144 27.1177 16.485C26.9445 16.346 26.7274 16.2422 26.4552 16.1689C26.2781 16.1213 26.1001 16.1032 25.9259 16.1146Z" fill="#392E44"/>
<path d="M23.9576 18.4078C23.8281 18.4364 23.672 18.4982 23.633 18.6391C23.6158 18.701 23.6272 18.7629 23.6549 18.8191C23.6787 18.8657 23.7167 18.9038 23.7567 18.9371C23.7672 18.9657 23.7862 18.9914 23.8138 19.0075C23.9509 19.0894 24.107 19.1456 24.2613 19.1884C24.3526 19.2132 24.4478 19.2303 24.5421 19.2398C24.6335 19.2503 24.7287 19.2455 24.8181 19.2246C24.8953 19.2046 24.9714 19.1646 25.0238 19.1056C25.0533 19.0732 25.0771 19.039 25.0952 18.9999C25.119 18.9514 25.1313 18.9085 25.138 18.8543C25.1418 18.821 25.1351 18.7848 25.1266 18.7524C25.1152 18.7115 25.0952 18.6772 25.0714 18.6429C25.0295 18.5858 24.9676 18.542 24.9048 18.5097C24.7572 18.4335 24.5916 18.4011 24.4278 18.3821C24.3755 18.3764 24.3231 18.3735 24.2708 18.3735C24.1661 18.3735 24.0613 18.385 23.9576 18.4078Z" fill="#FEFEFE"/>
<path d="M38.539 12.1298C38.6779 12.0813 38.8207 12.0479 38.9654 12.0327C39.2834 12.0003 39.6289 12.066 39.965 12.2231C40.1163 12.2935 40.2687 12.3868 40.4181 12.4992C40.638 12.6486 40.8446 12.8342 41.0502 13.0665C41.2501 13.2921 41.4348 13.5558 41.6004 13.8528C41.7651 14.146 41.9032 14.4592 42.0117 14.7829C42.1183 15.0999 42.1945 15.4302 42.2364 15.7634C42.2773 16.088 42.2792 16.4088 42.2411 16.7173C42.204 17.0238 42.1212 17.3094 41.9936 17.5674C41.8641 17.832 41.6804 18.0614 41.4481 18.2509C41.3444 18.3366 41.2263 18.4127 41.0864 18.4841C40.9931 18.5317 40.9046 18.5707 40.817 18.6012C40.777 18.6155 40.738 18.6279 40.697 18.6393C40.4476 18.7088 40.1868 18.724 39.9202 18.6859C39.6842 18.6517 39.4414 18.5688 39.1996 18.4375C38.975 18.3175 38.7531 18.1547 38.5399 17.9539C38.1344 17.5731 37.786 17.0828 37.5032 16.4955C37.2376 15.9414 37.0701 15.3465 37.0206 14.7762C36.9682 14.1775 37.0596 13.6348 37.2852 13.2074C37.4223 12.9475 37.6308 12.7067 37.924 12.4735C38.1144 12.3221 38.321 12.2069 38.539 12.1298Z" fill="#FEFEFE"/>
<path d="M38.483 12.9485C38.5906 12.919 38.7 12.9019 38.8086 12.898C39.0494 12.8904 39.3064 12.9571 39.5511 13.0932C39.6644 13.156 39.7748 13.2341 39.8776 13.3255C40.0337 13.4473 40.1794 13.5977 40.3241 13.7843C40.4621 13.9642 40.5878 14.1727 40.6973 14.405C40.8048 14.6325 40.8924 14.8753 40.9581 15.1247C41.0209 15.3684 41.0609 15.6206 41.0761 15.8758C41.0895 16.1214 41.0733 16.3622 41.0285 16.5926C40.9847 16.822 40.9076 17.0333 40.7991 17.2199C40.6877 17.4113 40.5373 17.575 40.3526 17.7064C40.2689 17.7654 40.1765 17.8168 40.0671 17.8635C39.9938 17.8949 39.9252 17.9187 39.8586 17.9368C39.8281 17.9453 39.7977 17.9529 39.7662 17.9596C39.5739 17.9977 39.3759 17.9958 39.1789 17.9529C39.0028 17.9158 38.8248 17.8406 38.6496 17.7292C38.4849 17.6255 38.3259 17.4912 38.1774 17.3304C37.8937 17.0248 37.6577 16.6373 37.4739 16.1794C37.3026 15.7482 37.2083 15.2932 37.2007 14.8619C37.1921 14.4088 37.2893 14.0052 37.4815 13.6939C37.5986 13.5054 37.769 13.335 38.0013 13.176C38.1527 13.0713 38.3145 12.9951 38.483 12.9485Z" fill="#392E44"/>
<path d="M41.1014 14.4562C41.2328 14.44 41.4013 14.4466 41.485 14.5666C41.5212 14.6189 41.5307 14.6808 41.5241 14.7437C41.5174 14.7951 41.4936 14.8436 41.467 14.8883C41.467 14.9188 41.4565 14.9493 41.4365 14.974C41.3346 15.0968 41.2061 15.2015 41.0747 15.2929C40.9967 15.3472 40.9129 15.3948 40.8272 15.4357C40.7444 15.4757 40.653 15.5033 40.5616 15.5128C40.4817 15.5195 40.397 15.5071 40.3275 15.469C40.2894 15.4481 40.2561 15.4243 40.2247 15.3929C40.1875 15.3548 40.1609 15.3186 40.1371 15.2701C40.1218 15.2396 40.1161 15.2034 40.1133 15.1701C40.1104 15.1273 40.118 15.0892 40.1295 15.0483C40.1494 14.9797 40.1932 14.9188 40.2418 14.8674C40.356 14.7465 40.5007 14.6608 40.6492 14.5885C40.6968 14.5656 40.7454 14.5447 40.7949 14.5276C40.8939 14.4933 40.9967 14.4695 41.1014 14.4562Z" fill="#FEFEFE"/>
<path d="M26.0953 10.6951C26.0839 10.6266 26.0525 10.5704 26.0201 10.5209C25.9878 10.4714 25.9402 10.4314 25.8983 10.3991C25.8383 10.3524 25.7669 10.3191 25.6984 10.2896C25.5775 10.2363 25.4423 10.2049 25.3052 10.1982C25.2862 10.1963 25.2671 10.1963 25.2481 10.1963C25.1339 10.1963 25.0139 10.2144 24.8892 10.2496C24.6274 10.3229 24.3666 10.4619 24.0686 10.6856C23.9877 10.7456 23.9058 10.8132 23.824 10.8855C23.724 10.9598 23.6288 11.0407 23.5393 11.1283C23.2547 11.3777 22.9958 11.6737 22.7844 12.0022C22.6597 12.1963 22.5512 12.4048 22.4627 12.6209C22.4122 12.7456 22.3608 12.8932 22.3684 13.0445C22.3703 13.0779 22.3779 13.1264 22.4037 13.1712C22.416 13.1921 22.4284 13.213 22.4465 13.2302C22.4779 13.2578 22.4979 13.273 22.5379 13.2911C22.575 13.3082 22.6178 13.312 22.6474 13.312C22.7159 13.3101 22.7673 13.3025 22.8216 13.2863C22.972 13.2426 23.11 13.1702 23.2128 13.1131C23.3823 13.0188 23.5441 12.9132 23.6659 12.8313C23.803 12.7399 23.9373 12.6457 24.0715 12.5505L24.1476 12.4962C24.2143 12.4496 24.28 12.402 24.3475 12.3591C24.4323 12.3058 24.5179 12.2544 24.6027 12.203C24.7112 12.1373 24.8197 12.0726 24.9254 12.005C25.1386 11.8698 25.4137 11.6871 25.6612 11.4691C25.7783 11.3662 25.8716 11.2663 25.9468 11.1663C25.9811 11.1225 26.0116 11.0721 26.042 11.0102C26.0658 10.9617 26.083 10.9112 26.0963 10.8436C26.1049 10.7998 26.1049 10.7494 26.0953 10.6951Z" fill="#514261"/>
<path d="M40.3974 9.09217C40.3422 8.95128 40.2356 8.83704 40.1376 8.7447C39.9681 8.58478 39.7834 8.43913 39.5892 8.31347C39.2618 8.10118 38.9038 7.93744 38.543 7.82797C38.425 7.78513 38.3041 7.74991 38.1822 7.72326C38.0775 7.69184 37.9757 7.66423 37.8767 7.64234C37.513 7.56047 37.2189 7.54143 36.9504 7.58237C36.8219 7.60141 36.7048 7.63472 36.601 7.68232C36.583 7.68994 36.5668 7.69755 36.5496 7.70707C36.4278 7.76895 36.3174 7.85367 36.2288 7.95268C36.1784 8.00694 36.1279 8.06786 36.0927 8.1345C36.067 8.18115 36.0403 8.23731 36.0308 8.29538C36.0223 8.3544 36.0165 8.41818 36.0337 8.48482C36.048 8.53908 36.0689 8.58478 36.0946 8.6219C36.1346 8.67712 36.1708 8.7171 36.2126 8.75042C36.266 8.79421 36.3145 8.82752 36.3631 8.85323C36.4735 8.91415 36.5991 8.96556 36.7486 9.0122C37.0637 9.1093 37.3902 9.16166 37.6396 9.19688C37.7643 9.21497 37.89 9.2302 38.0147 9.24543C38.1137 9.25686 38.2127 9.26828 38.3117 9.28161C38.3917 9.29303 38.4707 9.30921 38.5507 9.32445L38.643 9.34253C38.8039 9.3749 38.9657 9.40536 39.1275 9.43202C39.2722 9.45582 39.4626 9.48628 39.6568 9.50246C39.7739 9.51198 39.9291 9.52055 40.0852 9.49865C40.1404 9.49104 40.1909 9.47771 40.2537 9.45106C40.2804 9.43868 40.3184 9.41774 40.3451 9.38632C40.3736 9.353 40.386 9.33206 40.4032 9.29303C40.4127 9.27018 40.4155 9.24543 40.4184 9.22164C40.4232 9.17023 40.4098 9.12263 40.3974 9.09217Z" fill="#514261"/>
<path fill-rule="evenodd" clip-rule="evenodd" d="M21.9302 20.7412C22.0701 20.7412 22.2091 20.7593 22.3443 20.7964C22.4423 20.8231 22.5052 20.9221 22.4804 21.023C22.469 21.0706 22.4376 21.1125 22.3947 21.1382C22.351 21.1648 22.3034 21.1686 22.2539 21.1591C22.2006 21.1486 22.1463 21.1391 22.092 21.1315C21.954 21.1182 21.816 21.121 21.6789 21.1391C21.5447 21.1629 21.4152 21.201 21.2895 21.2534C21.1325 21.3257 20.9859 21.4181 20.8497 21.5237C20.8488 21.5247 20.8469 21.5256 20.8459 21.5275C20.8421 21.5294 20.8393 21.5323 20.8354 21.5351C20.8393 21.5323 20.8421 21.5294 20.8459 21.5275C20.7222 21.6303 20.6127 21.7474 20.5146 21.875C20.3947 22.0378 20.2957 22.2129 20.2176 22.4005C20.2176 22.4005 20.2176 22.4005 20.2176 22.3995C20.2176 22.4005 20.2176 22.4005 20.2176 22.4005C20.2148 22.4062 20.2129 22.4119 20.21 22.4176C20.211 22.4157 20.2119 22.4138 20.2129 22.4119C20.1377 22.6032 20.0863 22.8022 20.0625 23.0069V23.0059C20.0558 23.0783 20.052 23.1506 20.052 23.2239C20.052 23.2553 20.0282 23.281 19.9977 23.282C19.9663 23.2829 19.9387 23.2572 19.9387 23.2268C19.9358 22.9098 19.992 22.5928 20.1015 22.2958C20.2148 21.9864 20.3718 21.697 20.5794 21.4409C20.6841 21.3133 20.7964 21.1953 20.9287 21.0944C21.0592 20.9935 21.201 20.9126 21.3543 20.8516C21.538 20.7783 21.7341 20.7412 21.9302 20.7412ZM20.2138 22.409C20.2129 22.41 20.2129 22.4109 20.2129 22.4119C20.2129 22.4109 20.2129 22.41 20.2138 22.409ZM21.6893 21.1372C21.6951 21.1363 21.7017 21.1353 21.7074 21.1344C21.7017 21.1353 21.6951 21.1363 21.6893 21.1372ZM20.8469 21.5266C20.8469 21.5266 20.8459 21.5266 20.8459 21.5275C20.8459 21.5266 20.8469 21.5266 20.8469 21.5266ZM20.2176 22.4005C20.2157 22.4033 20.2148 22.4062 20.2138 22.409C20.2148 22.4062 20.2157 22.4033 20.2176 22.4005Z" fill="#514261"/>
<path fill-rule="evenodd" clip-rule="evenodd" d="M43.8506 15.5178C44.0553 15.5178 44.2609 15.5578 44.4523 15.6292C44.9692 15.8244 45.4185 16.1823 45.7374 16.6316C45.7602 16.663 45.7412 16.7106 45.7098 16.7278C45.6736 16.7477 45.6365 16.7316 45.6146 16.7002C45.6089 16.6916 45.6022 16.683 45.5965 16.6754C45.5975 16.6754 45.5975 16.6764 45.5975 16.6764L45.5946 16.6725C45.5927 16.6687 45.5898 16.6649 45.587 16.6611C45.587 16.6621 45.5879 16.663 45.5879 16.664C45.4728 16.5117 45.3385 16.3774 45.1881 16.2584C45.0253 16.1318 44.8492 16.0262 44.6588 15.9452C44.5236 15.8919 44.3847 15.8529 44.2409 15.831C44.1324 15.8177 44.022 15.8158 43.9125 15.8253C43.8249 15.8377 43.7402 15.8605 43.6564 15.89C43.5755 15.9243 43.4984 15.9681 43.426 16.0186C43.3518 16.0776 43.2852 16.1423 43.2261 16.2147C43.2214 16.2213 43.2166 16.227 43.2128 16.2337C43.19 16.2718 43.1595 16.3013 43.1214 16.3232C43.0843 16.3432 43.0443 16.3536 43.0024 16.3527C42.9386 16.3517 42.8777 16.326 42.833 16.2803C42.7444 16.1899 42.7406 16.029 42.8368 15.9414C42.9548 15.8339 43.0833 15.7292 43.228 15.6606C43.3604 15.5978 43.4984 15.5511 43.6431 15.5321C43.7116 15.5226 43.7811 15.5178 43.8506 15.5178ZM45.5898 16.6659C45.5889 16.6649 45.5889 16.664 45.5879 16.664C45.5889 16.664 45.5889 16.6649 45.5898 16.6659ZM45.5965 16.6744V16.6754V16.6744ZM45.5898 16.6659C45.5917 16.6678 45.5936 16.6706 45.5946 16.6725C45.5956 16.6735 45.5956 16.6744 45.5965 16.6744C45.5937 16.6716 45.5917 16.6687 45.5898 16.6659Z" fill="#514261"/>
<path d="M45.26 18.1958C45.2219 18.1244 45.1686 18.0578 45.0963 17.9911C44.9687 17.8759 44.8088 17.7826 44.5936 17.697C44.4232 17.6284 44.2338 17.5789 43.9958 17.5399C43.8625 17.517 43.7312 17.5056 43.6065 17.5056C43.5532 17.5056 43.4999 17.5085 43.4465 17.5123C43.417 17.5151 43.3885 17.518 43.3599 17.5218C43.3475 17.5228 43.338 17.5256 43.3304 17.5294C43.2866 17.5332 43.2495 17.5561 43.2304 17.5903C43.1219 17.7826 43.0239 17.9892 42.9401 18.2044C42.8687 18.39 42.803 18.5966 42.7345 18.8545C42.645 19.1839 42.5755 19.5228 42.5079 19.8512C42.4832 19.9769 42.4565 20.1026 42.4299 20.2282C42.3746 20.4843 42.3042 20.7861 42.209 21.0802C42.1262 21.3296 42.0243 21.5724 41.9072 21.8008L41.9244 21.7828C41.7559 22.0921 41.5598 22.3787 41.337 22.6309C41.1133 22.8746 40.8763 23.0784 40.6097 23.2564C40.3279 23.4392 40.0138 23.5915 39.6768 23.7086L39.6568 23.7152C39.2265 23.8561 38.7515 23.9437 38.2451 23.9742C38.1232 23.9799 38.0023 23.9827 37.8805 23.9827C37.7662 23.9827 37.652 23.9808 37.5377 23.9751C37.2607 23.9627 36.9818 23.9351 36.7114 23.9075L36.6867 23.9047L36.5877 23.8951C36.3278 23.8685 36.0498 23.8418 35.7776 23.8247C35.6281 23.8161 35.4749 23.8114 35.3244 23.8114C35.1693 23.8114 35.016 23.8161 34.8694 23.8266C34.5657 23.8466 34.2697 23.9018 33.9889 23.9903C33.7318 24.0713 33.4738 24.1922 33.1987 24.3597C32.8846 24.5501 32.5866 24.7776 32.2982 24.9975C32.1402 25.1184 31.9821 25.2384 31.8222 25.3535C31.7537 25.403 31.6842 25.4506 31.6147 25.4963C31.4224 25.622 31.2434 25.7239 31.0644 25.8086C30.9112 25.8828 30.7446 25.9495 30.5561 26.0123L30.538 26.0209L30.5371 26.019C30.1077 26.1551 29.6556 26.2398 29.1948 26.2693C29.0891 26.2741 28.9835 26.2769 28.8778 26.2769C28.4351 26.2769 27.9753 26.2284 27.5127 26.1322C27.506 26.1303 27.4994 26.1294 27.4927 26.1284C26.8444 25.9847 26.2047 25.7515 25.5916 25.4373C24.97 25.1117 24.3931 24.711 23.88 24.2474L23.8886 24.2664C23.4336 23.8399 23.0395 23.3811 22.7215 22.8994C22.6511 22.7909 22.5778 22.67 22.5102 22.551C22.4816 22.4996 22.4302 22.4682 22.3759 22.4682C22.355 22.4682 22.3341 22.4729 22.3141 22.4824C22.3007 22.4891 22.2884 22.4986 22.2779 22.5091C22.2693 22.511 22.2588 22.5148 22.2455 22.5205C22.1218 22.5795 22.0161 22.6795 21.938 22.7604C21.8352 22.8661 21.7353 22.9927 21.6248 23.1583C21.5277 23.303 21.4383 23.4639 21.3583 23.6362C21.2736 23.8209 21.2126 23.9903 21.1727 24.1541C21.1289 24.3311 21.1146 24.4873 21.1289 24.6329C21.1365 24.71 21.1508 24.7776 21.1727 24.8395C21.1984 24.9099 21.2364 24.9756 21.2907 25.0442C21.3355 25.0994 21.3945 25.1413 21.4468 25.1736C21.5011 25.2088 21.5658 25.2336 21.6277 25.2431C21.6544 25.2479 21.681 25.2498 21.7067 25.2498C21.801 25.2498 21.8952 25.2203 21.979 25.1641C22.1408 25.0575 22.2455 24.8899 22.3198 24.7567C22.4331 24.552 22.5111 24.3378 22.5673 24.1741C22.6396 23.9665 22.7053 23.7324 22.77 23.4592C23.1394 23.9532 23.5916 24.4121 24.1104 24.8252C24.8644 25.4259 25.7506 25.9038 26.674 26.2084C27.4032 26.4473 28.1391 26.5682 28.8626 26.5682C29.0796 26.5682 29.2948 26.5578 29.5013 26.5359C29.9602 26.4892 30.419 26.3798 30.8645 26.2122C31.1054 26.1218 31.3472 26.0037 31.5833 25.8609C31.847 25.701 32.0973 25.5173 32.2858 25.3745L32.5048 25.2088C32.7332 25.0356 32.9607 24.8623 33.1959 24.7062C33.4986 24.5101 33.7766 24.3702 34.0469 24.2778L34.0088 24.2816C34.3097 24.1912 34.6257 24.1341 34.9741 24.1112C35.0769 24.1055 35.1788 24.1036 35.2807 24.1036C35.7366 24.1036 36.2079 24.1512 36.6239 24.1931L36.7714 24.2083C37.037 24.234 37.3197 24.2607 37.6034 24.2712C37.6843 24.274 37.7662 24.275 37.8471 24.275C37.9937 24.275 38.1508 24.2702 38.3269 24.2607C39.257 24.2045 40.1061 23.9389 40.783 23.4915C41.3408 23.1222 41.8101 22.6005 42.1405 21.9827C42.3118 21.6609 42.4536 21.3049 42.5622 20.9241C42.6231 20.7051 42.6726 20.4805 42.7221 20.252L42.7754 19.9997L42.8049 19.8579L42.8697 19.5485L42.8716 19.5247C42.9544 19.1582 43.0572 18.726 43.2152 18.3119C43.3904 18.45 43.5379 18.5566 43.6912 18.6584C43.9263 18.8155 44.1262 18.9174 44.3233 18.9792C44.4261 19.0116 44.5346 19.0297 44.6384 19.0326C44.7583 19.0326 44.8621 19.0126 44.9859 18.9659C45.0839 18.9288 45.1734 18.8641 45.2372 18.785C45.3029 18.707 45.339 18.608 45.3428 18.4995C45.3476 18.3805 45.301 18.2691 45.26 18.1958Z" fill="#392E44"/>
<path d="M18.246 28.7637C18.2365 28.7713 18.227 28.7789 18.2194 28.7884C18.2365 28.8274 18.2546 28.8665 18.2727 28.9065C18.2822 28.9293 18.2936 28.9522 18.3041 28.975C18.3412 29.0512 18.3793 29.1273 18.4183 29.2025C18.4593 29.2749 18.5011 29.3463 18.544 29.4167C18.5411 29.4129 18.5392 29.4091 18.5373 29.4062C18.5611 29.4472 18.5868 29.4872 18.6116 29.5281C18.642 29.5738 18.6725 29.6185 18.7039 29.6633C18.7715 29.7508 18.84 29.8384 18.9105 29.9232C19.0285 30.0526 19.1523 30.1792 19.2779 30.302C19.654 30.6685 20.0738 30.9827 20.5183 31.2606C21.3799 31.7985 22.328 32.1812 23.3057 32.4525C24.0415 32.6572 24.7936 32.7933 25.5504 32.8952C25.9226 32.9456 26.2958 32.9846 26.6699 33.0237C27.0497 33.0618 27.4286 33.0913 27.8094 33.1227C27.8351 33.1246 27.8589 33.1094 27.8636 33.0827C27.8665 33.0589 27.8493 33.0303 27.8236 33.0275C27.4752 32.9989 27.1259 32.9599 26.7784 32.9161C26.609 32.8942 26.4386 32.8714 26.2682 32.8457C26.0873 32.8171 25.9074 32.7857 25.7265 32.7552C25.3743 32.6943 25.0258 32.6191 24.6774 32.5391C24.3309 32.4601 23.9863 32.3687 23.6446 32.2659C22.6745 31.9708 21.7302 31.5815 20.8668 31.0474C20.8648 31.0465 20.8629 31.0455 20.861 31.0446C20.8601 31.0436 20.8601 31.0436 20.8601 31.0436C20.8515 31.0379 20.843 31.0322 20.8334 31.0265C20.841 31.0322 20.8487 31.036 20.8563 31.0417L20.8249 31.0217C20.8277 31.0227 20.8306 31.0255 20.8334 31.0265C20.6269 30.8961 20.425 30.7571 20.228 30.6105C19.971 30.4382 19.7273 30.2449 19.4988 30.0364C19.4369 29.9898 19.376 29.9412 19.316 29.8917C19.1437 29.747 18.9781 29.5928 18.8229 29.4272C18.6239 29.2158 18.4393 28.9893 18.2812 28.7446C18.2689 28.7494 18.2565 28.7561 18.246 28.7637Z" fill="#514261"/>
<path d="M23.6447 32.2658C23.6433 32.2644 23.642 32.2644 23.642 32.2644L23.6447 32.2658Z" fill="#514261"/>
</svg>
