<svg width="62" height="59" viewBox="0 0 65 75" fill="none" xmlns="http://www.w3.org/2000/svg">
<g opacity="0.251">
<g opacity="0.251">
<path opacity="0.251" d="M60.4456 71.8642C60.4456 73.5959 46.9144 74.9999 30.2228 74.9999C13.5313 74.9999 0 73.5959 0 71.8642C0 70.1325 13.5313 68.7285 30.2228 68.7285C46.9144 68.7285 60.4456 70.1325 60.4456 71.8642Z" fill="#1D1C22"/>
</g>
</g>
<path d="M63.5073 53.9482C63.2415 55.6753 61.1447 57.0094 57.2167 57.9501C58.0998 58.3547 58.309 58.8476 57.8449 59.4286C57.1276 60.3258 55.3548 60.6695 52.5262 60.4603C53.3602 61.6988 53.3783 62.3956 52.5801 62.5504C50.2077 63.0118 44.1001 62.0012 40.9941 61.8088L40.6954 56.4775C40.8342 56.4543 40.9738 56.4314 41.1096 56.4071C41.1721 56.3967 41.2358 56.386 41.2975 56.3724C41.44 56.3476 41.5796 56.3204 41.7183 56.2926C42.4311 56.1509 43.1063 55.9862 43.7428 55.8002C43.9857 55.7301 44.2234 55.6559 44.4556 55.5787C51.4841 53.2671 53.5126 48.4021 51.9231 45.1949C51.5938 44.5293 50.5207 43.6113 49.1648 43.4514C48.9104 43.4216 48.6454 43.4178 48.3738 43.4485C47.59 43.5352 46.7472 43.9003 45.9188 44.7055C44.8602 45.735 43.8557 45.1188 43.5878 43.7944C43.5878 43.7904 43.587 43.7866 43.5851 43.7837C43.5579 43.6489 43.5387 43.5072 43.529 43.3591C43.5272 43.3407 43.5253 43.3233 43.5242 43.306C43.4159 41.5094 43.6227 40.1007 44.1455 39.0796C43.1573 38.453 42.7351 37.8451 42.879 37.2564C43.327 35.4294 45.8665 34.6349 50.4967 34.8724C49.9502 33.1522 50.2181 32.3254 51.3 32.3922C53.7915 32.5456 56.4172 34.1233 59.1769 37.1253C59.8691 36.5276 60.4493 36.3053 60.9174 36.4587C62.1791 36.8737 62.7145 39.2061 62.5229 43.4563C63.6442 43.1982 64.3488 43.5286 64.6372 44.4474C65.3789 46.8116 64.3287 49.5862 61.4866 52.7713C62.9717 52.6568 63.6453 53.0491 63.5073 53.9482Z" fill="#494849"/>
<path d="M63.5073 53.9482C63.2415 55.6753 61.1447 57.0094 57.2167 57.9501C58.0998 58.3547 58.309 58.8476 57.8449 59.4286C57.1276 60.3258 55.3548 60.6695 52.5262 60.4603C53.3602 61.6988 53.3783 62.3956 52.5801 62.5504C50.2077 63.0118 44.1001 62.0012 40.9941 61.8088L40.6954 56.4775C40.8342 56.4543 40.9738 56.4314 41.1096 56.4071C41.1721 56.3967 41.2358 56.386 41.2975 56.3724C41.44 56.3476 41.5796 56.3204 41.7183 56.2926C42.4311 56.1509 43.1063 55.9862 43.7428 55.8002C43.9857 55.7301 44.2234 55.6559 44.4556 55.5787C51.4841 53.2671 53.5126 48.4021 51.9231 45.1949C51.5938 44.5293 50.5207 43.6113 49.1648 43.4514C48.9104 43.4216 48.6454 43.4178 48.3738 43.4485C47.59 43.5352 46.7472 43.9003 45.9188 44.7055C44.8602 45.735 43.8557 45.1188 43.5878 43.7944C43.5878 43.7904 43.587 43.7866 43.5851 43.7837C43.5579 43.6489 43.5387 43.5072 43.529 43.3591C43.5272 43.3407 43.5253 43.3233 43.5242 43.306C43.4159 41.5094 43.6227 40.1007 44.1455 39.0796C43.1573 38.453 42.7351 37.8451 42.879 37.2564C43.327 35.4294 45.8665 34.6349 50.4967 34.8724C49.9502 33.1522 50.2181 32.3254 51.3 32.3922C53.7915 32.5456 56.4172 34.1233 59.1769 37.1253C59.8691 36.5276 60.4493 36.3053 60.9174 36.4587C62.1791 36.8737 62.7145 39.2061 62.5229 43.4563C63.6442 43.1982 64.3488 43.5286 64.6372 44.4474C65.3789 46.8116 64.3287 49.5862 61.4866 52.7713C62.9717 52.6568 63.6453 53.0491 63.5073 53.9482Z" fill="#3C424C"/>
<path opacity="0.349" d="M51.8178 52.2132C50.1458 54.4266 46.2669 56.5863 44.4557 55.5789C51.4842 53.2673 53.5127 48.4023 51.9232 45.1951C51.5939 44.5295 50.5208 43.6115 49.1648 43.4516C48.9105 43.4217 48.6455 43.418 48.3738 43.4487C48.7651 43.2715 49.159 43.1888 49.5499 43.232C52.5319 43.5634 55.1822 47.7594 51.8178 52.2132Z" fill="white"/>
<path d="M63.5071 53.9482C63.241 55.6756 61.1443 57.0097 57.2162 57.9507C58.0993 58.355 58.3085 58.8479 57.8442 59.4294C57.1271 60.3261 55.3543 60.6698 52.5258 60.4606C53.3603 61.6991 53.3784 62.3959 52.5802 62.5509C50.2072 63.0116 44.1002 62.0012 40.9938 61.8088L40.6955 56.4826C40.6952 56.4816 40.696 56.4805 40.6974 56.4802L41.1091 56.4079C41.1721 56.397 41.2351 56.3849 41.297 56.3732C41.4392 56.3481 41.5796 56.3209 41.7187 56.2926L43.3527 55.7418C43.484 55.7506 43.6145 55.7701 43.7426 55.8005C46.2405 56.3959 48.0885 60.9863 50.5648 59.7782C51.5058 59.3189 51.0139 57.5306 51.0017 57.4866C51.0017 57.4858 51.0017 57.4858 51.0022 57.486C51.0596 57.5151 54.5945 59.3058 55.5224 58.1463C55.9259 57.6406 55.4279 56.7975 54.0285 55.6169C57.624 56.6137 59.8646 56.4671 60.7504 55.1771C61.1976 54.5259 60.2812 54.0498 58.0016 53.7488C62.137 50.7369 63.7705 47.9634 62.9019 45.4279C62.7228 44.9053 61.978 45.2373 60.6674 46.4244C61.5152 41.5038 61.3906 38.8629 60.2932 38.5016C59.8868 38.3681 59.3306 38.9414 58.6245 40.221C56.7975 37.9788 54.7047 36.9185 52.3467 37.0402C50.7908 37.1203 49.3567 37.9377 48.709 39.4153C48.2265 40.517 48.0757 41.8478 49.1643 43.4514C48.1745 43.3354 47.0336 43.622 45.9189 44.7052C44.8597 45.7353 43.8557 45.1194 43.5873 43.7949C43.5873 43.7904 43.5862 43.7872 43.5851 43.784C43.5579 43.6166 43.5384 43.4733 43.5286 43.3591C43.5264 43.3407 43.5254 43.3234 43.5243 43.306C43.4157 41.5097 43.6228 40.1007 44.1458 39.0796C43.1571 38.453 42.7349 37.8453 42.879 37.2564C43.3273 35.4297 45.8663 34.6349 50.4962 34.8727C49.9502 33.1522 50.2181 32.3254 51.3003 32.3922C53.7912 32.5456 56.4167 34.1236 59.1761 37.1259C59.8686 36.5276 60.4488 36.3053 60.9169 36.459C62.7938 37.0762 62.5272 43.3519 62.5226 43.4557C62.5226 43.4568 62.5229 43.4568 62.524 43.4565C62.5797 43.4442 64.2119 43.0928 64.637 44.4479C65.3787 46.8121 64.3283 49.5865 61.4861 52.7713C62.9718 52.6571 63.6453 53.0491 63.5071 53.9482Z" fill="white"/>
<path opacity="0.349" d="M63.5061 53.9487C63.2403 55.6758 61.1435 57.0099 57.2155 57.9506C58.0986 58.3552 58.3078 58.8481 57.8437 59.4291C57.1264 60.3263 55.3535 60.67 52.525 60.4608C53.359 61.6993 53.3771 62.3961 52.5789 62.5509C50.2065 63.0123 44.0989 62.0017 40.9928 61.8093L40.9293 60.6697C44.2118 60.9886 48.486 62.145 50.2115 60.9449C50.8888 60.4736 50.9329 59.7226 50.3439 58.692C52.913 59.3663 54.5561 59.2548 55.2735 58.3578C55.7376 57.7766 55.1643 56.9507 53.5538 55.8797C57.9219 56.1252 60.1868 55.6123 60.3488 54.3412C60.443 53.6009 59.545 53.2548 57.6545 53.3031C62.2628 49.5731 64.0887 46.9228 63.1317 45.3523C62.7872 44.7871 62.1101 44.7137 61.1 45.1316C62.1747 41.2348 61.9372 38.3433 60.3872 36.4573C60.5703 36.413 60.7523 36.4053 60.9161 36.4592C62.1779 36.8742 62.7132 39.2066 62.5216 43.4567C63.643 43.1987 64.3475 43.529 64.636 44.4479C65.3776 46.8121 64.3275 49.5867 61.4854 52.7718C62.9705 52.6573 63.6441 53.0496 63.5061 53.9487Z" fill="#1D1C22"/>
<path d="M25.5698 6.70566C25.5698 8.92093 27.0944 10.7298 29.0114 10.8368C29.0709 10.8405 29.1317 10.8424 29.1923 10.8424C31.193 10.8424 32.814 8.99032 32.814 6.70566C32.814 4.41994 31.193 2.56787 29.1923 2.56787C28.127 2.56787 27.1686 3.0936 26.5052 3.9297C25.9242 4.66359 25.5698 5.63739 25.5698 6.70566Z" fill="#F99191"/>
<path opacity="0.349" d="M29.4715 4.25821C29.5977 5.36865 29.1267 9.78879 29.0112 10.8368C29.0707 10.8405 29.1315 10.8424 29.1921 10.8424C31.1928 10.8424 32.8138 8.99032 32.8138 6.70566C32.8138 4.41994 31.1928 2.56787 29.1921 2.56787C28.1268 2.56787 27.1684 3.0936 26.505 3.9297C27.3083 3.61666 29.3242 2.96364 29.4715 4.25821Z" fill="#1D1C22"/>
<path d="M14.9485 6.70566C14.9485 8.92093 13.4238 10.7298 11.5072 10.8368C11.4474 10.8405 11.3866 10.8424 11.326 10.8424C9.32555 10.8424 7.70459 8.99032 7.70459 6.70566C7.70459 4.41994 9.32555 2.56787 11.326 2.56787C12.3913 2.56787 13.3497 3.0936 14.0134 3.9297C14.5941 4.66359 14.9485 5.63739 14.9485 6.70566Z" fill="#F99191"/>
<path opacity="0.349" d="M11.0466 4.25821C10.9206 5.36865 11.3916 9.78879 11.5072 10.8368C11.4474 10.8405 11.3866 10.8424 11.326 10.8424C9.32555 10.8424 7.70459 8.99032 7.70459 6.70566C7.70459 4.41994 9.32555 2.56787 11.326 2.56787C12.3913 2.56787 13.3497 3.0936 14.0134 3.9297C13.2101 3.61666 11.1942 2.96364 11.0466 4.25821Z" fill="#1D1C22"/>
<path d="M23.8792 48.4915C20.6549 48.1827 18.6769 50.1007 17.9454 54.2457C17.4538 57.0302 18.3182 62.1594 22.1005 66.7629C20.0721 67.2563 18.9499 68.2643 18.7348 69.7867C18.4644 71.6975 19.8204 72.638 22.8027 72.6075H24.3078C26.3883 72.6075 28.3132 71.5067 29.3679 69.7131C32.0963 65.0728 35.6153 55.287 26.9055 43.5405" fill="white"/>
<path opacity="0.349" d="M31.477 64.947C30.8837 66.8639 30.0978 68.4734 29.3676 69.7138C28.313 71.5074 26.3875 72.6083 24.307 72.6083H22.8027C19.8199 72.6384 18.4637 71.698 18.734 69.7872C18.7842 69.4307 18.9008 69.112 19.0617 68.8286C19.7121 69.9089 21.0875 70.4381 23.1878 70.417H24.809C27.0502 70.417 29.124 69.2303 30.2606 67.2981C30.6622 66.6152 31.0801 65.8285 31.477 64.947Z" fill="#1D1C22"/>
<path d="M19.3512 50.8024C19.3339 50.9035 19.3163 51.0047 19.3011 51.1045C17.4095 62.6169 20.6149 72.5877 14.6586 72.5877C10.6636 72.5877 8.13956 72.8919 7.63331 70.995C7.13214 69.1189 8.30529 68.0226 11.1525 67.7061C11.6305 65.2528 11.2977 62.1536 10.1542 58.4089C10.0944 58.2144 10.0314 58.0167 9.96601 57.8168C9.71195 57.0455 8.33304 58.1525 7.7019 57.3356C7.15429 56.626 8.81661 54.1868 8.63941 53.573C8.59831 53.4297 6.3817 53.5741 6.60561 52.4279C6.774 51.5707 7.24342 49.8171 7.1292 47.3214C7.04567 45.5091 6.67285 43.5404 7.00751 40.2245C7.34109 36.9279 8.06804 32.6559 9.34687 27.4397L19.3512 50.8024Z" fill="#3C424C"/>
<path opacity="0.349" d="M6.60557 52.4275C6.77396 51.5704 7.24312 49.8173 7.12943 47.3218C7.04564 45.509 6.67282 43.5403 7.00721 40.225C7.34132 36.9281 7.63461 37.2227 7.54468 40.1177C7.45474 42.9999 8.07788 45.4828 8.16168 47.2957C8.2751 49.7912 8.17635 50.9923 8.00796 51.8498C7.78352 52.996 9.90913 52.3419 9.95076 52.4855C10.128 53.0998 8.43548 56.6262 8.98256 57.3361C9.05675 57.4321 9.14162 57.5015 9.23395 57.5506C8.72264 57.6259 8.07921 57.8242 7.7016 57.3361C7.15452 56.6262 8.81711 54.1873 8.63964 53.5727C8.59827 53.4302 6.38193 53.5748 6.60557 52.4275Z" fill="white"/>
<path opacity="0.349" d="M9.8677 57.648C9.64326 57.6653 9.42283 57.6517 9.23389 57.5506C9.49969 57.5121 9.72893 57.5063 9.8677 57.648Z" fill="white"/>
<path d="M19.3012 51.105C18.492 56.0295 18.6153 60.673 18.5555 64.3737C18.4758 69.3235 18.0664 72.5876 14.6585 72.5876C10.6632 72.5876 8.13968 72.8921 7.63316 70.9947C7.13225 69.1188 8.3054 68.0228 11.1526 67.7063C11.6303 65.2527 11.2973 62.1536 10.1537 58.4086C10.4889 56.8829 11.1497 55.6674 11.9895 54.7005C14.0711 52.3003 17.2532 51.4236 19.3012 51.105Z" fill="white"/>
<path opacity="0.349" d="M18.3365 68.2273C17.9839 70.9464 17.0758 72.5877 14.659 72.5877C10.6637 72.5877 8.14022 72.8921 7.63371 70.9947C7.46131 70.3502 7.55285 69.8282 7.7973 69.4063C8.58056 70.9224 11.1222 70.6518 14.972 70.6518C16.7801 70.6518 17.7798 69.7714 18.3365 68.2273Z" fill="#1D1C22"/>
<path opacity="0.349" d="M19.3008 51.105C18.4917 56.0295 18.615 60.673 18.5552 64.3737C18.141 63.9275 17.8315 63.5549 17.6268 63.2563C17.0597 64.6221 16.2724 64.4577 15.265 62.7631C14.917 62.1776 14.4172 60.4165 13.7655 57.4802C13.1066 58.3008 12.635 58.4759 12.3505 58.0051C11.9969 57.4204 11.8477 56.2425 11.9884 54.712C11.9884 54.7082 11.9892 54.7042 11.9892 54.7005C14.0708 52.3003 17.2529 51.4236 19.3008 51.105Z" fill="#1D1C22"/>
<path d="M41.664 43.7326L38.74 57.9788L36.7171 67.8324C28.2035 69.3824 21.9046 67.1828 17.8207 61.2335C17.2536 62.5994 16.4663 62.435 15.4589 60.7404C15.1109 60.1549 14.6111 58.3938 13.9591 55.4574C13.3005 56.2781 12.8287 56.4529 12.5442 55.9824C12.1908 55.3977 12.0414 54.2197 12.182 52.6892C12.1986 52.5013 12.2207 52.3087 12.2466 52.1104C10.3249 47.2899 10.4861 42.4879 12.7302 37.704C14.0007 34.9985 34.9267 21.7952 35.0895 30.2942C35.1677 34.3706 37.3594 38.85 41.664 43.7326Z" fill="white"/>
<path opacity="0.349" d="M38.7396 57.9788L36.7168 67.8324C28.2031 69.3823 21.9043 67.1828 17.8204 61.2335C17.2533 62.5994 16.466 62.435 15.4586 60.7404C15.1106 60.1548 14.6107 58.3938 13.9588 55.4574C13.3002 56.2781 12.8283 56.4528 12.5439 55.9824C12.1905 55.3977 12.0411 54.2197 12.1817 52.6892C12.2821 53.5069 12.5382 54.9739 13.0757 54.7494C13.8163 54.4401 14.666 53.2256 14.8979 53.4242C15.1301 53.6224 16.3331 58.132 17.8204 57.8085C19.3084 57.4838 19.0504 56.3723 19.713 56.748C20.3236 57.0939 32.3623 62.0184 38.7396 57.9788Z" fill="#1D1C22"/>
<path d="M46.2318 64.4817C45.6258 66.6036 44.7715 68.3721 43.9827 69.7128C42.9291 71.5073 41.0036 72.6081 38.9231 72.6081H37.4185C34.4365 72.6383 33.0806 71.6978 33.3501 69.787C33.5652 68.2646 34.6874 67.2566 36.7164 66.7634C36.7156 66.7626 36.7145 66.7616 36.7137 66.7605C35.2139 64.9343 34.1777 63.0254 33.5014 61.2136C32.597 58.7883 32.3398 56.5346 32.4823 54.8827C32.5007 54.6583 32.5266 54.4453 32.5605 54.246C32.5653 54.2172 32.5709 54.1902 32.5749 54.1632L23.4477 48.2676L22.6484 35.5623L34.4221 29.2324C36.049 35.4777 37.5159 38.1397 41.5208 43.5403C47.7151 51.8959 47.7247 59.2575 46.2318 64.4817Z" fill="white"/>
<path opacity="0.349" d="M41.2026 66.8926C39.1607 66.5216 37.5686 66.6364 36.7144 66.7605C35.2146 64.9343 34.1783 63.0254 33.5021 61.2136C35.3021 63.4481 35.7483 63.5986 37.9115 64.5444C39.73 65.3397 40.8271 66.1221 41.2026 66.8926Z" fill="#1D1C22"/>
<path opacity="0.349" d="M46.7199 62.3779C46.588 63.1126 46.4223 63.8139 46.2318 64.4814C45.6257 66.6033 44.7715 68.3718 43.9826 69.7125C42.929 71.507 41.0036 72.6078 38.9231 72.6078H37.4185C34.4365 72.6379 33.0805 71.6975 33.35 69.7867C33.3877 69.5217 33.4608 69.2781 33.563 69.0536C34.1312 70.1318 35.4709 70.6604 37.5812 70.6399H39.135C41.283 70.6399 43.2698 69.538 44.3584 67.7436C45.1731 66.4028 46.0546 64.6346 46.6804 62.5127C46.694 62.4684 46.7065 62.423 46.7199 62.3779Z" fill="#1D1C22"/>
<path d="M46.2318 64.4812C44.6562 63.6034 43.1418 61.1752 42.314 59.665C42.0522 59.1889 41.3415 59.2943 41.2251 59.8246C41.1979 59.9527 41.1731 60.0778 41.1501 60.195C41.0677 60.6308 40.5484 60.8197 40.2038 60.5406C39.0718 59.6215 38.3285 58.1308 37.9061 57.0476C37.7062 56.5346 36.9782 56.5555 36.801 57.0769C36.675 57.4495 36.5968 57.7908 36.5467 58.0646C36.4815 58.423 36.1069 58.6437 35.7666 58.5111C34.0912 57.8538 32.9634 55.8861 32.4823 54.8822C32.5007 54.6583 32.5268 54.4453 32.5605 54.2454C32.5647 54.2172 32.5703 54.1899 32.5746 54.163L23.4469 48.2676L22.6484 35.5623L34.4216 29.2324C36.0492 35.4774 37.5159 38.1394 41.5208 43.5403C47.7148 51.8954 47.7247 59.2575 46.2318 64.4812Z" fill="#3C424C"/>
<path opacity="0.349" d="M47.0035 60.0597C46.6405 55.6628 45.4858 50.2293 41.1276 44.7924C36.5801 39.1202 34.9936 36.4533 33.2397 29.867L34.4214 29.2324C36.0483 35.4777 37.5152 38.1397 41.5201 43.5403C46.126 49.7527 47.3128 55.4162 47.0035 60.0597Z" fill="white"/>
<path d="M34.4586 53.9595C33.931 54.2534 32.7039 53.663 32.6423 53.9462C32.1838 56.0737 33.2692 59.3775 32.8723 59.5528C32.5198 59.7097 32.1894 59.6404 31.9025 59.5277C31.9004 59.5267 31.8985 59.5259 31.8967 59.5248C31.8313 59.4922 31.7667 59.4594 31.7051 59.4266C28.0314 57.456 30.2506 53.7487 26.0386 50.9199C26.0309 50.9151 26.0232 50.9092 26.0154 50.9044C24.9848 50.2186 24.6237 48.877 25.2007 47.7807C28.172 42.1327 35.2109 28.946 34.6051 32.5877C33.5689 38.8252 33.6198 44.0763 33.6391 45.0376C33.6404 45.1065 33.6417 45.1588 33.6428 45.1948C33.4261 47.1701 35.9411 53.1381 34.4586 53.9595Z" fill="#3C424C"/>
<path opacity="0.349" d="M34.4586 53.9595C33.931 54.2534 32.7039 53.663 32.6423 53.9462C32.1838 56.0737 33.2692 59.3775 32.8723 59.5528C32.5198 59.7097 32.1894 59.6404 31.9025 59.5277C31.9004 59.5267 31.8985 59.5259 31.8967 59.5248C31.8313 59.4922 31.7667 59.4594 31.7051 59.4266C32.9745 59.2763 31.7397 57.163 31.5615 55.2021C31.3699 53.0965 32.381 52.6775 33.4493 53.3249C35.1282 54.3412 33.7162 51.4235 33.5157 49.5453C33.271 47.2491 33.4955 45.7128 33.639 45.0376C33.6404 45.1064 33.6417 45.1588 33.6428 45.1948C33.4261 47.1701 35.941 53.1381 34.4586 53.9595Z" fill="white"/>
<path d="M31.4469 70.9372C31.0028 72.2099 29.5286 72.7599 27.0238 72.5875C24.6748 72.8013 23.2828 72.2702 22.8473 70.9948C22.1238 68.8751 23.9959 60.8349 21.2819 54.603C21.2819 54.5811 21.2915 53.0199 23.9132 50.2298C24.5737 50.2146 25.2854 50.4134 26.0385 50.9197C30.3212 53.7968 27.9538 57.582 31.8968 59.5246C31.4196 59.3356 31.0666 59.0215 30.9396 59.4074C30.0133 62.2445 29.5863 65.0207 29.6586 67.7364C31.3911 68.3216 31.9873 69.3885 31.4469 70.9372Z" fill="white"/>
<path opacity="0.349" d="M31.5364 69.5489C31.6394 69.9391 31.6346 70.3994 31.4467 70.938C31.0032 72.2099 29.5288 72.7599 27.0239 72.5878C24.675 72.8015 23.283 72.2705 22.8477 70.9948C22.655 70.4293 22.6462 69.4441 22.6868 68.1831C22.7167 68.5068 22.7647 68.7804 22.8381 68.996C23.2966 70.3407 24.7638 70.9004 27.2398 70.6749C29.3017 70.8168 30.7337 70.4416 31.5364 69.5489Z" fill="#1D1C22"/>
<path d="M25.6519 49.3768C27.6729 48.0753 28.8717 46.3505 29.2485 44.2027C30.0907 44.594 30.6987 44.7181 31.0723 44.5753C31.8345 44.2841 32.1299 42.7601 31.9586 40.0028C32.6948 40.4394 33.2072 40.3209 33.4957 39.6473C33.7343 39.0895 33.7258 37.4115 33.4704 34.6134C33.986 34.948 34.4199 35.019 34.7713 34.8263C36.0331 34.1357 35.5874 30.4315 33.4346 23.7142C34.5301 23.4084 35.3638 23.1015 35.5127 22.5581C35.7478 21.6977 34.8047 20.4272 34.4586 19.9994C34.4236 19.9578 34.4642 19.8961 34.5168 19.9108C35.3694 19.5244 36.5292 18.9946 36.4638 18.0064C36.3846 16.8143 34.0836 14.9628 31.8627 11.8695C30.4294 9.87362 29.1474 7.70078 27.4858 6.48012C25.3157 4.88558 22.8987 4.62272 20.2345 5.69126C17.5706 4.62272 15.1536 4.88558 12.9834 6.48012C11.3219 7.70078 10.0399 9.87362 8.60653 11.8695C6.38565 14.9628 4.08471 16.8143 4.00545 18.0064C3.94007 18.9946 5.09988 19.5244 5.95253 19.9108C6.0051 19.8961 6.04566 19.9578 6.0107 19.9994C5.66457 20.4272 4.72146 21.6977 4.95657 22.5581C5.10549 23.1015 5.93918 23.4084 7.03467 23.7142C4.88185 30.4315 4.43618 34.1357 5.69793 34.8263C6.0494 35.019 6.48306 34.948 6.99892 34.6134C6.74352 37.4115 6.73498 39.0895 6.97356 39.6473C7.26205 40.3209 7.77444 40.4394 8.51072 40.0028C8.3394 42.7601 8.63482 44.2841 9.39699 44.5753C9.77061 44.7181 10.3785 44.594 11.2208 44.2027C11.5976 46.3505 12.7964 48.0753 14.8174 49.3768L19.9591 52.8848L25.6519 49.3768Z" fill="white"/>
<path opacity="0.349" d="M34.7719 34.8265C34.4202 35.0192 33.9865 34.9482 33.4707 34.6136C33.7263 37.4119 33.7346 39.0897 33.4957 39.6472C33.2075 40.3208 32.6954 40.4393 31.9597 40.0027C32.1304 42.7597 31.8348 44.2843 31.0726 44.5757C30.6987 44.7182 30.091 44.5942 29.2491 44.2029C28.8723 46.3509 27.6735 48.0757 25.6528 49.3772L19.9594 52.8849L14.8179 49.3772C12.7972 48.0757 11.5981 46.3509 11.2213 44.2029C10.3788 44.5942 9.7709 44.7182 9.39702 44.5757C8.63564 44.2843 8.34022 42.7597 8.51101 40.0027C7.77446 40.4393 7.26234 40.3208 6.97465 39.6472C6.73581 39.0897 6.74408 37.4119 6.99974 34.6136C6.48415 34.9482 6.05049 35.0192 5.69849 34.8265C4.43487 34.134 5.45484 29.4096 6.27359 26.3476C6.14736 29.0579 6.18499 32.6804 7.22524 33.2507C7.53988 33.4228 7.92791 33.3593 8.38959 33.0598C8.16088 35.5641 8.15368 37.0658 8.36744 37.5648C8.6255 38.1677 9.08398 38.2736 9.74288 37.8827C9.58943 40.3501 9.85363 41.7144 10.5355 41.9751C10.8701 42.1029 11.4143 41.9919 12.1682 41.6418C12.5052 43.5638 13.5783 45.1071 15.3871 46.272L19.9882 49.4119L25.0835 46.272C26.8924 45.1071 27.9652 43.5638 28.3025 41.6418C29.0561 41.9919 29.6 42.1029 29.9339 41.9751C30.6165 41.7144 30.8812 40.3501 30.7275 37.8827C31.3864 38.2736 31.8449 38.1677 32.103 37.5648C32.317 37.0658 32.3095 35.5641 32.0808 33.0598C32.542 33.3593 32.93 33.4228 33.2454 33.2507C34.2865 32.6804 34.3233 29.0531 34.1971 26.3428C35.0137 29.4048 36.0366 34.134 34.7719 34.8265Z" fill="#1D1C22"/>
<path d="M29.9707 28.397C26.4819 30.7377 23.6915 25.5076 20.258 24.4818C16.8242 25.5076 14.0328 30.7377 10.5443 28.397C9.08983 27.4205 8.40825 25.0256 8.49925 21.2126C8.24066 17.6811 12.1372 15.9153 20.1894 15.9153H20.3263C28.3785 15.9153 32.2748 17.6811 32.0154 21.2126C32.1072 25.0256 31.4256 27.4205 29.9707 28.397Z" fill="#DD7F40"/>
<path d="M34.5944 19.9993C34.9411 20.4274 35.8842 21.6976 35.6485 22.558C35.4996 23.1014 34.6662 23.4088 33.571 23.7141C33.742 24.2478 33.936 24.9059 34.1533 25.6881V25.6892C33.7687 26.026 33.2526 25.9497 32.6052 25.46C31.586 24.6887 31.9564 20.4893 30.7115 19.468C29.6336 18.5846 28.6915 19.8048 27.8626 20.5784C23.6848 24.4832 21.1648 24.2129 20.3028 19.7669C19.4408 24.2129 16.9211 24.4832 12.743 20.5784C11.9141 19.8048 10.972 18.5846 9.89441 19.468C8.64921 20.4893 9.01962 24.6887 8.00045 25.46C7.35303 25.9497 6.83691 26.026 6.45235 25.6892V25.6881C6.66958 24.9059 6.86359 24.2478 7.03465 23.7141C5.93943 23.4088 5.10626 23.1014 4.95735 22.558C4.72144 21.6976 5.66455 20.4274 6.01121 19.9993C6.04591 19.9582 6.00588 19.896 5.9525 19.9102C5.10066 19.5245 3.94032 18.9943 4.00543 18.0069C4.08496 16.8137 6.38616 14.9624 8.60677 11.8692C10.0399 9.87325 11.3219 7.70041 12.9831 6.48029C15.1539 4.88602 17.5711 4.62289 20.2345 5.69143C20.2502 5.68475 20.2732 5.67621 20.3028 5.66527C20.3324 5.67621 20.3554 5.68475 20.3714 5.69143C23.0347 4.62289 25.4518 4.88602 27.6225 6.48029C29.2837 7.70041 30.5658 9.87325 31.9988 11.8692C34.2197 14.9624 36.5209 16.8137 36.6002 18.0069C36.6653 18.9943 35.505 19.5245 34.6531 19.9102C34.6 19.896 34.5597 19.9582 34.5944 19.9993Z" fill="#3C424C"/>
<path opacity="0.349" d="M36.4973 18.5628C36.0185 17.3656 33.9775 15.5963 31.9992 12.8406C30.5659 10.845 29.2838 8.67211 27.6223 7.45172C25.4522 5.85798 23.0351 5.59512 20.3715 6.66286C20.3555 6.65645 20.3328 6.64765 20.3032 6.63697C20.2736 6.64765 20.2509 6.65645 20.2349 6.66286C17.5713 5.59512 15.1545 5.85798 12.9841 7.45172C11.3226 8.67211 10.0405 10.845 8.60743 12.8406C6.62887 15.5963 4.58813 17.3656 4.10937 18.5628C4.03118 18.3952 3.99275 18.2113 4.00636 18.0072C4.08535 16.8137 6.38629 14.9625 8.60743 11.8689C10.0405 9.87302 11.3226 7.70018 12.9841 6.47979C15.1545 4.88605 17.5713 4.62319 20.2349 5.69093C20.2509 5.68452 20.2736 5.67598 20.3032 5.66504C20.3328 5.67598 20.3555 5.68452 20.3715 5.69093C23.0351 4.62319 25.4522 4.88605 27.6223 6.47979C29.2838 7.70018 30.5659 9.87302 31.9992 11.8689C34.2201 14.9625 36.5213 16.8137 36.6003 18.0072C36.6136 18.2113 36.5752 18.3952 36.4973 18.5628Z" fill="white"/>
<path d="M8.6062 11.8691C8.84211 11.5412 9.07242 11.2086 9.30166 10.8772C9.28431 10.9501 9.2667 11.0216 9.24722 11.0923C8.98649 12.068 8.57578 12.8795 7.88592 13.3238C7.75009 13.4119 7.60118 13.4282 7.43945 13.3903C7.82188 12.9198 8.21497 12.4136 8.6062 11.8691Z" fill="#E4B684"/>
<path d="M33.0279 13.3859C32.8606 13.4294 32.7053 13.4153 32.566 13.324C31.8761 12.8797 31.4654 12.0681 31.2047 11.0925C31.182 11.0089 31.1612 10.9241 31.1406 10.8381C31.3787 11.1827 31.6186 11.5293 31.863 11.8693C32.2532 12.4116 32.6455 12.9168 33.0279 13.3859Z" fill="#E4B684"/>
<path opacity="0.349" d="M27.3139 20.7727C24.3097 23.9837 23.3538 30.3557 20.2114 30.3557C17.0691 30.3557 16.1364 24.1432 13.132 20.932" fill="#1D1C22"/>
<path d="M27.3139 20.7727C24.3097 23.9837 23.3538 27.7142 20.2114 27.7142C17.0691 27.7142 16.1364 23.9837 13.132 20.7727" fill="#1D1C22"/>
<path d="M20.2119 28.0998C17.928 28.0998 16.7178 26.3203 15.3162 24.2603C14.6274 23.2476 13.8465 22.0998 12.8511 21.036C12.7057 20.8807 12.714 20.6368 12.8693 20.4916C13.0249 20.3462 13.2685 20.3542 13.4139 20.5095C14.4499 21.617 15.2487 22.7909 15.9532 23.8269C17.3364 25.8602 18.3358 27.329 20.2119 27.329C22.0933 27.329 23.1541 25.7772 24.4972 23.8125C25.2026 22.7811 26.0016 21.6119 27.033 20.5095C27.1782 20.3542 27.4219 20.3459 27.5774 20.4916C27.7328 20.6368 27.741 20.8807 27.5956 21.036C26.6044 22.0955 25.8231 23.2387 25.1335 24.2475C23.7201 26.3144 22.5 28.0998 20.2119 28.0998Z" fill="#1D1C22"/>
<path d="M16.7583 5.17676C16.4925 5.19117 16.2189 5.21813 15.9403 5.26349C15.3762 5.35209 14.7915 5.51088 14.2126 5.76921C13.333 4.76552 11.87 3.02207 11.0668 3.23396C10.9763 3.25798 10.8925 3.29561 10.8154 3.34471C10.2432 3.70979 10.0188 4.7375 9.88001 5.99925C9.71241 7.50866 9.66918 9.36472 9.30331 10.8779C9.28596 10.9499 9.26862 11.0222 9.24833 11.0927C8.98814 12.0684 8.57689 12.8794 7.88731 13.3242C7.75147 13.412 7.60229 13.4283 7.4403 13.3907C7.40187 13.3822 7.36131 13.3685 7.31994 13.3531C6.86066 13.1788 6.32319 12.6202 5.78385 12.0097C5.38221 11.5538 4.97844 11.0695 4.60669 10.6937C3.21978 9.2876 1.5265 8.77628 1.1326 7.92284C1.10272 7.85932 1.08057 7.79367 1.06615 7.72535C1.02959 7.55482 1.044 7.36882 1.11819 7.15906C2.11094 4.37349 5.81908 2.37705 12.2429 1.17C12.5394 0.372334 12.8588 -0.0172918 13.2012 0.000588391C14.0218 0.0440879 14.1462 1.04965 14.3415 2.2671C14.3559 2.35757 14.3714 2.4491 14.3869 2.54144C14.4042 2.64178 14.5353 2.66473 14.5862 2.578C14.6276 2.50861 14.6738 2.43469 14.7239 2.35944C14.9753 1.98182 15.3172 1.57724 15.5803 1.60233C16.002 1.64103 16.4981 3.6791 16.7583 5.17676Z" fill="#3C424C"/>
<path opacity="0.349" d="M14.3415 2.2671C13.8678 1.27275 13.5991 0.934092 13.4072 0.931957C12.9522 0.927154 12.7387 1.26047 12.7667 1.93191C9.42446 2.41735 4.93815 4.37242 2.81708 5.87409C1.8761 6.54073 1.31274 7.32852 1.06615 7.72535C1.02959 7.55482 1.044 7.36882 1.11819 7.15906C2.11094 4.37349 5.81908 2.37705 12.2429 1.17C12.5393 0.372334 12.8588 -0.0172918 13.2012 0.000588391C14.0218 0.0440879 14.1462 1.04965 14.3415 2.2671Z" fill="white"/>
<path opacity="0.349" d="M10.8139 3.34497C10.2417 3.71005 10.0173 4.73775 9.87851 5.99951C9.71091 7.50891 9.66768 9.36498 9.30181 10.8781C9.28446 10.9502 9.26711 11.0225 9.24683 11.093C8.98664 12.0686 8.57539 12.8796 7.88581 13.3245C7.74997 13.4123 7.60079 13.4286 7.4388 13.391C7.40037 13.3824 7.35981 13.3688 7.31844 13.3533C6.85916 13.1791 6.32169 12.6205 5.78235 12.0099C5.38071 11.5541 4.97694 11.0697 4.60519 10.694C3.21828 9.28786 1.525 8.77654 1.1311 7.92309L1.58478 6.91753C1.53728 7.41391 1.82256 7.82435 2.44089 8.1494C3.74428 8.83311 5.68201 10.595 5.75913 9.80024C5.83626 9.00471 5.33428 5.72303 6.17998 4.73695C6.44792 4.42579 6.30515 9.79838 7.36568 10.1181C8.37017 10.4226 9.42777 3.79011 10.8139 3.34497Z" fill="#1D1C22"/>
<path d="M23.7616 5.17676C24.0274 5.19117 24.3009 5.21813 24.5793 5.26349C25.1437 5.35209 25.7284 5.51088 26.3073 5.76921C27.1866 4.76552 28.6496 3.02207 29.4528 3.23396C29.5436 3.25798 29.6274 3.29561 29.7042 3.34471C30.2764 3.70979 30.5008 4.7375 30.6396 5.99925C30.8072 7.50866 30.8504 9.36472 31.2166 10.8779C31.2339 10.9499 31.2513 11.0222 31.2715 11.0927C31.5315 12.0684 31.9427 12.8794 32.6323 13.3242C32.7681 13.412 32.9176 13.4283 33.0793 13.3907C33.1177 13.3822 33.1583 13.3685 33.1997 13.3531C33.6592 13.1788 34.1967 12.6202 34.736 12.0097C35.1377 11.5538 35.5412 11.0695 35.9129 10.6937C37.2998 9.2876 38.9931 8.77628 39.3873 7.92284C39.4169 7.85932 39.439 7.79367 39.4537 7.72535C39.4903 7.55482 39.4759 7.36882 39.4017 7.15906C38.4089 4.37349 34.7005 2.37705 28.277 1.17C27.9802 0.372334 27.6608 -0.0172918 27.3184 0.000588391C26.4978 0.0440879 26.3737 1.04965 26.1781 2.2671C26.1637 2.35757 26.1482 2.4491 26.1327 2.54144C26.1154 2.64178 25.9846 2.66473 25.9334 2.578C25.892 2.50861 25.8458 2.43469 25.7957 2.35944C25.5443 1.98182 25.2024 1.57724 24.9396 1.60233C24.5176 1.64103 24.0215 3.6791 23.7616 5.17676Z" fill="#3C424C"/>
<path opacity="0.349" d="M26.1785 2.2671C26.6522 1.27275 26.9209 0.934092 27.1128 0.931957C27.5678 0.927154 27.7813 1.26047 27.7533 1.93191C31.0955 2.41735 35.5821 4.37242 37.7029 5.87409C38.6439 6.54073 39.2075 7.32852 39.4541 7.72535C39.4907 7.55482 39.4762 7.36882 39.4021 7.15906C38.4093 4.37349 34.7009 2.37705 28.2774 1.17C27.9806 0.372334 27.6612 -0.0172918 27.3188 0.000588391C26.4982 0.0440879 26.3741 1.04965 26.1785 2.2671Z" fill="white"/>
<path opacity="0.349" d="M29.7043 3.34497C30.2765 3.71005 30.501 4.73775 30.6397 5.99951C30.8073 7.50891 30.8505 9.36498 31.2167 10.8781C31.234 10.9502 31.2514 11.0225 31.2717 11.093C31.5316 12.0686 31.9428 12.8796 32.6324 13.3245C32.7683 13.4123 32.9177 13.4286 33.0794 13.391C33.1179 13.3824 33.1584 13.3688 33.1998 13.3533C33.6593 13.1791 34.1968 12.6205 34.7362 12.0099C35.1378 11.5541 35.5413 11.0697 35.913 10.694C37.2999 9.28786 38.9932 8.77654 39.3874 7.92309L38.9337 6.91753C38.9812 7.41391 38.6957 7.82435 38.0773 8.1494C36.7742 8.83311 34.8362 10.595 34.7591 9.80024C34.6822 9.00471 35.184 5.72303 34.3382 4.73695C34.0706 4.42579 34.2131 9.79838 33.1526 10.1181C32.1481 10.4226 31.0905 3.79011 29.7043 3.34497Z" fill="#1D1C22"/>
<path d="M14.2643 21.7454C14.3523 21.8356 14.4415 21.9279 14.5317 22.0213H14.4252C14.375 21.9567 14.3217 21.8649 14.2643 21.7454Z" fill="white"/>
<path d="M25.8933 22.0217C25.9496 21.9629 26.0051 21.9053 26.0617 21.8477C26.0203 21.9232 25.984 21.9811 25.9531 22.0217H25.8933Z" fill="white"/>
<path d="M26.3696 20.5806C26.3749 21.1738 26.187 21.616 26.0621 21.8453L26.3696 20.5806Z" fill="white"/>
<path d="M23.8405 21.8455C23.7844 22.9343 23.6294 24.0757 23.3751 25.2694C22.9129 27.4366 22.0151 29.832 20.3026 29.832C18.6037 29.832 17.7068 27.475 17.2416 25.3225C16.9804 24.1152 16.8213 22.9562 16.765 21.8455H23.8405Z" fill="#EF5F5E"/>
<path opacity="0.349" d="M23.8405 21.8455C23.7844 22.9343 23.6294 24.0757 23.3751 25.2694C22.9129 27.4366 22.0151 29.832 20.3026 29.832C18.6037 29.832 17.7068 27.475 17.2416 25.3225C16.9804 24.1152 16.8213 22.9562 16.765 21.8455H16.8736C16.946 22.4694 17.0615 23.2737 17.2416 24.108C17.7068 26.2605 18.6037 28.6175 20.3026 28.6175C22.0151 28.6175 22.9129 26.2221 23.3751 24.0549C23.5485 23.239 23.6612 22.4569 23.7316 21.8455H23.8405Z" fill="white"/>
<path d="M20.0375 27.352L19.8205 22.3124C19.8115 22.0997 19.9767 21.9199 20.1894 21.9105C20.4021 21.9014 20.5819 22.0666 20.5913 22.2793C20.5918 22.2903 20.5918 22.3017 20.5913 22.3124L20.3743 27.352C20.3703 27.4448 20.2918 27.5169 20.1987 27.5131C20.1109 27.5091 20.0415 27.4382 20.0375 27.352Z" fill="#1D1C22"/>
<path d="M20.3026 30.2171C18.8054 30.2171 17.6899 28.775 16.987 25.9309C16.4903 23.9217 16.3844 21.9482 16.3801 21.8652L17.1498 21.8254C17.2592 23.9452 18.0392 29.4464 20.3026 29.4464C22.5659 29.4464 23.3457 23.9452 23.4553 21.8254L24.225 21.8652C24.2207 21.9482 24.1148 23.9217 23.6181 25.9309C22.9152 28.775 21.7994 30.2171 20.3026 30.2171Z" fill="#1D1C22"/>
<path opacity="0.349" d="M23.8405 21.8455C23.7844 22.9343 23.6294 24.0757 23.3751 25.2694C23.1189 25.3494 22.8483 25.3948 22.5622 25.3948C21.0376 25.3948 20.4355 24.3236 20.2661 23.9326C20.2428 23.8806 20.1804 23.8806 20.1582 23.9326C19.9888 24.3236 19.3857 25.3948 17.861 25.3948C17.6462 25.3948 17.4402 25.3697 17.2416 25.3225C16.9804 24.1152 16.8213 22.9562 16.765 21.8455H23.8405Z" fill="#1D1C22"/>
<path d="M26.3693 20.5786C26.3693 20.5794 26.3693 20.5802 26.3693 20.5808L26.0619 21.8455C26.0619 21.8463 26.0616 21.8471 26.0608 21.8476C26.0042 21.9052 25.9487 21.9629 25.8924 22.0216C24.9624 22.9863 23.9507 24.0469 22.5622 24.0469C21.0367 24.0469 20.435 22.9754 20.2655 22.5844C20.2425 22.5321 20.1796 22.5321 20.158 22.5844C19.9885 22.9754 19.3854 24.0469 17.861 24.0469C16.4725 24.0469 15.4611 22.9863 14.531 22.0216C14.4408 21.9282 14.3517 21.8359 14.2636 21.7457C14.2626 21.7457 14.2626 21.7457 14.2626 21.7446C14.143 21.4977 14.0029 21.0948 14.0072 20.5786C14.0128 20.0105 14.1942 19.3043 14.7766 18.5144C16.2716 16.4881 18.4575 17.4843 18.8236 14.9595C19.1887 12.4354 17.4927 7.78418 20.1884 7.78418C22.8837 7.78418 21.1878 12.4354 21.5529 14.9595C21.919 17.4843 24.1052 16.4881 25.6002 18.5144C26.1825 19.3043 26.364 20.0105 26.3693 20.5786Z" fill="white"/>
<path opacity="0.349" d="M26.0619 21.8457C26.0619 21.8463 26.0616 21.8468 26.0611 21.8476C26.0043 21.9052 25.9482 21.9631 25.8924 22.0219C24.9619 22.986 23.9507 24.0466 22.5617 24.0466C21.037 24.0466 20.435 22.9754 20.2655 22.5844C20.2423 22.5324 20.1799 22.5324 20.1577 22.5844C19.9883 22.9754 19.3851 24.0466 17.8605 24.0466C16.4725 24.0466 15.4611 22.986 14.5308 22.0219C14.4403 21.9284 14.3517 21.8361 14.2631 21.7454C14.2621 21.7454 14.2621 21.7454 14.2621 21.7446C14.1425 21.498 13.9632 21.0243 14.0539 21.1062C14.9842 21.9549 16.4725 22.8982 17.8605 22.8982C19.3851 22.8982 19.9883 21.9573 20.1577 21.6135C20.1799 21.5674 20.2423 21.5674 20.2655 21.6135C20.435 21.9573 21.037 22.8982 22.5617 22.8982C23.9507 22.8982 26.3346 21.0379 26.3346 21.0371L26.0619 21.8457Z" fill="#1D1C22"/>
<path d="M22.5618 24.4318C21.3027 24.4318 20.5846 23.782 20.2112 23.2611C19.8381 23.782 19.12 24.4318 17.8606 24.4318C16.3184 24.4318 15.2315 23.3043 14.2726 22.3094C13.6938 21.709 13.1472 21.1419 12.6071 20.9396C12.4077 20.8651 12.3066 20.6431 12.381 20.4437C12.456 20.2444 12.6783 20.1435 12.8769 20.218C13.5809 20.4814 14.1864 21.1096 14.8274 21.7746C15.7214 22.7023 16.6459 23.6611 17.8606 23.6611C19.1344 23.6611 19.6436 22.801 19.8034 22.4311C19.875 22.2662 20.0348 22.1597 20.2112 22.1597C20.3876 22.1597 20.5477 22.2662 20.619 22.4311C20.7788 22.8007 21.2883 23.6611 22.5618 23.6611C23.7766 23.6611 24.7013 22.7023 25.5953 21.7746C26.236 21.1096 26.8416 20.4814 27.5456 20.218C27.7441 20.1433 27.9664 20.2444 28.0414 20.4437C28.1159 20.6431 28.015 20.8651 27.8154 20.9396C27.2752 21.1419 26.7287 21.709 26.1498 22.3094C25.191 23.3043 24.104 24.4318 22.5618 24.4318Z" fill="#1D1C22"/>
<path d="M22.648 18.7617C22.648 19.5319 22.0363 20.3661 21.4375 20.9978C20.7946 21.6764 19.8112 21.6764 19.1683 20.9978C18.5697 20.3661 17.9578 19.5319 17.9578 18.7617C17.9578 17.2536 22.648 17.2536 22.648 18.7617Z" fill="#1D1C22"/>
<path opacity="0.349" d="M21.4117 18.6069C21.4117 18.7286 21.1225 18.8607 20.8396 18.9605C20.5356 19.0678 20.0707 19.0678 19.7668 18.9605C19.4836 18.8607 19.1943 18.7286 19.1943 18.6069C19.1943 18.3683 21.4117 18.3683 21.4117 18.6069Z" fill="white"/>
<path d="M20.1894 22.9366C19.9767 22.9366 19.8043 22.7639 19.8043 22.5512V21.5067C19.8043 21.294 19.9767 21.1213 20.1894 21.1213C20.4024 21.1213 20.5748 21.294 20.5748 21.5067V22.5512C20.5748 22.7639 20.4024 22.9366 20.1894 22.9366Z" fill="#1D1C22"/>
<path d="M16.0068 10.7954C16.3324 10.9294 16.6585 10.6067 16.5256 10.2809C16.2598 9.62732 15.7511 8.86648 14.7995 8.66153C13.0451 8.28391 12.0358 10.0719 13.1788 10.3319C14.0514 10.5301 15.0986 10.4213 16.0068 10.7954Z" fill="#DD7F40"/>
<path d="M24.1256 10.7954C23.8 10.9294 23.4739 10.6067 23.6065 10.2809C23.8726 9.62732 24.3809 8.86648 25.3329 8.66153C27.0873 8.28391 28.0963 10.0719 26.9533 10.3319C26.0806 10.5301 25.0337 10.4213 24.1256 10.7954Z" fill="#DD7F40"/>
<path d="M16.5324 14.957C16.1446 16.4072 14.9762 17.2564 13.9229 16.8537C12.8693 16.4512 12.33 14.9493 12.7177 13.4991C13.1055 12.049 14.2736 11.1995 15.3269 11.6022C16.3805 12.0049 16.9201 13.5069 16.5324 14.957Z" fill="#1D1C22"/>
<path d="M15.9248 13.7924C15.8573 14.3101 15.5629 14.6995 15.2669 14.6621C14.971 14.6248 14.7858 14.1748 14.853 13.6574C14.9205 13.1396 15.2149 12.7503 15.5109 12.7876C15.8068 12.825 15.992 13.2747 15.9248 13.7924Z" fill="white"/>
<path d="M13.8979 15.0248C13.8717 15.2844 13.73 15.4862 13.5811 15.4755C13.4322 15.4646 13.3326 15.2455 13.3588 14.9861C13.3849 14.7264 13.5269 14.5246 13.6756 14.5353C13.8245 14.5463 13.924 14.7654 13.8979 15.0248Z" fill="white"/>
<path d="M23.9716 14.957C24.3594 16.4072 25.5275 17.2564 26.5808 16.8537C27.6344 16.4512 28.174 14.9493 27.7863 13.4991C27.3982 12.049 26.2301 11.1995 25.1768 11.6022C24.1232 12.0049 23.5836 13.5069 23.9716 14.957Z" fill="#1D1C22"/>
<path d="M24.5771 13.7924C24.6447 14.3101 24.939 14.6995 25.235 14.6621C25.5309 14.6248 25.7161 14.1748 25.6489 13.6574C25.5814 13.1396 25.287 12.7503 24.9911 12.7876C24.6951 12.825 24.5099 13.2747 24.5771 13.7924Z" fill="white"/>
<path d="M26.6046 15.0248C26.6308 15.2844 26.7728 15.4862 26.9214 15.4755C27.0703 15.4646 27.1699 15.2455 27.1437 14.9861C27.1176 14.7264 26.9756 14.5246 26.8269 14.5353C26.678 14.5463 26.5785 14.7654 26.6046 15.0248Z" fill="white"/>
</svg>
