<svg width="62" height="59" viewBox="0 0 75 72" fill="none" xmlns="http://www.w3.org/2000/svg">
<path d="M10.7649 31.0732C10.3733 36.4307 11.8428 40.7747 15.1746 44.1072C20.1724 49.1049 19.3885 63.5101 18.2131 65.5682C17.102 66.0255 16.6122 66.6461 16.7429 67.4299C16.9387 68.606 20.8586 69.9779 22.2305 66.6461C23.6024 63.3143 23.6024 53.3188 24.1904 43.4209C24.5827 36.8223 20.1073 32.7066 10.7649 31.0732Z" fill="#B25D00"/>
<path d="M16.7876 46.3815C18.7743 47.7196 20.8439 48.9448 22.7369 50.4283C23.0998 50.7128 23.4551 51.0042 23.8052 51.2995C23.9168 48.7541 24.0323 46.0843 24.1904 43.4209C24.5827 36.8223 20.1073 32.7066 10.7649 31.0732C10.3733 36.4307 11.8428 40.7747 15.1746 44.1072C15.7997 44.7316 16.3328 45.5052 16.7876 46.3815Z" fill="#964B00"/>
<path d="M18.9973 61.2936C18.8506 63.3868 18.5477 64.9806 18.2122 65.568C17.1012 66.0253 16.6113 66.6459 16.7421 67.4298C16.9379 68.6058 20.8578 69.9777 22.2297 66.6459C22.8171 65.2198 23.1525 62.5711 23.3904 59.2341C22.0811 60.2131 20.5771 60.9243 18.9973 61.2936Z" fill="white"/>
<path d="M18.2125 65.5684C18.1793 65.5881 18.134 65.6156 18.0766 65.6506C17.9905 65.7023 17.8719 65.7827 17.7329 65.8809C17.5957 65.981 17.4395 66.1022 17.289 66.2451C17.2533 66.282 17.2163 66.3197 17.1793 66.3579C17.1461 66.3981 17.1123 66.4389 17.0779 66.4804C17.0147 66.5652 16.9541 66.6545 16.9146 66.7508C16.8878 66.7967 16.8763 66.8471 16.8616 66.8962C16.8553 66.9211 16.8451 66.9454 16.8412 66.9702L16.8349 67.0455C16.8285 67.0959 16.824 67.1456 16.8336 67.1947C16.8412 67.2419 16.8368 67.2987 16.8527 67.337C16.868 67.3886 16.8827 67.439 16.8974 67.4894L16.9178 67.5634L16.9471 67.624C16.9669 67.6648 16.9854 67.7043 17.0032 67.7432C17.0249 67.7802 17.0517 67.8134 17.074 67.8472C17.1168 67.9186 17.1774 67.9639 17.2214 68.0162C17.2749 68.0551 17.3196 68.0978 17.3642 68.1183C17.4204 68.1533 17.4675 68.1756 17.5058 68.1865C17.4956 68.1865 17.4822 68.1852 17.4637 68.182C17.4369 68.1782 17.3968 68.1731 17.3483 68.1546C17.2973 68.1425 17.2437 68.1093 17.1767 68.0787C17.1193 68.0353 17.0415 67.9958 16.9847 67.9244C16.9541 67.8912 16.919 67.858 16.8884 67.8191C16.8616 67.7758 16.8349 67.7311 16.8068 67.6858L16.7641 67.615L16.736 67.543C16.7181 67.4945 16.6996 67.4447 16.6805 67.3944C16.6537 67.3325 16.6556 67.2764 16.6422 67.2151C16.6384 67.1845 16.6308 67.1545 16.6301 67.1233L16.6359 67.0302L16.6429 66.9358C16.6473 66.9052 16.6582 66.8752 16.6658 66.8446C16.6824 66.7834 16.6965 66.7215 16.7271 66.6666C16.7775 66.5512 16.8489 66.4504 16.9222 66.3567C16.9981 66.2629 17.0836 66.1845 17.1678 66.1105C17.2539 66.0397 17.34 65.9759 17.4261 65.9223C17.5096 65.8649 17.5945 65.8222 17.6716 65.7801C17.8808 65.6755 18.0613 65.6047 18.2125 65.5684Z" fill="#964B00"/>
<path d="M18.499 66.5229C18.4697 66.5446 18.4289 66.5746 18.3772 66.6129C18.2988 66.669 18.1929 66.7564 18.0698 66.8616C17.948 66.9688 17.8089 67.0963 17.6878 67.25C17.5685 67.4018 17.4613 67.5842 17.455 67.7698C17.4492 67.8623 17.4684 67.9535 17.5079 68.039C17.5455 68.1232 17.6074 68.2042 17.6667 68.2711C17.742 68.3483 17.8013 68.4076 17.8746 68.4561C17.9454 68.5071 18.0201 68.5409 18.0921 68.5652C18.2375 68.6111 18.3734 68.6047 18.4646 68.5817C18.5252 68.5677 18.573 68.5518 18.6062 68.5352C18.58 68.562 18.5373 68.5907 18.478 68.62C18.3893 68.6602 18.2446 68.7093 18.066 68.6806C17.9786 68.6666 17.8836 68.6385 17.7955 68.5875C17.705 68.5422 17.6131 68.4695 17.5417 68.4025C17.4601 68.3209 17.3816 68.238 17.3287 68.1251C17.2745 68.0154 17.2432 67.8872 17.2496 67.7596C17.2655 67.5013 17.4059 67.2889 17.55 67.132C17.6967 66.9726 17.8581 66.8559 17.9996 66.7666C18.1419 66.6767 18.2694 66.6193 18.3568 66.5784C18.4161 66.5523 18.4633 66.5338 18.499 66.5229Z" fill="#964B00"/>
<path d="M19.0348 67.1934C18.9985 67.2361 18.9506 67.2973 18.8926 67.3758C18.8492 67.4344 18.7982 67.5072 18.7459 67.5939C18.6949 67.6806 18.6407 67.7814 18.5966 67.8937C18.5565 68.0059 18.5214 68.1328 18.5341 68.2578C18.5482 68.3822 18.6234 68.4887 18.7376 68.5659C18.765 68.5825 18.7988 68.6093 18.8218 68.6182L18.9334 68.6647C18.9717 68.6845 19.0055 68.6864 19.0405 68.696C19.0763 68.7024 19.1082 68.7164 19.1471 68.719C19.2989 68.7394 19.4583 68.7413 19.6158 68.7151C19.7746 68.696 19.9309 68.6513 20.0827 68.6022C20.1573 68.5735 20.2313 68.5442 20.3047 68.5161C20.3754 68.4823 20.4475 68.4517 20.5158 68.4173C20.6522 68.3458 20.7804 68.2706 20.9003 68.1947C21.0164 68.1137 21.1274 68.0378 21.2237 67.9587C21.3232 67.8841 21.4042 67.8037 21.4833 67.7393C21.5554 67.6672 21.6185 67.6047 21.6702 67.5531C21.7346 67.4797 21.7862 67.423 21.8251 67.3815C21.7964 67.4293 21.755 67.495 21.7008 67.5779C21.6561 67.6373 21.6019 67.7093 21.5394 67.7916C21.4693 67.8681 21.3972 67.9625 21.3022 68.0474C21.2116 68.1392 21.1051 68.2285 20.9896 68.3203C20.9291 68.3631 20.8678 68.4071 20.8047 68.4524C20.7403 68.4957 20.6707 68.5346 20.6019 68.5767C20.4609 68.6552 20.3098 68.7298 20.1497 68.7898C19.9877 68.8452 19.8199 68.8956 19.6445 68.9192C19.4698 68.9454 19.2899 68.9422 19.1145 68.9154C19.0284 68.8982 18.9289 68.8727 18.8556 68.8401L18.7459 68.7885C18.6955 68.7642 18.6687 68.7374 18.6304 68.7119C18.4863 68.6105 18.3849 68.4371 18.3817 68.2693C18.3753 68.1022 18.4334 67.9638 18.4889 67.8458C18.5475 67.7272 18.619 67.6315 18.6834 67.5505C18.7491 67.4689 18.8109 67.4032 18.8626 67.3496C18.9321 67.2795 18.9902 67.2278 19.0348 67.1934Z" fill="#964B00"/>
<path d="M15.1735 44.1072C15.3335 44.2768 15.4968 44.4439 15.6537 44.6161C15.7985 44.7998 15.9484 44.9803 16.0893 45.1672C16.2207 45.3611 16.3534 45.5543 16.4809 45.7508L16.833 46.3592L17.1474 46.9881C17.2456 47.2005 17.3362 47.4167 17.4306 47.6316C17.606 48.066 17.7731 48.5048 17.9147 48.9512C17.9919 49.1732 18.0582 49.3977 18.1213 49.6234C18.1864 49.8492 18.2514 50.0744 18.3044 50.3027C18.4217 50.7568 18.5174 51.2154 18.6131 51.6746C18.6979 52.1351 18.784 52.5962 18.8503 53.0599C18.888 53.2914 18.9192 53.5235 18.9479 53.7563C18.9766 53.9885 19.0098 54.2206 19.0321 54.4541C19.0844 54.9197 19.1246 55.3865 19.1616 55.8534C19.1928 56.3209 19.2234 56.789 19.2394 57.2572C19.2515 57.4912 19.256 57.7253 19.2592 57.96C19.2623 58.1941 19.2681 58.4282 19.2655 58.6629C19.2668 59.1316 19.2572 59.6004 19.2432 60.0692C19.2273 60.5373 19.203 61.0061 19.1699 61.4743C19.1348 61.9424 19.0933 62.4099 19.0359 62.8768C18.9817 63.3443 18.9084 63.8098 18.8184 64.2748C18.7158 64.7404 18.6201 65.2015 18.3841 65.6665L18.3567 65.72L18.2872 65.7519C17.8126 65.9681 17.3324 66.2992 17.0779 66.7246C17.0473 66.7775 17.0262 66.8343 16.9982 66.8885L16.9491 67.0581C16.9452 67.1162 16.9344 67.1736 16.9325 67.2322L16.9401 67.3196L16.9446 67.3911C16.9535 67.4242 16.9618 67.4618 16.9714 67.4918C16.9822 67.5103 16.9912 67.5288 16.9995 67.5486C17.0269 67.5939 17.0549 67.6455 17.0951 67.6908C17.1691 67.7846 17.2641 67.8707 17.3675 67.9478C17.7865 68.2572 18.3178 68.4428 18.8491 68.511C19.3835 68.5786 19.9339 68.5212 20.425 68.3165C20.67 68.2151 20.9002 68.078 21.1075 67.9109C21.3116 67.7399 21.4914 67.5403 21.6496 67.3222C21.8046 67.1021 21.9321 66.861 22.0418 66.611C22.089 66.4988 22.1375 66.3495 22.1853 66.2207L22.2574 66.0198L22.3116 65.8202L22.422 65.4203C22.4551 65.2857 22.4826 65.146 22.5132 65.0095C22.5776 64.7359 22.628 64.4578 22.6745 64.1791C22.7262 63.9017 22.7677 63.6223 22.8066 63.3417C22.848 63.0617 22.8869 62.7811 22.9201 62.4998C22.9953 61.9379 23.0515 61.3728 23.1108 60.8084C23.1624 60.2427 23.2167 59.6776 23.2594 59.1106C23.3512 57.9779 23.4233 56.8426 23.4928 55.7073L23.9106 48.8932L23.8194 52.306C23.7849 53.4432 23.7537 54.581 23.7078 55.7188C23.6586 56.856 23.607 57.9932 23.5356 59.1304C23.5037 59.6993 23.459 60.2669 23.4182 60.8358C23.3685 61.4041 23.3225 61.9724 23.2575 62.54C23.2301 62.8238 23.1943 63.1076 23.1535 63.3902C23.1159 63.674 23.0757 63.9572 23.0247 64.2391C22.9794 64.5223 22.9297 64.8048 22.8659 65.0854C22.8353 65.2264 22.8085 65.3667 22.7747 65.5076L22.6599 65.9318L22.6025 66.1435L22.5317 66.3451C22.4813 66.4828 22.4443 66.6053 22.3831 66.7558C22.2663 67.0275 22.1286 67.2928 21.957 67.5384C21.7829 67.7827 21.5814 68.0097 21.3498 68.2049C21.1151 68.3968 20.853 68.5557 20.5736 68.673C20.0137 68.9096 19.395 68.976 18.8012 68.9052C18.2074 68.8299 17.6251 68.6373 17.1238 68.2738C16.9995 68.1813 16.8802 68.0767 16.7769 67.9478C16.7227 67.886 16.6787 67.8139 16.634 67.7367C16.613 67.6921 16.5925 67.6455 16.5747 67.5996C16.5626 67.5613 16.5556 67.5295 16.5454 67.4944L16.5383 67.4638L16.5371 67.4478L16.5345 67.4166L16.5294 67.3541L16.5211 67.229C16.5243 67.1455 16.5377 67.0613 16.5466 66.9784C16.5677 66.898 16.5913 66.8177 16.6181 66.7392C16.6531 66.6665 16.685 66.5893 16.7258 66.5205C16.8904 66.2417 17.1168 66.0243 17.356 65.8406C17.5996 65.6569 17.8509 65.5096 18.136 65.3846L18.0391 65.4694C18.2298 65.1014 18.3401 64.6403 18.4377 64.197C18.5276 63.7461 18.6022 63.29 18.659 62.8302C18.7183 62.371 18.7617 61.9086 18.7993 61.4462C18.8344 60.9832 18.8612 60.5195 18.8803 60.0558C18.8969 59.5915 18.909 59.1265 18.9103 58.6622C18.9128 58.1973 18.909 57.7323 18.8956 57.268C18.888 56.8031 18.8656 56.3388 18.8433 55.8744C18.8153 55.4101 18.7834 54.9465 18.74 54.4834C18.7221 54.2513 18.6934 54.021 18.6692 53.7895C18.645 53.5586 18.6182 53.3277 18.585 53.0975C18.5276 52.6364 18.4504 52.1778 18.3745 51.7192C18.2878 51.2626 18.2011 50.8059 18.0933 50.3537C18.0454 50.126 17.9836 49.9022 17.9255 49.6777C17.8694 49.4519 17.8101 49.2274 17.7406 49.0054C17.613 48.5583 17.4606 48.1195 17.2992 47.6839C17.2118 47.4683 17.1289 47.2515 17.0377 47.0372L16.7443 46.4051L16.4133 45.791L16.044 45.1991C15.9114 45.0084 15.7704 44.8241 15.6333 44.6353C15.4834 44.4567 15.3265 44.2832 15.1735 44.1072Z" fill="#964B00"/>
<path d="M41.066 38.2422C40.6075 44.6667 41.8856 49.255 44.9011 52.0084C49.4237 56.1381 54.3404 57.7109 53.2587 64.0039L52.9634 65.6756C52.177 66.0034 51.751 66.462 51.6853 67.052C51.587 67.9372 55.5203 69.3136 56.4049 66.462C57.2902 63.6104 56.2085 61.3495 56.7984 57.7108C57.3884 54.0729 55.7168 55.4499 53.1605 52.6965C50.6036 49.9432 51.9806 46.797 53.6522 42.4708C55.3232 38.144 43.7212 37.1612 41.066 38.2422Z" fill="#B25D00"/>
<path d="M56.7507 58.0278C56.1359 58.8238 55.2915 59.4246 54.2563 59.6242C53.7576 59.7205 53.2914 59.6899 52.8519 59.5694C53.3826 60.7729 53.5701 62.192 53.2588 64.0039L52.9635 65.6756C52.1771 66.0034 51.7511 66.462 51.6854 67.052C51.5872 67.9372 55.5204 69.3136 56.4051 66.462C57.2642 63.6946 56.2705 61.4821 56.7507 58.0278Z" fill="white"/>
<path d="M46.8889 47.0104C48.632 47.9281 50.3636 49.0385 51.8802 50.3677C51.3687 48.1597 52.4307 45.6302 53.6514 42.4706C55.3224 38.1438 43.7203 37.1609 41.0652 38.242C40.9083 40.4456 41.0678 42.7372 41.5429 45.1161C43.4295 45.3987 45.2982 46.1729 46.8889 47.0104Z" fill="#964B00"/>
<path d="M52.9395 65.6926C52.9128 65.7098 52.8758 65.7341 52.8292 65.7647C52.7584 65.81 52.6621 65.8808 52.5486 65.965C52.4357 66.0511 52.3081 66.1544 52.1857 66.2768C52.0645 66.3993 51.9478 66.5422 51.8821 66.7023C51.8476 66.7813 51.8279 66.8649 51.8253 66.9478C51.8234 66.9893 51.826 67.0301 51.8323 67.0709C51.8362 67.0894 51.8394 67.1143 51.8432 67.1283L51.863 67.1927C51.8891 67.2756 51.9184 67.3426 51.9599 67.4102C52.0001 67.4759 52.046 67.5327 52.0945 67.5811C52.1914 67.6768 52.2922 67.7393 52.3674 67.7737C52.4172 67.7973 52.4574 67.8139 52.4886 67.8229C52.4561 67.8235 52.4121 67.8171 52.3566 67.8044C52.275 67.7827 52.1544 67.7438 52.032 67.6538C51.9727 67.6079 51.9102 67.5524 51.8572 67.4816C51.8056 67.414 51.7539 67.3273 51.722 67.2399L51.6984 67.1761C51.6888 67.1474 51.685 67.1264 51.678 67.1002C51.6678 67.0505 51.6595 66.9982 51.6608 66.9453C51.6608 66.84 51.6844 66.7335 51.7239 66.6366C51.8068 66.4433 51.9414 66.2864 52.0817 66.1659C52.2214 66.0428 52.3662 65.9509 52.4944 65.8814C52.6659 65.7896 52.8145 65.7264 52.9395 65.6926Z" fill="#964B00"/>
<path d="M53.2205 66.3765C53.1905 66.3956 53.149 66.423 53.0961 66.4575C53.0164 66.5091 52.9067 66.5876 52.781 66.6845C52.6567 66.7827 52.5131 66.9033 52.4022 67.0544C52.348 67.1297 52.3014 67.2126 52.288 67.2987C52.2727 67.3848 52.2848 67.4716 52.332 67.5519C52.3543 67.5921 52.3837 67.6304 52.4156 67.6674C52.4309 67.6839 52.4506 67.7069 52.4628 67.7177L52.5246 67.7694C52.6031 67.8306 52.6828 67.8766 52.774 67.9174C52.9513 67.9952 53.1324 68.0398 53.29 68.0666C53.4469 68.096 53.5814 68.1068 53.6758 68.1113C53.7383 68.1157 53.7881 68.1183 53.8238 68.1176C53.6816 68.1476 53.5005 68.1578 53.2804 68.1483C53.1165 68.138 52.9232 68.1132 52.7243 68.0405C52.6732 68.0252 52.6254 67.9984 52.575 67.9773C52.5272 67.9493 52.4704 67.9193 52.4296 67.8868L52.3665 67.8383C52.3378 67.8147 52.3218 67.7975 52.2989 67.7764C52.2574 67.735 52.2191 67.6884 52.1879 67.6342C52.1235 67.5296 52.0928 67.3912 52.1209 67.2681C52.1445 67.1444 52.2057 67.0404 52.2746 66.9562C52.4143 66.7878 52.5769 66.6775 52.7192 66.5933C52.9118 66.4843 53.0789 66.4122 53.2205 66.3765Z" fill="#964B00"/>
<path d="M53.6995 66.8966C53.6638 66.9329 53.6172 66.9839 53.5605 67.0515C53.4769 67.151 53.3577 67.3035 53.2767 67.5025C53.2403 67.6013 53.2231 67.718 53.2735 67.8118C53.3219 67.9062 53.4272 67.9706 53.5541 68.0197C53.6746 68.0643 53.815 68.0911 53.9559 68.1013C54.0975 68.1109 54.2429 68.102 54.3871 68.0816C54.9681 67.9974 55.4994 67.6874 55.8151 67.3755C55.9745 67.2193 56.0938 67.0732 56.1678 66.9635C56.2182 66.8921 56.2564 66.834 56.2826 66.79C56.2775 66.8015 56.2705 66.8187 56.2609 66.8404C56.2469 66.873 56.2277 66.9221 56.1958 66.9807C56.1652 67.0401 56.125 67.1108 56.0734 67.1893C56.0236 67.2684 55.9605 67.3539 55.884 67.4406C55.7296 67.6122 55.5268 67.7984 55.273 67.9444C55.021 68.0918 54.7232 68.2034 54.4126 68.2506C54.102 68.2946 53.7773 68.2818 53.4929 68.1613C53.3602 68.1058 53.2142 68.0146 53.1548 67.8654C53.0936 67.7168 53.1357 67.5701 53.1848 67.4636C53.2901 67.2454 53.4406 67.1185 53.5356 67.0267C53.6019 66.9674 53.6568 66.924 53.6995 66.8966Z" fill="#964B00"/>
<path d="M41.066 38.2422C41.0367 38.908 41.0418 39.5745 41.0635 40.2404C41.0864 40.9056 41.1272 41.5702 41.1917 42.2322C41.3211 43.5563 41.5322 44.8733 41.8754 46.1553C42.0476 46.7956 42.2427 47.4296 42.4832 48.0463C42.7262 48.6618 43.0087 49.2607 43.341 49.8296C43.6727 50.3985 44.0553 50.9381 44.5044 51.4164C44.9483 51.8916 45.4636 52.3214 45.9706 52.7449C46.9917 53.5938 48.0728 54.3694 49.1271 55.1909C50.1782 56.0111 51.2286 56.8715 52.0718 57.9436C52.4914 58.4774 52.8518 59.0667 53.1043 59.7052C53.3601 60.341 53.5125 61.0171 53.5674 61.6976C53.6235 62.3788 53.5852 63.0619 53.4896 63.7322C53.3913 64.4038 53.2657 65.0492 53.1547 65.7093L53.1375 65.8088L53.038 65.8541C52.744 65.9887 52.4455 66.1832 52.2242 66.416C52.1145 66.534 52.0169 66.6616 51.957 66.8C51.9015 66.9275 51.8575 67.1201 51.8989 67.1597C51.9467 67.2617 52.0654 67.3765 52.1968 67.4665C52.3288 67.5589 52.478 67.6367 52.6324 67.7043C52.9443 67.8338 53.2785 67.9218 53.6171 67.9595C54.29 68.0411 54.9992 67.918 55.5152 67.5073C55.769 67.3006 55.9693 67.0302 56.1071 66.726C56.146 66.652 56.1708 66.571 56.2002 66.4925L56.2219 66.4332L56.2302 66.409L56.2391 66.3765L56.2748 66.247C56.3201 66.0748 56.3775 65.8994 56.4049 65.731C56.5516 65.055 56.5994 64.3438 56.5899 63.6371C56.5816 62.9286 56.5242 62.2149 56.4859 61.4961C56.4464 60.7779 56.4291 60.0528 56.4661 59.3289C56.4789 58.9666 56.5178 58.6056 56.5612 58.2459L56.639 57.7076C56.6651 57.5341 56.6957 57.353 56.7149 57.1814C56.757 56.8338 56.7818 56.4811 56.7525 56.1418C56.7181 55.8051 56.6199 55.4843 56.3922 55.2489C56.1683 55.011 55.8558 54.8394 55.5464 54.6628C55.2346 54.4874 54.9182 54.3082 54.6159 54.1047C54.01 53.6972 53.4615 53.2175 52.9832 52.6608L52.6419 52.2455L52.3409 51.78C52.163 51.4591 52.0003 51.13 51.8976 50.7773C51.6782 50.0777 51.6342 49.3366 51.6993 48.6165C51.7605 47.8933 51.9334 47.1891 52.1413 46.5016C52.346 45.8115 52.5941 45.1374 52.8524 44.4683C53.112 43.7993 53.3843 43.136 53.6522 42.4707C53.4035 43.143 53.1503 43.8139 52.9105 44.4894C52.6662 45.1635 52.4334 45.8415 52.2446 46.5309C52.0526 47.2191 51.8964 47.9194 51.8524 48.6286C51.8026 49.3353 51.8638 50.0503 52.0864 50.7161C52.1885 51.0522 52.3498 51.3679 52.5227 51.6703L52.8103 52.1052L53.1573 52.516C53.6203 53.0409 54.1669 53.5084 54.7562 53.8923C55.0522 54.0856 55.3615 54.2565 55.6772 54.4281C55.9891 54.6028 56.322 54.7725 56.5975 55.0557C56.734 55.196 56.8437 55.3688 56.9145 55.5512C56.9866 55.7343 57.0248 55.9237 57.0472 56.1118C57.0848 56.4875 57.0618 56.8542 57.0236 57.2184C57.0044 57.4034 56.977 57.5762 56.9521 57.758L56.8833 58.2848C56.8577 58.4602 56.8501 58.6381 56.8329 58.8142C56.8144 58.9902 56.8074 59.1675 56.7997 59.3448C56.7665 60.0534 56.787 60.7645 56.829 61.4769C56.8699 62.19 56.9305 62.9069 56.9426 63.6327C56.9547 64.3591 56.9113 65.0881 56.757 65.8152C56.7257 66.0014 56.6709 66.1679 56.6262 66.3427L56.5912 66.4721L56.5829 66.5047C56.5758 66.5283 56.5739 66.5308 56.5695 66.5442L56.5452 66.6118C56.5127 66.7011 56.4846 66.7917 56.4406 66.8771C56.285 67.226 56.0503 67.5494 55.748 67.7962C55.4418 68.0385 55.0796 68.2044 54.7058 68.286C54.3315 68.3664 53.9481 68.3817 53.5744 68.3377C53.2 68.2969 52.8333 68.2031 52.4825 68.059C52.3084 67.9837 52.1374 67.8963 51.9748 67.7847C51.8154 67.6699 51.6527 67.5404 51.543 67.3185C51.529 67.2962 51.5169 67.249 51.5073 67.2126C51.4971 67.1724 51.4901 67.1303 51.492 67.115L51.4907 67.0812V67.0646C51.4907 67.05 51.4888 67.085 51.4914 67.0296L51.4933 67.02L51.5073 66.9415C51.5226 66.8363 51.5602 66.7375 51.5985 66.6411C51.6808 66.4492 51.8058 66.2878 51.9404 66.1456C52.2172 65.8618 52.5322 65.659 52.8894 65.4963L52.7727 65.6417C52.8856 64.988 53.017 64.3253 53.1145 63.678C53.2102 63.0306 53.2485 62.375 53.1981 61.727C53.1483 61.0796 53.0068 60.4412 52.7682 59.8397C52.5329 59.2357 52.1936 58.6745 51.7924 58.1604C50.9888 57.1278 49.9626 56.2758 48.9198 55.4562C47.8719 54.6392 46.8036 53.8362 45.7825 52.9701C45.2735 52.5332 44.7671 52.1008 44.3066 51.5969C43.8493 51.0962 43.4635 50.5363 43.1318 49.9508C42.466 48.7772 42.0119 47.501 41.6955 46.2012C41.3773 44.9001 41.1936 43.5716 41.0915 42.2411C40.992 40.9101 40.9742 39.5726 41.066 38.2422Z" fill="#964B00"/>
<path d="M72.243 27.6265C71.4202 29.9423 69.4507 31.8537 67.4531 32.7996C64.842 34.0369 60.8571 33.0062 55.4977 29.7082C52.2616 28.9722 52.1245 29.8307 55.0857 32.2843C58.6931 35.2736 67.3345 37.4599 71.5758 31.9756C72.6747 30.5546 73.3298 29.263 73.6697 28.1003C73.2054 27.9014 72.7366 27.7196 72.243 27.6265Z" fill="#B25D00"/>
<path d="M72.2446 27.6253C72.6981 27.8492 73.156 28.0635 73.6197 28.2688C74.7282 24.7533 73.6688 22.1065 70.4429 20.3296C72.7657 22.8036 73.0342 25.4007 72.2446 27.6253Z" fill="white"/>
<path d="M62.5485 32.805C60.2015 32.1877 57.8512 31.1557 55.4977 29.7079C52.2616 28.9719 52.1245 29.8304 55.0857 32.284C57.1528 33.9971 60.873 35.443 64.4708 35.3364C63.7801 34.529 63.134 33.6871 62.5485 32.805Z" fill="#964B00"/>
<path d="M9.83984 26.9255C10.5274 28.712 10.8705 31.0131 10.8705 33.8303C10.8705 38.0563 12.9319 45.5797 25.1966 47.2284C37.4607 48.8777 38.182 37.8503 45.7061 39.293C53.2295 40.7357 51.8895 47.641 55.3941 50.8357C58.8982 54.0311 62.8142 58.3598 63.3295 60.1118C63.8449 61.8638 63.6389 69.5932 64.7729 69.7992C65.5287 69.937 66.0095 69.8336 66.2156 69.4905C66.9025 69.9025 67.3489 69.8681 67.5556 69.3872C68.5856 69.5249 69.0671 69.0434 68.9982 67.9445C68.8949 66.2952 66.9369 61.0391 66.5249 58.6684C66.1122 56.2984 64.6696 58.4624 63.6389 53.9277C62.6082 49.393 61.9902 48.4657 61.9902 44.6523C61.9902 40.839 61.1655 31.2542 50.7561 26.1009C43.8163 22.6651 38.2509 21.4629 34.06 22.4935C29.8684 19.9513 26.4333 18.8862 23.7533 19.2988C21.0739 19.7108 16.4359 22.2531 9.83984 26.9255Z" fill="#CD7100"/>
<path d="M66.8228 59.9839C66.4076 60.4992 65.9356 60.968 65.3878 61.3634C64.8712 61.7372 64.2512 62.0204 63.6013 62.1785C63.822 65.0983 63.9068 69.642 64.7729 69.7989C65.5287 69.9366 66.0096 69.8333 66.2156 69.4902C66.9025 69.9022 67.349 69.8678 67.5556 69.3869C68.5857 69.5246 69.0672 69.0431 68.9983 67.9442C68.9116 66.5557 67.5103 62.6116 66.8228 59.9839Z" fill="white"/>
<path d="M22.757 26.3753C26.5136 24.2788 28.3243 21.7398 29.1471 20.1663C27.353 19.5177 25.3701 19.0496 23.7533 19.2983C21.0739 19.7103 16.4359 22.2526 9.83984 26.925C14.5123 28.7568 18.818 28.5737 22.757 26.3753Z" fill="#B25D00"/>
<path d="M30.052 47.1905C31.2319 46.9653 32.385 46.5858 33.4476 46.0271C34.5153 45.4767 35.493 44.7681 36.407 43.9926C37.3254 43.2189 38.1807 42.3751 39.0819 41.5753C39.9824 40.7826 40.9417 40.0153 42.0693 39.5401C42.6318 39.3073 43.2301 39.1562 43.8372 39.102C44.4451 39.0484 45.0586 39.0797 45.6575 39.1887C46.8406 39.4081 48.0256 39.7978 49.0474 40.4649C50.0755 41.1257 50.9123 42.0613 51.5252 43.1099C52.1464 44.1578 52.575 45.2949 53.01 46.413C53.4449 47.5304 53.8844 48.651 54.5483 49.63C54.7135 49.8749 54.8946 50.1071 55.0917 50.3252C55.2862 50.544 55.5018 50.7417 55.7244 50.9477C56.1664 51.3533 56.6058 51.7692 57.0376 52.1882C57.9018 53.0275 58.7456 53.8873 59.5639 54.7719C60.3816 55.6571 61.1769 56.5641 61.9193 57.5189C62.2905 57.9959 62.6476 58.4858 62.964 59.0081C63.0424 59.1395 63.1254 59.267 63.1923 59.408C63.2599 59.547 63.339 59.6784 63.3894 59.8315C63.5214 60.1236 63.5667 60.44 63.6133 60.7378C63.7733 61.9451 63.8212 63.1448 63.9015 64.3445C63.98 65.5423 64.0521 66.7426 64.2204 67.9219C64.2644 68.2159 64.3155 68.508 64.3843 68.7925C64.4194 68.9341 64.459 69.0737 64.5074 69.2064C64.5553 69.3371 64.6146 69.4666 64.6879 69.5546C64.7243 69.598 64.7619 69.6261 64.79 69.6337L64.8002 69.6375C64.8027 69.6388 64.7881 69.6356 64.8015 69.6382L64.8155 69.6395L64.8716 69.6465L64.9832 69.6599C65.0566 69.6669 65.1357 69.6822 65.2039 69.6822L65.4042 69.6765C65.4718 69.6816 65.5368 69.658 65.6032 69.6497C65.6714 69.642 65.732 69.6184 65.7926 69.5955C65.857 69.5782 65.9055 69.54 65.961 69.5113L66.0299 69.4558C66.042 69.4468 66.0483 69.4366 66.0579 69.4271C66.0688 69.4162 66.0751 69.4086 66.0764 69.4067L66.1899 69.2874L66.2984 69.3512C66.3436 69.3773 66.4004 69.4054 66.4527 69.4303C66.5069 69.4551 66.5618 69.4768 66.6166 69.4972C66.6721 69.5164 66.7276 69.533 66.7831 69.5463C66.8105 69.5546 66.8379 69.5566 66.8654 69.5623C66.8934 69.568 66.9202 69.5706 66.947 69.5719C66.9731 69.5738 67.0006 69.577 67.0254 69.5738C67.0503 69.5712 67.0777 69.5738 67.1007 69.568L67.1702 69.5527C67.1906 69.5432 67.211 69.5349 67.2315 69.5266C67.2512 69.517 67.2665 69.5011 67.285 69.4902C67.3054 69.4807 67.3163 69.4583 67.3316 69.443C67.3475 69.4271 67.3628 69.4105 67.3724 69.3875L67.4081 69.3238L67.4674 69.2179L67.5765 69.2281C67.7991 69.2491 68.0542 69.2192 68.2621 69.1331C68.4713 69.0425 68.6378 68.8875 68.7303 68.6815C68.8227 68.4761 68.8508 68.2338 68.8406 67.9895C68.8361 67.8785 68.8138 67.735 68.8011 67.6094L68.7322 67.2382C68.5153 66.2292 68.213 65.2259 67.9145 64.2265C67.6135 63.2265 67.3035 62.2277 67.0121 61.2212C66.8654 60.7187 66.7276 60.2123 66.5981 59.7033C66.5394 59.4463 66.4738 59.1918 66.4266 58.9303L66.3883 58.7358L66.3475 58.5514C66.3188 58.4245 66.2945 58.2912 66.248 58.1866C66.1797 57.9564 66.0452 57.7568 65.8691 57.6101C65.6905 57.4627 65.4495 57.3607 65.2154 57.2178C64.9769 57.0775 64.7696 56.8823 64.591 56.6725C64.5062 56.5647 64.4328 56.4487 64.3544 56.337C64.2868 56.2197 64.2262 56.0991 64.1624 55.9799C63.9347 55.4939 63.7631 54.9887 63.6337 54.4772C63.4991 53.9638 63.3849 53.4599 63.2631 52.9497C63.0259 51.9312 62.7586 50.9254 62.5073 49.9075C62.249 48.8927 62.0551 47.8518 61.9627 46.804L61.9059 46.0169C61.895 45.7548 61.8944 45.492 61.888 45.2299C61.874 44.7037 61.881 44.1833 61.8606 43.6641C61.8236 42.6239 61.7209 41.5855 61.5455 40.56C61.2011 38.5069 60.5544 36.5036 59.6111 34.6464C58.6678 32.7898 57.3986 31.0977 55.8832 29.6639C55.1262 28.9464 54.3123 28.2882 53.4539 27.6925C52.5903 27.1038 51.6859 26.5777 50.756 26.1006C51.6916 26.5668 52.6031 27.0828 53.4749 27.6619C54.3417 28.248 55.1651 28.8986 55.9336 29.6104C57.472 31.0314 58.7699 32.7183 59.7425 34.5788C60.719 36.4379 61.3752 38.4597 61.7394 40.5262C61.9231 41.56 62.0341 42.6066 62.0787 43.6552C62.1023 44.1807 62.0991 44.7063 62.1164 45.2248C62.124 45.485 62.1266 45.7452 62.1387 46.0054L62.1999 46.7816C62.2988 47.8161 62.4952 48.8353 62.7593 49.8449C63.015 50.8552 63.2931 51.868 63.5348 52.8853C63.7867 53.8994 63.9768 54.9339 64.4188 55.8536C64.6337 56.316 64.9431 56.7165 65.3659 56.971C65.5764 57.1011 65.8258 57.2012 66.0535 57.3849C66.278 57.5692 66.4457 57.825 66.5261 58.0961C66.5828 58.2332 66.6039 58.3582 66.6338 58.4858C66.6485 58.5527 66.6625 58.6057 66.6778 58.6841L66.7155 58.8742C66.7614 59.1274 66.8277 59.3793 66.8858 59.6319C67.0152 60.1351 67.1524 60.6377 67.2997 61.1377C67.5918 62.1397 67.9043 63.1372 68.2079 64.1379C68.509 65.1405 68.8144 66.1412 69.0396 67.1763L69.1136 67.5756C69.1276 67.7101 69.1474 67.8249 69.1557 67.9748C69.1672 68.251 69.1391 68.5425 69.0179 68.8148C68.898 69.0884 68.6576 69.3123 68.3865 69.4264C68.1097 69.5374 67.831 69.5719 67.5338 69.5457L67.7021 69.45L67.646 69.554C67.6288 69.5897 67.6033 69.6216 67.5746 69.6522C67.5465 69.6828 67.5229 69.7173 67.4866 69.7396C67.4521 69.7638 67.419 69.7913 67.382 69.8104L67.2678 69.8589C67.2289 69.8697 67.19 69.8774 67.1505 69.8856C67.1115 69.8939 67.0739 69.892 67.0357 69.8952C66.9967 69.899 66.9604 69.8952 66.9234 69.8927C66.8864 69.8908 66.8494 69.8876 66.815 69.8806C66.7799 69.8735 66.7429 69.8697 66.7097 69.8601C66.6409 69.8442 66.5739 69.8238 66.5088 69.8015C66.4444 69.7779 66.3806 69.7523 66.3181 69.7243C66.2556 69.6943 66.1976 69.6669 66.1319 69.6286L66.3539 69.5731C66.2218 69.7568 66.0745 69.8302 65.9131 69.8971C65.8328 69.9277 65.7524 69.9571 65.6701 69.9673C65.5885 69.9794 65.5081 70.0049 65.424 70.0017L65.1733 70.0068C65.0923 70.0056 65.0221 69.9915 64.9462 69.9839L64.834 69.9711L64.7785 69.9647L64.7645 69.9628C64.7683 69.9635 64.7441 69.9609 64.7377 69.9584L64.6943 69.9469C64.5776 69.9105 64.4972 69.8359 64.4373 69.7651C64.3187 69.6203 64.2561 69.4692 64.1994 69.3199C64.1439 69.1707 64.1018 69.0208 64.0642 68.8709C63.9915 68.5705 63.9404 68.2701 63.8958 67.9697C63.7268 66.7675 63.6579 65.5646 63.582 64.3643C63.5042 63.1659 63.4576 61.9604 63.3039 60.7824C63.258 60.4891 63.2185 60.2021 63.1005 59.9437C63.0577 59.8098 62.9812 59.6816 62.9174 59.5509C62.8562 59.4188 62.7752 59.2945 62.6999 59.1676C62.3951 58.6612 62.0437 58.1771 61.6782 57.7045C60.9467 56.7599 60.1577 55.8555 59.3464 54.9728C58.5339 54.0914 57.6952 53.2329 56.8361 52.3955C56.4068 51.9764 55.9738 51.5644 55.5312 51.1569C55.3137 50.9541 55.0853 50.7449 54.8812 50.514C54.6752 50.2857 54.4871 50.042 54.3162 49.7882C53.628 48.7709 53.1943 47.628 52.7651 46.5074C52.3377 45.3849 51.92 44.2585 51.3198 43.2304C50.7267 42.2023 49.9237 41.2934 48.93 40.6448C48.4389 40.3131 47.8981 40.0593 47.3425 39.8501C46.7902 39.6345 46.2073 39.4961 45.6231 39.3769C45.0395 39.2665 44.4431 39.2327 43.8538 39.2806C43.2639 39.329 42.6828 39.4713 42.1331 39.6951C41.0303 40.148 40.0711 40.8903 39.1654 41.671C38.2585 42.4561 37.3911 43.2923 36.4612 44.0576C35.5351 44.8249 34.5446 45.5252 33.4667 46.0648C32.3946 46.6133 31.2338 46.9793 30.052 47.1905Z" fill="#964B00"/>
<path d="M65.4264 67.429C65.4436 67.4844 65.4685 67.5597 65.501 67.6547C65.5495 67.7963 65.6209 67.9979 65.7204 68.2281C65.7708 68.3423 65.8295 68.4635 65.8952 68.5878C65.9615 68.7109 66.0425 68.8327 66.1286 68.9514C66.1713 69.0107 66.2243 69.0617 66.2715 69.1178C66.3263 69.165 66.3799 69.2148 66.4354 69.2601C66.5527 69.3398 66.6771 69.4106 66.8161 69.4329L66.9188 69.4571C66.9341 69.4597 66.9985 69.4635 67.0311 69.4648C67.0814 69.461 67.1471 69.4591 67.1969 69.4361C67.297 69.3978 67.3799 69.3219 67.4354 69.202C67.4916 69.0853 67.526 68.9469 67.5464 68.8117C67.5649 68.6758 67.5751 68.5419 67.5796 68.4175C67.5853 68.1675 67.577 67.9539 67.57 67.8033C67.5643 67.7032 67.5598 67.6235 67.5566 67.5661C67.5828 67.6177 67.614 67.6917 67.6504 67.7868C67.7033 67.9296 67.7715 68.1382 67.8156 68.4003C67.8379 68.5317 67.8557 68.6765 67.8532 68.834C67.8513 68.9909 67.8404 69.1638 67.7696 69.3436C67.7071 69.5184 67.5636 69.7225 67.3455 69.8054C67.2403 69.8519 67.1331 69.8647 67.0145 69.8698C66.9622 69.8685 66.9411 69.8691 66.8716 69.8634L66.723 69.8341C66.5247 69.7939 66.3448 69.6887 66.1905 69.5732C66.1158 69.5126 66.0508 69.4431 65.9883 69.3749C65.9347 69.3015 65.876 69.2314 65.8307 69.1574C65.6458 68.8602 65.5514 68.5578 65.4959 68.2995C65.4666 68.1701 65.4506 68.0502 65.4385 67.9437C65.427 67.8378 65.4226 67.7447 65.4206 67.6688C65.4187 67.5667 65.4206 67.487 65.4264 67.429Z" fill="#964B00"/>
<path d="M29.4818 28.7215C28.6909 28.1143 27.7655 27.666 26.7833 27.3381C25.8744 27.5091 24.9643 27.6755 24.0542 27.8388C22.3213 28.1494 20.5935 28.4415 18.8479 28.6711C18.0876 28.7706 17.33 28.8771 16.5786 29.0143C15.8579 31.8575 15.0122 36.6499 16.7425 38.9128C19.2905 42.2446 23.7002 43.7147 24.2883 50.6724C24.8763 57.6301 25.1703 64.0979 24.2883 66.3519C23.4062 68.6058 21.054 70.37 22.7199 71.3496C24.3858 72.3299 29.286 71.6436 28.8938 67.528C28.5022 63.4117 28.992 51.5545 30.1681 46.4585C28.9269 44.3028 28.8938 42.1139 30.0698 39.8931C31.834 36.5606 33.6957 31.9551 29.4818 28.7215Z" fill="#CD7100"/>
<path d="M28.8454 59.4998C27.8255 61.0158 26.3854 62.2907 24.7941 63.1613C24.7201 64.5536 24.56 65.6544 24.2877 66.3516C23.4056 68.6055 21.0535 70.3696 22.7194 71.3493C24.3853 72.3296 29.2854 71.6433 28.8932 67.5276C28.7318 65.8298 28.7204 62.8137 28.8454 59.4998Z" fill="white"/>
<path d="M23.1384 68.4539C23.0612 68.5859 22.9643 68.7498 22.8476 68.9469C22.7621 69.0942 22.6639 69.2664 22.5657 69.4526C22.4694 69.6395 22.3724 69.8411 22.3048 70.0477C22.271 70.1504 22.2493 70.255 22.2397 70.3551C22.2353 70.4074 22.2378 70.4489 22.2448 70.5069C22.2487 70.5637 22.2557 70.6153 22.2659 70.6619C22.2793 70.7582 22.3118 70.8532 22.3482 70.9374C22.3839 71.0222 22.4292 71.0975 22.4808 71.1606C22.5803 71.2901 22.6951 71.3749 22.7819 71.4202C22.8393 71.4528 22.8865 71.4744 22.9241 71.4859C22.8852 71.484 22.8329 71.4732 22.7678 71.4528C22.7194 71.4368 22.6613 71.4126 22.5982 71.3775C22.5363 71.3411 22.4668 71.2959 22.4017 71.2321C22.3367 71.1696 22.2748 71.0918 22.2225 71.0012C22.1728 70.9087 22.1281 70.8092 22.1001 70.6957C22.0822 70.6383 22.0726 70.5828 22.0663 70.5292C22.0573 70.4782 22.0484 70.4087 22.0497 70.3481C22.0503 70.2231 22.0777 70.1025 22.1116 69.9877C22.1811 69.7569 22.2895 69.547 22.4024 69.3608C22.5153 69.1739 22.6352 69.01 22.7449 68.8761C22.8909 68.6969 23.0223 68.5565 23.1384 68.4539Z" fill="#964B00"/>
<path d="M23.6755 69.5806C23.6551 69.6086 23.6264 69.6463 23.59 69.6947C23.5339 69.7655 23.4612 69.8727 23.3731 69.9977C23.287 70.124 23.1882 70.2719 23.0995 70.4358C23.0122 70.5998 22.9286 70.7815 22.9101 70.962C22.8993 71.0513 22.9069 71.1381 22.9388 71.2133C22.956 71.2503 22.9752 71.286 23 71.3185L23.0389 71.3632L23.0932 71.4123C23.1665 71.4793 23.2265 71.5246 23.3004 71.5698C23.3712 71.6107 23.442 71.6457 23.5115 71.6642C23.6499 71.707 23.7769 71.7051 23.863 71.6866C23.921 71.6751 23.9657 71.6623 23.9975 71.6464C23.9727 71.6719 23.9319 71.6974 23.8751 71.7229C23.8324 71.742 23.7775 71.7599 23.7125 71.772C23.6474 71.7816 23.5702 71.7905 23.4886 71.7765C23.4057 71.7663 23.3183 71.742 23.2316 71.7025C23.1493 71.6642 23.0511 71.6088 22.979 71.5488L22.921 71.5035L22.8572 71.441C22.8183 71.397 22.7838 71.3479 22.7577 71.2924C22.7067 71.1814 22.6945 71.0558 22.706 70.941C22.7341 70.7088 22.8336 70.5098 22.942 70.3427C23.0498 70.1737 23.171 70.034 23.2807 69.9218C23.428 69.7719 23.5594 69.6584 23.6755 69.5806Z" fill="#964B00"/>
<path d="M24.2928 70.0102C24.2616 70.0721 24.2227 70.1582 24.1761 70.2685C24.1092 70.4337 24.0154 70.678 23.981 70.9733C23.9676 71.1187 23.9701 71.2819 24.0403 71.4178C24.0754 71.4854 24.1238 71.5447 24.1882 71.5913L24.2342 71.6212L24.2979 71.6531C24.34 71.6697 24.3694 71.6831 24.4147 71.6933C24.7597 71.7832 25.173 71.7188 25.5608 71.6251C25.9517 71.5256 26.3325 71.3783 26.6756 71.2131C27.0188 71.0472 27.3249 70.8623 27.5724 70.6818C27.8205 70.5032 28.0105 70.3304 28.1317 70.1977C28.214 70.1103 28.2752 70.0389 28.3173 69.9834C28.3077 69.9981 28.295 70.0191 28.2784 70.0465C28.2535 70.0886 28.2146 70.1486 28.1611 70.2219C28.0514 70.3673 27.8804 70.5663 27.6419 70.7698C27.1674 71.1786 26.4294 71.6104 25.6112 71.8222C25.4071 71.8764 25.1979 71.914 24.9874 71.9293C24.7782 71.944 24.5652 71.9408 24.3617 71.8789C24.3133 71.8662 24.2546 71.84 24.2099 71.8196L24.1474 71.7852C24.1162 71.766 24.1009 71.7533 24.0773 71.7367C23.9937 71.6704 23.9255 71.583 23.8866 71.4892C23.8075 71.2992 23.8202 71.111 23.8489 70.9535C23.914 70.6359 24.046 70.4063 24.1347 70.2481C24.1959 70.1435 24.2488 70.0638 24.2928 70.0102Z" fill="#964B00"/>
<path d="M15.747 34.0737C15.7278 34.378 15.7157 34.6828 15.7265 34.987C15.7323 35.2913 15.7597 35.5955 15.7986 35.8965C15.8369 36.1989 15.8956 36.4973 15.9638 36.7926C16.0384 37.0873 16.1207 37.38 16.2279 37.6632C16.2782 37.8067 16.335 37.947 16.3975 38.0854C16.4543 38.2258 16.5257 38.3597 16.592 38.4955C16.659 38.6314 16.74 38.7596 16.8127 38.8916C16.8956 39.0185 16.9747 39.1474 17.0627 39.2698C17.1546 39.3897 17.2381 39.516 17.3395 39.6276L17.4856 39.8005C17.5296 39.8496 17.5927 39.9051 17.645 39.9567C17.8644 40.1697 18.0883 40.3745 18.3128 40.5792C18.7644 40.9874 19.2268 41.3847 19.6853 41.7872C19.9149 41.9881 20.1439 42.1915 20.3697 42.3976C20.5955 42.6036 20.8168 42.8159 21.0355 43.0302C21.2517 43.2484 21.466 43.4678 21.6701 43.698C21.776 43.8103 21.8717 43.9308 21.9712 44.0482C22.0726 44.1642 22.167 44.2861 22.2588 44.4098C22.3532 44.5322 22.4463 44.6547 22.5312 44.7848C22.616 44.9136 22.7091 45.0374 22.785 45.1726C22.8628 45.3059 22.9476 45.436 23.0191 45.5731L23.2314 45.9864L23.234 45.9909L23.2372 45.9998C23.5682 46.9571 24.0178 47.8991 24.227 48.9298C24.2494 49.0618 24.2768 49.1811 24.2959 49.324L24.3342 49.7067L24.4107 50.4726L24.5638 52.004C24.6142 52.5142 24.6709 53.0238 24.7028 53.5372L24.8119 55.0749L24.921 56.6133L24.9777 58.1536L25.0332 59.6945C25.0613 60.2085 25.0498 60.7226 25.0453 61.2367L25.0326 62.7795L25.0262 63.5512L25.0243 63.7438L25.0236 63.8401L25.023 63.8644V63.8765V63.8822L25.0217 63.9026L25.0166 63.9505L24.9739 64.3338C24.8974 64.8695 24.7577 65.3715 24.5785 65.8657C24.3992 66.3581 24.1805 66.8326 23.9439 67.2938C23.4706 68.2173 22.9247 69.0898 22.4368 69.9827L22.4451 69.9648L22.3768 70.1587C22.3672 70.2231 22.3462 70.2888 22.3436 70.352C22.3347 70.4789 22.3494 70.6014 22.3972 70.7136C22.4495 70.8233 22.5184 70.9305 22.6224 71.0172C22.7193 71.109 22.8392 71.1837 22.9648 71.2506C23.093 71.3144 23.227 71.3731 23.3679 71.4171C23.5076 71.4656 23.653 71.5013 23.7991 71.5338L23.9993 71.5721L24.2328 71.5861C24.3878 71.5925 24.5498 71.6135 24.692 71.597C24.8393 71.5855 24.9854 71.588 25.1327 71.5676L25.5766 71.4943L26.0103 71.3737C26.1557 71.3361 26.2909 71.2659 26.4319 71.2143C26.5741 71.1645 26.7055 71.0886 26.8388 71.0191L27.0397 70.9139C27.1048 70.8762 27.1666 70.8322 27.2304 70.7914C27.3548 70.7047 27.4893 70.6339 27.6054 70.535L27.9639 70.2531L27.953 70.2633C27.9658 70.2404 27.9824 70.2333 27.997 70.2002C28.0123 70.1747 28.0283 70.1441 28.0429 70.1064C28.0742 70.0375 28.1067 69.954 28.1463 69.8717C28.1641 69.8303 28.189 69.7888 28.2113 69.748C28.2324 69.7059 28.2598 69.667 28.2872 69.6274C28.3146 69.5885 28.3408 69.5484 28.374 69.5139L28.469 69.4068L28.4339 69.4559C28.5404 69.2416 28.6463 69.033 28.7075 68.8251C28.7381 68.7218 28.7547 68.6191 28.7579 68.5202L28.7464 68.1675L28.6954 66.7223C28.6795 66.2408 28.6565 65.7599 28.654 65.2764L28.6323 63.828C28.6233 63.3452 28.6163 62.8624 28.6246 62.3796L28.6393 60.9311L28.6482 60.2073L28.6763 59.484L28.7318 58.0368C28.7445 57.554 28.779 57.0725 28.8128 56.591L28.911 55.1464C28.9365 54.6642 28.9964 54.1846 29.0417 53.7043L29.1865 52.2636C29.2312 51.7827 29.3109 51.3062 29.3715 50.8272L29.5679 49.3929C29.6419 48.9158 29.735 48.4419 29.8179 47.9668L30.0737 46.5419L30.0801 46.5891L29.8996 46.1918L29.7401 45.7855L29.603 45.3716L29.4875 44.9506L29.3957 44.5252L29.3262 44.0954L29.2809 43.6623L29.2605 43.2273L29.265 42.7923L29.2956 42.3587L29.3542 41.9281L29.4404 41.5021L29.5545 41.0837L29.698 40.6742L29.8696 40.2763L30.0699 39.8929L29.8798 40.2814L29.7184 40.6819L29.5864 41.0933L29.4837 41.5123L29.4085 41.9364L29.3613 42.365L29.3389 42.7949L29.3428 43.2254L29.3715 43.6546L29.4244 44.0813L29.5009 44.5042L29.5998 44.9226L29.721 45.3346L29.8638 45.7389L30.0278 46.1357L30.2134 46.5228L30.2236 46.5445L30.2197 46.57L29.9914 47.9961C29.9181 48.4719 29.8345 48.9458 29.7695 49.4222L29.5915 50.8553C29.5367 51.3337 29.4627 51.8094 29.4231 52.2891L29.2956 53.7273C29.2567 54.2063 29.2018 54.6846 29.182 55.1661L29.101 56.6076C29.0736 57.0878 29.0443 57.5681 29.0373 58.049L28.9984 59.4923L28.9792 60.2136L28.9786 60.9356L28.9748 62.3796C28.9684 62.8605 28.978 63.3414 28.9882 63.8223L29.0156 65.2649C29.02 65.7452 29.0449 66.2274 29.0628 66.7089L29.1195 68.1535L29.1323 68.5234C29.1291 68.6657 29.1055 68.8021 29.0685 68.9303C28.9933 69.1855 28.8785 69.4087 28.7719 69.6255L28.7624 69.6453L28.7369 69.6746L28.6648 69.7563C28.6393 69.7824 28.6208 69.813 28.5997 69.843C28.5787 69.8724 28.5583 69.9017 28.5417 69.9355C28.5245 69.968 28.5053 69.9986 28.49 70.035C28.4569 70.1039 28.4295 70.1772 28.3918 70.2614C28.3759 70.3016 28.3542 70.3462 28.3268 70.3934C28.3064 70.4374 28.2598 70.4885 28.2234 70.5337L28.2203 70.5376L28.2126 70.544L27.835 70.8424C27.7132 70.947 27.5697 71.0248 27.4383 71.1167C27.3707 71.1601 27.3044 71.2066 27.2355 71.2474L27.0212 71.3616C26.8783 71.4369 26.738 71.5179 26.585 71.5727C26.4332 71.6295 26.2877 71.7041 26.1308 71.7462C25.9746 71.7902 25.819 71.8374 25.6621 71.8782L25.1812 71.9592C25.0198 71.9828 24.8521 71.9822 24.6875 71.9937C24.5179 72.0102 24.368 71.9898 24.2105 71.9841L23.9764 71.9713L23.9617 71.9701L23.9368 71.9675L23.933 71.9669L23.9254 71.9656L23.8954 71.9599L23.8354 71.949L23.7162 71.926C23.5567 71.891 23.3985 71.8527 23.2417 71.7998C23.0848 71.7507 22.9304 71.685 22.7793 71.6097C22.6294 71.5306 22.4814 71.4401 22.3494 71.3176C22.2129 71.2028 22.1013 71.0459 22.0222 70.8743C21.9463 70.6983 21.9214 70.5031 21.9348 70.3195C21.9399 70.227 21.9648 70.1402 21.9807 70.0509L22.0675 69.8028L22.0694 69.7977L22.0758 69.7856C22.5726 68.8774 23.1217 68.0119 23.5873 67.1101C23.8208 66.6598 24.0338 66.2012 24.2073 65.7305C24.3801 65.2618 24.516 64.77 24.5868 64.2898L24.6308 63.9084L24.6365 63.8605C24.6346 63.8873 24.6359 63.8644 24.6352 63.8688L24.6359 63.8624V63.851V63.8267L24.6371 63.7311L24.6397 63.5391L24.6493 62.7718L24.6678 61.2367C24.6741 60.7251 24.6869 60.2136 24.6614 59.7021L24.6116 58.167L24.5612 56.6324L24.4586 55.0998L24.3559 53.5672C24.3284 53.0563 24.2787 52.5455 24.2341 52.0346L24.0988 50.5013L24.0312 49.7353L23.9974 49.352C23.9834 49.2404 23.9566 49.1084 23.9368 48.9879C23.8412 48.4948 23.6894 48.0114 23.5172 47.5324C23.3456 47.0522 23.153 46.5751 22.991 46.0821L22.9961 46.0961L22.7952 45.6937C22.727 45.5597 22.646 45.4328 22.572 45.3021C22.4999 45.17 22.4106 45.0482 22.3296 44.9219C22.2486 44.795 22.1593 44.6738 22.0681 44.5533C21.9795 44.4315 21.8889 44.3109 21.7913 44.1961C21.695 44.0801 21.6019 43.9608 21.4992 43.8492C21.3015 43.6208 21.0923 43.4014 20.8818 43.184C20.0272 42.3229 19.0998 41.5282 18.2076 40.6934C17.9856 40.4829 17.763 40.2718 17.5487 40.0556C17.4945 39.9995 17.4422 39.9535 17.3854 39.8885L17.2394 39.7093C17.138 39.5932 17.0551 39.4624 16.9639 39.3387C16.8765 39.2118 16.798 39.0791 16.717 38.949C16.645 38.8132 16.5652 38.6811 16.5002 38.5421C16.4351 38.4031 16.365 38.2659 16.3108 38.1224C16.2502 37.9815 16.1953 37.838 16.1475 37.6926C16.0442 37.4036 15.967 37.1064 15.8975 36.8079C15.8337 36.5088 15.7833 36.2065 15.7521 35.9023C15.7214 35.5981 15.701 35.2926 15.7036 34.9877C15.6998 34.6815 15.7202 34.3773 15.747 34.0737Z" fill="#964B00"/>
<path d="M25.4883 15.8942C24.6069 15.5874 22.9812 15.949 20.6111 16.9797C17.0554 18.5257 7.04656 21.2542 7.6193 22.9041C8.0007 24.0043 12.5035 23.4896 21.1265 21.36L25.4883 15.8942Z" fill="#287F7F"/>
<path d="M24.4754 6.17571C22.3222 5.9461 20.9255 6.74781 20.2838 8.58018C19.6429 10.4126 18.8412 8.76323 17.8794 3.63347L17.3296 2.32791C18.8412 -0.191371 20.5587 -0.46626 22.4823 1.50324C24.4065 3.47274 25.0705 5.03023 24.4754 6.17571Z" fill="#AD5A00"/>
<path d="M17.0536 2.25888C17.8323 0.65547 19.1149 -0.00847036 20.9014 0.266418C22.6878 0.541306 24.2906 2.23592 25.711 5.3509C25.6651 7.41224 25.4131 8.35107 24.9552 8.16802C24.2677 7.89313 22.8938 1.15933 21.1763 0.747313C19.4581 0.335299 18.0843 1.09108 17.6716 2.67089C17.3974 3.72452 17.1907 3.5874 17.0536 2.25888Z" fill="#CD7100"/>
<path d="M0.839125 5.69413C2.99167 5.46516 4.38907 6.26686 5.03006 8.09924C5.67167 9.93162 6.47338 8.28229 7.43517 3.15189L7.98495 1.84696C6.65643 -0.398063 5.03006 -0.535188 3.10648 1.43431C1.1829 3.40382 0.427112 4.82418 0.839125 5.69413Z" fill="#AD5A00"/>
<path d="M8.67252 2.05283C7.89378 0.449418 6.61118 -0.214525 4.82473 0.0603632C3.03827 0.335252 1.4355 2.02987 0.0151367 5.14484C0.0610577 7.20555 0.312985 8.14501 0.77092 7.96133C1.45782 7.68708 2.83226 0.953272 4.54984 0.541259C6.26741 0.128607 7.64185 0.884391 8.05387 2.46484C8.32876 3.51847 8.5354 3.38135 8.67252 2.05283Z" fill="#CD7100"/>
<path d="M7.05786 16.9275C7.23007 20.2944 7.88253 22.7849 9.01652 24.3998C10.1499 26.0141 15.2688 23.7984 24.3726 17.7521C22.7577 13.595 21.2117 10.7951 19.7346 9.35241C18.2575 7.90973 14.0321 10.4347 7.05786 16.9275Z" fill="#CD7100"/>
<path d="M11.765 1.98374C8.86811 0.622695 6.76085 1.63041 5.44381 5.00688C3.22557 10.6934 4.13825 13.4583 6.19959 15.6567C8.26093 17.8552 14.4966 21.7272 18.8419 14.214C22.1399 8.51091 20.4077 4.12162 17.1243 2.18975C15.5668 1.27388 13.7804 1.205 11.765 1.98374Z" fill="#CD7100"/>
<path d="M10.9757 1.77124C11.6211 3.92634 11.3954 5.80081 10.2984 7.39402C8.65286 9.78383 5.4403 11.1551 5.87145 15.818C6.30259 20.4802 7.28161 20.3233 10.2595 19.5395C13.2373 18.7563 14.2163 21.773 16.4888 18.7167C18.7612 15.6611 16.9984 11.312 13.8247 8.49102C11.7092 6.61081 11.3545 4.34984 12.7615 1.70874C12.3667 1.76742 12.0344 1.85926 11.7653 1.98363C11.4674 1.87967 11.2047 1.80887 10.9757 1.77124Z" fill="#DD8422"/>
<path d="M6.44032 12.1181C6.31531 12.3649 6.19158 12.7189 6.06848 13.18C5.97728 13.525 5.89054 13.9517 5.85674 14.4454C5.82421 14.9384 5.84526 15.499 5.97473 16.0877C6.03787 16.3811 6.12078 16.7032 6.17882 17.031C6.24133 17.3594 6.29235 17.6994 6.36059 18.0406C6.43011 18.3806 6.50856 18.7294 6.66036 19.0362C6.81024 19.3436 7.04622 19.5879 7.37213 19.6925C7.69613 19.8022 8.0737 19.7996 8.45 19.7537C8.6407 19.7308 8.82566 19.695 9.02337 19.6529C9.21918 19.6134 9.41689 19.5732 9.61461 19.533C10.0062 19.4463 10.4221 19.3889 10.8341 19.3264C11.0452 19.3124 11.2563 19.2932 11.4687 19.2837L11.7933 19.2996L11.9553 19.3079C12.0095 19.3124 12.0625 19.3264 12.1154 19.3353L12.4349 19.3972C12.5382 19.4246 12.6377 19.4578 12.7392 19.4878C12.9445 19.5471 13.1346 19.6179 13.3291 19.6848C13.5224 19.7499 13.7143 19.8156 13.9063 19.8806L14.0498 19.9291L14.1219 19.9527L14.1576 19.9648C14.1627 19.9667 14.1417 19.961 14.1551 19.9642L14.1646 19.9667L14.1825 19.9712L14.3298 20.0095C14.3751 20.0178 14.4127 20.0197 14.4548 20.0261C14.6238 20.042 14.8056 20.0292 14.9759 19.982C15.1468 19.9336 15.312 19.857 15.4676 19.7633C15.7744 19.5649 16.0429 19.3002 16.2655 19.0062C16.7132 18.4163 17.0175 17.7421 17.2133 17.082C17.4072 16.4193 17.4964 15.7637 17.4786 15.1623C17.4741 15.0124 17.4652 14.865 17.4454 14.7228L17.432 14.6163L17.4129 14.5136C17.3995 14.4428 17.3867 14.3733 17.374 14.3044C17.3179 14.0302 17.2872 13.7604 17.212 13.527C17.0921 13.0492 16.9454 12.6385 16.791 12.3177C16.712 12.1583 16.6437 12.0135 16.5653 11.8993C16.5283 11.84 16.4945 11.7858 16.4632 11.736C16.4269 11.6895 16.3943 11.6474 16.3644 11.6098C16.2859 11.509 16.2183 11.4375 16.1622 11.3967C16.2215 11.4337 16.2942 11.4994 16.3816 11.5951C16.4141 11.6308 16.4505 11.671 16.4906 11.715C16.5257 11.7628 16.5646 11.8151 16.6061 11.8719C16.6954 11.9816 16.7738 12.1232 16.8618 12.2813C17.0379 12.5983 17.2094 13.0046 17.3606 13.4893C17.4524 13.7291 17.4958 13.99 17.5679 14.2623C17.6387 14.5302 17.6954 14.8395 17.7152 15.1508C17.7605 15.7796 17.6948 16.4672 17.5098 17.1643C17.3249 17.8601 17.0315 18.5783 16.5557 19.2243C16.3197 19.5471 16.0295 19.8481 15.6743 20.0866C15.4931 20.2008 15.2961 20.2978 15.0824 20.3615C14.8662 20.4228 14.6404 20.4425 14.4083 20.4215C14.3496 20.4132 14.2864 20.4068 14.2322 20.396L14.0849 20.359L14.0364 20.3462L14.0001 20.3341L13.9274 20.3105L13.7813 20.262C13.5874 20.1976 13.3929 20.1332 13.1977 20.0682C13.0057 20.0037 12.8106 19.9317 12.6212 19.8794C12.5261 19.8519 12.4305 19.8207 12.3354 19.7958L12.0497 19.7416C12.0019 19.7333 11.9553 19.7206 11.9068 19.7161L11.7614 19.7084L11.4712 19.6919C11.2748 19.7008 11.0764 19.7174 10.8794 19.7288C10.4833 19.7869 10.0904 19.8373 9.69114 19.9234C9.2938 19.9961 8.90793 20.0905 8.49337 20.1338C8.08582 20.1747 7.65978 20.1778 7.25159 20.0337C7.04877 19.9623 6.85743 19.8456 6.705 19.6938C6.55129 19.5432 6.4384 19.3634 6.35549 19.1823C6.18903 18.8168 6.12078 18.4475 6.05892 18.0961C6.00024 17.7434 5.95623 17.4028 5.90776 17.0763C5.86312 16.7478 5.79806 16.4449 5.74321 16.1342C5.62968 15.5137 5.64244 14.9326 5.70494 14.4307C5.76808 13.9281 5.88034 13.5008 5.99195 13.157C6.10292 12.8133 6.22156 12.5543 6.30383 12.3802C6.35996 12.2648 6.40524 12.1774 6.44032 12.1181Z" fill="#964B00"/>
<path d="M17.6308 15.8748C17.7208 15.7383 17.847 15.5527 18.009 15.3167C18.0683 15.2281 18.1411 15.133 18.208 15.0233C18.2718 14.913 18.3413 14.7931 18.4153 14.6655C18.4887 14.538 18.5671 14.4021 18.65 14.2593C18.6711 14.2242 18.6921 14.1878 18.7132 14.1515C18.7317 14.1145 18.7508 14.0775 18.7693 14.0399C18.8088 13.9614 18.849 13.8811 18.8898 13.7988C19.0486 13.469 19.2489 13.1176 19.395 12.733C19.4747 12.543 19.5563 12.3472 19.6399 12.1469C19.719 11.9454 19.7815 11.7311 19.8554 11.5174C20.0181 11.0939 20.0991 10.6341 20.2203 10.1774C20.2911 9.71118 20.3816 9.23857 20.388 8.75959L20.409 8.40179L20.3944 8.04463C20.3848 7.80737 20.3835 7.56947 20.3389 7.33795C20.2847 6.87109 20.1769 6.42081 20.0461 5.99285C19.9677 5.78366 19.895 5.5751 19.8159 5.37419C19.7215 5.1803 19.629 4.99024 19.5391 4.80528C19.328 4.45258 19.1284 4.11455 18.8962 3.83711C18.8407 3.76568 18.7865 3.69489 18.7336 3.62664C18.68 3.5584 18.6175 3.50164 18.5626 3.43913C18.4497 3.31795 18.3432 3.20251 18.2425 3.09472C18.0224 2.89765 17.8298 2.72417 17.6653 2.58832C17.4357 2.42185 17.2545 2.28919 17.1238 2.1897C17.2654 2.26942 17.4605 2.38231 17.708 2.529C17.8853 2.65018 18.0951 2.80772 18.3375 2.98821C18.4491 3.08962 18.569 3.19741 18.6947 3.31093C18.7565 3.36834 18.8248 3.42382 18.8841 3.49015C18.9434 3.55712 19.0034 3.62537 19.0652 3.69552C19.3242 3.96595 19.555 4.30015 19.791 4.65923C19.8943 4.84801 20.0009 5.0419 20.1099 5.24026C20.205 5.44499 20.2847 5.66247 20.3752 5.87932C20.5251 6.32387 20.6629 6.79392 20.7241 7.28502C20.7745 7.52865 20.7809 7.77739 20.7949 8.02741L20.816 8.40243L20.7994 8.77745C20.7924 9.28067 20.6986 9.77304 20.6233 10.259C20.5009 10.7342 20.3988 11.2087 20.2273 11.6431C20.1463 11.8618 20.0806 12.0812 19.99 12.2872C19.8956 12.492 19.8044 12.6922 19.7151 12.8874C19.5487 13.286 19.3344 13.6177 19.1583 13.941C19.1131 14.0207 19.069 14.0992 19.0257 14.1757C19.0027 14.2159 18.9804 14.2548 18.9587 14.2937C18.9338 14.3301 18.9096 14.3658 18.886 14.4009C18.7903 14.5412 18.6998 14.6745 18.6149 14.7995C18.5301 14.9245 18.4504 15.0412 18.377 15.149C18.3011 15.2542 18.2227 15.3435 18.1564 15.4277C17.9765 15.6497 17.8336 15.8231 17.7278 15.9481L17.6308 15.8748Z" fill="#964B00"/>
<path d="M5.44378 5.00659C5.40997 5.11374 5.3615 5.26043 5.29836 5.44603C5.25053 5.58507 5.19249 5.75408 5.12552 5.94733C5.05919 6.14186 5.00115 6.36445 4.92398 6.60235C4.88698 6.72162 4.84872 6.84598 4.80918 6.97482C4.77473 7.10493 4.73902 7.24014 4.70266 7.37854C4.66631 7.51694 4.62932 7.65853 4.59105 7.80395C4.55533 7.94936 4.52727 8.09988 4.49411 8.25168C4.46349 8.40411 4.42522 8.55718 4.39971 8.71472C4.37675 8.87225 4.35315 9.0317 4.32956 9.19242C4.30022 9.35251 4.28682 9.51514 4.27598 9.67778C4.26641 9.84106 4.24218 10.0043 4.24409 10.1682C4.24281 10.3315 4.24154 10.4948 4.23963 10.6574C4.24345 10.8194 4.26259 10.9802 4.27279 11.1402C4.27853 11.3003 4.31361 11.4553 4.33466 11.6109C4.34678 11.6881 4.35826 11.7653 4.37037 11.8412C4.38887 11.9164 4.40737 11.9911 4.42586 12.0644C4.49092 12.3616 4.58914 12.6403 4.68353 12.9031C4.7371 13.0326 4.7894 13.1588 4.84043 13.2807C4.89783 13.3999 4.95331 13.5154 5.00689 13.6257C5.05791 13.738 5.11914 13.84 5.17272 13.9389C5.22757 14.0377 5.27668 14.1328 5.3277 14.2195C5.43294 14.3923 5.52223 14.5448 5.60068 14.6672C5.70591 14.8305 5.78818 14.96 5.84622 15.055L5.66509 15.187C5.59366 15.1003 5.49735 14.9785 5.37617 14.8228C5.28688 14.7049 5.18356 14.5569 5.06174 14.3892C4.94821 14.215 4.81173 14.0237 4.68863 13.7973C4.62677 13.6844 4.56235 13.5664 4.49538 13.4446C4.43798 13.3177 4.37803 13.1863 4.3168 13.0517C4.2071 12.7762 4.09166 12.4822 4.02086 12.1645C4.00045 12.0861 3.98004 12.007 3.95964 11.9266C3.9456 11.8456 3.93157 11.7634 3.91818 11.6811C3.89203 11.5159 3.85568 11.3494 3.85185 11.1791C3.84228 11.0095 3.82506 10.8379 3.82251 10.6664C3.82634 10.4948 3.82953 10.3226 3.83271 10.1504C3.83654 9.97818 3.86652 9.80853 3.88182 9.63824C3.89905 9.46795 3.91818 9.29957 3.95326 9.13502C3.98515 8.96983 4.0164 8.80592 4.04765 8.64456C4.08209 8.48383 4.12929 8.32821 4.16883 8.17387C4.21156 8.0208 4.24664 7.86773 4.29448 7.72231C4.34422 7.57753 4.3927 7.43594 4.43989 7.29818C4.48773 7.16105 4.53365 7.02712 4.57829 6.89765C4.63123 6.77136 4.68162 6.64891 4.73009 6.53155C4.82767 6.29748 4.91441 6.08191 5.0037 5.89759C5.09363 5.71327 5.17144 5.55254 5.23586 5.41988C5.3226 5.24385 5.39148 5.10609 5.44378 5.00659Z" fill="#964B00"/>
<path d="M21.0234 12.3931C21.0431 12.5372 21.0572 12.7368 21.0648 12.9913C21.0674 13.1827 21.0725 13.4154 21.0572 13.6814C21.0463 13.948 21.0234 14.249 20.9787 14.575C20.9386 14.9021 20.8748 15.2536 20.7887 15.6228C20.6968 15.9896 20.5948 16.378 20.443 16.7645C20.2995 17.1535 20.1254 17.5477 19.9117 17.9297C19.8039 18.1204 19.6936 18.3118 19.5673 18.4942C19.4499 18.683 19.3103 18.8571 19.1763 19.0357C19.0367 19.2085 18.8855 19.3737 18.7343 19.5363C18.5717 19.6881 18.425 19.8552 18.2509 19.9904C18.1667 20.0612 18.0832 20.1314 17.9996 20.2016C17.9167 20.2717 17.8236 20.3285 17.7368 20.3916C17.6488 20.4535 17.5614 20.5147 17.4741 20.5753C17.3829 20.6295 17.2923 20.6831 17.2024 20.736C17.1124 20.7877 17.0251 20.8432 16.9345 20.891C16.842 20.9357 16.7508 20.9797 16.6609 21.023C16.5703 21.0658 16.4804 21.1079 16.3924 21.1499C16.3012 21.185 16.2106 21.2195 16.1219 21.2533C15.7712 21.4012 15.4204 21.4861 15.1028 21.5734C14.7788 21.6379 14.486 21.7112 14.2188 21.7342C13.9535 21.7661 13.7238 21.7999 13.5319 21.8018C13.278 21.8113 13.0784 21.8184 12.933 21.8235C13.0758 21.7986 13.2723 21.7641 13.5223 21.7208C13.7105 21.6965 13.933 21.6334 14.1901 21.5792C14.4484 21.5307 14.7284 21.4299 15.039 21.3458C15.192 21.2966 15.3477 21.2335 15.5097 21.1748C15.6742 21.12 15.8362 21.0454 16.0033 20.9695C16.0869 20.9318 16.1717 20.8942 16.2572 20.8559C16.3394 20.8113 16.423 20.766 16.5072 20.7201C16.592 20.6748 16.6768 20.6289 16.7629 20.583C16.8478 20.5338 16.9294 20.4784 17.0136 20.4261C17.0978 20.3725 17.182 20.3189 17.2674 20.2647C17.3478 20.2041 17.4288 20.1435 17.5104 20.0823C17.6769 19.9637 17.8312 19.8265 17.9888 19.6913C18.152 19.5618 18.2892 19.4011 18.4416 19.2563C18.5825 19.1007 18.7235 18.9426 18.8549 18.778C18.9831 18.6096 19.1183 18.447 19.2312 18.2684C19.3536 18.0962 19.4601 17.9151 19.5654 17.7346C19.6706 17.5547 19.7625 17.3678 19.8581 17.1867C19.943 16.9998 20.0348 16.8187 20.1062 16.6318C20.2612 16.2638 20.3837 15.8958 20.4927 15.5438C20.5922 15.1898 20.6822 14.8518 20.7466 14.5354C20.8805 13.904 20.9449 13.3663 20.9832 12.9888C21.0068 12.7368 21.0202 12.5385 21.0234 12.3931Z" fill="#964B00"/>
<path d="M0.0147646 5.14471C0.0281582 5.30607 0.0504805 5.52739 0.0830078 5.80865C0.106606 6.01912 0.139771 6.27424 0.191432 6.56316C0.246282 6.85017 0.310699 7.17927 0.43762 7.49944C0.470785 7.57789 0.509053 7.6557 0.554974 7.71884C0.600896 7.78326 0.657658 7.82599 0.69465 7.82726C0.704217 7.82726 0.713784 7.82726 0.724626 7.82535C0.72654 7.82408 0.745036 7.82152 0.732918 7.82344L0.767997 7.81005C0.777564 7.79984 0.804989 7.78581 0.831776 7.75392C0.884075 7.69779 0.933823 7.61807 0.977192 7.53261C1.15131 7.18437 1.27249 6.7596 1.40196 6.32909C1.52888 5.89539 1.64687 5.44001 1.78464 4.9808C1.92049 4.52159 2.06399 4.05345 2.22918 3.59169C2.39819 3.13056 2.58634 2.67327 2.81276 2.23893C3.03981 1.80523 3.31024 1.39322 3.65273 1.052C3.98757 0.709506 4.43275 0.460129 4.88813 0.409744C4.99847 0.394437 5.11838 0.395074 5.21532 0.39635C5.31482 0.395712 5.41878 0.402728 5.52082 0.409105C5.72236 0.424412 5.91562 0.446736 6.0993 0.485641C6.46794 0.555798 6.79449 0.689097 7.0528 0.852372C7.31174 1.01756 7.4967 1.21783 7.61342 1.40087C7.73268 1.58456 7.77988 1.75102 7.80603 1.862C7.82261 1.93662 7.83091 1.99466 7.83027 2.03548C7.8258 1.99466 7.8105 1.93853 7.78498 1.86774C7.74863 1.76123 7.67656 1.61007 7.54964 1.44616C7.42336 1.28224 7.23329 1.11131 6.97882 0.980568C6.72434 0.84982 6.41118 0.758616 6.06103 0.712695C5.88691 0.687821 5.70132 0.678254 5.51126 0.67634C5.32693 0.678254 5.11008 0.677616 4.93086 0.707593C4.55393 0.767545 4.20187 0.993323 3.90912 1.30393C3.61319 1.61389 3.37593 2.00677 3.16546 2.42006C2.95499 2.83527 2.77704 3.27917 2.61632 3.73073C2.45304 4.18165 2.30571 4.64022 2.16667 5.0956C2.02955 5.55162 1.89051 6.00063 1.7502 6.43624C1.60733 6.87249 1.46765 7.29407 1.24953 7.68313C1.19213 7.78007 1.13026 7.87574 1.0397 7.96311C0.997602 8.00585 0.9402 8.04922 0.860476 8.08302L0.82476 8.09386C0.789682 8.10534 0.783304 8.10279 0.760981 8.10726C0.722714 8.11172 0.682532 8.10981 0.644265 8.10215C0.483541 8.06516 0.398077 7.95291 0.340038 7.86362C0.281361 7.76923 0.24437 7.67547 0.213118 7.58363C0.0944887 7.21754 0.0625988 6.88078 0.0364493 6.58357C0.012851 6.28572 0.0051973 6.02678 0.00137055 5.81376C-0.00309399 5.60073 0.00455928 5.43299 0.00711045 5.31883C0.0109372 5.24293 0.0128512 5.18489 0.0147646 5.14471Z" fill="#964B00"/>
<path d="M25.6287 5.2474C25.6338 5.28885 25.6415 5.34817 25.6517 5.42534C25.6651 5.54142 25.6861 5.71171 25.6976 5.92983C25.7097 6.1486 25.7199 6.41392 25.7085 6.7207C25.6912 7.02683 25.6747 7.37826 25.5184 7.75201C25.4769 7.84449 25.424 7.93952 25.3424 8.02498C25.2633 8.10981 25.1427 8.17996 25.012 8.19655C24.9438 8.20484 24.8889 8.20547 24.813 8.18762C24.7964 8.18698 24.7409 8.16402 24.7059 8.14489C24.6778 8.12575 24.6453 8.10662 24.6229 8.08429C24.5241 7.99755 24.459 7.89934 24.3991 7.80048C24.1733 7.4025 24.0343 6.96943 23.8882 6.52234C23.6006 5.62943 23.3442 4.67083 23.0087 3.74603C22.8441 3.28363 22.6605 2.82889 22.4417 2.40603C22.2248 1.98445 21.9729 1.58775 21.6591 1.29117C21.3485 0.99141 20.969 0.814104 20.5844 0.818569C20.175 0.823033 19.7974 0.890639 19.4619 1.01756C19.129 1.14193 18.8433 1.30967 18.6137 1.49144C18.3828 1.6713 18.2068 1.86072 18.0728 2.02463C17.9402 2.19046 17.8458 2.32886 17.7877 2.42708C17.7488 2.49214 17.7214 2.54252 17.7048 2.5776L17.5862 2.52849C17.6015 2.48703 17.6264 2.43027 17.6614 2.35884C17.7137 2.25105 17.7954 2.09543 17.9242 1.91238C18.0537 1.73125 18.2259 1.51823 18.4612 1.30967C18.6953 1.10175 18.99 0.891277 19.3516 0.740758C19.7081 0.587688 20.1335 0.486917 20.5793 0.469696C21.0558 0.446736 21.5609 0.661034 21.9232 1.00544C22.2937 1.34538 22.5731 1.77143 22.8078 2.21597C23.0393 2.6637 23.2281 3.13375 23.3971 3.60827C23.7281 4.55922 23.9737 5.52866 24.2224 6.42157C24.3525 6.86356 24.4737 7.30109 24.6536 7.65761C24.6995 7.74435 24.7511 7.82535 24.8066 7.87829C24.82 7.8936 24.8334 7.89997 24.8462 7.91145C24.8583 7.914 24.8462 7.92038 24.8806 7.92804C24.9029 7.93697 24.952 7.94079 24.9833 7.93824C25.1223 7.93378 25.241 7.80813 25.3181 7.65634C25.4712 7.34701 25.5241 7.0026 25.5656 6.70922C25.6032 6.41137 25.6166 6.14796 25.6236 5.93111C25.6326 5.64155 25.6338 5.41386 25.6287 5.2474Z" fill="#964B00"/>
<path d="M6.50415 6.02034C6.52073 5.97761 6.55071 5.92148 6.59472 5.85387C6.66041 5.75246 6.76756 5.61215 6.93275 5.4763C7.01438 5.40806 7.11069 5.34045 7.2223 5.28305C7.27715 5.25371 7.33774 5.23011 7.39833 5.20269C7.45956 5.17781 7.52653 5.16251 7.5935 5.1421C7.66111 5.12679 7.7319 5.11722 7.80333 5.10638C7.87477 5.10192 7.94811 5.1 8.0221 5.09937C8.0948 5.10511 8.16879 5.11276 8.24277 5.12232C8.31548 5.13508 8.38628 5.15549 8.45835 5.17271L8.48513 5.17973L8.49853 5.18355L8.50554 5.18547L8.52276 5.19185L8.56932 5.21034L8.6618 5.2467C8.72048 5.26583 8.79255 5.3092 8.85952 5.34619C8.93031 5.38191 8.98771 5.42719 9.04448 5.47247C9.10379 5.51393 9.15418 5.56559 9.20265 5.61725C9.30151 5.71739 9.37549 5.83346 9.43481 5.94508C9.49476 6.05669 9.53175 6.17022 9.5579 6.27482C9.58341 6.37941 9.59425 6.477 9.59808 6.56246C9.60254 6.64856 9.59744 6.72255 9.59106 6.78314C9.58277 6.8635 9.57002 6.926 9.55471 6.96937C9.54642 6.92409 9.53111 6.86414 9.50943 6.78951C9.49348 6.73403 9.46988 6.6677 9.44373 6.59371C9.41503 6.52037 9.3774 6.44064 9.33595 6.35709C9.29003 6.27482 9.23645 6.19063 9.17395 6.10835C9.10953 6.02799 9.03555 5.95018 8.95008 5.8813C8.86845 5.81242 8.76831 5.74672 8.67328 5.70016C8.62417 5.67593 8.58208 5.65042 8.51383 5.6281L8.42072 5.59302L8.37416 5.57516L8.37097 5.57388H8.36969C8.3665 5.57261 8.39074 5.5809 8.3799 5.57707L8.37416 5.5758L8.36331 5.57324L8.34227 5.56814C8.28423 5.55411 8.22746 5.53562 8.17006 5.52413C8.11202 5.51521 8.05462 5.50628 7.99722 5.49799C7.93982 5.49543 7.88242 5.49288 7.82629 5.49033C7.76953 5.49352 7.7134 5.49735 7.65855 5.50054C7.54885 5.51648 7.44107 5.53498 7.34093 5.56623C7.24144 5.59939 7.14641 5.63447 7.06031 5.67465C6.88874 5.75629 6.7497 5.84367 6.65403 5.91C6.59025 5.95464 6.53987 5.99164 6.50415 6.02034Z" fill="#964B00"/>
<path d="M16.8457 6.02034C16.81 5.99164 16.7602 5.95464 16.6965 5.91C16.6008 5.84367 16.4611 5.75629 16.2902 5.67465C16.2041 5.63447 16.1091 5.59939 16.0096 5.56623C15.9094 5.53498 15.8016 5.51648 15.6919 5.50054C15.6371 5.49735 15.581 5.49352 15.5242 5.49033C15.4674 5.49288 15.4107 5.49543 15.3533 5.49799C15.2959 5.50628 15.2385 5.51521 15.1804 5.52413C15.123 5.53562 15.0656 5.55411 15.0082 5.56814L14.9865 5.57324L14.9763 5.5758L14.9706 5.57707C14.9598 5.5809 14.984 5.57261 14.9808 5.57388H14.9795L14.9763 5.57516L14.9298 5.59302L14.836 5.6281C14.7678 5.65042 14.7263 5.67593 14.6772 5.70016C14.5822 5.74672 14.4821 5.81242 14.3998 5.8813C14.315 5.95018 14.241 6.02799 14.1766 6.10835C14.1141 6.19063 14.0605 6.27482 14.0146 6.35709C13.9731 6.44064 13.9355 6.52037 13.9068 6.59371C13.8806 6.6677 13.857 6.73403 13.8411 6.78951C13.8194 6.86414 13.8041 6.92409 13.7958 6.96937C13.7798 6.926 13.7677 6.8635 13.7594 6.78314C13.7531 6.72255 13.748 6.64856 13.7524 6.56246C13.7556 6.477 13.7671 6.37941 13.7926 6.27482C13.8188 6.17022 13.8557 6.05669 13.9157 5.94508C13.975 5.83346 14.049 5.71739 14.1479 5.61725C14.1963 5.56559 14.2467 5.51393 14.306 5.47247C14.3628 5.42719 14.4202 5.38191 14.491 5.34619C14.558 5.3092 14.63 5.26583 14.6887 5.2467L14.7812 5.21034L14.8277 5.19185L14.845 5.18547L14.852 5.18355L14.8654 5.17973L14.8922 5.17271C14.9642 5.15549 15.035 5.13508 15.1077 5.12232C15.1817 5.11276 15.2557 5.10511 15.3284 5.09937C15.4024 5.1 15.4757 5.10192 15.5472 5.10638C15.6186 5.11722 15.6894 5.12679 15.757 5.1421C15.824 5.16251 15.8903 5.17781 15.9522 5.20269C16.0128 5.23011 16.0733 5.25371 16.1282 5.28305C16.2398 5.34045 16.3355 5.40806 16.4178 5.4763C16.5829 5.61215 16.6895 5.75246 16.7558 5.85387C16.7998 5.92148 16.8298 5.97761 16.8457 6.02034Z" fill="#964B00"/>
<path d="M6.70483 7.73301C6.70483 8.30128 7.16532 8.76177 7.73359 8.76177C8.3025 8.76177 8.76299 8.30128 8.76299 7.73301C8.76299 7.1641 8.3025 6.70361 7.73359 6.70361C7.16532 6.70361 6.70483 7.1641 6.70483 7.73301Z" fill="#4C2400"/>
<path d="M7.04724 7.41822C7.04724 7.62295 7.21371 7.78941 7.41844 7.78941C7.62381 7.78941 7.79027 7.62295 7.79027 7.41822C7.79027 7.21285 7.62381 7.04639 7.41844 7.04639C7.21371 7.04639 7.04724 7.21285 7.04724 7.41822Z" fill="white"/>
<path d="M14.4801 7.73301C14.4801 8.30128 14.9406 8.76177 15.5095 8.76177C16.0778 8.76177 16.5383 8.30128 16.5383 7.73301C16.5383 7.1641 16.0778 6.70361 15.5095 6.70361C14.9406 6.70361 14.4801 7.1641 14.4801 7.73301Z" fill="#4C2400"/>
<path d="M14.8235 7.41822C14.8235 7.62295 14.9899 7.78941 15.1953 7.78941C15.4 7.78941 15.5665 7.62295 15.5665 7.41822C15.5665 7.21285 15.4 7.04639 15.1953 7.04639C14.9899 7.04639 14.8235 7.21285 14.8235 7.41822Z" fill="white"/>
<path d="M10.3897 17.134L8.6377 18.7833C8.70339 20.8421 9.39029 21.8613 10.699 21.8409C12.1417 21.8179 12.8631 20.7757 12.8631 18.7144L11.2144 17.0995L10.9739 16.9968L10.3897 17.134Z" fill="#EA7878"/>
<path d="M10.6659 16.9624C10.6116 16.8629 10.5619 16.7372 10.5166 16.5854C10.4426 16.3584 10.384 16.0516 10.3578 15.7429C10.3323 15.4336 10.3387 15.1217 10.3737 14.8851C10.3935 14.7275 10.4222 14.5955 10.4598 14.489C10.5147 14.5879 10.5644 14.7135 10.6097 14.8653C10.6844 15.093 10.7424 15.3991 10.7679 15.7085C10.7934 16.0178 10.7864 16.3297 10.7513 16.5663C10.7315 16.7232 10.7028 16.8552 10.6659 16.9624Z" fill="#964B00"/>
<path d="M6.85173 18.3371C6.85428 18.3677 6.86066 18.411 6.86959 18.4678C6.88425 18.552 6.9104 18.6764 6.9627 18.8243C7.01436 18.9672 7.10493 19.1534 7.27331 19.2338C7.35494 19.2695 7.46401 19.2612 7.55393 19.2351C7.68022 19.1885 7.77334 19.1375 7.88304 19.0635C8.32311 18.7657 8.78742 18.3218 9.27406 17.8447C9.51833 17.6061 9.76197 17.3491 10.0152 17.0927L10.2059 16.8982C10.262 16.8472 10.343 16.7273 10.5273 16.6858C10.6887 16.6546 10.8156 16.7024 10.9183 16.7458C11.0222 16.7923 11.1071 16.8491 11.1893 16.9065C11.5076 17.1444 11.7614 17.4097 12.0236 17.6591C12.2838 17.9085 12.5313 18.1578 12.7883 18.3741C13.046 18.5896 13.3011 18.7822 13.5658 18.92C13.8273 19.0527 14.0932 19.1062 14.3381 19.0622C14.5824 19.0131 14.7942 18.8894 14.9676 18.7612C15.1373 18.6253 15.2789 18.4933 15.3854 18.3747C15.4944 18.2586 15.5761 18.1623 15.6303 18.0953C15.6673 18.0507 15.6954 18.0169 15.7151 17.9933C15.6998 18.0201 15.6775 18.0577 15.6488 18.1081C15.6054 18.1827 15.5442 18.2943 15.4492 18.4264C15.358 18.5616 15.2349 18.7178 15.0703 18.8805C14.9026 19.038 14.6864 19.207 14.3923 19.2931C14.2456 19.3282 14.0837 19.3499 13.9191 19.3314C13.7552 19.3129 13.5925 19.2644 13.4357 19.1987C13.1295 19.0648 12.8349 18.8734 12.5587 18.6553C12.2819 18.4359 12.0102 18.1974 11.7487 17.9467C11.4853 17.7012 11.2219 17.4397 10.9483 17.2407C10.8207 17.1406 10.6555 17.0653 10.6077 17.0825C10.6058 17.0755 10.5611 17.1055 10.4903 17.1807L10.2977 17.3727C10.0413 17.6297 9.77855 17.8734 9.5228 18.1075C9.26705 18.3428 9.00938 18.559 8.75809 18.7567C8.50616 18.9551 8.25614 19.1298 8.00294 19.2663C7.94363 19.302 7.87092 19.332 7.80459 19.3614C7.73634 19.3958 7.67767 19.4034 7.61644 19.4232C7.46273 19.4519 7.32305 19.4404 7.20124 19.3735C6.97163 19.2236 6.92188 19.001 6.88425 18.8467C6.84981 18.6847 6.84918 18.5558 6.8479 18.4697C6.8479 18.4117 6.84918 18.367 6.85173 18.3371Z" fill="#964B00"/>
<path d="M7.67676 13.286C7.67803 13.2656 7.6825 13.2362 7.69015 13.198C7.70291 13.1412 7.71949 13.0551 7.76286 12.9537C7.8024 12.8504 7.86363 12.7298 7.94973 12.5997C7.99438 12.5359 8.04476 12.4696 8.10025 12.4014C8.16148 12.3389 8.22143 12.2668 8.29605 12.2049C8.44019 12.0774 8.60985 11.9485 8.80756 11.8484C8.90515 11.7955 9.00719 11.7432 9.11562 11.703C9.22277 11.6564 9.33438 11.6156 9.4511 11.5863C9.68134 11.5155 9.92497 11.4689 10.1737 11.4364C10.2981 11.4255 10.4237 11.4147 10.5494 11.4039C10.5698 11.4026 10.5711 11.4007 10.6068 11.4H10.6527H10.7445H10.9289C11.0481 11.3968 11.1808 11.4147 11.3109 11.43C11.4416 11.4434 11.5705 11.46 11.6929 11.4925C11.9429 11.5384 12.1789 11.6271 12.4009 11.7196C12.6235 11.814 12.825 11.9332 13.0061 12.0582C13.1873 12.1839 13.3435 12.3204 13.4781 12.4549C13.7479 12.7241 13.922 12.99 14.0273 13.1814C14.0968 13.3096 14.1446 13.4129 14.1695 13.4926C14.1236 13.4231 14.0534 13.3351 13.9596 13.2279C13.8193 13.0672 13.6063 12.8497 13.3219 12.6322C13.179 12.5251 13.0176 12.4192 12.8422 12.3185C12.6643 12.2209 12.4704 12.1329 12.2657 12.0563C12.0597 11.9817 11.8403 11.9237 11.6138 11.8822C11.5016 11.8548 11.3881 11.8433 11.2752 11.8337C11.1623 11.8222 11.0513 11.8069 10.9244 11.812L10.7407 11.8082L10.6482 11.8069L10.6023 11.8057L10.5679 11.8082C10.4499 11.8159 10.3325 11.8242 10.2158 11.8318C9.98556 11.8605 9.7566 11.8809 9.54357 11.9364C9.43451 11.9555 9.33247 11.9906 9.23169 12.0206C9.12837 12.0474 9.03334 12.0857 8.94086 12.1246C8.84519 12.1584 8.76164 12.2075 8.67682 12.2502C8.59008 12.2891 8.51737 12.344 8.44211 12.3899C8.29669 12.4887 8.17424 12.5953 8.07219 12.6979C7.97461 12.8044 7.89169 12.902 7.83557 12.9913C7.75712 13.1087 7.70418 13.2069 7.67676 13.286Z" fill="#964B00"/>
<path d="M10.7347 12.4964C9.47504 12.4505 8.66185 12.7598 8.29512 13.4237C7.74598 14.42 10.1505 15.7255 10.5287 15.7944C10.9062 15.8627 12.06 15.3237 12.9331 13.9046C13.4829 13.0117 11.3189 12.462 10.7347 12.4964Z" fill="#964B00"/>
<path d="M8.58057 14.5167C9.13289 15.1615 9.55129 15.3649 9.83574 15.127C10.4416 14.6206 10.0271 13.5332 9.26173 13.4375C8.49638 13.3419 9.33316 14.6085 9.79173 14.7086C10.2503 14.8081 9.56021 15.5843 8.58057 14.5167Z" fill="#4C2400"/>
<path d="M12.4885 14.5167C11.9355 15.1615 11.5171 15.3649 11.2326 15.127C10.6274 14.6206 11.0413 13.5332 11.8067 13.4375C12.572 13.3419 11.7359 14.6085 11.2773 14.7086C10.8181 14.8081 11.5088 15.5843 12.4885 14.5167Z" fill="#4C2400"/>
<path d="M8.35621 26.4884C11.2728 27.9643 14.9625 27.6658 19.4251 25.5923C23.8884 23.5195 26.2954 21.5513 26.6468 19.6889L25.4873 15.894C22.7812 20.2164 16.8248 22.5532 7.61829 22.9047L8.35621 26.4884Z" fill="#74E0E8"/>
<path d="M14.4057 22.0591C12.4623 22.496 10.2122 22.8053 7.61768 22.9042L8.3556 26.4885C10.9291 27.7903 14.2207 27.6614 18.2318 26.1014C16.6628 25.0114 15.3063 23.6516 14.4057 22.0591Z" fill="#5BD1D3"/>
</svg>
