<svg width="62" height="59" viewBox="0 0 62 59" fill="none" xmlns="http://www.w3.org/2000/svg">
<path d="M35.4993 38.8045C37.0504 37.3219 40.8609 38.829 44.3831 38.2891C45.9733 38.0473 47.6758 37.0434 49.4907 35.2823C49.3026 36.5695 49.0119 37.6956 48.6187 38.6604C50.3578 38.1475 51.7086 37.0434 52.6661 35.3531C52.8517 37.0507 52.6319 38.3282 52.0017 39.1807C53.7726 38.912 56.1053 37.2681 59.0047 34.2466C58.8484 36.7674 58.3965 39.0341 57.6466 41.0517C59.0072 41.1104 60.3335 41.3815 61.6257 41.8627C58.8093 42.8715 55.9759 45.0332 53.118 48.3503C54.7521 49.4861 55.9588 50.4901 56.7428 51.3621C54.332 49.9747 51.5571 49.8648 48.4208 51.0299C43.3719 52.9058 36.193 51.7969 34.4441 50.7612C32.8368 49.811 33.1886 45.8247 35.4993 38.8045Z" fill="#664F3C"/>
<path d="M34.5538 33.604L20.6039 34.5957L6.65164 33.604C5.59643 35.05 4.43373 36.6793 3.166 38.4966C2.68969 39.1805 1.82745 39.8718 0.579268 40.5753C1.04337 40.8195 1.52945 40.8586 2.03996 40.6974C1.98133 40.8269 1.30229 41.8112 0.000366211 43.6432C0.30081 43.7604 0.72582 43.697 1.27541 43.4527C0.896804 45.8611 0.39118 49.591 2.42101 52.1753C7.5432 58.6996 31.3637 59.1417 36.4859 52.6175C38.1176 50.5412 38.3448 47.2803 38.1591 44.8181C38.4449 44.8596 38.9725 44.8792 39.7468 44.8792C38.4229 43.1107 37.6828 41.9114 37.5216 41.2836C37.866 41.2836 38.484 41.3838 39.3804 41.5816C38.2128 40.2016 37.5949 39.4077 37.5216 39.2001C36.7082 36.8161 35.7189 34.9499 34.5538 33.604Z" fill="#EAD9CC"/>
<path d="M9.37072 41.2837C11.2735 48.5359 12.4167 52.9155 12.8026 54.4226C10.3356 54.0391 9.49773 54.7084 8.75273 56.4817C8.00772 58.2551 9.2608 58.9708 14.0825 58.7998C15.128 58.7631 16.044 58.619 16.6644 57.8227C18.1569 55.9053 18.4549 52.6883 17.5657 48.167L9.37072 41.2837Z" fill="#664F3C"/>
<path d="M30.5554 41.2837C28.6526 48.5359 27.507 52.9155 27.1235 54.4226C29.5905 54.0391 30.4284 54.7084 31.1734 56.4817C31.9184 58.2551 30.6653 58.9708 25.8411 58.7998C24.7957 58.7631 23.8797 58.619 23.2617 57.8227C21.7692 55.9053 21.4688 52.6883 22.3604 48.167L30.5554 41.2837Z" fill="#664F3C"/>
<path d="M5.59445 18.2033C3.18357 21.1271 1.74242 24.0949 1.27588 27.1091C1.98424 26.794 2.48009 26.3787 2.76832 25.8585C2.2627 29.2977 1.7644 31.5473 1.27588 32.605C1.97203 32.3217 2.7439 31.711 3.59638 30.773C3.22998 34.2464 5.82405 39.525 8.73811 41.8479C16.2761 47.8519 20.045 50.8539 20.045 50.8539C25.3627 46.4962 29.3344 42.8787 31.9553 40.0013C33.9021 37.864 34.7472 34.0535 35.0159 31.0173C35.2993 31.3422 35.8391 31.689 36.6329 32.0554C36.1346 30.072 35.5948 28.3011 35.0159 26.7427C35.7829 26.987 36.6207 27.048 37.5221 26.9259C35.458 24.3611 33.8825 20.4138 32.627 18.7357C29.2977 14.2828 20.2869 14.107 5.59445 18.2033Z" fill="#CCB9AC"/>
<path d="M29.0165 22.1554L19.5245 24.8008L9.39244 21.8184C8.29814 25.3724 7.75832 28.3035 7.77542 30.6069C7.79252 32.9103 8.32989 35.055 9.39244 37.036L10.8751 31.9162C10.8751 36.7233 11.9206 39.9183 14.0115 41.5011C14.373 39.1098 14.9568 37.1703 15.7653 35.6803C16.4614 40.2333 17.7755 43.0912 19.7125 44.249C21.8987 43.0912 23.0858 40.2333 23.2812 35.6803C24.0898 37.1703 24.676 39.1098 25.0375 41.5011C27.1259 39.9183 28.1714 36.7233 28.1714 31.9162L29.6565 37.036C30.7166 35.055 31.2564 32.9103 31.2711 30.6069C31.2882 28.3035 30.5383 25.4872 29.0165 22.1554Z" fill="#DBC9BD"/>
<path d="M6.47374 8.23506C5.58951 5.20131 5.35013 2.4607 5.75316 0.00829731C8.17869 -0.113834 10.658 1.11235 13.1885 3.68444L6.47374 8.23506Z" fill="#664F3C"/>
<path d="M7.07718 6.87941C6.39569 4.5638 6.31019 2.60725 6.82559 1.00977C8.53543 1.22716 10.2868 2.22862 12.0797 4.01663L7.07718 6.87941Z" fill="#84644C"/>
<path d="M30.9096 8.23506C31.7938 5.20131 32.0357 2.4607 31.6302 0.00829731C29.2047 -0.113834 26.7254 1.11235 24.1948 3.68444L30.9096 8.23506Z" fill="#664F3C"/>
<path d="M30.3061 6.87941C30.99 4.5638 31.0731 2.60725 30.5577 1.00977C28.8478 1.22716 27.0965 2.22862 25.3036 4.01663L30.3061 6.87941Z" fill="#84644C"/>
<path d="M33.3426 14.9545C33.9142 14.7542 34.4711 14.4367 35.0158 13.9994C34.1999 13.743 33.6479 13.379 33.3572 12.9051C33.8897 12.4142 34.2317 11.762 34.3807 10.9486C33.8555 11.2295 33.2693 11.2906 32.6196 11.1293C32.9835 10.5162 33.4501 10.079 34.0192 9.81765C33.3572 9.36576 32.6928 9.1557 32.0285 9.18502C32.1359 8.79175 32.6318 8.37161 33.5233 7.91972C32.6953 7.75851 32.0309 7.7292 31.535 7.82934C31.5131 7.43852 31.3079 6.87916 30.7045 6.39797C30.1403 5.94364 29.8618 4.93484 29.8154 4.119C28.9581 4.119 28.3914 4.66372 28.1422 4.89088C27.9077 4.37549 27.8638 3.74284 28.0079 2.99051C27.2726 3.14195 26.7255 3.4546 26.364 3.92847C24.173 2.84394 21.6228 1.97437 18.892 1.97192C16.1587 1.97437 13.611 2.84394 11.42 3.92847C11.056 3.4546 10.5089 3.14195 9.77365 2.99051C9.9202 3.74284 9.8738 4.37549 9.63931 4.89088C9.3926 4.66372 8.82592 4.119 7.96611 4.119C7.92214 4.93484 7.64124 5.94364 7.07699 6.39797C6.47366 6.87916 6.27092 7.43852 6.24893 7.82934C5.75064 7.7292 5.08868 7.75851 4.26063 7.91972C5.14975 8.37161 5.64806 8.79175 5.75309 9.18502C5.08869 9.1557 4.42674 9.36576 3.76234 9.81765C4.33392 10.079 4.80046 10.5162 5.16441 11.1293C4.51467 11.2906 3.926 11.2295 3.40084 10.9486C3.55228 11.762 3.89425 12.4142 4.42674 12.9051C4.13363 13.379 3.58158 13.743 2.76819 13.9994C3.31045 14.4367 3.86738 14.7542 4.4414 14.9545C4.28996 15.4259 3.73303 15.7923 2.76819 16.0561C3.43014 16.7547 4.03348 17.1016 4.57574 17.1016C4.21423 17.4607 3.86738 18.1495 3.53762 19.168C4.34613 19.1558 5.0496 19.2316 5.65049 19.3903C5.29631 19.9106 5.08869 20.7191 5.02762 21.8183C5.88743 21.2956 6.47366 21.0049 6.78632 20.9438C6.608 21.7841 6.62265 22.6415 6.82539 23.5159C7.70718 23.0323 8.54745 22.937 9.34619 23.2326C11.8816 24.9742 15.1719 26.0245 18.892 26.0269C22.6097 26.0245 25.8999 24.9742 28.4353 23.2326C29.2365 22.937 30.0768 23.0323 30.9586 23.5159C31.1613 22.6415 31.1735 21.7841 30.9977 20.9438C31.3103 21.0049 31.8965 21.2956 32.7539 21.8183C32.6928 20.7191 32.4877 19.9106 32.131 19.3903C32.7319 19.2316 33.4378 19.1558 34.2463 19.168C33.9142 18.1495 33.5673 17.4607 33.2058 17.1016C33.748 17.1016 34.3514 16.7547 35.0158 16.0561C34.0509 15.7923 33.4916 15.4259 33.3426 14.9545Z" fill="#EAD9CC"/>
<path d="M30.6236 18.9751C29.5244 18.191 28.7477 17.424 28.2958 16.6717C29.5024 16.9355 30.5699 16.9355 31.5005 16.6717C30.692 15.9731 30.2181 15.465 30.0838 15.1451C29.5537 13.8993 29.8688 11.1587 28.1737 10.0766C28.6133 10.0131 29.053 9.54165 29.4927 8.6623C27.6974 8.86504 26.3099 8.81865 25.3329 8.52309C25.4843 8.11273 25.7139 7.36039 26.0217 6.26121C24.7662 6.38823 23.6572 6.74728 22.6948 7.34572C22.988 6.2783 23.1345 5.27194 23.1345 4.33153C22.3822 5.11561 21.7153 5.82396 21.134 6.45905C21.1804 5.47955 21.1023 4.46098 20.8946 3.40576C19.7393 4.4048 19.1628 5.13514 19.1628 5.60168C19.1628 5.13514 18.5863 4.4048 17.431 3.40576C17.2234 4.46098 17.1452 5.47955 17.1916 6.45905C16.6102 5.82396 15.9434 5.11561 15.1911 4.33153C15.1911 5.27194 15.3376 6.2783 15.6308 7.34572C14.6684 6.74728 13.5594 6.38823 12.3039 6.26121C12.6117 7.36039 12.8413 8.11273 12.9927 8.52309C12.0157 8.81865 10.6283 8.86504 8.83292 8.6623C9.2726 9.54165 9.71227 10.0131 10.1519 10.0766C8.45676 11.1587 8.77186 13.8993 8.24181 15.1451C8.10747 15.465 7.63358 15.9731 6.82507 16.6717C7.75571 16.9355 8.82316 16.9355 10.0298 16.6717C9.57793 17.424 8.80117 18.191 7.70198 18.9751C9.47289 18.9751 10.4402 18.8236 10.6087 18.5183C10.6796 19.168 10.3376 20.0132 9.58281 21.0538C10.7455 20.9878 11.6542 20.7802 12.3039 20.4358C12.4382 21 12.3185 21.8012 11.9399 22.8369C13.6351 22.3044 14.7343 21.8012 15.2375 21.3298C15.4329 21.6131 16.9229 20.2184 18.7817 20.2184C20.6528 20.2208 22.8902 21.6131 23.0881 21.3298C23.5913 21.8012 24.8199 22.3508 26.774 22.9786C26.139 21.8476 25.8874 21 26.0217 20.4358C26.6714 20.7802 27.5801 20.9878 28.7428 21.0538C27.988 20.0132 27.6461 19.168 27.7169 18.5183C27.8854 18.8236 28.8527 18.9751 30.6236 18.9751Z" fill="#664F3C"/>
<path d="M15.9385 13.1299C15.9385 14.5296 14.8051 15.6629 13.4079 15.6629C12.0083 15.6629 10.8749 14.5296 10.8749 13.1299C10.8749 11.7327 12.0083 10.5994 13.4079 10.5994C14.8051 10.5994 15.9385 11.7327 15.9385 13.1299Z" fill="#72C4DD"/>
<path d="M14.1921 13.1911C14.1921 14.1657 13.8673 14.9546 13.4691 14.9546C13.0685 14.9546 12.7461 14.1657 12.7461 13.1911C12.7461 12.2189 13.0685 11.4299 13.4691 11.4299C13.8673 11.4299 14.1921 12.2189 14.1921 13.1911Z" fill="#3A3A3A"/>
<path d="M14.5508 12.3626C14.5508 12.663 14.309 12.9048 14.011 12.9048C13.7106 12.9048 13.4688 12.663 13.4688 12.3626C13.4688 12.0646 13.7106 11.8203 14.011 11.8203C14.309 11.8203 14.5508 12.0646 14.5508 12.3626Z" fill="white"/>
<path d="M27.4511 13.1299C27.4511 14.5296 26.3178 15.6629 24.9181 15.6629C23.5209 15.6629 22.3876 14.5296 22.3876 13.1299C22.3876 11.7327 23.5209 10.5994 24.9181 10.5994C26.3178 10.5994 27.4511 11.7327 27.4511 13.1299Z" fill="#72C4DD"/>
<path d="M25.6416 13.1911C25.6416 14.1657 25.3192 14.9546 24.9186 14.9546C24.5204 14.9546 24.1956 14.1657 24.1956 13.1911C24.1956 12.2189 24.5204 11.4299 24.9186 11.4299C25.3192 11.4299 25.6416 12.2189 25.6416 13.1911Z" fill="#3A3A3A"/>
<path d="M26.1838 12.3628C26.1838 12.6633 25.942 12.9051 25.6415 12.9051C25.3435 12.9051 25.1017 12.6633 25.1017 12.3628C25.1017 12.0648 25.3435 11.8206 25.6415 11.8206C25.942 11.8206 26.1838 12.0648 26.1838 12.3628Z" fill="white"/>
<path d="M19.4241 19.8252C19.4241 20.9268 18.2517 21.8184 16.8081 21.8184C15.362 21.8184 14.192 20.9268 14.192 19.8252C14.192 18.726 15.362 17.8345 16.8081 17.8345C18.2517 17.8345 19.4241 18.726 19.4241 19.8252Z" fill="#84644C"/>
<path d="M24.195 19.8252C24.195 20.9268 23.025 21.8184 21.5789 21.8184C20.1354 21.8184 18.9653 20.9268 18.9653 19.8252C18.9653 18.726 20.1354 17.8345 21.5789 17.8345C23.025 17.8345 24.195 18.726 24.195 19.8252Z" fill="#84644C"/>
<path d="M20.6703 17.8494C20.553 17.2705 20.0523 17.0213 19.1631 17.1093C18.274 17.0213 17.7733 17.2705 17.656 17.8494C17.5876 18.1962 18.0908 18.6359 19.1631 19.1684C20.2379 18.6359 20.7386 18.1962 20.6703 17.8494Z" fill="#3A3A3A"/>
<path d="M7.77548 53.5774C5.46231 52.6418 3.67187 52.5075 2.40658 53.1694C0.508661 54.1636 -0.487933 55.1138 0.237528 56.2594C0.708956 57.0068 6.28791 56.5793 7.60449 56.2594C9.07495 55.9003 9.61722 54.6619 7.77548 53.5774Z" fill="#664F3C"/>
<path d="M32.8663 53.5774C35.1795 52.6418 36.9699 52.5075 38.2352 53.1694C40.1331 54.1636 41.1273 55.1138 40.4043 56.2594C39.9328 57.0068 34.3539 56.5793 33.0373 56.2594C31.5668 55.9003 31.0246 54.6619 32.8663 53.5774Z" fill="#664F3C"/>
</svg>
