<svg width="15" height="15" viewBox="0 0 15 15" fill="none" xmlns="http://www.w3.org/2000/svg">
<path d="M12.7831 2.2102C11.332 0.759315 9.41491 0 7.4978 0C5.58068 0 3.66345 0.759315 2.21246 2.2102C-0.737486 5.16026 -0.737486 9.83093 2.21246 12.7809C3.67238 14.2407 5.58068 15 7.4978 15C9.41491 15 11.3232 14.2407 12.7831 12.7809C15.7331 9.83093 15.7331 5.16026 12.7831 2.2102ZM3.45243 3.45028C4.56937 2.34215 6.02918 1.74122 7.4978 1.74122C8.64987 1.74122 9.81065 2.12231 10.8133 2.8347L7.4978 6.15005L2.83685 10.811C1.18615 8.47858 1.42808 5.48355 3.45243 3.45028ZM11.5431 11.5409C10.4262 12.649 8.96642 13.25 7.4978 13.25C6.34572 13.25 5.18495 12.8689 4.18233 12.1565L12.1587 4.18018C13.8093 6.51249 13.5675 9.50752 11.5431 11.5409Z" fill="#FF4949"/>
<path d="M12.7831 12.7809C11.3232 14.2407 9.41492 15 7.4978 15V13.25C8.96642 13.25 10.4263 12.649 11.5431 11.5409C13.5675 9.50752 13.8093 6.51249 12.1588 4.18018L7.4978 8.84113V6.15005L10.8132 2.8347C9.81065 2.12231 8.64977 1.74122 7.4978 1.74122V0C9.41492 0 11.332 0.759315 12.7831 2.2102C15.7331 5.16026 15.7331 9.83093 12.7831 12.7809Z" fill="#FF193D"/>
</svg>
