<svg width="18" height="15" viewBox="0 0 18 15" fill="none" xmlns="http://www.w3.org/2000/svg">
<path d="M5.72942 8.12669C6.49791 6.93971 7.80674 6.23096 9.23063 6.23096C10.6545 6.23096 11.9633 6.93971 12.7317 8.12669L14.5835 10.9869C14.8907 11.4613 15.0325 12.0096 14.9935 12.5719C14.9546 13.1344 14.7384 13.6582 14.3685 14.087C13.9983 14.5154 13.5092 14.8082 12.954 14.9339C12.3988 15.0595 11.8297 15.0059 11.3082 14.779L11.2733 14.7636C9.9612 14.204 8.46188 14.2091 7.15317 14.779C6.81557 14.9259 6.45791 15.0002 6.09699 15.0002C5.90076 15.0002 5.70336 14.9781 5.50778 14.934C4.95259 14.8085 4.46345 14.5157 4.09315 14.0871C3.72311 13.6587 3.50681 13.1348 3.46772 12.5722C3.42864 12.0096 3.5704 11.4615 3.87764 10.9867L5.72942 8.12669Z" fill="white"/>
<path d="M14.0097 8.17903C13.4585 7.96579 13.0397 7.51845 12.8306 6.91933C12.6315 6.34922 12.6478 5.70559 12.8766 5.10686C13.1056 4.50852 13.522 4.02008 14.0492 3.73135C14.6031 3.42818 15.2116 3.37881 15.7619 3.59244C16.8691 4.02113 17.3772 5.399 16.8944 6.66461C16.5087 7.67194 15.6092 8.30783 14.6998 8.30783C14.4676 8.30783 14.2348 8.26634 14.0097 8.17903Z" fill="white"/>
<path d="M10.3845 5.76924C8.98475 5.76924 7.84592 4.47535 7.84592 2.88495C7.84592 1.29415 8.98475 0 10.3845 0C11.7842 0 12.9229 1.29415 12.9229 2.88495C12.9229 4.47535 11.7842 5.76924 10.3845 5.76924Z" fill="white"/>
<path d="M6.12396 6.5853H6.12383C5.91384 6.65765 5.6996 6.69222 5.48626 6.69222C4.49068 6.69222 3.52044 5.94 3.15021 4.78395C2.937 4.1185 2.95102 3.41486 3.18969 2.8028C3.43942 2.16204 3.90223 1.69695 4.493 1.49311C5.08389 1.28927 5.72287 1.3743 6.29242 1.73233C6.8365 2.07433 7.2534 2.62926 7.46636 3.29472C7.91579 4.69852 7.31359 6.17467 6.12396 6.5853Z" fill="white"/>
<path d="M0.823199 6.1435L0.823599 6.14312C1.79938 5.44822 3.25871 5.74941 4.07695 6.81488C4.89438 7.88086 4.76656 9.31395 3.79225 10.0094C3.43691 10.2631 3.01707 10.3844 2.58736 10.3844C1.83843 10.3844 1.05925 10.0159 0.53837 9.33824C-0.278932 8.27226 -0.151246 6.83917 0.823199 6.1435Z" fill="white"/>
</svg>
