<svg width="62" height="59" viewBox="0 0 49 74" fill="none" xmlns="http://www.w3.org/2000/svg">
<path d="M24.2412 68.6057C37.6293 68.6057 48.4825 67.1093 48.4825 65.2634C48.4825 63.4175 37.6293 61.9211 24.2412 61.9211C10.8532 61.9211 0 63.4175 0 65.2634C0 67.1093 10.8532 68.6057 24.2412 68.6057Z" fill="#98CFD8"/>
<path d="M9.40245 30.9166C7.42712 37.2772 6.31304 43.9064 6.09181 50.5593C6.01279 53.0324 6.0523 55.5529 6.73971 57.9312C7.42713 60.3095 8.80985 62.5693 10.9195 63.873C12.5946 64.9002 14.5699 65.3584 16.5215 65.5323C37.6971 67.4602 41.4186 60.4043 41.9796 57.4808C42.5406 54.5573 42.2324 51.539 41.7741 48.5998C40.747 42.0575 38.985 35.5942 36.1089 29.6287C35.9509 29.2968 35.7691 28.9492 35.4452 28.7596C35.137 28.5778 34.7578 28.5857 34.3943 28.6015C27.2752 28.9334 20.1719 30.8613 13.1003 29.9606C11.6859 29.7788 9.81333 29.7314 9.31555 31.0746" fill="#B27C4B"/>
<path d="M8.035 29.8019C6.28881 35.0642 6.60486 40.84 8.035 46.1892C9.46514 51.5463 11.9541 56.5479 14.5299 61.4546C15.2726 62.861 16.0469 64.2911 17.2479 65.3341C18.4489 66.3692 20.1872 66.946 21.6569 66.3534C22.1784 66.1479 22.6998 65.666 22.5813 65.1208C22.4233 64.3939 21.4198 64.3465 20.685 64.465C21.3013 58.2624 23.1107 48.0934 23.2687 49.089C24.1379 54.4619 25.9157 58.8076 26.7927 64.1805C26.1053 64.3307 25.4416 64.5993 24.8332 64.9707C24.5883 65.1208 24.3354 65.3262 24.2959 65.6107C24.2327 66.2112 25.0781 66.2744 25.6786 66.3613C30.8224 67.1593 33.2876 59.2027 34.2832 56.6822C36.3296 51.4752 38.384 46.2287 39.3716 40.7294C40.0669 36.8262 40.146 32.5437 38.0363 29.1856C37.8783 28.9328 37.7045 28.6799 37.4437 28.5298C37.183 28.3797 36.8748 28.3481 36.5825 28.3165C28.4994 27.5737 20.3295 27.7081 12.278 28.7194C10.919 28.8933 9.53625 29.0908 8.27204 29.6202" fill="#CB9866"/>
<path d="M5.31781 25.0773C4.31434 21.6876 6.06053 14.5922 12.9663 6.48548C14.8705 4.25731 18.4103 3.07212 21.3338 2.86668C22.7402 2.76397 25.1106 2.81137 26.3748 3.45138C38.5586 9.61441 40.0441 21.7271 39.9414 23.2758C39.8465 24.5953 39.7122 25.9227 39.3251 27.1869C38.9853 28.301 35.5798 33.3816 24.439 34.1559C20.5515 34.4245 16.5693 33.8003 12.9742 32.3149C9.37117 30.8136 6.31337 28.4669 5.31781 25.0773Z" fill="#CB9866"/>
<path d="M5.3261 25.2362C6.32956 28.6258 9.37946 30.9804 12.9746 32.4659C16.5776 33.9592 20.5519 34.5755 24.4394 34.3069C35.5802 33.5404 38.9857 28.4599 39.3254 27.3379C39.7126 26.0737 39.8548 24.7463 39.9417 23.4268C39.9892 22.7472 39.7284 20.0371 38.3931 16.6869C38.1877 16.7738 37.9901 16.8529 37.7847 16.9398C34.4977 18.2988 30.9026 18.8993 27.3549 18.686C26.8177 18.6544 26.2567 18.5911 25.7984 18.2988C24.953 17.7457 24.7554 16.5526 23.989 15.9047C22.9618 15.0435 20.7416 15.0988 19.6749 15.9126C18.6082 16.7264 18.4028 18.2435 17.2334 18.9072C15.8664 19.6815 14.2151 19.6973 12.6427 19.642C10.375 19.563 7.94143 19.3023 6.21104 17.8247L6.15573 17.722C5.01004 20.9299 4.82831 23.5453 5.3261 25.2362Z" fill="#FDCC9A"/>
<path d="M10.0189 13.0368C8.99174 9.56026 8.7863 5.84664 9.42631 2.27525C9.45791 2.08562 9.50531 1.87228 9.65544 1.74586C10.011 1.43771 10.5325 1.84068 10.809 2.21204C11.8757 3.61847 12.8239 5.12762 13.6377 6.69999" fill="#CB9866"/>
<path d="M29.7407 5.84573C29.9462 4.55782 30.2701 3.29361 30.7047 2.0689C30.9338 1.41309 31.2104 0.749386 31.7161 0.275307C31.8899 0.109379 32.119 -0.0328465 32.356 0.00666007C32.5615 0.0461666 32.7116 0.212095 32.8301 0.378023C33.2173 0.915312 33.4622 1.54742 33.6993 2.16372C33.9916 2.92225 34.284 3.67287 34.4973 4.4551C35.1215 6.73858 35.0741 9.14058 35.0188 11.5031C35.0188 11.5505 35.0109 11.6137 34.9635 11.6216C34.9161 11.6295 34.9082 11.5268 34.9556 11.5505" fill="#CB9866"/>
<path d="M12.4368 7.07891C13.0926 6.48631 11.8363 5.02457 11.1962 4.36086C11.0303 4.18703 10.7064 4.0053 10.4693 4.16332C10.3666 4.23443 10.335 4.33715 10.3034 4.43197C9.78983 6.20186 10.0427 8.44583 10.5879 10.1209C10.5958 10.1288 11.8205 7.6399 12.4368 7.07891Z" fill="#FDE9E9"/>
<path d="M31.0762 6.41464C30.3176 5.96427 31.2737 4.28128 31.7794 3.51486C31.9137 3.30942 32.1902 3.07238 32.451 3.1909C32.5616 3.23831 32.6169 3.33313 32.6643 3.42004C33.5098 5.06351 33.6836 7.30749 33.4624 9.06158C33.4545 9.06158 31.7873 6.84131 31.0762 6.41464Z" fill="#FDE9E9"/>
<path d="M11.7247 16.0001C12.025 15.0836 12.6413 14.0722 13.6922 13.9695C14.7904 13.8668 15.6438 14.6885 15.8729 15.7078C15.9836 16.1976 16.7342 15.9922 16.6236 15.5023C16.3233 14.1512 15.1144 13.0845 13.6922 13.1951C12.2541 13.3058 11.3929 14.5305 10.9741 15.7947C10.8161 16.2688 11.5667 16.4742 11.7247 16.0001Z" fill="#414042"/>
<path d="M32.7748 14.9324C32.356 13.6682 31.4869 12.4435 30.0567 12.3328C28.6266 12.2222 27.4256 13.2889 27.1253 14.64C27.0147 15.1299 27.7654 15.3353 27.876 14.8455C28.1051 13.8262 28.9585 12.9966 30.0567 13.1072C31.1155 13.2178 31.7239 14.2213 32.0242 15.1378C32.1822 15.6119 32.9249 15.4065 32.7748 14.9324Z" fill="#414042"/>
<path d="M19.7848 17.9274C19.8323 17.6825 20.1009 17.5482 20.3379 17.4612C21.1992 17.1531 22.1236 17.0346 23.0323 17.1215C23.3641 17.1531 23.7039 17.2163 23.9804 17.398C24.257 17.5798 24.4545 17.9195 24.3834 18.2435C24.2965 18.6701 23.8224 18.8914 23.4036 18.9941C22.6846 19.1679 21.934 19.1837 21.1913 19.1916C20.7804 19.1995 20.33 19.1916 20.0061 18.9388C19.6742 18.6859 19.4135 18.1012 19.7848 17.9274Z" fill="#414042"/>
<path d="M21.5246 18.2586C21.5483 19.3332 21.5641 20.4077 21.5878 21.4823C21.5957 21.9248 21.7221 22.4779 21.2955 22.7623C20.8767 23.0389 20.3157 23.0389 19.8495 22.9046C19.3676 22.7702 19.1621 23.5209 19.6441 23.6552C20.6081 23.9159 22.1488 23.6947 22.3543 22.4937C22.4649 21.8458 22.3622 21.1189 22.3464 20.4631C22.3306 19.7282 22.3147 18.9934 22.3068 18.2586C22.291 17.7608 21.5167 17.7608 21.5246 18.2586Z" fill="#414042"/>
<path d="M21.6175 22.0259C21.8625 23.6219 23.743 24.1908 24.9361 23.2032C25.3232 22.8871 24.7701 22.334 24.3909 22.658C23.5928 23.3217 22.5183 22.7844 22.3681 21.8204C22.2891 21.3306 21.5385 21.536 21.6175 22.0259Z" fill="#414042"/>
<path d="M7.23694 19.9191C5.29322 20.322 3.34949 20.7092 1.40577 21.0805C0.915884 21.1754 1.12133 21.9181 1.61121 21.8312C3.55493 21.4598 5.50654 21.0805 7.44236 20.6697C7.93224 20.567 7.72682 19.8163 7.23694 19.9191Z" fill="#414042"/>
<path d="M7.26971 21.8946C5.20747 22.6768 3.14523 23.467 1.09089 24.2492C0.624712 24.423 0.830154 25.1737 1.29633 24.9998C3.35857 24.2176 5.42081 23.4275 7.47516 22.6452C7.93343 22.4635 7.73589 21.7129 7.26971 21.8946Z" fill="#414042"/>
<path d="M7.21424 18.7014C5.36533 18.0377 3.49272 17.4451 1.6043 16.9157C1.12232 16.7814 0.916883 17.532 1.39886 17.6663C3.28728 18.1957 5.15989 18.7883 7.0088 19.452C7.47497 19.6258 7.68042 18.8752 7.21424 18.7014Z" fill="#414042"/>
<path d="M36.7804 20.5806C38.7241 20.9835 40.6679 21.3707 42.6116 21.7421C43.1015 21.8369 43.3069 21.0863 42.817 20.9914C40.8733 20.6201 38.9217 20.2408 36.9858 19.8299C36.496 19.7272 36.2905 20.4778 36.7804 20.5806Z" fill="#414042"/>
<path d="M36.7487 22.5578C38.811 23.34 40.8732 24.1302 42.9275 24.9124C43.3937 25.0941 43.5992 24.3435 43.133 24.1618C41.0707 23.3795 39.0085 22.5894 36.9541 21.8072C36.488 21.6334 36.2904 22.384 36.7487 22.5578Z" fill="#414042"/>
<path d="M37.2156 19.3636C39.0645 18.6999 40.9371 18.1073 42.8256 17.5779C43.3075 17.4436 43.1021 16.693 42.6201 16.8273C40.7317 17.3567 38.8591 17.9493 37.0102 18.613C36.544 18.7868 36.7495 19.5374 37.2156 19.3636Z" fill="#414042"/>
<path d="M15.9373 28.6496C16.0637 28.3019 16.198 27.9464 16.1743 27.5829C16.1506 27.2194 15.9215 26.8402 15.5659 26.7533C15.1234 26.6505 14.7126 27.014 14.4281 27.3696C13.7091 28.2466 13.1402 29.2343 12.4449 30.1429C11.9945 30.7276 11.4888 31.2807 10.8962 31.7074C11.4967 32.0313 12.1209 32.3237 12.7609 32.5923C13.2508 32.7978 13.7486 32.9795 14.2543 33.1533C14.3017 33.0506 14.3491 32.94 14.3886 32.8294C14.9022 31.4308 15.4158 30.0402 15.9373 28.6496Z" fill="#CB9866"/>
<path d="M11.9308 26.1206C11.9387 25.8915 11.8439 25.6228 11.6226 25.5596C11.5436 25.5359 11.4488 25.5438 11.3698 25.5596C10.3663 25.7493 9.75792 26.7211 9.06261 27.4639C8.50952 28.0406 7.84582 28.5068 7.1189 28.8308C7.69569 29.4708 8.3673 30.0555 9.09423 30.577C9.93176 29.5498 10.714 28.4752 11.433 27.3611C11.67 26.9898 11.915 26.5789 11.9308 26.1206Z" fill="#CB9866"/>
<path d="M33.1937 29.7152C32.5063 28.8144 31.9295 27.8268 31.2105 26.9418C30.9181 26.5863 30.5152 26.2228 30.0727 26.3255C29.7171 26.4124 29.488 26.7917 29.4643 27.1552C29.4406 27.5186 29.567 27.8821 29.7013 28.2218C30.2228 29.6125 30.7364 31.0031 31.2579 32.3937C31.3527 32.6545 31.4712 32.9389 31.6609 33.1365C33.0357 32.6545 34.1735 32.0935 35.1137 31.5246C34.3631 31.0742 33.731 30.4105 33.1937 29.7152Z" fill="#CB9866"/>
<path d="M38.5341 28.4199C37.7993 28.0959 37.1356 27.6298 36.5825 27.053C35.8793 26.3181 35.2709 25.3384 34.2753 25.1487C34.1884 25.1329 34.1015 25.125 34.0225 25.1487C33.8012 25.212 33.7064 25.4806 33.7143 25.7097C33.7222 26.1601 33.9672 26.571 34.2121 26.9502C34.9785 28.1433 35.824 29.289 36.7247 30.3794C37.6097 29.6446 38.1865 28.9493 38.5341 28.4199Z" fill="#CB9866"/>
<path d="M40.3285 45.6049C40.2811 45.3125 40.5972 45.0597 40.8895 45.0676C41.1819 45.0755 41.4426 45.2572 41.6639 45.4547C43.4891 47.0745 43.9868 49.7214 44.0185 52.155C44.0659 55.4815 43.4496 58.8158 42.2169 61.9053C44.2476 62.0396 44.5478 64.0386 44.2002 64.1334C41.6244 64.8367 36.7097 64.6786 34.047 64.4969C36.7492 58.4998 39.8071 52.1866 40.1073 45.6207" fill="#B27C4B"/>
<path d="M6.77952 46.2447C6.82693 45.9524 6.51087 45.6996 6.21852 45.7075C5.92617 45.7154 5.66544 45.8971 5.4442 46.0946C3.619 47.7144 3.12121 50.3613 3.08961 52.7949C3.0422 56.1214 3.65851 59.4557 4.89111 62.5452C2.86047 62.6795 2.56022 64.6785 2.90787 64.7733C5.4837 65.4765 11.1489 65.2474 13.8117 65.0578C11.1094 59.0607 7.30101 52.8265 7.00076 46.2526" fill="#B27C4B"/>
<path d="M15.067 44.6167C15.3278 44.4034 15.5806 44.0478 15.4147 43.7476C15.3357 43.5975 15.1698 43.5105 15.0038 43.4394C13.7949 42.9259 12.4517 42.8863 11.1401 42.7915C9.82847 42.6967 8.51685 42.5466 7.21313 42.3333C7.41067 43.637 7.68722 44.9407 8.02697 46.2128C8.08228 46.4103 8.13758 46.6158 8.19289 46.8133C9.4334 46.5209 10.6739 46.2207 11.9144 45.9205C13.0364 45.6518 14.19 45.3516 15.067 44.6167Z" fill="#FDCC9A"/>
<path d="M6.96795 40.1935C10.2549 40.1461 13.5418 40.0592 16.8288 39.9406C17.8955 39.9011 18.978 39.8537 19.9893 39.514C20.2185 39.435 20.4713 39.3164 20.5503 39.0873C20.6688 38.7633 20.3765 38.4315 20.092 38.2419C18.7567 37.3569 17.0263 37.4596 15.4303 37.507C12.5621 37.5861 9.68602 37.3727 6.86525 36.8591C6.83364 37.9653 6.86523 39.0794 6.96795 40.1935Z" fill="#FDCC9A"/>
<path d="M36.1718 42.8007C34.8602 42.8955 33.517 42.935 32.3081 43.4486C32.1501 43.5197 31.9841 43.5987 31.8972 43.7567C31.7392 44.057 31.9841 44.4125 32.2449 44.6259C33.1219 45.3607 34.2755 45.653 35.3896 45.9296C36.2508 46.1429 37.1042 46.3483 37.9654 46.5538C38.3684 45.2185 38.724 43.8673 39.0242 42.5083C38.076 42.6268 37.1279 42.7295 36.1718 42.8007Z" fill="#FDCC9A"/>
<path d="M31.8971 37.4981C30.301 37.4507 28.5707 37.348 27.2353 38.233C26.943 38.4226 26.6586 38.7544 26.7771 39.0784C26.864 39.3075 27.1089 39.4261 27.3381 39.5051C28.3494 39.8448 29.4319 39.8922 30.4986 39.9317C33.4932 40.0424 36.4799 40.1214 39.4745 40.1767C39.6404 39.1179 39.7589 38.0433 39.7984 36.9688C37.191 37.3954 34.5361 37.5772 31.8971 37.4981Z" fill="#FDCC9A"/>
<path d="M22.811 34.7813C21.0727 33.9912 19.1843 33.5408 17.2722 33.4618C16.9403 33.446 16.5769 33.4618 16.3319 33.6751C16.1502 33.8331 16.0712 34.0781 16.0238 34.3151C15.8816 35.0578 16.0001 35.8322 16.166 36.5749C16.3714 37.5231 16.7744 38.6055 17.7068 38.8742C18.4337 39.0875 19.1843 38.7083 19.848 38.3448C20.5196 37.9734 21.1833 37.61 21.855 37.2386C22.3527 36.9621 22.8742 36.6618 23.1429 36.164C23.4115 35.6662 23.2772 34.9077 22.7399 34.726" fill="#ED2024"/>
<path d="M22.171 36.2421C21.4994 36.6135 20.8357 36.977 20.1641 37.3483C19.5004 37.7118 18.7497 38.091 18.0228 37.8777C17.0905 37.6091 16.6875 36.5266 16.4821 35.5784C16.3556 34.9937 16.2529 34.3853 16.2845 33.7927C16.1344 33.9508 16.0712 34.172 16.0238 34.3853C15.8816 35.128 16.0001 35.9024 16.166 36.6451C16.3714 37.5933 16.7744 38.6757 17.7068 38.9444C18.4337 39.1577 19.1843 38.7785 19.848 38.415C20.5196 38.0436 21.1833 37.6802 21.855 37.3088C22.3527 37.0323 22.8742 36.732 23.1429 36.2342C23.2693 36.0051 23.3009 35.7206 23.2535 35.4599C22.969 35.7918 22.5661 36.0288 22.171 36.2421Z" fill="#CC3333"/>
<path d="M24.692 34.8432C26.4777 34.1637 28.3898 33.8397 30.3019 33.8871C30.6338 33.895 30.9894 33.9266 31.2264 34.1637C31.3923 34.3375 31.4555 34.5824 31.4871 34.8195C31.582 35.5701 31.4081 36.3365 31.2027 37.0634C30.9341 37.9958 30.4679 39.0467 29.5197 39.26C28.7849 39.4259 28.058 38.9993 27.418 38.5963C26.778 38.1854 26.1301 37.7746 25.4901 37.3637C25.0081 37.0555 24.5103 36.7237 24.2732 36.2101C24.0362 35.6965 24.2179 34.9459 24.771 34.7958" fill="#ED2024"/>
<path d="M31.313 36.1948C31.0443 37.1272 30.5781 38.178 29.63 38.3914C28.8952 38.5573 28.1682 38.1306 27.5282 37.7277C26.8882 37.3168 26.2403 36.9059 25.6003 36.4951C25.1183 36.1869 24.6206 35.8551 24.3835 35.3415C24.344 35.2625 24.3203 35.1755 24.3045 35.0886C24.0596 35.3889 24.0042 35.8867 24.1781 36.258C24.4151 36.7716 24.9129 37.1114 25.3949 37.4116C26.0349 37.8225 26.6828 38.2333 27.3228 38.6442C27.9628 39.0472 28.6897 39.4739 29.4246 39.3079C30.3727 39.0946 30.8389 38.0437 31.1075 37.1114C31.2102 36.7558 31.3051 36.3923 31.3604 36.0289C31.3446 36.0842 31.3288 36.1395 31.313 36.1948Z" fill="#CC3333"/>
<path d="M22.2664 34.3773C22.1557 34.9778 22.1557 35.5941 22.2584 36.1946C22.3138 36.4948 22.4244 36.8267 22.7088 36.9373C22.8037 36.9768 22.9143 36.9768 23.017 36.9847C23.3172 37.0005 23.6096 37.0084 23.9098 37.0242C24.139 37.0321 24.3918 37.04 24.5893 36.9294C24.7316 36.8504 24.8422 36.7161 24.9212 36.5738C25.1819 36.1156 25.1819 35.5546 25.1266 35.0331C25.1108 34.8988 25.095 34.7565 25.0239 34.6301C24.8422 34.2904 24.3918 34.2271 24.0126 34.2034C23.736 34.1876 23.4595 34.1718 23.1908 34.1481C22.8906 34.1402 22.4244 34.1086 22.2664 34.3773Z" fill="#EF3B39"/>
<path d="M24.952 35.9183C24.873 36.0605 24.7624 36.1948 24.6202 36.2738C24.4147 36.3844 24.1698 36.3765 23.9406 36.3686C23.6404 36.3528 23.348 36.3449 23.0478 36.3291C22.9451 36.3212 22.8345 36.3212 22.7396 36.2817C22.4552 36.1711 22.3446 35.8392 22.2893 35.539C22.2498 35.302 22.2261 35.0649 22.2182 34.8279C22.1707 35.2941 22.1866 35.776 22.2735 36.2343C22.3288 36.5346 22.4394 36.8664 22.7238 36.977C22.8187 37.0165 22.9293 37.0165 23.032 37.0244C23.3322 37.0402 23.6246 37.0481 23.9248 37.064C24.154 37.0719 24.4068 37.0798 24.6044 36.9691C24.7466 36.8901 24.8572 36.7558 24.9362 36.6136C25.1575 36.2264 25.1891 35.7602 25.1653 35.3099C25.1179 35.5311 25.0547 35.7365 24.952 35.9183Z" fill="#CC3333"/>
<path d="M22.1869 35.4534C21.5469 35.3348 20.9069 35.2479 20.259 35.1926C20.1642 35.1847 20.0693 35.1768 19.9745 35.2084C19.8876 35.24 19.8086 35.3269 19.8165 35.4218C19.8244 35.5798 20.0298 35.643 20.1879 35.6588C20.3854 35.6746 20.575 35.6983 20.7726 35.7141C20.9069 35.7299 21.0807 35.7773 21.0807 35.9116C20.6777 36.0855 20.2827 36.2909 19.9034 36.5121C19.8402 36.5516 19.7691 36.5911 19.7375 36.6544C19.698 36.7176 19.7138 36.8203 19.777 36.8519C19.8086 36.8677 19.8481 36.8677 19.8797 36.8677C20.3222 36.8677 20.7567 36.7413 21.1755 36.6149C21.6101 36.4884 22.0368 36.362 22.4713 36.2356C22.3923 35.9985 22.3054 35.7615 22.2264 35.5324" fill="#CC3333"/>
<path d="M25.1656 35.5157C25.774 35.4604 26.3824 35.413 26.9908 35.3577C27.3543 35.3261 27.7415 35.2944 28.0812 35.4446C28.1286 35.4683 28.1839 35.492 28.2076 35.5394C28.2471 35.6184 28.1997 35.7211 28.1286 35.7685C28.0575 35.8159 27.9627 35.8317 27.8758 35.8396C27.5834 35.8633 27.299 35.887 27.0145 35.9503C26.9434 35.9661 26.8723 35.9819 26.817 36.0372C26.7617 36.0846 26.7301 36.1715 26.7696 36.2347C26.7854 36.2663 26.8249 36.29 26.8565 36.3137C27.0619 36.4243 27.3069 36.448 27.5202 36.5508C27.7335 36.6456 27.9311 36.8668 27.86 37.0959C27.8284 37.2066 27.7335 37.2935 27.6308 37.3488C27.3938 37.4752 27.0935 37.4515 26.8407 37.3488C26.5878 37.2461 26.3745 37.0722 26.1612 36.8984C25.9162 36.7009 25.6713 36.5034 25.4264 36.3058C25.3157 36.2189 25.2051 36.1241 25.1419 36.0056C25.0708 35.887 25.0629 35.7211 25.1419 35.6105" fill="#CC3333"/>
<path d="M17.9436 11.0064C16.4424 10.0266 14.1273 10.319 13.2502 12.0019C13.4873 11.9703 13.7322 11.9387 13.9693 11.9071C12.5707 10.24 9.62355 10.7772 8.68329 12.6657C7.61661 14.799 9.52873 16.798 11.0537 18.086C12.0572 18.9235 13.1317 19.6662 14.2537 20.3378C14.4354 20.4484 14.6646 20.4089 14.8068 20.2667C16.8453 18.3309 21.5229 13.598 17.9436 11.0064C17.4616 10.6587 17.0034 11.4568 17.4774 11.7965C18.9708 12.879 18.1333 14.7042 17.3352 15.9447C16.4582 17.3037 15.3283 18.5047 14.1589 19.6109C14.3406 19.5872 14.5302 19.5635 14.712 19.5398C13.6848 18.9235 12.6734 18.2519 11.749 17.4776C10.8877 16.7585 10.0028 15.9368 9.50502 14.9175C9.00724 13.8983 9.4023 12.7447 10.3742 12.1837C11.3223 11.6385 12.5865 11.6859 13.3214 12.555C13.511 12.7763 13.9139 12.7052 14.0404 12.4602C14.6962 11.2118 16.3792 11.0775 17.4774 11.7965C17.9752 12.1205 18.4335 11.3303 17.9436 11.0064Z" fill="#ED1C24"/>
<path d="M33.627 10.5161C32.1811 9.41784 29.8739 9.61537 28.8862 11.2193C29.147 11.2193 29.4156 11.2193 29.6763 11.2193C28.3884 9.44154 25.5203 9.66278 24.343 11.4564C22.9997 13.5028 24.8644 15.7389 26.2946 17.1295C27.2348 18.0382 28.262 18.8441 29.3287 19.5947C29.5025 19.7212 29.7316 19.6421 29.8818 19.5236C31.3435 18.3305 32.7816 16.9952 33.8245 15.407C34.3144 14.6643 34.7727 13.7952 34.7885 12.8786C34.8043 11.9937 34.3855 11.1561 33.7139 10.5951C33.2635 10.2159 32.6156 10.8638 33.066 11.243C33.6428 11.725 33.9747 12.4203 33.8403 13.1789C33.6981 13.969 33.2161 14.7117 32.75 15.3438C31.7702 16.6791 30.5139 17.8248 29.2339 18.8678C29.4156 18.8441 29.6052 18.8204 29.787 18.7967C28.7993 18.1014 27.8511 17.3587 26.982 16.5211C26.1919 15.7626 25.3622 14.8776 24.9514 13.8505C24.5405 12.8154 24.9514 11.7329 25.9311 11.2035C26.8635 10.7058 28.2146 10.769 28.8704 11.6776C29.068 11.9542 29.4709 11.9937 29.6606 11.6776C30.4033 10.4687 32.1178 10.5161 33.145 11.3063C33.6349 11.6618 34.0932 10.8717 33.627 10.5161Z" fill="#ED1C24"/>
<path d="M43.5757 58.1364C43.6389 57.9546 43.4809 57.7334 43.2912 57.7334C43.9391 58.808 45.3139 59.1556 46.3569 59.8589C48.2216 61.1152 48.9802 63.6357 48.4824 65.8243C47.9846 68.013 46.4043 69.8461 44.508 71.0471C42.6117 72.2402 40.3993 72.8644 38.1949 73.2832C32.4269 74.3815 26.4298 74.2155 20.733 72.8012C18.2441 72.1849 15.7788 71.3 13.7482 69.7355C11.7255 68.171 10.1768 65.8322 10.0504 63.2722C10.0346 63.0194 10.0425 62.7586 10.1531 62.5374C10.3032 62.2529 10.6035 62.0791 10.9116 61.9764C12.3971 61.4549 14.2223 62.1581 14.9571 63.5567C15.447 64.4811 14.9492 66.0693 15.8816 66.5592C30.0091 73.9943 41.0868 68.8901 41.948 68.2738C45.314 65.8639 44.8478 63.0747 44.4053 61.9606C44.1525 61.3206 43.7021 60.7675 43.4255 60.1354C43.149 59.5033 42.833 58.247 43.2912 57.7334" fill="#CB9866"/>
<path d="M19.6277 13.5409C19.7304 13.3354 20.3625 13.288 20.5679 13.2485C20.963 13.1774 21.3581 13.1537 21.7531 13.1616C22.5275 13.1774 23.2702 13.3512 23.9892 13.6436C24.5344 13.8648 24.7714 12.9799 24.2341 12.7586C23.3176 12.3873 22.3299 12.2056 21.3423 12.2451C20.8682 12.2609 20.3862 12.332 19.92 12.4426C19.5013 12.5453 19.0509 12.6638 18.8376 13.0668C18.561 13.6041 19.359 14.0703 19.6277 13.5409Z" fill="#ED1C24"/>
</svg>
