<svg width="39" height="60" viewBox="0 0 39 60" fill="none" xmlns="http://www.w3.org/2000/svg">
<path d="M3.23626 58.9156C-0.205994 58.6397 -0.161868 57.8785 0.113954 57.0069C0.389775 56.1353 1.22828 56.3008 1.55927 56.0801C1.89025 55.8595 -0.0184461 55.374 0.356671 54.3259C0.731788 53.2888 2.0447 53.7743 2.0447 53.7743C2.0447 53.7743 -0.0184245 52.1855 0.820073 50.9278C1.65857 49.67 4.20716 51.3691 5.45387 53.7743C6.72265 56.1794 3.23626 58.9156 3.23626 58.9156Z" fill="#F4BF98"/>
<path d="M34.4592 59.2907H4.12991C4.12991 59.2907 2.80595 58.1654 2.90525 57.5034C3.00454 56.8414 2.80596 53.5426 2.80596 53.5426C2.80596 53.5426 2.33154 54.2929 2.24328 53.6419C2.14398 52.9799 3.36862 47.8055 3.36862 47.8055C3.36862 47.8055 2.5191 48.5558 2.5191 47.9048C2.5191 47.2429 4.59328 42.8187 4.59328 42.8187C4.59328 42.8187 3.84304 43.2931 3.84304 42.6311C3.84304 41.9692 5.81791 38.0194 5.81791 38.0194C5.15594 37.545 6.94328 34.9081 6.94328 34.9081L28.9869 31.0466C28.9869 31.0466 34.1172 38.5821 33.5545 44.3302L32.8926 44.0433C32.8926 44.0433 34.5916 47.949 34.4923 51.8656L33.8303 51.5788C34.6799 53.5757 34.8012 55.3961 34.724 57.2276L34.062 56.9407C34.3709 57.6799 34.5475 58.2647 34.4592 59.2907Z" fill="#EA8C3F"/>
<path d="M20.3372 48.644C18.3072 47.276 18.3072 45.3452 18.3072 45.3452L18.0203 46.0513C18.0203 46.0513 16.895 44.6391 16.895 42.9842L16.3764 43.6903C16.3764 43.6903 12.2833 40.7225 12.7025 36.9492L26.1736 37.0485C26.1736 37.0485 25.7985 41.0093 24.6621 42.6973L24.1877 42.0354C24.1877 42.0354 24.1436 43.6351 23.3382 44.6281L22.9631 44.1095C22.9631 44.1095 22.7755 46.0403 22.2569 46.7464L21.8377 46.3271C21.4957 47.5187 20.9882 48.2579 20.3372 48.644Z" fill="#F4BF98"/>
<path d="M15.3394 45.1576C15.9572 46.3271 17.0936 48.986 17.4798 49.9348C17.8549 50.8726 19.7415 56.3449 19.7415 56.3449C19.7415 56.3449 14.3244 57.5254 14.2692 56.6869C13.3755 54.6569 6.81101 43.1165 6.99857 38.4496C7.06477 37.0374 13.0777 40.8768 15.3394 45.1576Z" fill="#F9A55A"/>
<path d="M31.2929 45.4114C31.1164 46.272 29.5387 56.4002 29.5387 56.4002C29.5387 56.4002 24.4636 57.8344 24.607 56.9959C25.2579 53.3661 25.3462 45.8307 25.4234 44.8708C25.5558 43.1607 29.6269 36.9051 31.315 37.9422C32.2969 38.56 31.3701 45.0253 31.2929 45.4114Z" fill="#F9A55A"/>
<path d="M18.4064 38.8469C11.2791 38.6263 8.36646 35.7908 8.36646 35.7908C8.36646 35.7908 7.42868 36.4087 7.10873 36.2321C6.0606 35.6474 5.78478 33.0436 5.78478 33.0436C5.78478 33.0436 4.65942 33.5511 4.52702 33.2974C4.40566 33.0436 4.27326 31.8521 4.27326 31.8521C4.27326 31.8521 3.57819 32.7347 3.33547 32.4148C3.08171 32.1058 3.77678 29.6565 3.77678 29.6565C3.77678 29.6565 3.33547 29.8441 3.14791 29.469C2.96036 29.0939 4.52702 26.0157 4.52702 26.0157C4.52702 26.0157 3.6444 26.3908 3.45684 26.0819C3.26928 25.773 5.0235 22.75 5.0235 22.75C5.0235 22.75 4.27326 22.9375 4.27326 22.3749C4.27326 21.8122 6.84392 17.9838 6.84392 17.9838L15.7585 11.8937C15.7585 11.8937 16.266 12.7101 16.5087 12.6439C16.7625 12.5777 16.7625 11.4523 17.0714 11.3199C17.3803 11.1986 18.1967 11.8826 18.1967 11.8826C18.1967 11.8826 19.0794 10.3711 19.5207 10.316C19.962 10.2498 19.7744 11.1324 19.7744 11.1324C19.7744 11.1324 21.0322 10.2498 21.5287 10.2498C22.0362 10.2498 21.7824 11.1324 21.7824 11.1324C21.7824 11.1324 23.0402 10.8786 23.2939 10.9448C23.5477 11.011 23.2939 12.015 23.2939 12.015C23.2939 12.015 25.997 12.5225 27.6298 13.1404C29.2627 13.7692 31.4031 15.711 31.5906 16.2185C31.7782 16.726 31.0831 17.035 31.0831 17.035C31.0831 17.035 32.3409 18.5465 32.5946 19.1091C32.8484 19.6718 32.2195 19.6167 32.2195 19.6167C32.2195 19.6167 33.2235 20.6868 33.5986 21.3157C33.9737 21.9446 33.7861 22.4411 33.7861 22.4411C33.7861 22.4411 34.7239 24.3277 34.7239 24.6366C34.7239 24.9455 34.1613 24.5704 34.1613 24.5704C34.1613 24.5704 35.4852 27.1411 35.3528 27.7148C35.2315 28.2774 34.7901 27.9023 34.7901 27.9023C34.7901 27.9023 35.0439 30.1641 34.7239 30.2854C34.415 30.4068 34.0951 29.9765 34.0951 29.9765C34.0951 29.9765 33.5876 32.4258 33.1573 32.8671C32.716 33.3084 32.5284 32.6796 32.5284 32.6796C32.5284 32.6796 30.8183 37.7326 29.4503 35.9453C28.5897 37.0596 26.3831 39.0896 18.4064 38.8469Z" fill="#F9A55A"/>
<path d="M18.4064 38.8469C11.2791 38.6263 8.36646 35.7908 8.36646 35.7908C8.36646 35.7908 7.42868 36.4087 7.10873 36.2321C6.0606 35.6474 5.78478 33.0436 5.78478 33.0436C5.78478 33.0436 4.65942 33.5511 4.52702 33.2974C4.40566 33.0436 4.27326 31.8521 4.27326 31.8521C4.27326 31.8521 3.57819 32.7347 3.33547 32.4148C3.08171 32.1058 3.77678 29.6565 3.77678 29.6565C3.77678 29.6565 3.33547 29.8441 3.14791 29.469C2.96036 29.0939 4.52702 26.0157 4.52702 26.0157C4.52702 26.0157 3.6444 26.3908 3.45684 26.0819C3.26928 25.773 5.0235 22.75 5.0235 22.75C5.0235 22.75 4.27326 22.9375 4.27326 22.3749C4.27326 21.8122 6.84392 17.9838 6.84392 17.9838L15.7585 11.8937C15.7585 11.8937 16.266 12.7101 16.5087 12.6439C16.7625 12.5777 16.7625 11.4523 17.0714 11.3199C17.3803 11.1986 18.1967 11.8826 18.1967 11.8826C18.1967 11.8826 19.0794 10.3711 19.5207 10.316C19.962 10.2498 19.7744 11.1324 19.7744 11.1324C19.7744 11.1324 21.0322 10.2498 21.5287 10.2498C22.0362 10.2498 21.7824 11.1324 21.7824 11.1324C21.7824 11.1324 23.0402 10.8786 23.2939 10.9448C23.5477 11.011 23.2939 12.015 23.2939 12.015C23.2939 12.015 25.997 12.5225 27.6298 13.1404C29.2627 13.7692 31.4031 15.711 31.5906 16.2185C31.7782 16.726 31.0831 17.035 31.0831 17.035C31.0831 17.035 32.3409 18.5465 32.5946 19.1091C32.8484 19.6718 32.2195 19.6167 32.2195 19.6167C32.2195 19.6167 33.2235 20.6868 33.5986 21.3157C33.9737 21.9446 33.7861 22.4411 33.7861 22.4411C33.7861 22.4411 34.7239 24.3277 34.7239 24.6366C34.7239 24.9455 34.1613 24.5704 34.1613 24.5704C34.1613 24.5704 35.4852 27.1411 35.3528 27.7148C35.2315 28.2774 34.7901 27.9023 34.7901 27.9023C34.7901 27.9023 35.0439 30.1641 34.7239 30.2854C34.415 30.4068 34.0951 29.9765 34.0951 29.9765C34.0951 29.9765 33.5876 32.4258 33.1573 32.8671C32.716 33.3084 32.5284 32.6796 32.5284 32.6796C32.5284 32.6796 30.8183 37.7326 29.4503 35.9453C28.5897 37.0596 26.3831 39.0896 18.4064 38.8469Z" fill="#FFE3C5"/>
<path d="M34.1834 24.5593C34.1834 24.5593 34.746 24.9344 34.746 24.6255C34.746 24.3166 33.8082 22.43 33.8082 22.43C33.8082 22.43 33.9958 21.9225 33.6207 21.3046C33.2455 20.6758 32.2416 19.6056 32.2416 19.6056C32.2416 19.6056 32.8704 19.6718 32.6167 19.0981C32.3629 18.5354 31.1052 17.0239 31.1052 17.0239C31.1052 17.0239 31.8003 16.715 31.6127 16.2075C31.5134 15.9537 30.9397 15.3469 30.1784 14.718C30.0791 15.0049 29.7371 15.1704 29.7371 15.1704C29.7371 15.1704 30.8514 16.6267 31.0721 17.1673C31.2928 17.7079 30.7411 17.6528 30.7411 17.6528C30.7411 17.6528 31.6237 18.6788 31.9657 19.2856C32.2967 19.8924 32.1312 20.3779 32.1312 20.3779C32.1312 20.3779 32.9587 22.1873 32.9587 22.4962C32.9587 22.7941 32.4622 22.441 32.4622 22.441C32.4622 22.441 33.6317 24.9234 33.5214 25.464C33.4111 26.0046 33.0249 25.6405 33.0249 25.6405C33.0249 25.6405 33.2456 27.814 32.9697 27.9354C32.6939 28.0567 32.4181 27.6375 32.4181 27.6375C32.4181 27.6375 31.9768 29.9985 31.5906 30.4178C31.2045 30.837 31.039 30.2412 31.039 30.2412C31.039 30.2412 29.5275 35.1067 28.3139 33.3856C27.5416 34.4779 25.5888 36.4307 18.5388 36.199C12.239 35.9783 9.66835 33.2532 9.66835 33.2532C9.66835 33.2532 8.84088 33.849 8.55403 33.6725C7.62727 33.1098 7.38456 30.6053 7.38456 30.6053C7.38456 30.6053 6.38056 31.0908 6.27023 30.848C6.1599 30.6053 6.04957 29.4579 6.04957 29.4579C6.04957 29.4579 5.44277 30.3074 5.22211 29.9985C5.00145 29.7006 5.60826 27.3396 5.60826 27.3396C5.60826 27.3396 5.22211 27.5161 5.05662 27.1631C4.89112 26.799 6.28127 23.8312 6.28127 23.8312C6.28127 23.8312 5.50896 24.1952 5.33244 23.8863C5.16694 23.5884 6.72259 20.6758 6.72259 20.6758C6.72259 20.6758 6.06062 20.8523 6.06062 20.3117C6.06062 20.0028 6.78877 18.6898 7.42868 17.5976L6.8991 17.9617C6.8991 17.9617 4.32844 21.7901 4.32844 22.3528C4.32844 22.9154 5.07868 22.7279 5.07868 22.7279C5.07868 22.7279 3.32446 25.7398 3.51202 26.0598C3.69957 26.3687 4.5822 25.9936 4.5822 25.9936C4.5822 25.9936 3.01553 29.0718 3.20309 29.4469C3.39065 29.822 3.83196 29.6344 3.83196 29.6344C3.83196 29.6344 3.13689 32.0837 3.39064 32.3926C3.6444 32.7016 4.32844 31.83 4.32844 31.83C4.32844 31.83 4.4498 33.0215 4.5822 33.2753C4.70356 33.529 5.83996 33.0215 5.83996 33.0215C5.83996 33.0215 6.10475 35.6253 7.1639 36.21C7.48385 36.3865 8.42164 35.7687 8.42164 35.7687C8.42164 35.7687 11.3343 38.6041 18.4615 38.8248C26.4383 39.0786 28.6449 37.0375 29.5275 35.9121C30.8956 37.6995 32.6056 32.6464 32.6056 32.6464C32.6056 32.6464 32.7932 33.2753 33.2345 32.834C33.6758 32.3926 34.1723 29.9434 34.1723 29.9434C34.1723 29.9434 34.4813 30.3847 34.8012 30.2523C35.1101 30.1309 34.8674 27.8692 34.8674 27.8692C34.8674 27.8692 35.3087 28.2443 35.4301 27.6816C35.4963 27.13 34.1834 24.5593 34.1834 24.5593Z" fill="#F4BF98"/>
<path d="M19.0466 17.2111C19.2893 15.1369 19.2341 13.1289 18.5942 11.3085C18.3846 11.6174 18.2301 11.8712 18.2301 11.8712C18.2301 11.8712 17.4137 11.1761 17.1048 11.3085C16.7959 11.4299 16.7959 12.5663 16.5421 12.6325C16.2884 12.6987 15.7919 11.8822 15.7919 11.8822L6.87734 17.9724C6.87734 17.9724 4.30668 21.8008 4.30668 22.3634C4.30668 22.9261 5.05692 22.7386 5.05692 22.7386C5.05692 22.7386 3.98674 24.57 3.60059 25.5299C3.88744 25.7174 4.19635 25.8829 4.50527 26.0263C4.53837 26.0153 4.5494 26.0043 4.5494 26.0043C4.5494 26.0043 4.53837 26.0153 4.52734 26.0374C4.99071 26.247 5.46514 26.4125 5.97265 26.5339C11.2022 27.8137 18.2853 23.897 19.0466 17.2111Z" fill="#F9A55A"/>
<path d="M34.2939 23.9742C34.3601 23.9521 34.4263 23.9411 34.5035 23.919C34.2277 23.2681 33.8085 22.4296 33.8085 22.4296C33.8085 22.4296 33.996 21.9221 33.6209 21.3042C33.2458 20.6754 32.2418 19.6052 32.2418 19.6052C32.2418 19.6052 32.8707 19.6714 32.6169 19.0977C32.3632 18.535 31.1054 17.0235 31.1054 17.0235C31.1054 17.0235 31.8005 16.7146 31.6129 16.2071C31.4254 15.6995 29.285 13.7578 27.6521 13.1289C26.0193 12.5 23.3162 12.0035 23.3162 12.0035C23.3162 12.0035 23.57 10.9995 23.3162 10.9334C23.0625 10.8672 21.8047 11.1209 21.8047 11.1209C21.8047 11.1209 22.0585 10.2383 21.551 10.2383H21.5399C21.4848 11.5843 18.539 28.4535 34.2939 23.9742Z" fill="#F9A55A"/>
<path d="M0.764893 6.09023C0.764893 6.46534 5.01254 10.6799 5.01254 10.6799C5.01254 10.6799 7.11982 15.8984 7.05362 18.2705L15.8468 12.1804C11.3785 5.7813 0.764893 5.71511 0.764893 6.09023Z" fill="#F9A55A"/>
<path d="M33.4883 0.000161241C29.6599 0.441475 22.4334 7.65696 22.312 11.4964L30.1012 14.7621C29.6599 8.98091 33.9406 -0.0439702 33.4883 0.000161241Z" fill="#F9A55A"/>
<path d="M19.9953 27.1631C18.0976 27.0748 16.4979 25.5854 16.3986 25.3647C16.2772 25.122 16.4537 24.6255 16.531 24.4269C16.5641 24.3387 16.6744 24.2945 16.7627 24.3276C16.862 24.3718 16.9061 24.4821 16.873 24.5704C16.7737 24.8352 16.7075 25.1441 16.7296 25.2213C16.873 25.453 18.5279 26.8873 20.3152 26.799C22.0915 26.7107 23.7685 25.5192 23.9781 25.2654C23.9781 25.1772 23.8789 24.9124 23.7575 24.6917C23.7134 24.6035 23.7465 24.4931 23.8347 24.449C23.923 24.4049 24.0333 24.438 24.0774 24.5373C24.1767 24.7138 24.3864 25.1551 24.3312 25.3868C24.254 25.7067 22.3232 27.0748 20.3594 27.1741C20.227 27.1631 20.1166 27.1631 19.9953 27.1631Z" fill="#683838"/>
<path d="M20.3372 27.0196C20.3372 27.0196 20.3262 27.0196 20.3372 27.0196C20.2269 27.0196 20.1497 26.9313 20.1497 26.832L20.1938 24.0076C20.1938 23.9083 20.282 23.8311 20.3813 23.8311C20.4806 23.8311 20.5689 23.9193 20.5579 24.0186L20.5137 26.843C20.5137 26.9423 20.4365 27.0196 20.3372 27.0196Z" fill="#683838"/>
<path d="M20.3372 24.2945C19.4877 24.1952 18.605 23.6767 18.6712 23.434C18.7374 23.1802 22.1356 23.0699 22.3783 23.3788C22.632 23.6877 20.8337 24.3497 20.3372 24.2945Z" fill="#683838"/>
<path d="M14.1147 20.4881C14.2251 21.5804 14.3354 22.5071 14.9312 22.5071C15.5269 22.5071 15.5269 19.9475 15.5269 19.9475L14.1147 20.4881Z" fill="#683838"/>
<path d="M27.2658 20.0359C27.1665 21.1943 27.0782 22.1762 26.5486 22.1762C26.019 22.1762 26.019 19.4622 26.019 19.4622L27.2658 20.0359Z" fill="#683838"/>
<path d="M12.217 37.7767C16.0344 41.5168 24.949 41.1638 27.3321 37.5891C24.0332 38.9682 19.7966 39.6523 12.217 37.7767Z" fill="#B2344C"/>
<path d="M20.646 40.1709H19.7083V41.55H20.646V40.1709Z" fill="#B2344C"/>
<path d="M22.2128 43.1386C22.2239 42.0684 21.3412 41.1968 20.249 41.1968C19.1567 41.1968 18.2631 42.0684 18.2521 43.1386C18.241 44.2087 19.1236 45.0803 20.2159 45.0803C21.3192 45.0803 22.2128 44.2087 22.2128 43.1386Z" fill="#F29E38"/>
<path d="M11.9523 59.2908H2.59644C2.59644 59.2908 3.67767 56.0692 6.13799 55.5948C10.4077 54.7894 11.9523 59.2908 11.9523 59.2908Z" fill="#F4BF98"/>
<path d="M31.6901 59.2907H38.365C38.365 59.2907 36.4453 56.3891 34.5366 55.9698C31.1936 55.2306 31.6901 59.2907 31.6901 59.2907Z" fill="#F4BF98"/>
<path d="M25.5779 19.6498C27.3542 20.6869 28.8215 20.4442 28.8215 20.4442L25.6551 18.6348L25.5779 19.6498Z" fill="#FFE3C5"/>
<path d="M16.0343 19.738C13.9822 21.1392 12.3494 21.2716 12.3494 21.2716L15.8137 18.8223L16.0343 19.738Z" fill="#FFE3C5"/>
<path d="M19.1345 56.2678C18.2188 56.2126 16.4866 56.1134 15.3171 56.1575C14.6662 56.1795 14.0815 56.676 13.9491 57.3601C13.7836 58.2537 13.6401 59.3018 13.6401 59.3018H21.5507C21.1094 58.1875 20.657 57.4483 20.326 56.996C20.0392 56.5657 19.5869 56.3009 19.1345 56.2678Z" fill="#FFE3C5"/>
<path d="M25.335 56.3118C26.1735 56.2566 27.7732 56.1573 28.8655 56.2014C29.4723 56.2235 30.0901 56.7089 30.3108 57.3819C30.5976 58.2646 30.8845 59.2906 30.8845 59.2906H23.5366C23.7793 58.1873 24.0883 57.4702 24.32 57.0179C24.5406 56.6096 24.9268 56.3449 25.335 56.3118Z" fill="#FFE3C5"/>
<path d="M21.8817 43.1386C21.8927 42.245 21.1535 41.5278 20.2488 41.5278C19.3441 41.5278 18.5939 42.245 18.5939 43.1386C18.5828 44.0323 19.322 44.7494 20.2267 44.7494C21.1314 44.7494 21.8817 44.0323 21.8817 43.1386Z" fill="#FFCA45"/>
<path d="M19.951 43.3482C19.5317 43.5357 19.1235 43.6792 18.7263 43.7895C18.7925 43.944 18.8808 44.0763 18.9911 44.1977C20.0503 44.1536 21.0212 43.9329 21.8045 43.613C21.8486 43.4585 21.8817 43.3041 21.8817 43.1275C21.8817 42.8407 21.8155 42.5759 21.6831 42.3552C21.1977 42.7193 20.6019 43.0613 19.951 43.3482Z" fill="#FFEA80"/>
<path d="M29.318 13.7913L23.8567 11.0882C23.8567 11.0882 28.678 3.07838 31.69 2.20679C30.2226 6.46547 29.4172 9.98495 29.318 13.7913Z" fill="#E06332"/>
<path d="M2.62939 7.30381L6.20403 10.5144L8.03549 16.2846L13.9932 12.3458C8.03549 6.84043 2.62939 7.30381 2.62939 7.30381Z" fill="#E06332"/>
<path d="M7.09769 9.1022C9.02844 10.4703 10.3745 12.3348 11.0254 14.3097L13.9932 12.3459C8.75262 7.51347 3.9423 7.28178 2.86108 7.29282C4.31742 7.55761 5.77375 8.15338 7.09769 9.1022Z" fill="#CC512B"/>
<path d="M27.7402 13.0079L29.3179 13.7912C29.4172 10.1835 30.1454 6.84053 31.4693 2.85767C30.1343 4.64499 28.998 7.02809 28.3139 9.7532C28.0271 10.8675 27.8395 11.9487 27.7402 13.0079Z" fill="#CC512B"/>
<path d="M13.7395 55.2857C11.1468 52.6488 9.7346 51.1373 9.7346 51.1373L10.5842 50.9939L8.84095 48.5888L9.64636 48.7763L8.46582 46.1836L9.83391 46.3712L13.7395 55.2857Z" fill="#F9A55A"/>
<path d="M29.373 54.9988C31.1824 52.362 32.1423 50.8505 32.1423 50.8505L31.2707 50.707L32.3078 48.3019L31.5686 48.4894L31.9106 44.3962L30.7191 46.0953L29.373 54.9988Z" fill="#F9A55A"/>
</svg>
