<svg width="53" height="30" viewBox="0 0 53 30" fill="none" xmlns="http://www.w3.org/2000/svg">
<path d="M28.8435 13.9304C27.0161 10.4188 27.4014 3.09826 30.0985 1.49105C30.4507 1.28189 33.522 8.08501 34.5348 9.84634L28.8435 13.9304Z" fill="#F9A55A"/>
<path d="M12.331 25.7974C9.22667 23.4967 10.0303 19.7869 10.0303 19.7869L11.0651 20.4033C11.0651 20.4033 10.0743 18.3338 10.8339 16.3633C10.8339 16.3633 11.4503 17.1119 12.0998 17.0678C12.0998 17.0678 11.2522 13.8204 12.287 12.5544C12.287 12.5544 14.4336 14.2167 15.2482 13.9635C15.2482 13.9635 14.7308 12.4113 15.3913 11.3325C15.3913 11.3325 17.3178 12.6535 18.2094 13.6773L18.1104 12.5544C18.1104 12.5544 19.4754 12.8847 20.6533 13.5892L20.6092 12.9728C20.6092 12.9728 22.4917 13.5342 23.2402 14.1506L23.009 13.303C23.009 13.303 26.3446 13.4021 29.4929 14.9983L32.4982 16.2642L34.4687 29.7494H15.5674L12.331 25.7974Z" fill="#F49140"/>
<path d="M24.7812 28.3184C19.2881 28.3184 14.3344 27.1846 10.8337 25.3572C11.186 25.8085 11.6704 26.2488 12.3309 26.6341L15.5783 29.7495H34.4685L33.9842 27.1625C31.2541 27.9001 28.1168 28.3184 24.7812 28.3184Z" fill="#EA7C32"/>
<path d="M26.8069 13.9525C24.6933 13.347 22.998 13.303 22.998 13.303L23.2292 14.1506C22.4806 13.5342 20.5982 12.9728 20.5982 12.9728L20.6422 13.5892C19.4643 12.8847 18.0993 12.5544 18.0993 12.5544L18.1984 13.6773C17.3067 12.6425 15.3803 11.3325 15.3803 11.3325C14.7198 12.4113 15.2372 13.9635 15.2372 13.9635C14.4226 14.2167 12.2759 12.5544 12.2759 12.5544C11.2412 13.8204 12.0888 17.0678 12.0888 17.0678C11.4283 17.1119 10.8228 16.3633 10.8228 16.3633C10.0743 18.3338 11.054 20.4034 11.054 20.4034L10.0192 19.7869C10.0192 19.7869 9.46882 22.3298 11.043 24.5204C17.9672 28.5054 25.9262 16.9467 26.8069 13.9525Z" fill="#F9A55A"/>
<path d="M23.2291 14.1506C22.4806 13.5342 20.5982 12.9728 20.5982 12.9728L20.6422 13.5892C19.4643 12.8847 18.0993 12.5544 18.0993 12.5544L18.1983 13.6773C17.3067 12.6425 15.3802 11.3325 15.3802 11.3325C14.7197 12.4113 15.2371 13.9635 15.2371 13.9635C14.4225 14.2167 12.2759 12.5544 12.2759 12.5544C11.2411 13.8204 12.0887 17.0678 12.0887 17.0678C11.4283 17.1119 10.8228 16.3633 10.8228 16.3633C10.0742 18.3338 11.054 20.4033 11.054 20.4033C11.6704 17.5082 20.5871 13.7103 23.2291 14.1506Z" fill="#FFD0A9"/>
<path d="M52.8856 29.7496H34.4797C34.4797 29.7496 37.0557 23.8051 42.0314 23.8491C46.732 23.8932 53.9864 25.1481 52.8856 29.7496Z" fill="#EA7C32"/>
<path d="M49.0437 24.8728C46.7429 26.1277 44.7835 28.1202 44.4092 29.7495H52.8856C53.48 27.2506 51.6196 25.7425 49.0437 24.8728Z" fill="#F49140"/>
<path d="M45.5762 29.5624C45.5762 29.6285 45.5872 29.6945 45.5982 29.7496H52.8857C53.1279 28.7478 52.9737 27.9112 52.5334 27.2066C51.6858 27.0085 50.7391 26.9094 49.7373 26.9094C48.9887 26.9094 48.2732 26.9645 47.6127 27.0856C46.4018 27.2727 45.4881 28.3405 45.5762 29.5624Z" fill="#F4BF98"/>
<path d="M15.9528 29.7496H0.673331C0.673331 29.7496 -0.724721 28.0213 0.508207 26.5903C1.74113 25.1702 6.44167 24.972 7.24528 25.0711C8.04888 25.1702 8.37913 25.4564 8.98459 25.4014C9.92029 25.3023 10.3056 23.0016 11.8027 23.3758C17.571 24.8179 15.9528 29.7496 15.9528 29.7496Z" fill="#F9A55A"/>
<path d="M14.1145 24.3552C13.6741 27.4155 10.6799 28.8356 6.67285 29.7493H15.9528C15.9528 29.7493 17.0757 26.3257 14.1145 24.3552Z" fill="#F49140"/>
<path d="M8.96278 25.4121C8.96278 25.4121 8.96278 25.4011 8.96278 25.4121C8.94076 25.4121 8.91875 25.4121 8.89673 25.4121C8.91875 25.4121 8.94076 25.4121 8.96278 25.4121Z" fill="#FFD0A9"/>
<path d="M3.1169 28.6926C3.1169 26.8763 5.57175 25.4012 8.58802 25.4012C8.63206 25.4012 8.66508 25.4012 8.70911 25.4012C8.26878 25.3681 7.92753 25.148 7.25602 25.0709C6.45242 24.9718 1.75188 25.17 0.518949 26.5901C-0.713979 28.0101 0.684073 29.7494 0.684073 29.7494H3.41413C3.21598 29.4192 3.1169 29.0669 3.1169 28.6926Z" fill="#FFD0A9"/>
<path d="M39.6316 11.894C38.1014 8.25029 39.0041 1.66733 41.8442 0.00508375C42.2185 -0.215082 46.0164 6.76417 46.5668 11.5528L39.6316 11.894Z" fill="#F9A55A"/>
<path d="M41.7672 0.434501C41.448 0.621642 40.3472 5.49831 41.2168 9.08701L46.0495 11.0025C45.1248 6.16982 42.0865 0.24736 41.7672 0.434501Z" fill="#E06332"/>
<path d="M46.0493 11.0133C45.2457 6.83012 42.8679 1.84337 42.0312 0.6875C42.7028 1.79934 43.1871 4.50738 43.1871 7.68877C43.1871 8.43733 43.1651 9.16388 43.1101 9.84639L46.0493 11.0133Z" fill="#CC512B"/>
<path d="M30.1864 2.43794C29.9772 2.55903 28.2049 8.95484 30.0432 12.9729L34.1493 10.1437C33.4338 8.67963 30.3735 2.32785 30.1864 2.43794Z" fill="#E06332"/>
<path d="M31.2875 9.93436C31.2875 10.7049 31.2654 11.4425 31.2214 12.136L34.1386 10.1215C33.4341 8.6684 30.3738 2.31662 30.1866 2.42671C30.1756 2.43771 30.1536 2.45973 30.1316 2.51477C30.7921 3.43947 31.2875 6.41171 31.2875 9.93436Z" fill="#CC512B"/>
<path d="M42.1745 27.878C45.1357 27.1735 46.3136 25.203 46.3136 25.203V26.1937C46.3136 26.1937 48.0529 25.203 48.4712 24.0801L48.8895 24.6966C48.8895 24.6966 50.2986 22.627 50.3426 20.8877L51.0031 21.262C51.0031 21.262 50.9591 19.1044 50.3426 17.8274L51.4655 18.2457C51.4655 18.2457 50.7169 15.1854 47.9428 12.3673C45.1687 9.5492 40.6553 8.51442 39.2023 8.51442C39.2023 8.51442 38.1675 7.85392 37.7932 7.953C37.4189 8.05207 38.0794 8.80063 38.0794 8.80063C38.0794 8.80063 36.4392 8.14014 36.0099 8.28325C35.5915 8.42635 36.0539 9.60424 36.0539 9.60424C36.0539 9.60424 34.4687 8.45938 34.0063 8.64652C33.533 8.83366 33.9733 9.76937 33.9733 9.76937C33.9733 9.76937 29.526 12.9287 28.9645 13.0719C28.4031 13.215 28.1169 13.6333 28.1169 13.9635C28.1169 14.2938 28.9205 15.1854 28.6783 15.3726C28.4472 15.5597 27.5004 15.2295 27.5004 15.6588C27.5004 16.0771 28.8655 17.1669 28.5352 17.5412C28.205 17.9155 26.2785 17.3541 26.1905 17.6843C26.0914 18.0146 28.1609 19.941 28.1609 20.1722C28.1609 20.4034 26.3776 19.886 26.3776 20.1722C26.3776 20.4584 29.1957 22.0106 29.2398 22.3849C29.2838 22.7591 27.4014 22.3849 27.5004 22.7151C27.5995 23.0454 31.8707 24.4544 31.8707 24.4544C31.8707 24.4544 31.0231 24.6416 31.2102 24.9718C31.3974 25.3021 34.7769 25.5883 34.7769 25.5883C34.7769 25.5883 33.599 26.0066 33.8412 26.2047C34.0724 26.3919 36.2851 26.3478 36.2851 26.3478C36.2851 26.3478 35.3934 26.8652 35.5365 27.0524C35.6025 27.1294 36.3181 27.1514 37.1217 27.1514C37.573 27.1514 38.0024 27.5257 37.9473 27.9771C37.9473 28.0211 37.9473 28.0541 37.9803 28.0872C38.2776 28.4394 41.2608 28.0982 42.1745 27.878Z" fill="#FFE3C5"/>
<path d="M26.3997 20.1282C26.3887 20.1392 26.3777 20.1502 26.3777 20.1722C26.3777 20.2713 26.7189 20.5245 27.1703 20.8217C26.9061 20.5905 26.6419 20.3593 26.3997 20.1282Z" fill="#F4BF98"/>
<path d="M39.4666 24.8069C35.5036 24.8069 31.8819 23.8161 29.0968 22.1649C29.1848 22.253 29.2509 22.319 29.2509 22.3741C29.2949 22.7483 27.4125 22.3741 27.5116 22.7043C27.6107 23.0346 31.8819 24.4436 31.8819 24.4436C31.8819 24.4436 31.0342 24.6308 31.2214 24.961C31.4085 25.2913 34.7881 25.5775 34.7881 25.5775C34.7881 25.5775 33.6102 25.9958 33.8524 26.1939C34.0835 26.3811 36.2962 26.337 36.2962 26.337C36.2962 26.337 35.4045 26.8544 35.5476 27.0416C35.6137 27.1186 36.3292 27.1406 37.1328 27.1406C37.5842 27.1406 38.0135 27.5149 37.9585 27.9663C37.9585 28.0103 37.9585 28.0433 37.9915 28.0764C38.2777 28.4506 41.2609 28.1094 42.1746 27.8892C45.1359 27.1847 46.3137 25.2142 46.3137 25.2142V26.2049C46.3137 26.2049 48.0531 25.2142 48.4714 24.0914L48.8897 24.7078C48.8897 24.7078 49.7814 23.3978 50.1666 21.9888C47.3485 23.7281 43.5947 24.8069 39.4666 24.8069Z" fill="#F4BF98"/>
<path d="M47.9538 12.3675C45.2898 9.65951 41.0296 8.60271 39.4004 8.51465C39.4885 8.77885 39.5435 9.08708 39.7306 9.36228C43.4735 14.8444 47.1722 15.9122 49.0877 18.6863C49.495 19.2697 50.2876 19.3468 50.849 19.578C50.7499 18.9725 50.5958 18.323 50.3536 17.8056L51.4765 18.224C51.4765 18.246 50.7279 15.1857 47.9538 12.3675Z" fill="#F9A55A"/>
<path d="M35.9329 8.33838C35.6687 8.61359 36.065 9.59332 36.065 9.59332C36.065 9.59332 34.4798 8.44846 34.0175 8.6356C33.5441 8.82274 33.7973 9.60433 33.7973 9.60433C33.7973 9.60433 29.5041 12.6316 28.9427 12.7637C28.3813 12.9068 28.1281 13.6224 28.1281 13.9526C28.1281 14.2829 28.9317 15.1745 28.6895 15.3617C28.4583 15.5488 27.5116 15.2186 27.5116 15.6479C27.5116 16.0662 28.8766 17.156 28.5464 17.5303C28.2161 17.9046 26.2897 17.3432 26.2016 17.6734C26.1025 18.0037 27.9409 20.1393 28.1721 20.1613C32.3222 20.6016 41.0738 19.1815 41.9104 15.6479C42.3948 13.6003 38.8391 10.54 35.9329 8.33838Z" fill="#F9A55A"/>
<path d="M37.0777 16.3743C36.9236 16.3743 36.8025 16.2532 36.8025 16.0991C36.8025 15.945 36.9236 15.8239 37.0777 15.8239C38.4097 15.8239 40.6224 15.3065 40.6444 15.2955C40.7875 15.2625 40.9416 15.3505 40.9746 15.5046C41.0077 15.6477 40.9196 15.8019 40.7655 15.8349C40.6884 15.8569 38.4757 16.3743 37.0777 16.3743Z" fill="#683838"/>
<path d="M48.8013 15.824H48.7903C48.7243 15.824 47.1501 15.747 46.1483 15.3727C46.0052 15.3176 45.9392 15.1635 45.9832 15.0204C46.0383 14.8773 46.1924 14.8113 46.3355 14.8553C47.2492 15.2075 48.7903 15.2736 48.8123 15.2736C48.9665 15.2846 49.0875 15.4057 49.0765 15.5598C49.0655 15.7029 48.9444 15.824 48.8013 15.824Z" fill="#683838"/>
<path d="M45.7411 21.7684C44.277 21.7684 40.8204 21.262 40.1929 20.8658C39.5324 20.4474 39.1251 19.3796 39.0811 19.2585C39.026 19.1154 39.1031 18.9613 39.2462 18.9063C39.3893 18.8512 39.5434 18.9283 39.5985 19.0714C39.7086 19.3576 40.0718 20.1392 40.4901 20.4034C41.0185 20.7337 44.8935 21.2951 46.0273 21.207C47.0511 21.1189 47.9868 19.919 47.9868 19.908C48.0749 19.7869 48.251 19.7649 48.3721 19.853C48.4932 19.9411 48.5152 20.1172 48.4271 20.2383C48.3831 20.2933 47.3373 21.6583 46.0713 21.7574C45.9723 21.7684 45.8622 21.7684 45.7411 21.7684Z" fill="#683838"/>
<path d="M44.7286 21.7022C44.6405 21.7022 44.5634 21.6582 44.5084 21.5922C44.4203 21.4711 44.4424 21.2949 44.5634 21.2069C45.8734 20.2381 45.8294 18.0475 45.8294 18.0255C45.8294 17.8714 45.9505 17.7503 46.0936 17.7393C46.2477 17.7393 46.3688 17.8603 46.3798 18.0035C46.3798 18.1025 46.4238 20.5133 44.8937 21.6472C44.8386 21.6802 44.7836 21.7022 44.7286 21.7022Z" fill="#683838"/>
<path d="M46.2367 18.3666C45.312 18.3666 43.6497 17.8823 43.7158 17.541C43.7818 17.1997 47.4586 17.3539 47.5907 17.607C47.7338 17.8492 46.611 18.3666 46.2367 18.3666Z" fill="#995844"/>
<path d="M38.8943 29.7495H25.7835C23.3617 29.7495 22.47 26.5021 24.5946 25.3242C25.6404 24.7407 26.8513 24.3665 28.2273 24.4105C33.5553 24.5976 38.7072 25.5113 38.8943 29.7495Z" fill="#F9A55A"/>
<path d="M26.3778 24.2234C25.1229 24.4986 24.0551 25.1481 23.1744 25.9077C21.6443 27.2397 22.602 29.7495 24.6275 29.7495H32.8067C28.9428 28.8469 24.5064 29.023 26.3778 24.2234Z" fill="#F49140"/>
<path d="M28.8213 29.7496H38.8939C38.8939 29.7386 38.8939 29.7276 38.8939 29.7276C38.8278 28.4396 37.8151 27.3828 36.5271 27.2287C36.0427 27.1736 35.5253 27.1406 34.9969 27.1406C31.8045 27.1406 29.1625 28.2855 28.8213 29.7496Z" fill="#FFD0A9"/>
<path d="M24.9908 24.7078C23.5487 25.1481 22.646 26.5572 22.646 26.5572C22.646 26.5572 22.7341 25.2362 23.5267 24.7739C24.3633 24.2785 24.9908 24.7078 24.9908 24.7078Z" fill="#EA7C32"/>
</svg>
