<svg width="21" height="15" viewBox="0 0 21 15" fill="none" xmlns="http://www.w3.org/2000/svg">
<path d="M20.3563 9.16428C20.5463 9.35322 20.653 9.61033 20.6527 9.87854C20.6516 10.1464 20.5452 10.4028 20.3563 10.5928C19.7642 11.1831 18.8056 11.1831 18.2135 10.5928H17.1421V8.09287H18.2135L18.3921 7.9143C18.8981 7.4054 19.7063 7.35897 20.267 7.80716L20.2813 7.81789C20.6716 8.13143 20.7341 8.70213 20.4202 9.09284C20.4002 9.11749 20.3787 9.14141 20.3563 9.16428Z" fill="#E5E5E5"/>
<path d="M17.1424 8.09281V10.5927C17.1424 10.7899 16.9824 10.9499 16.7853 10.9499H16.4246C15.911 10.9481 15.4135 11.1291 15.0211 11.4606C12.3044 13.7412 8.872 14.9941 5.32495 14.9998V14.9926C8.10345 14.8712 10.3248 11.5642 10.3248 7.50005C10.3248 3.43592 8.10345 0.1288 5.32495 0.00738397V0.000244141C9.80335 0.000244141 13.589 4.75367 15.0139 6.80713C15.416 7.38856 16.0781 7.73566 16.7853 7.73566C16.9824 7.73566 17.1424 7.89568 17.1424 8.09281Z" fill="#811600"/>
<path d="M5.3248 0.00741212C8.1033 0.128828 10.3246 3.43587 10.3246 7.5C10.3246 11.5641 8.1033 14.8712 5.3248 14.9926C5.27015 14.9987 5.21553 15.0008 5.16051 14.9997C2.31062 14.9997 0 11.6427 0 7.5C0 3.35729 2.31062 0.000272283 5.16055 0.000272283C5.21553 -0.000816832 5.27019 0.00132114 5.3248 0.00741212ZM8.89613 7.5C8.89613 4.21083 7.1855 1.42879 5.16055 1.42879C3.1356 1.42879 1.42852 4.21083 1.42852 7.5C1.42852 10.7892 3.13915 13.5712 5.16051 13.5712C7.18187 13.5712 8.89613 10.7892 8.89613 7.5Z" fill="#A11C00"/>
<path d="M5.1605 1.42871C7.18545 1.42871 8.89609 4.21075 8.89609 7.49992C8.89609 10.7891 7.18545 13.5711 5.1605 13.5711C3.13555 13.5711 1.42847 10.7891 1.42847 7.49992C1.42847 4.21075 3.13914 1.42871 5.1605 1.42871ZM5.6819 7.49992C5.6819 6.90708 5.36049 6.42852 4.96765 6.42852C4.5748 6.42852 4.25339 6.90708 4.25339 7.49992C4.25339 8.09276 4.5748 8.57133 4.96765 8.57133C5.36049 8.57133 5.6819 8.09276 5.6819 7.49992Z" fill="#FF7671"/>
<path d="M4.96755 8.57153C5.36203 8.57153 5.68181 8.09184 5.68181 7.50012C5.68181 6.9084 5.36203 6.42871 4.96755 6.42871C4.57308 6.42871 4.2533 6.9084 4.2533 7.50012C4.2533 8.09184 4.57308 8.57153 4.96755 8.57153Z" fill="#811600"/>
<path d="M11.4722 11.4584L10.7961 11.227C11.0765 10.3999 11.259 9.54282 11.3397 8.67318C11.3765 8.30498 11.395 7.91072 11.395 7.5H12.1093C12.1093 7.93464 12.0893 8.35282 12.0504 8.74244C11.9643 9.66742 11.7704 10.5788 11.4722 11.4584Z" fill="#FF7671"/>
<path d="M10.7687 13.0506L10.1431 12.706C10.2824 12.4539 10.4045 12.206 10.5066 11.9692L11.1623 12.2524C11.0512 12.5096 10.9188 12.7785 10.7687 13.0506Z" fill="#FF7671"/>
</svg>
